<svg width="24" height="24" viewBox="0 0 24 24" fill="none" xmlns="http://www.w3.org/2000/svg">
<path d="M21.7097 8.70968C22.9597 7.45968 22.3897 5.99968 21.7097 5.28968L18.7097 2.28968C17.4497 1.03968 15.9997 1.60968 15.2897 2.28968L13.5897 3.99968H10.9997C9.09969 3.99968 7.99968 4.99968 7.43968 6.14968L2.99968 10.5897V14.5897L2.28968 15.2897C1.03968 16.5497 1.60968 17.9997 2.28968 18.7097L5.28968 21.7097C5.82968 22.2497 6.40968 22.4497 6.95968 22.4497C7.66968 22.4497 8.31968 22.0997 8.70968 21.7097L11.4097 18.9997H14.9997C16.6997 18.9997 17.5597 17.9397 17.8697 16.8997C18.9997 16.5997 19.6197 15.7397 19.8697 14.8997C21.4197 14.4997 21.9997 13.0297 21.9997 11.9997V8.99968H21.4097L21.7097 8.70968ZM19.9997 11.9997C19.9997 12.4497 19.8097 12.9997 18.9997 12.9997H17.9997V13.9997C17.9997 14.4497 17.8097 14.9997 16.9997 14.9997H15.9997V15.9997C15.9997 16.4497 15.8097 16.9997 14.9997 16.9997H10.5897L7.30968 20.2797C6.99968 20.5697 6.81968 20.3997 6.70968 20.2897L3.71968 17.3097C3.42968 16.9997 3.59968 16.8197 3.70968 16.7097L4.99968 15.4097V11.4097L6.99968 9.40968V10.9997C6.99968 12.2097 7.79969 13.9997 9.99969 13.9997C12.1997 13.9997 12.9997 12.2097 12.9997 10.9997H19.9997V11.9997ZM20.2897 7.28968L18.5897 8.99968H10.9997V10.9997C10.9997 11.4497 10.8097 11.9997 9.99969 11.9997C9.18969 11.9997 8.99968 11.4497 8.99968 10.9997V7.99968C8.99968 7.53968 9.16969 5.99968 10.9997 5.99968H14.4097L16.6897 3.71968C16.9997 3.42968 17.1797 3.59968 17.2897 3.70968L20.2797 6.68968C20.5697 6.99968 20.3997 7.17968 20.2897 7.28968Z" fill="#1E1E1E"/>
</svg>
