<svg width="630" height="388" viewBox="0 0 630 388" fill="none" xmlns="http://www.w3.org/2000/svg">
<path opacity="0.15" d="M196.225 0C204.016 0.746537 211.886 1.02413 219.581 2.33663C234.713 4.91852 249.148 9.73732 262.774 17.0006C278.754 25.5197 292.679 36.5722 304.33 50.3602C312.625 60.1784 319.592 70.9614 324.481 82.9168C327.33 89.8782 330.114 96.9123 332.211 104.124C333.846 109.746 334.628 115.659 335.331 121.5C336.078 127.701 336.617 133.967 336.644 140.209C336.679 147.968 335.94 155.714 334.076 163.289C332.555 169.467 331.294 175.733 329.311 181.762C325.519 193.275 320.131 204.104 314.091 214.606C306.834 227.227 298.444 239.091 289.394 250.456C280.128 262.094 270.682 273.604 260.918 284.824C248.421 299.183 235.029 312.702 220.993 325.579C217.265 328.999 213.773 332.67 210.158 336.211C206.407 339.882 201.645 341.421 196.643 341.865C191.382 342.332 186.884 339.96 183.17 336.424C174.761 328.414 166.293 320.453 158.235 312.096C146.773 300.205 135.287 288.303 124.501 275.809C113.621 263.204 103.315 250.076 93.2568 236.8C83.789 224.303 75.6283 210.909 69.055 196.63C65.1282 188.098 61.8294 179.322 59.9186 170.084C58.811 164.737 57.3718 159.43 56.7034 154.029C55.6362 145.418 54.6336 136.767 56.0458 128.051C57.1804 121.041 57.6844 113.902 59.2206 106.989C60.676 100.446 62.7862 93.9936 65.2037 87.7302C68.5833 78.9685 72.9413 70.6353 78.1509 62.7953C86.2172 50.6594 95.9788 40.0812 107.549 31.1848C119.248 22.1886 131.861 14.796 145.762 9.79122C151.691 7.65672 157.825 6.09088 163.889 4.33907C174.438 1.29094 185.267 0.487808 196.225 0.0026936V0ZM105.476 71.6945C105.393 71.9316 105.309 72.1661 105.226 72.4033C105.552 72.8291 105.819 73.325 106.215 73.6673C108.317 75.4784 110.438 77.2679 112.578 79.0332C130.427 93.7753 148.261 108.539 166.145 123.238C174.839 130.385 183.628 137.419 192.393 144.48C195.883 147.291 196.19 147.281 199.677 144.451C206.695 138.756 213.681 133.018 220.704 127.329C227.127 122.128 233.649 117.047 240.009 111.768C249.434 103.941 258.718 95.9448 268.13 88.1021C273.657 83.4962 279.328 79.0601 284.904 74.5108C285.712 73.8505 286.356 72.9881 287.475 71.7942C285.987 71.5651 285.238 71.3711 284.483 71.3468C280.562 71.2336 276.641 71.0908 272.719 71.0881C222.426 71.0611 172.136 71.0342 121.843 71.0719C116.386 71.0773 110.931 71.4762 105.474 71.6918L105.476 71.6945ZM222.195 159.209C221.79 159.492 221.553 159.64 221.338 159.815C215.206 164.807 209.086 169.812 202.946 174.792C198.252 178.6 194.516 178.859 190.466 175.614C184.299 170.674 178.136 165.726 172.042 160.694C170.646 159.541 169.689 159.349 168.223 160.651C150.495 176.398 132.715 192.092 114.933 207.78C113.915 208.677 114.117 209.378 114.893 210.3C118.132 214.148 121.973 216.291 127.266 216.253C149.312 216.102 171.357 216.234 193.403 216.205C217.804 216.172 242.206 216.075 266.607 216.005C270.835 215.994 274.533 215.078 276.994 211.084C278.411 208.782 278.686 208.782 276.611 206.96C266.602 198.169 256.568 189.407 246.553 180.624C238.473 173.536 230.407 166.429 222.2 159.212L222.195 159.209ZM100.342 188.133C117.989 173.259 135.098 158.837 152.486 144.181C133.446 128.253 114.745 112.614 95.9411 96.8827C95.7066 97.3193 95.5233 97.5403 95.464 97.7936C94.2 103.092 92.6396 108.345 91.7799 113.708C90.7584 120.087 90.0146 126.553 89.7585 133.002C89.5402 138.53 90.0658 144.098 90.4808 149.631C90.7935 153.808 91.1303 158.031 92.0278 162.109C93.3861 168.275 95.1298 174.366 96.9355 180.422C97.6632 182.864 98.9919 185.125 100.345 188.13L100.342 188.133ZM239.721 144.596C257.182 159.115 274.11 173.188 291.391 187.553C299.662 170.472 302.772 152.784 302.81 134.517C302.837 121.871 301.247 109.393 296.846 96.8557C277.651 112.897 258.891 128.574 239.721 144.596Z" fill="#49159B"/>
<path d="M452.555 387.153H618.898C618.898 387.153 599.548 352.619 579.318 365.048C559.089 377.478 565.811 329.312 523.309 334.923C480.811 340.537 496.019 386.8 465.81 375.718C435.598 364.633 433.525 387.151 433.525 387.151H452.555V387.153Z" fill="#FDD109"/>
<path d="M619.127 387.288H433.377L433.39 387.14C433.399 387.061 434.18 379.337 440.775 375.171C446.607 371.484 455.045 371.627 465.855 375.591C480.425 380.938 484.381 372.769 489.391 362.428C494.733 351.403 501.379 337.685 523.293 334.79C533.941 333.386 542.439 335.187 549.273 340.304C555.157 344.708 558.787 350.756 561.989 356.09C565.129 361.321 567.842 365.838 571.718 366.786C573.893 367.317 576.356 366.711 579.248 364.935C583.568 362.28 588.19 361.566 592.985 362.814C607.369 366.557 618.898 386.881 619.014 387.086L619.127 387.285V387.288ZM433.676 387.018H618.664C617.424 384.889 606.423 366.59 592.918 363.075C588.196 361.846 583.644 362.55 579.388 365.164C576.432 366.98 573.901 367.598 571.653 367.048C567.667 366.075 564.929 361.512 561.757 356.23C558.566 350.915 554.952 344.894 549.112 340.52C542.336 335.448 533.903 333.661 523.328 335.06C501.557 337.936 494.946 351.583 489.634 362.55C485.672 370.729 482.36 377.564 474.032 377.567C471.706 377.567 468.992 377.033 465.764 375.85C455.037 371.915 446.68 371.764 440.923 375.402C434.943 379.181 433.822 385.943 433.679 387.024L433.676 387.018Z" fill="#FDD109"/>
<path d="M223.499 386.418H77.0078V300.682L77.0671 300.642L150.255 250.217L150.33 250.271L223.499 300.685V386.421V386.418ZM77.2773 386.148H223.229V300.825L150.252 250.546L77.2746 300.825V386.148H77.2773Z" fill="#49159B"/>
<path d="M150.411 240.782L150.088 241.247L150.475 241.516L150.798 241.051L150.411 240.782Z" fill="#49159B"/>
<path d="M227.607 295.108L226.85 294.583L227.173 294.117L227.93 294.642L227.607 295.108ZM222.465 291.535L221.707 291.009L222.031 290.543L222.788 291.068L222.465 291.535ZM217.322 287.964L216.565 287.438L216.889 286.972L217.646 287.497L217.322 287.964ZM212.18 284.39L211.423 283.864L211.746 283.398L212.504 283.924L212.18 284.39ZM207.041 280.816L206.283 280.291L206.607 279.825L207.364 280.35L207.041 280.816ZM201.899 277.245L201.141 276.72L201.465 276.254L202.222 276.779L201.899 277.245ZM196.756 273.672L195.999 273.146L196.322 272.68L197.08 273.205L196.756 273.672ZM191.614 270.098L190.857 269.573L191.18 269.106L191.938 269.632L191.614 270.098ZM186.472 266.527L185.715 266.002L186.038 265.535L186.795 266.061L186.472 266.527ZM181.33 262.953L180.572 262.428L180.896 261.962L181.653 262.487L181.33 262.953ZM176.187 259.382L175.43 258.857L175.754 258.391L176.511 258.916L176.187 259.382ZM171.045 255.809L170.288 255.283L170.611 254.817L171.369 255.342L171.045 255.809ZM165.903 252.235L165.146 251.71L165.469 251.243L166.226 251.769L165.903 252.235ZM160.761 248.664L160.004 248.139L160.327 247.672L161.084 248.198L160.761 248.664ZM155.619 245.09L154.861 244.565L155.185 244.099L155.942 244.624L155.619 245.09Z" fill="#49159B"/>
<path d="M232.828 298.666H232.259V298.34L231.992 298.157L232.318 297.69L232.828 298.043V298.666Z" fill="#49159B"/>
<path d="M232.828 380.817H232.262V379.887H232.828V380.817ZM232.828 374.497H232.262V373.567H232.828V374.497ZM232.828 368.177H232.262V367.247H232.828V368.177ZM232.828 361.86H232.262V360.93H232.828V361.86ZM232.828 355.54H232.262V354.61H232.828V355.54ZM232.828 349.22H232.262V348.29H232.828V349.22ZM232.828 342.9H232.262V341.97H232.828V342.9ZM232.828 336.58H232.262V335.65H232.828V336.58ZM232.828 330.263H232.262V329.333H232.828V330.263ZM232.828 323.943H232.262V323.013H232.828V323.943ZM232.828 317.623H232.262V316.693H232.828V317.623ZM232.828 311.303H232.262V310.373H232.828V311.303ZM232.828 304.985H232.262V304.056H232.828V304.985Z" fill="#49159B"/>
<path d="M232.824 386.208H232.258V386.68H232.824V386.208Z" fill="#49159B"/>
<path d="M569.327 204.592C569.327 204.592 536.871 213.035 526.883 249.184C516.892 285.336 508.182 227.012 491.413 250.588C474.644 274.162 498.436 330.77 471.189 327.84C443.942 324.913 450.434 382.518 450.434 382.518C450.434 382.518 544.438 329.204 569.33 204.589L569.327 204.592Z" fill="#49159B"/>
<path d="M450.432 382.52C450.432 382.52 520.409 314 542.862 245.122C565.315 176.244 593.114 208.722 568.956 242.271C544.797 275.819 590.646 248.319 577.823 273.566C564.999 298.814 527.247 311.173 549.969 313.354C572.691 315.534 584.806 339.585 557.725 351.262C530.645 362.94 490.308 366.01 500.695 376.432C511.082 386.856 464.608 390.147 450.432 382.52Z" fill="#49159B"/>
<path d="M294.118 387.151H512.269C512.269 387.151 511.029 340.857 476.427 351.309C441.822 361.76 429.592 304.937 429.748 280.787C429.902 256.634 399.558 228.147 362.245 249.667C324.931 271.187 340.568 328.317 294.121 313.61C247.674 298.9 251.081 366.717 216.398 352.78C181.717 338.847 168.711 387.927 168.711 387.927L294.121 387.153L294.118 387.151Z" fill="#49159B"/>
<path d="M502.915 173.159V369.509C502.915 379.804 494.568 388.154 484.271 388.154H405.922C395.627 388.154 387.277 379.804 387.277 369.509V173.159C387.277 162.861 395.627 154.515 405.922 154.515H484.271C494.568 154.515 502.915 162.861 502.915 173.159Z" fill="white"/>
<path d="M484.271 388.288H405.922C395.567 388.288 387.143 379.864 387.143 369.509V173.159C387.143 162.805 395.567 154.38 405.922 154.38H484.271C494.625 154.38 503.05 162.805 503.05 173.159V369.509C503.05 379.864 494.625 388.288 484.271 388.288ZM405.922 154.649C395.716 154.649 387.412 162.953 387.412 173.159V369.509C387.412 379.715 395.716 388.019 405.922 388.019H484.271C494.477 388.019 502.78 379.715 502.78 369.509V173.159C502.78 162.953 494.477 154.649 484.271 154.649H405.922Z" fill="#5B71A8"/>
<path d="M485.113 158.336H405.074C397.355 158.336 391.098 164.594 391.098 172.313V370.352C391.098 378.071 397.355 384.329 405.074 384.329H485.113C492.832 384.329 499.089 378.071 499.089 370.352V172.313C499.089 164.594 492.832 158.336 485.113 158.336Z" fill="#FDD109"/>
<path d="M485.114 384.464H405.078C397.298 384.464 390.967 378.133 390.967 370.353V172.316C390.967 164.535 397.298 158.204 405.078 158.204H485.114C492.895 158.204 499.225 164.535 499.225 172.316V370.353C499.225 378.133 492.895 384.464 485.114 384.464ZM405.078 158.471C397.446 158.471 391.236 164.68 391.236 172.313V370.35C391.236 377.982 397.446 384.192 405.078 384.192H485.114C492.746 384.192 498.956 377.982 498.956 370.35V172.313C498.956 164.68 492.746 158.471 485.114 158.471H405.078Z" fill="#FDD109"/>
<path d="M242.21 332.362L241.717 332.143C241.717 332.143 242.223 331.003 243.178 329.214L243.652 329.467C242.709 331.238 242.213 332.351 242.207 332.362H242.21ZM246.352 324.807L245.894 324.522C246.471 323.603 247.069 322.686 247.676 321.802L248.12 322.107C247.519 322.986 246.924 323.894 246.352 324.807ZM251.317 317.779L250.896 317.442C251.581 316.585 252.284 315.747 252.985 314.952L253.389 315.307C252.691 316.097 251.993 316.93 251.317 317.779ZM257.122 311.451L256.753 311.057C257.556 310.305 258.378 309.58 259.194 308.907L259.537 309.324C258.728 309.99 257.914 310.707 257.119 311.451H257.122ZM263.87 306.187L263.585 305.732C264.517 305.147 265.469 304.605 266.412 304.123L266.657 304.602C265.727 305.077 264.789 305.61 263.87 306.187ZM297.505 303.298C297.367 303.298 297.23 303.298 297.09 303.298L297.095 302.759C298.198 302.77 299.273 302.735 300.3 302.654L300.343 303.19C299.429 303.263 298.475 303.298 297.508 303.298H297.505ZM291.684 302.913C290.646 302.783 289.565 302.619 288.474 302.422L288.568 301.891C289.651 302.085 290.721 302.247 291.751 302.376L291.684 302.91V302.913ZM271.594 302.573L271.433 302.058C272.473 301.732 273.538 301.465 274.591 301.261L274.694 301.789C273.659 301.991 272.616 302.252 271.594 302.573ZM305.687 302.271L305.542 301.751C306.582 301.463 307.595 301.104 308.549 300.689L308.765 301.182C307.787 301.608 306.752 301.975 305.687 302.269V302.271ZM283.186 301.473C282.124 301.35 281.049 301.288 279.99 301.285V300.746C281.068 300.746 282.165 300.813 283.248 300.937L283.186 301.473ZM313.441 298.406L313.109 297.981C313.929 297.345 314.729 296.63 315.489 295.854L315.875 296.232C315.098 297.024 314.279 297.757 313.441 298.406ZM319.295 292.019L318.85 291.715C319.427 290.874 319.987 289.984 320.567 288.998L321.03 289.27C320.445 290.27 319.877 291.167 319.292 292.019H319.295ZM323.585 284.503L323.103 284.263C323.515 283.438 323.949 282.541 324.518 281.357L325.003 281.589C324.434 282.775 323.998 283.675 323.585 284.503Z" fill="#49159B"/>
<path d="M505.425 168.914L506.398 171.095H487.26L481.242 154.512H483.218C492.812 154.512 501.512 160.153 505.425 168.914Z" fill="#FDD109"/>
<path d="M506.604 171.229H487.165L487.132 171.14L481.047 154.377H483.214C492.849 154.377 501.613 160.061 505.545 168.858L506.604 171.227V171.229ZM487.353 170.96H506.189L505.3 168.968C501.414 160.268 492.744 154.646 483.216 154.646H481.432L487.353 170.96Z" fill="#FDD109"/>
<path d="M506.398 171.095C506.398 171.095 499.762 184.977 487.26 171.095H506.398Z" fill="#DAEAEE"/>
<path d="M497.77 177.4C494.441 177.4 490.878 175.314 487.159 171.186L486.957 170.962H506.612L506.521 171.156C506.494 171.21 503.863 176.605 498.896 177.322C498.524 177.376 498.15 177.403 497.772 177.403L497.77 177.4ZM487.563 171.229C491.563 175.597 495.36 177.557 498.853 177.053C503.149 176.433 505.658 172.191 506.176 171.229H487.563Z" fill="#7EA8AF"/>
<path d="M481.243 154.514H464.264L468.894 171.094H487.261L481.243 154.514Z" fill="#49159B"/>
<path d="M487.454 171.229H468.793L468.767 171.13L464.088 154.377H481.336L481.369 154.466L487.454 171.229ZM468.998 170.96H487.069L481.148 154.646H464.444L468.998 170.96Z" fill="#49159B"/>
<path d="M487.26 171.094C487.26 171.094 480.468 183.82 468.893 171.094H487.26Z" fill="#49159B"/>
<path d="M478.793 176.885C475.597 176.885 472.239 174.972 468.795 171.185L468.59 170.959H487.485L487.38 171.158C487.353 171.21 484.626 176.22 479.777 176.826C479.451 176.867 479.125 176.888 478.796 176.888L478.793 176.885ZM469.199 171.228C472.862 175.179 476.408 176.972 479.739 176.557C483.906 176.037 486.469 172.156 487.024 171.228H469.199Z" fill="#49159B"/>
<path d="M464.262 154.514L468.892 171.094H449.754V154.514H464.262Z" fill="#FDD109"/>
<path d="M469.07 171.229H449.619V154.377H464.364L464.391 154.477L469.07 171.229ZM449.889 170.96H468.714L464.159 154.646H449.889V170.96Z" fill="#FDD109"/>
<path d="M468.894 171.095C468.894 171.095 462.258 184.977 449.756 171.095H468.894Z" fill="#DAEAEE"/>
<path d="M460.266 177.4C456.937 177.4 453.374 175.314 449.655 171.186L449.453 170.962H469.108L469.017 171.156C468.99 171.21 466.359 176.605 461.392 177.322C461.02 177.376 460.646 177.403 460.268 177.403L460.266 177.4ZM450.06 171.229C454.062 175.597 457.862 177.557 461.352 177.053C465.648 176.43 468.157 172.191 468.674 171.229H450.062H450.06Z" fill="#7EA8AF"/>
<path d="M449.758 154.514H433.859V171.096H449.758V154.514Z" fill="#49159B"/>
<path d="M449.89 171.229H433.725V154.377H449.89V171.229ZM433.994 170.96H449.62V154.646H433.994V170.96Z" fill="#49159B"/>
<path d="M449.754 171.094C449.754 171.094 441.574 183.435 433.855 171.094H449.754Z" fill="#49159B"/>
<path d="M441.407 176.713C441.381 176.713 441.354 176.713 441.327 176.713C438.575 176.675 436.023 174.81 433.743 171.167L433.613 170.959H450.005L449.867 171.169C449.83 171.226 446.137 176.713 441.407 176.713ZM434.104 171.228C436.298 174.654 438.729 176.408 441.329 176.443C441.356 176.443 441.383 176.443 441.407 176.443C445.469 176.443 448.77 172.226 449.495 171.228H434.104Z" fill="#49159B"/>
<path d="M378.772 167.615L377.217 171.095H396.355L402.373 154.512H398.974C390.245 154.512 382.332 159.643 378.769 167.615H378.772Z" fill="#DAEAEE"/>
<path d="M396.449 171.23H377.01L378.648 167.562C382.225 159.554 390.205 154.38 398.975 154.38H402.564L402.5 154.56L396.449 171.23ZM377.425 170.96H396.261L402.182 154.647H398.975C390.31 154.647 382.427 159.759 378.894 167.669L377.425 170.96Z" fill="#7EA8AF"/>
<path d="M377.217 171.094C377.217 171.094 383.852 184.976 396.355 171.094H377.217Z" fill="#DAEAEE"/>
<path d="M385.844 177.4C385.466 177.4 385.092 177.373 384.72 177.319C379.753 176.602 377.12 171.207 377.096 171.153L377.004 170.959H396.659L396.457 171.183C392.738 175.312 389.175 177.398 385.846 177.398L385.844 177.4ZM377.438 171.228C377.955 172.191 380.464 176.433 384.76 177.053C388.253 177.557 392.051 175.597 396.05 171.228H377.438Z" fill="#7EA8AF"/>
<path d="M402.374 154.515H419.353L414.722 171.095H396.355L402.374 154.515Z" fill="#D63636"/>
<path d="M414.825 171.23H396.164L396.229 171.049L402.279 154.38H419.528L419.479 154.55L414.822 171.23H414.825ZM396.547 170.96H414.617L419.172 154.647H402.468L396.547 170.96Z" fill="#7EA8AF"/>
<path d="M396.354 171.095C396.354 171.095 403.145 183.821 414.72 171.095H396.354Z" fill="#D63636"/>
<path d="M404.82 176.886C404.491 176.886 404.165 176.867 403.839 176.824C398.988 176.221 396.263 171.208 396.236 171.156L396.131 170.957H415.026L414.821 171.183C411.377 174.97 408.016 176.884 404.822 176.884L404.82 176.886ZM396.589 171.229C397.147 172.156 399.71 176.04 403.877 176.557C407.208 176.972 410.754 175.18 414.417 171.229H396.592H396.589Z" fill="#7EA8AF"/>
<path d="M419.351 154.515L414.721 171.095H433.858V154.515H419.351Z" fill="#FDD109"/>
<path d="M433.993 171.23H414.543L414.591 171.06L419.249 154.38H433.993V171.232V171.23ZM414.899 170.96H433.724V154.647H419.453L414.899 170.96Z" fill="#FDD109"/>
<path d="M414.721 171.094C414.721 171.094 421.356 184.976 433.858 171.094H414.721Z" fill="#DAEAEE"/>
<path d="M423.348 177.4C422.97 177.4 422.596 177.373 422.224 177.319C417.257 176.602 414.624 171.207 414.599 171.153L414.508 170.959H434.163L433.961 171.183C430.242 175.312 426.679 177.398 423.35 177.398L423.348 177.4ZM414.942 171.228C415.459 172.191 417.968 176.433 422.264 177.053C425.754 177.557 429.552 175.597 433.554 171.228H414.942Z" fill="#7EA8AF"/>
<path d="M318.664 101.381C334.015 101.381 339.713 100.902 338.422 97.0638C337.131 93.226 335.153 90.6657 331.266 91.9459C327.38 93.226 328.819 83.1491 322.885 82.0307C316.95 80.9122 314.689 89.2265 312.231 87.6283C309.773 86.0302 302.836 85.1246 301.971 91.6548C301.106 98.185 295.007 91.3071 292.233 94.1855C289.46 97.0638 287.196 101.381 318.664 101.381Z" fill="#FDD109"/>
<path d="M443.625 133.138C450.622 133.138 453.217 132.919 452.63 131.17C452.042 129.421 451.139 128.254 449.369 128.839C447.598 129.424 448.253 124.831 445.55 124.319C442.847 123.807 441.814 127.599 440.696 126.869C439.577 126.141 436.416 125.729 436.02 128.704C435.626 131.679 432.845 128.545 431.581 129.858C430.317 131.17 429.288 133.138 443.625 133.138Z" fill="#FDD109"/>
<path d="M439.596 60.2268C459.246 60.2268 466.539 59.6124 464.887 54.6992C463.235 49.7861 460.702 46.5116 455.727 48.1475C450.751 49.7861 452.595 36.8875 445 35.4537C437.405 34.0199 434.508 44.6654 431.363 42.6199C428.218 40.5716 419.338 39.4154 418.23 47.7729C417.122 56.1303 409.315 47.3282 405.765 51.0124C402.216 54.6965 399.319 60.2241 439.596 60.2241V60.2268Z" fill="#49159B"/>
<path d="M439.597 60.3619C417.074 60.3619 405.399 58.6559 403.906 55.1469C403.283 53.6835 404.447 52.1904 405.668 50.921C407.234 49.2932 409.557 49.9993 411.802 50.6785C413.646 51.2364 415.384 51.7646 416.583 50.9938C417.381 50.479 417.877 49.4199 418.098 47.757C418.481 44.8598 419.869 42.7819 422.108 41.7524C425.375 40.2512 429.606 41.3158 431.439 42.507C432.689 43.3209 433.956 41.9087 435.557 40.1219C437.807 37.6127 440.61 34.4891 445.027 35.3219C449.137 36.0981 450.547 40.2027 451.679 43.4988C452.684 46.4283 453.479 48.7434 455.686 48.0184C461.413 46.1346 463.753 50.9022 465.017 54.6537C465.388 55.7614 465.318 56.6508 464.798 57.3731C462.963 59.928 455.541 60.3565 439.599 60.3565L439.597 60.3619ZM408.188 50.1988C407.307 50.1988 406.506 50.4359 405.86 51.107C404.701 52.3117 403.59 53.7185 404.151 55.0391C405.577 58.3918 417.5 60.0897 439.594 60.0897C455.441 60.0897 462.807 59.6747 464.575 57.2167C465.041 56.5699 465.1 55.7587 464.758 54.74C462.782 48.8728 460.012 46.8757 455.767 48.2745C453.309 49.0857 452.433 46.5361 451.42 43.5877C450.253 40.1865 448.93 36.3326 444.973 35.586C440.707 34.7802 437.961 37.8418 435.753 40.3024C434.064 42.1863 432.732 43.674 431.288 42.7334C429.506 41.5745 425.391 40.5369 422.216 41.9976C420.036 43.0002 418.737 44.9514 418.362 47.792C418.13 49.5385 417.597 50.6596 416.726 51.2202C415.422 52.0611 413.624 51.514 411.721 50.9372C410.517 50.5707 409.29 50.1988 408.188 50.1988Z" fill="#49159B"/>
<path d="M324.792 103.683C330.265 103.683 332.297 103.513 331.836 102.144C331.376 100.775 330.669 99.8636 329.284 100.319C327.899 100.775 328.411 97.182 326.295 96.7832C324.18 96.3843 323.374 99.3489 322.495 98.7802C321.619 98.2089 319.145 97.8881 318.838 100.217C318.531 102.545 316.353 100.093 315.364 101.12C314.375 102.146 313.569 103.685 324.789 103.685L324.792 103.683Z" fill="#49159B"/>
<path d="M324.792 103.818C316.375 103.818 315.036 102.955 314.758 102.306C314.562 101.842 314.928 101.376 315.268 101.023C315.745 100.527 316.451 100.74 317.073 100.931C317.564 101.08 318.027 101.22 318.324 101.031C318.521 100.904 318.645 100.632 318.701 100.198C318.812 99.3575 319.219 98.7511 319.874 98.4492C320.828 98.0099 322.022 98.3118 322.566 98.6675C322.83 98.84 323.113 98.5489 323.587 98.0207C324.197 97.3415 325.029 96.409 326.315 96.6516C327.517 96.878 327.918 98.0503 328.242 98.9936C328.544 99.8695 328.735 100.355 329.236 100.193C330.913 99.6404 331.592 101.018 331.958 102.104C332.072 102.441 332.047 102.724 331.886 102.95C331.347 103.702 329.35 103.823 324.787 103.823L324.792 103.818ZM316.044 100.985C315.82 100.985 315.623 101.045 315.464 101.209C315.163 101.522 314.874 101.883 315.009 102.198C315.27 102.813 317.181 103.546 324.792 103.546C329.083 103.546 331.209 103.432 331.673 102.786C331.783 102.629 331.797 102.438 331.71 102.185C331.182 100.613 330.446 100.077 329.328 100.444C328.552 100.7 328.282 99.9099 327.994 99.0772C327.679 98.1555 327.317 97.1098 326.272 96.913C325.134 96.6974 324.391 97.5302 323.795 98.1959C323.313 98.7322 322.897 99.1984 322.426 98.8885C321.946 98.5786 320.844 98.2983 319.992 98.6891C319.418 98.9532 319.073 99.4706 318.973 100.228C318.906 100.745 318.742 101.08 318.475 101.252C318.073 101.511 317.529 101.344 317.001 101.185C316.661 101.082 316.332 100.983 316.047 100.983L316.044 100.985Z" fill="#49159B"/>
<path d="M374.255 314.99H301.318V387.927H374.255V314.99Z" fill="#FDD109" stroke="#3121A3" stroke-width="6" stroke-miterlimit="10"/>
<path d="M376.497 314.99H298.822V324.612H376.497V314.99Z" fill="#FDD109" stroke="#3121A3" stroke-width="6" stroke-miterlimit="10"/>
<path opacity="0.66" d="M301.318 324.608H374.253V342.663L301.318 329.953V324.608Z" fill="white"/>
<path opacity="0.15" d="M321.51 342.663H301.318V387.927H321.51V342.663Z" fill="#191E4C"/>
<path d="M314.671 346.7H261.344V387.927H314.671V346.7Z" fill="#FDD109" stroke="#3121A3" stroke-width="6" stroke-miterlimit="10"/>
<path d="M316.317 346.7H259.523V352.139H316.317V346.7Z" fill="#FDD109" stroke="#3121A3" stroke-width="6" stroke-miterlimit="10"/>
<path opacity="0.53" d="M261.344 352.139H314.674V362.342L261.344 355.16V352.139Z" fill="white"/>
<path d="M497.914 110.473L504.035 122.555L544.66 77.5469L497.914 110.473Z" fill="#FDD109"/>
<path d="M504.001 122.788L497.74 110.426L545.567 76.7402L504.001 122.786V122.788ZM498.085 110.515L504.063 122.317L543.751 78.3492L498.085 110.512V110.515Z" fill="#FDD109"/>
<path d="M504.766 114.268L544.658 77.5449L528.79 123.445L504.766 114.268Z" fill="#49159B"/>
<path d="M528.874 123.621L504.516 114.317L504.675 114.169L544.961 77.085L528.871 123.621H528.874ZM505.017 114.22L528.709 123.268L544.357 78.0067L505.017 114.22Z" fill="#49159B"/>
<path d="M504.766 114.27L504.033 122.554L509.847 116.21L504.766 114.27Z" fill="#292260"/>
<path d="M503.863 122.936L504.648 114.077L510.078 116.152L503.863 122.936ZM504.885 114.457L504.2 122.168L509.612 116.263L504.885 114.457Z" fill="#292260"/>
<path d="M544.658 77.5449L497.912 110.471L479.879 102.189L544.658 77.5449Z" fill="#49159B"/>
<path d="M497.926 110.625L497.856 110.593L479.529 102.179L479.831 102.066L545.613 77.0391L497.926 110.625ZM480.227 102.203L497.899 110.318L543.705 78.0551L480.227 102.206V102.203Z" fill="#49159B"/>
<path d="M426.286 248.836C426.286 248.836 423.092 251.014 423.744 249.925C424.396 248.836 425.485 247.31 425.485 247.31C425.485 247.31 423.264 249.299 422.561 248.742C421.857 248.181 425.269 246.294 425.269 246.294C425.269 246.294 422.229 248.181 422.442 247.456C422.655 246.731 425.051 245.278 425.051 245.278C425.051 245.278 427.377 242.767 425.051 239.522C422.728 236.277 428.97 237.657 428.97 237.657L426.283 248.836H426.286Z" fill="url(#paint0_linear_1056_662)"/>
<path d="M425.66 232.542C425.66 232.542 419.246 244.263 420.987 244.117C422.731 243.972 422.782 238.746 425.66 239.616C428.539 240.487 424.671 251.232 425.66 251.523C426.649 251.814 430.425 243.392 431.153 235.261L429.7 231.485L425.66 232.542Z" fill="url(#paint1_linear_1056_662)"/>
<path d="M395.156 378.788C395.156 378.788 400.762 382.513 404.497 381.27C408.233 380.028 409.634 386.237 409.634 386.237H386.516V378.788H395.156Z" fill="url(#paint2_linear_1056_662)"/>
<path d="M386.518 387.73H409.637V386.24H386.518V387.73Z" fill="url(#paint3_linear_1056_662)"/>
<path d="M374.533 378.788C374.533 378.788 368.927 382.513 365.191 381.27C361.456 380.028 360.055 386.237 360.055 386.237H383.173V378.788H374.533Z" fill="url(#paint4_linear_1056_662)"/>
<path d="M383.173 386.237H360.055V387.728H383.173V386.237Z" fill="url(#paint5_linear_1056_662)"/>
<path d="M354.777 227.64C354.777 227.64 361.965 219.256 371.764 217.622C381.566 215.989 396.809 224.155 396.809 224.155L418.48 214.682C418.48 214.682 413.713 161.964 413.492 161.128C413.271 160.293 391.6 129.741 391.6 129.741L368.824 153.264L357.291 166.251C357.291 166.251 336.809 202.705 354.777 227.64Z" fill="url(#paint6_linear_1056_662)"/>
<path d="M366.102 194.97C366.102 194.97 360.391 216.641 361.83 250.944C363.269 285.247 373.508 379.335 373.508 379.335H384.407C384.407 379.335 393.818 285.46 385.242 229.491V194.972H366.105L366.102 194.97Z" fill="url(#paint7_linear_1056_662)"/>
<path d="M403.571 194.97C403.571 194.97 409.282 216.641 407.843 250.944C406.403 285.247 396.165 379.335 396.165 379.335H385.266C385.266 379.335 375.855 285.46 384.43 229.491V194.972H403.568L403.571 194.97Z" fill="url(#paint8_linear_1056_662)"/>
<path d="M413.8 115.258C413.8 115.258 430.243 139.543 433.183 187.567C436.124 235.59 433.183 235.264 433.183 235.264L424.144 231.998L410.396 150.652L413.8 115.261V115.258Z" fill="#FDD109"/>
<path opacity="0.35" d="M413.487 137.083C413.487 137.083 429.251 181.024 424.146 231.996L416.576 187.629L411.625 154.243L413.49 137.083H413.487Z" fill="url(#paint9_linear_1056_662)"/>
<path d="M395.641 99.996C395.641 99.996 395.314 97.8345 385.24 98.4328L386.221 105.022L394.333 105.459L395.641 99.9987V99.996Z" fill="url(#paint10_linear_1056_662)"/>
<path d="M373.508 99.996C373.508 99.996 373.834 97.8345 383.908 98.4328L382.927 105.022L374.815 105.459L373.508 99.9987V99.996Z" fill="url(#paint11_linear_1056_662)"/>
<path d="M377.08 88.8025L378.506 110.538C378.506 110.538 384.925 113.732 391.604 110.538L391.806 87.7002L377.08 88.8052V88.8025Z" fill="url(#paint12_linear_1056_662)"/>
<path opacity="0.11" d="M377.225 91.1367L377.874 101.273L379.726 96.2062C379.726 96.2062 387.369 104.418 391.697 91.2661L377.225 91.1367Z" fill="#191E4C"/>
<path d="M375.944 72.1799L377.224 91.1371C377.224 91.1371 384.396 104.203 391.697 91.2664L392.85 72.1826C392.85 72.1826 383.628 59.5022 375.941 72.1826L375.944 72.1799Z" fill="url(#paint13_linear_1056_662)"/>
<path d="M378.505 106.326C378.505 106.326 359.351 111.77 358.481 123.313C357.61 134.856 366.102 194.967 366.102 194.967H403.564C403.564 194.967 408.062 139.917 410.315 122.876C411.84 111.352 391.6 106.323 391.6 106.323C391.6 106.323 382.41 109.808 378.502 106.323L378.505 106.326Z" fill="#FDD109" stroke="#3121A3" stroke-width="6" stroke-miterlimit="10"/>
<path opacity="0.23" d="M391.6 106.326C391.6 106.326 416.762 210.938 391.6 227.637C391.6 227.637 401.203 231.895 407.86 229.486C407.86 229.486 406.167 201.487 403.561 194.967L407.016 154.956L391.598 106.326H391.6Z" fill="#191E4C"/>
<path d="M378.504 106.326C378.504 106.326 345.629 198.018 354.776 227.637C354.776 227.637 340.185 233.299 336.482 224.805C332.779 216.31 355.865 151.854 355.865 151.854C355.865 151.854 352.817 120.699 355.429 115.255C358.043 109.811 378.501 106.326 378.501 106.326H378.504Z" fill="#49159B"/>
<path d="M359.7 137.441L358.417 153.261L352.836 160.54L355.865 151.857L354.52 138.522L359.7 133.385V137.441Z" fill="url(#paint14_linear_1056_662)"/>
<path d="M391.6 106.326C391.6 106.326 407.482 155.112 409.007 174.932C410.533 194.752 406.175 218.49 396.812 224.152C396.812 224.152 414.454 230.685 420.987 220.231C427.52 209.777 411.621 154.239 411.621 154.239C411.621 154.239 415.977 120.262 413.799 115.255C411.621 110.247 391.6 106.326 391.6 106.326Z" fill="#49159B"/>
<path d="M378.504 106.327L379.17 101.101C379.17 101.101 375.977 101.939 373.508 99.9961V107.34C373.508 107.34 376.095 107.634 378.504 106.327Z" fill="#49159B"/>
<path d="M390.646 106.327L389.98 101.101C389.98 101.101 393.174 101.939 395.643 99.9961V107.34C395.643 107.34 393.056 107.634 390.646 106.327Z" fill="#49159B"/>
<path d="M357.774 159.248L320.865 168.82L332.43 213.409L369.339 203.837L357.774 159.248Z" fill="#FDD109" stroke="#3121A3" stroke-width="6" stroke-miterlimit="10"/>
<path d="M359.701 137.441L328.339 151.739C330.029 154.345 331.139 157.655 331.848 161.225C332.142 162.716 332.368 164.255 332.535 165.804C333.764 177.294 331.821 189.537 331.821 189.537L325.506 194.423C325.506 194.423 310.912 166.767 314.613 147.491C318.316 128.216 359.699 112.1 359.699 112.1C364.488 113.622 359.699 137.441 359.699 137.441H359.701Z" fill="#49159B"/>
<path d="M325.508 194.426L328.526 206.076C328.526 206.076 332.229 211.957 335.388 211.739C338.547 211.52 332.884 209.669 332.884 209.669L331.795 204.333C331.795 204.333 334.084 203.244 335.062 204.985C336.043 206.726 337.784 206.074 336.806 204.222C335.825 202.371 330.273 197.034 330.273 197.034L329.718 191.17L325.513 194.42L325.508 194.426Z" fill="url(#paint15_linear_1056_662)"/>
<path d="M375.945 72.1801C375.945 72.1801 398.597 79.7749 395.487 63.7715C395.487 63.7715 390.794 66.2995 385.709 64.739C380.623 63.1786 374.193 66.5474 375.945 72.1828V72.1801Z" fill="#191E4C"/>
<path d="M375.945 72.1802C375.945 72.1802 378.015 71.935 377.869 74.277C377.724 76.619 376.71 83.4995 376.71 83.4995C376.71 83.4995 371.315 71.8406 375.945 72.1829V72.1802Z" fill="#191E4C"/>
<path d="M392.577 71.8284C392.577 71.8284 390.82 72.9577 390.82 73.7258C390.82 74.4939 392.227 82.4713 392.227 82.4713C392.227 82.4713 394.114 76.6526 394.259 73.9818C394.405 71.311 392.577 71.8284 392.577 71.8284Z" fill="#191E4C"/>
<path d="M376.71 83.4965L376.341 78.3732C376.341 78.3732 373.926 78.0794 374.069 79.7638C374.209 81.4482 375.039 83.5693 376.71 83.4965Z" fill="url(#paint16_linear_1056_662)"/>
<path d="M392.129 83.4965L392.498 78.3732C392.498 78.3732 394.913 78.0794 394.77 79.7638C394.63 81.4482 393.8 83.5693 392.129 83.4965Z" fill="url(#paint17_linear_1056_662)"/>
<path d="M386.92 78.3545H390.823L391.601 79.5511H386.508L386.92 78.3545Z" fill="#191E4C"/>
<path opacity="0.1" d="M386.507 79.5508C386.507 79.5508 385.981 82.7283 389.054 83.111C392.129 83.4964 391.6 79.5508 391.6 79.5508H386.507Z" fill="#191E4C"/>
<path d="M389.521 81.3318C389.521 81.7845 389.152 82.1538 388.699 82.1538C388.246 82.1538 387.877 81.7845 387.877 81.3318C387.877 80.879 388.246 80.5098 388.699 80.5098C389.152 80.5098 389.521 80.879 389.521 81.3318Z" fill="#191E4C"/>
<path d="M382.309 78.3545H378.404L377.625 79.5511H382.721L382.309 78.3545Z" fill="#191E4C"/>
<path opacity="0.1" d="M382.722 79.5508C382.722 79.5508 383.248 82.7283 380.175 83.111C377.1 83.4964 377.628 79.5508 377.628 79.5508H382.722Z" fill="#191E4C"/>
<path d="M379.709 81.3318C379.709 81.7845 380.078 82.1538 380.531 82.1538C380.984 82.1538 381.353 81.7845 381.353 81.3318C381.353 80.879 380.984 80.5098 380.531 80.5098C380.078 80.5098 379.709 80.879 379.709 81.3318Z" fill="#191E4C"/>
<path opacity="0.16" d="M382.723 79.5498L383.493 87.0826H386.097C386.097 87.0826 385.924 88.2414 382.723 87.697V79.5498Z" fill="#191E4C"/>
<path d="M382.723 79.5506L383.493 87.0834H386.097L386.507 79.5506C386.507 79.5506 384.914 76.9472 382.723 79.5506Z" fill="url(#paint18_linear_1056_662)"/>
<path d="M380.529 89.3096C380.529 89.3096 386.763 90.5412 389.52 88.6924C389.52 88.6924 386.607 90.0291 380.529 89.3096Z" fill="url(#paint19_linear_1056_662)"/>
<path opacity="0.37" d="M382.447 90.5631C382.447 90.5631 385.409 91.0779 387.603 90.2559C387.603 90.2559 386.404 94.0047 382.447 90.5631Z" fill="url(#paint20_linear_1056_662)"/>
<path d="M357.77 159.26L332.539 165.807C332.369 164.257 332.145 162.718 331.852 161.228L347.397 158.18L357.77 159.263V159.26Z" fill="#49159B"/>
<path d="M364.405 194.954L356.832 196.918L358.796 204.491L366.369 202.527L364.405 194.954Z" fill="#917603" stroke="#3121A3" stroke-width="6" stroke-miterlimit="10"/>
<path opacity="0.22" d="M377.594 72.6652C377.594 72.6652 392.581 71.0024 395.486 63.7715C395.486 63.7715 394.263 72.5332 385.027 73.9373C385.027 73.9373 381.661 74.099 377.594 72.6652Z" fill="url(#paint21_linear_1056_662)"/>
<path d="M12.9364 387.962H126.041C126.041 387.962 112.883 364.479 99.1304 372.931C85.3747 381.383 89.9456 348.632 61.0489 352.448C32.1523 356.265 42.4933 387.724 21.9514 380.186C1.40952 372.651 0 387.962 0 387.962H12.9391H12.9364Z" fill="#FDD109"/>
<path d="M629.646 387.247C629.646 387.247 629.215 386.099 628.374 384.269L628.865 384.046C629.714 385.894 630.148 387.048 630.15 387.059L629.646 387.247ZM625.959 379.456C625.447 378.515 624.908 377.569 624.361 376.65L624.825 376.375C625.377 377.302 625.919 378.254 626.434 379.2L625.959 379.459V379.456ZM621.448 372.125C620.828 371.233 620.189 370.357 619.548 369.519L619.976 369.193C620.623 370.039 621.267 370.923 621.893 371.821L621.451 372.128L621.448 372.125ZM616.109 365.393C615.379 364.59 614.627 363.811 613.872 363.075L614.249 362.69C615.009 363.431 615.769 364.221 616.508 365.032L616.109 365.396V365.393ZM609.843 359.542C608.989 358.876 608.113 358.243 607.237 357.663L607.536 357.213C608.423 357.801 609.309 358.44 610.174 359.116L609.843 359.542ZM602.585 355.03C601.612 354.569 600.618 354.157 599.626 353.801L599.809 353.295C600.814 353.656 601.828 354.076 602.814 354.542L602.585 355.03ZM594.476 352.427C593.43 352.241 592.363 352.109 591.303 352.033L591.341 351.497C592.419 351.575 593.505 351.71 594.57 351.899L594.476 352.43V352.427ZM583.612 352.403L583.525 351.872C584.323 351.74 585.126 351.637 585.916 351.562L585.967 352.098C585.191 352.171 584.399 352.273 583.614 352.403H583.612Z" fill="#49159B"/>
<path d="M447.515 253.957C448.692 254.07 449.884 254.111 451.048 254.31C453.339 254.701 455.522 255.429 457.584 256.528C460.001 257.816 462.109 259.49 463.871 261.576C465.127 263.061 466.181 264.694 466.919 266.503C467.351 267.556 467.771 268.621 468.089 269.712C468.337 270.564 468.455 271.459 468.561 272.343C468.674 273.281 468.755 274.229 468.76 275.173C468.765 276.348 468.655 277.52 468.372 278.666C468.143 279.601 467.952 280.549 467.65 281.46C467.076 283.201 466.262 284.84 465.345 286.43C464.246 288.341 462.976 290.136 461.607 291.855C460.206 293.615 458.775 295.359 457.298 297.057C455.406 299.229 453.379 301.275 451.256 303.223C450.692 303.741 450.164 304.296 449.617 304.832C449.048 305.387 448.329 305.622 447.571 305.686C446.776 305.756 446.094 305.398 445.534 304.862C444.262 303.649 442.979 302.444 441.761 301.18C440.025 299.38 438.289 297.58 436.656 295.69C435.01 293.782 433.452 291.796 431.929 289.788C430.495 287.896 429.261 285.869 428.266 283.711C427.674 282.42 427.172 281.091 426.884 279.695C426.717 278.887 426.499 278.083 426.396 277.267C426.234 275.965 426.083 274.655 426.296 273.337C426.469 272.275 426.544 271.197 426.776 270.149C426.997 269.16 427.315 268.182 427.682 267.236C428.194 265.91 428.851 264.648 429.641 263.463C430.862 261.627 432.339 260.026 434.088 258.679C435.859 257.318 437.767 256.199 439.869 255.442C440.766 255.119 441.693 254.881 442.612 254.617C444.208 254.156 445.846 254.035 447.504 253.962L447.515 253.957ZM433.783 264.807C433.77 264.842 433.759 264.877 433.746 264.915C433.794 264.98 433.835 265.055 433.897 265.107C434.215 265.381 434.535 265.651 434.859 265.918C437.559 268.149 440.257 270.384 442.965 272.607C444.281 273.688 445.612 274.752 446.938 275.822C447.466 276.248 447.512 276.245 448.04 275.817C449.102 274.954 450.159 274.087 451.223 273.227C452.196 272.44 453.182 271.672 454.145 270.871C455.57 269.688 456.974 268.478 458.4 267.29C459.236 266.592 460.095 265.92 460.939 265.233C461.06 265.134 461.16 265.001 461.327 264.821C461.103 264.786 460.987 264.756 460.874 264.754C460.281 264.737 459.688 264.716 459.093 264.716C451.482 264.71 443.874 264.708 436.263 264.716C435.438 264.716 434.611 264.778 433.786 264.81L433.783 264.807ZM451.444 278.048C451.382 278.091 451.347 278.113 451.315 278.14C450.388 278.895 449.461 279.652 448.531 280.407C447.819 280.983 447.256 281.021 446.642 280.531C445.709 279.784 444.777 279.035 443.855 278.272C443.645 278.097 443.499 278.067 443.278 278.267C440.596 280.649 437.904 283.023 435.214 285.398C435.061 285.533 435.09 285.64 435.209 285.778C435.7 286.36 436.279 286.683 437.082 286.678C440.419 286.656 443.755 286.675 447.089 286.67C450.781 286.665 454.473 286.651 458.166 286.64C458.804 286.64 459.365 286.5 459.737 285.896C459.953 285.549 459.993 285.549 459.678 285.274C458.163 283.942 456.646 282.619 455.128 281.288C453.905 280.215 452.684 279.14 451.444 278.048ZM433.007 282.425C435.678 280.175 438.265 277.992 440.898 275.774C438.017 273.364 435.187 270.998 432.341 268.616C432.306 268.68 432.279 268.715 432.269 268.753C432.077 269.556 431.84 270.348 431.711 271.162C431.557 272.127 431.444 273.106 431.406 274.081C431.374 274.917 431.452 275.76 431.517 276.598C431.565 277.232 431.614 277.87 431.751 278.488C431.956 279.42 432.22 280.342 432.495 281.258C432.606 281.627 432.805 281.97 433.01 282.425H433.007ZM454.096 275.838C456.737 278.035 459.3 280.164 461.915 282.339C463.165 279.754 463.637 277.078 463.642 274.313C463.645 272.399 463.405 270.51 462.739 268.616C459.834 271.044 456.996 273.416 454.096 275.838Z" fill="#49159B"/>
<defs>
<linearGradient id="paint0_linear_1056_662" x1="428.964" y1="238.471" x2="412.169" y2="262.026" gradientUnits="userSpaceOnUse">
<stop stop-color="#B53C7E"/>
<stop offset="0.58" stop-color="#E77172"/>
<stop offset="1" stop-color="#F3E4CD"/>
</linearGradient>
<linearGradient id="paint1_linear_1056_662" x1="420.615" y1="230.3" x2="432.948" y2="250.232" gradientUnits="userSpaceOnUse">
<stop stop-color="#FFF4DE"/>
<stop offset="1" stop-color="#D26666"/>
</linearGradient>
<linearGradient id="paint2_linear_1056_662" x1="408.443" y1="365.388" x2="402.993" y2="374.39" gradientUnits="userSpaceOnUse">
<stop stop-color="#231E5D"/>
<stop offset="1" stop-color="#2C327E"/>
</linearGradient>
<linearGradient id="paint3_linear_1056_662" x1="396.266" y1="387.674" x2="473.958" y2="358.044" gradientUnits="userSpaceOnUse">
<stop stop-color="#231E5D"/>
<stop offset="1" stop-color="#2C327E"/>
</linearGradient>
<linearGradient id="paint4_linear_1056_662" x1="361.249" y1="365.388" x2="366.695" y2="374.39" gradientUnits="userSpaceOnUse">
<stop stop-color="#231E5D"/>
<stop offset="1" stop-color="#2C327E"/>
</linearGradient>
<linearGradient id="paint5_linear_1056_662" x1="373.422" y1="387.674" x2="295.734" y2="358.044" gradientUnits="userSpaceOnUse">
<stop stop-color="#231E5D"/>
<stop offset="1" stop-color="#2C327E"/>
</linearGradient>
<linearGradient id="paint6_linear_1056_662" x1="322.581" y1="151.598" x2="770.097" y2="391.175" gradientUnits="userSpaceOnUse">
<stop stop-color="#304598"/>
<stop offset="1" stop-color="#4ABBBA"/>
</linearGradient>
<linearGradient id="paint7_linear_1056_662" x1="389.956" y1="292.205" x2="315.987" y2="256.865" gradientUnits="userSpaceOnUse">
<stop stop-color="#231E5D"/>
<stop offset="1" stop-color="#2C327E"/>
</linearGradient>
<linearGradient id="paint8_linear_1056_662" x1="334.693" y1="302.466" x2="411.791" y2="281.231" gradientUnits="userSpaceOnUse">
<stop stop-color="#231E5D"/>
<stop offset="1" stop-color="#2C327E"/>
</linearGradient>
<linearGradient id="paint9_linear_1056_662" x1="426.151" y1="188.044" x2="387.213" y2="169.44" gradientUnits="userSpaceOnUse">
<stop stop-color="#231E5D"/>
<stop offset="1" stop-color="#2C327E"/>
</linearGradient>
<linearGradient id="paint10_linear_1056_662" x1="394.673" y1="89.0647" x2="390.482" y2="100.117" gradientUnits="userSpaceOnUse">
<stop stop-color="#60A69E"/>
<stop offset="1" stop-color="#4F8688"/>
</linearGradient>
<linearGradient id="paint11_linear_1056_662" x1="374.475" y1="89.0647" x2="378.669" y2="100.117" gradientUnits="userSpaceOnUse">
<stop stop-color="#60A69E"/>
<stop offset="1" stop-color="#4F8688"/>
</linearGradient>
<linearGradient id="paint12_linear_1056_662" x1="405.764" y1="68.8589" x2="387.478" y2="95.1575" gradientUnits="userSpaceOnUse">
<stop stop-color="#FFF4DE"/>
<stop offset="1" stop-color="#D26666"/>
</linearGradient>
<linearGradient id="paint13_linear_1056_662" x1="405.873" y1="87.8652" x2="374.467" y2="78.9445" gradientUnits="userSpaceOnUse">
<stop stop-color="#FFF4DE"/>
<stop offset="1" stop-color="#D26666"/>
</linearGradient>
<linearGradient id="paint14_linear_1056_662" x1="370.389" y1="143.082" x2="324.775" y2="155.616" gradientUnits="userSpaceOnUse">
<stop stop-color="#304598"/>
<stop offset="1" stop-color="#4ABBBA"/>
</linearGradient>
<linearGradient id="paint15_linear_1056_662" x1="316.63" y1="173.461" x2="334.302" y2="208.389" gradientUnits="userSpaceOnUse">
<stop stop-color="#FFF4DE"/>
<stop offset="1" stop-color="#D26666"/>
</linearGradient>
<linearGradient id="paint16_linear_1056_662" x1="382.421" y1="86.4988" x2="372.834" y2="78.0067" gradientUnits="userSpaceOnUse">
<stop stop-color="#B53C7E"/>
<stop offset="0.58" stop-color="#E77172"/>
<stop offset="1" stop-color="#F3E4CD"/>
</linearGradient>
<linearGradient id="paint17_linear_1056_662" x1="386.415" y1="86.4988" x2="396.004" y2="78.0067" gradientUnits="userSpaceOnUse">
<stop stop-color="#B53C7E"/>
<stop offset="0.58" stop-color="#E77172"/>
<stop offset="1" stop-color="#F3E4CD"/>
</linearGradient>
<linearGradient id="paint18_linear_1056_662" x1="386.1" y1="96.6159" x2="385.003" y2="84.0137" gradientUnits="userSpaceOnUse">
<stop stop-color="#FFF4DE"/>
<stop offset="1" stop-color="#D26666"/>
</linearGradient>
<linearGradient id="paint19_linear_1056_662" x1="385.17" y1="90.6544" x2="385.065" y2="89.4551" gradientUnits="userSpaceOnUse">
<stop stop-color="#FFF4DE"/>
<stop offset="1" stop-color="#D26666"/>
</linearGradient>
<linearGradient id="paint20_linear_1056_662" x1="388.476" y1="96.6836" x2="386.215" y2="92.5736" gradientUnits="userSpaceOnUse">
<stop stop-color="#FFF4DE"/>
<stop offset="1" stop-color="#D26666"/>
</linearGradient>
<linearGradient id="paint21_linear_1056_662" x1="376.68" y1="57.5566" x2="390.387" y2="72.3796" gradientUnits="userSpaceOnUse">
<stop stop-color="#304598"/>
<stop offset="1" stop-color="#4ABBBA"/>
</linearGradient>
</defs>
</svg>
