<svg width="24" height="30" viewBox="0 0 24 30" fill="none" xmlns="http://www.w3.org/2000/svg">
<path d="M12.0171 0C12.6825 0.0659324 13.3536 0.0893753 14.0104 0.205123C15.3013 0.432224 16.5338 0.854191 17.6964 1.49154C19.06 2.23877 20.2483 3.20871 21.2414 4.41894C21.9496 5.28045 22.5437 6.22695 22.9612 7.27601C23.2049 7.88698 23.4414 8.50382 23.6209 9.13677C23.7605 9.63053 23.8275 10.1492 23.8873 10.6605C23.9515 11.2041 23.9971 11.755 23.9999 12.3015C24.0028 12.9828 23.9401 13.6612 23.7805 14.3264C23.6508 14.8685 23.5425 15.4179 23.3744 15.9469C23.051 16.9564 22.5907 17.9072 22.0764 18.8288C21.4566 19.9365 20.7413 20.9768 19.9691 21.9745C19.1783 22.9958 18.3732 24.0053 17.5397 24.9898C16.4739 26.2499 15.3312 27.4352 14.1329 28.5648C13.8152 28.8652 13.5174 29.1875 13.2082 29.4982C12.8876 29.8205 12.4816 29.9553 12.0555 29.9949C11.6067 30.0359 11.2234 29.8278 10.9057 29.5172C10.189 28.8139 9.46519 28.1165 8.77842 27.3825C7.80098 26.3393 6.82069 25.2946 5.90025 24.1987C4.97126 23.0925 4.09214 21.9408 3.23439 20.776C2.42651 19.6801 1.72977 18.505 1.16981 17.2508C0.83497 16.5021 0.552853 15.7329 0.390422 14.9212C0.296383 14.4524 0.173847 13.9865 0.115429 13.5132C0.02424 12.7572 -0.0612499 11.9982 0.0598609 11.2334C0.15675 10.618 0.199495 9.99242 0.330579 9.38584C0.45454 8.8115 0.635494 8.24595 0.84067 7.69651C1.12849 6.9273 1.50037 6.19618 1.94492 5.50902C2.63311 4.44384 3.46664 3.5164 4.45262 2.73546C5.45143 1.94574 6.52718 1.29814 7.71264 0.858587C8.21846 0.671045 8.74137 0.53332 9.25858 0.380943C10.1591 0.114283 11.0824 0.0424898 12.0171 0ZM4.27309 6.28995C4.26597 6.31046 4.25884 6.33098 4.25172 6.35149C4.28022 6.38812 4.30159 6.43207 4.33579 6.46284C4.51531 6.62108 4.69627 6.77932 4.87865 6.93316C6.40179 8.2269 7.92352 9.5221 9.44951 10.8114C10.1919 11.4385 10.9413 12.0554 11.6894 12.6751C11.9871 12.9213 12.0128 12.9213 12.3106 12.6722C12.909 12.1726 13.506 11.6686 14.1044 11.1704C14.653 10.7133 15.2087 10.2679 15.7515 9.80488C16.5552 9.11772 17.3474 8.4159 18.151 7.72874C18.6226 7.32436 19.107 6.93609 19.5829 6.5361C19.6513 6.47749 19.7069 6.40277 19.8024 6.29728C19.6755 6.27677 19.6114 6.26065 19.5473 6.25772C19.2125 6.24746 18.8776 6.23574 18.5428 6.23574C14.2512 6.23281 9.96103 6.23134 5.66943 6.23574C5.20351 6.23574 4.73901 6.2709 4.27309 6.28995ZM14.2327 13.9689C14.1985 13.9938 14.1785 14.007 14.16 14.0216C13.6371 14.4597 13.1142 14.8993 12.5913 15.3359C12.1909 15.6699 11.8717 15.6919 11.5269 15.4077C11.0012 14.974 10.4754 14.5403 9.95533 14.0993C9.83564 13.9982 9.75443 13.9806 9.62904 14.0949C8.11587 15.4765 6.59985 16.8538 5.0824 18.2296C4.99548 18.3087 5.01258 18.3702 5.07955 18.4508C5.35597 18.7878 5.68368 18.9768 6.13535 18.9739C8.01613 18.9607 9.89691 18.9724 11.7777 18.9695C13.8594 18.9666 15.9411 18.9578 18.0242 18.9519C18.3846 18.9519 18.701 18.8699 18.9104 18.5197C19.0315 18.3175 19.0543 18.3175 18.8776 18.1578C18.0242 17.3871 17.1678 16.6179 16.3129 15.8472C15.6233 15.226 14.9351 14.6018 14.2355 13.9689H14.2327ZM3.83567 16.5065C5.34172 15.2011 6.80075 13.9366 8.28542 12.6502C6.66111 11.2525 5.0653 9.88107 3.46094 8.50089C3.44099 8.53898 3.42532 8.55803 3.41962 8.58147C3.31133 9.04593 3.17882 9.50745 3.10473 9.97777C3.01781 10.5375 2.9537 11.1045 2.93232 11.67C2.9138 12.155 2.95797 12.6429 2.99359 13.1293C3.02066 13.4956 3.04916 13.8663 3.1261 14.2238C3.24151 14.7645 3.39112 15.2992 3.545 15.8311C3.6077 16.045 3.72026 16.2443 3.83567 16.508V16.5065ZM15.7273 12.6869C17.2177 13.9601 18.6611 15.1952 20.1358 16.4553C20.8411 14.9564 21.1075 13.4048 21.1103 11.8019C21.1132 10.6928 20.9764 9.59829 20.6017 8.49795C18.9646 9.90598 17.363 11.2803 15.7273 12.6869Z" fill="#49159B"/>
</svg>
