<svg width="24" height="24" viewBox="0 0 24 24" fill="none" xmlns="http://www.w3.org/2000/svg">
<path d="M1.52657 10.9747C1.63286 12.4267 2.42657 13.5959 3.41229 13.757C4.14772 13.877 4.90029 13.9799 5.66657 13.9799C6.43457 13.9799 7.18714 13.877 7.92086 13.757C8.90829 13.5959 9.70372 12.4267 9.80657 10.9747C9.89578 9.87863 9.94438 8.77959 9.95229 7.67988C9.95229 6.55874 9.88543 5.45645 9.80829 4.38503C9.702 2.93303 8.90829 1.7656 7.91914 1.60274C7.17515 1.46642 6.42115 1.39188 5.66486 1.37988C4.89857 1.37988 4.146 1.48274 3.41229 1.60274C2.42486 1.7656 1.62943 2.93303 1.52657 4.38503C1.43737 5.48114 1.38877 6.58018 1.38086 7.67988C1.38086 8.80274 1.44943 9.90331 1.52657 10.9747ZM22.5077 13.0936C22.4031 11.6433 21.6077 10.4759 20.6169 10.3147C19.8717 10.1782 19.1166 10.1037 18.3591 10.0919C17.5894 10.0919 16.8351 10.1947 16.0997 10.3147C15.1106 10.4759 14.3151 11.6433 14.2089 13.0936C14.1203 14.1892 14.0722 15.2876 14.0649 16.3867C14.0649 17.5079 14.1317 18.6085 14.2089 19.6799C14.3151 21.1319 15.1106 22.2993 16.0997 22.4605C16.8369 22.5805 17.5911 22.6833 18.3591 22.6833C19.1271 22.6833 19.8831 22.5805 20.6169 22.4605C21.6077 22.2993 22.4031 21.1319 22.5094 19.6799C22.5866 18.6085 22.6534 17.5079 22.6534 16.3885C22.6534 15.2656 22.5849 14.165 22.5077 13.0936ZM1.52657 21.5982C1.63286 22.1227 2.42657 22.5445 3.41229 22.6027C4.16275 22.6521 4.91451 22.6789 5.66657 22.6833C6.41864 22.6789 7.1704 22.6521 7.92086 22.6027C8.90829 22.5445 9.70372 22.1227 9.80657 21.5982C9.88543 21.2107 9.95229 20.8113 9.95229 20.4067C9.94311 20.0059 9.89488 19.6068 9.80829 19.2153C9.702 18.6907 8.90829 18.269 7.92086 18.2107C7.1704 18.1614 6.41864 18.1345 5.66657 18.1302C4.91508 18.1346 4.16389 18.1614 3.414 18.2107C2.42657 18.269 1.63115 18.6907 1.52829 19.2153C1.44001 19.6066 1.3912 20.0057 1.38257 20.4067C1.38257 20.813 1.44943 21.2107 1.52657 21.5982ZM22.5077 2.46503C22.4031 1.94045 21.6077 1.51874 20.6169 1.46045C19.8653 1.41106 19.1124 1.38419 18.3591 1.37988C17.5894 1.37988 16.8351 1.4176 16.0997 1.46045C15.1106 1.51874 14.3151 1.94045 14.2089 2.46503C14.1212 2.85636 14.0729 3.2555 14.0649 3.65645C14.0649 4.06103 14.1317 4.46045 14.2089 4.84788C14.3151 5.37245 15.1106 5.79417 16.0997 5.85245C16.8369 5.89531 17.5911 5.93303 18.3591 5.93303C19.1271 5.93303 19.8831 5.89531 20.6169 5.85245C21.6077 5.79417 22.4031 5.37245 22.5094 4.84617C22.5959 4.45521 22.6441 4.05676 22.6534 3.65645C22.6443 3.25558 22.5943 2.85655 22.5077 2.46503Z" stroke="#1E1E1E" stroke-width="1.71429" stroke-linecap="round" stroke-linejoin="round"/>
</svg>
