<svg width="24" height="24" viewBox="0 0 24 24" fill="none" xmlns="http://www.w3.org/2000/svg">
<path d="M19.6469 23.25L19.9529 19.878C20.0189 19.1517 19.818 18.4262 19.3879 17.8373C18.9578 17.2483 18.3278 16.8362 17.6159 16.678L13.7859 15.827V10.875C13.7859 10.3777 13.5883 9.90081 13.2367 9.54917C12.8851 9.19754 12.4082 9 11.9109 9C11.4136 9 10.9367 9.19754 10.5851 9.54917C10.2334 9.90081 10.0359 10.3777 10.0359 10.875V20.25L8.19489 18.869C7.85272 18.6102 7.42409 18.4931 6.99786 18.5418C6.57164 18.5906 6.18052 18.8014 5.9056 19.1308C5.63067 19.4601 5.49302 19.8826 5.52118 20.3107C5.54935 20.7387 5.74118 21.1395 6.05689 21.43L8.01889 23.25" stroke="#1E1E1E" stroke-width="1.5" stroke-linecap="round" stroke-linejoin="round"/>
<path d="M7.03516 14.25H5.53516C5.13733 14.25 4.7558 14.092 4.4745 13.8107C4.19319 13.5294 4.03516 13.1478 4.03516 12.75V2.25C4.03516 1.85218 4.19319 1.47064 4.4745 1.18934C4.7558 0.908035 5.13733 0.75 5.53516 0.75H17.5352C17.933 0.75 18.3145 0.908035 18.5958 1.18934C18.8771 1.47064 19.0352 1.85218 19.0352 2.25V12.75C19.0352 13.1478 18.8771 13.5294 18.5958 13.8107C18.3145 14.092 17.933 14.25 17.5352 14.25H16.7852" stroke="#1E1E1E" stroke-width="1.5" stroke-linecap="round" stroke-linejoin="round"/>
<path d="M9.28516 0.75H13.7852V6H9.28516V0.75Z" stroke="#1E1E1E" stroke-width="1.5" stroke-linecap="round" stroke-linejoin="round"/>
</svg>
