<svg width="24" height="24" viewBox="0 0 24 24" fill="none" xmlns="http://www.w3.org/2000/svg">
<path d="M12 22C11.182 22 10.4 21.675 8.837 21.026C4.946 19.41 3 18.602 3 17.243V7.745M12 22C12.818 22 13.6 21.675 15.163 21.026C19.054 19.41 21 18.602 21 17.243V7.745M12 22V12.169M3 7.745C3 8.348 3.802 8.73 5.405 9.492L8.325 10.882C10.13 11.74 11.03 12.17 12 12.17C12.97 12.17 13.87 11.74 15.675 10.882L18.595 9.492C20.198 8.73 21 8.348 21 7.745M3 7.745C3 7.141 3.802 6.759 5.405 5.997L7.5 5M21 7.745C21 7.141 20.198 6.76 18.595 5.998L16.5 5M6 13.152L8 14.135M12.004 2V9M12.004 9C12.267 9.004 12.526 8.82 12.718 8.595L14 7.062M12.004 9C11.75 8.997 11.493 8.814 11.29 8.595L10 7.062" stroke="#1E1E1E" stroke-width="1.5" stroke-linecap="round" stroke-linejoin="round"/>
</svg>
