<svg width="25" height="24" viewBox="0 0 25 24" fill="none" xmlns="http://www.w3.org/2000/svg">
<path d="M7.625 13.5H13.625V15H7.625V13.5ZM7.625 9.75H16.625V11.25H7.625V9.75ZM7.625 17.25H11.375V18.75H7.625V17.25Z" fill="#1E1E1E"/>
<path d="M18.875 3.75H16.625V3C16.625 2.60218 16.467 2.22064 16.1857 1.93934C15.9044 1.65804 15.5228 1.5 15.125 1.5H9.125C8.72718 1.5 8.34564 1.65804 8.06434 1.93934C7.78304 2.22064 7.625 2.60218 7.625 3V3.75H5.375C4.97718 3.75 4.59564 3.90804 4.31434 4.18934C4.03304 4.47064 3.875 4.85218 3.875 5.25V21C3.875 21.3978 4.03304 21.7794 4.31434 22.0607C4.59564 22.342 4.97718 22.5 5.375 22.5H18.875C19.2728 22.5 19.6544 22.342 19.9357 22.0607C20.217 21.7794 20.375 21.3978 20.375 21V5.25C20.375 4.85218 20.217 4.47064 19.9357 4.18934C19.6544 3.90804 19.2728 3.75 18.875 3.75ZM9.125 3H15.125V6H9.125V3ZM18.875 21H5.375V5.25H7.625V7.5H16.625V5.25H18.875V21Z" fill="#1E1E1E"/>
</svg>
