<svg width="24" height="24" viewBox="0 0 24 24" fill="none" xmlns="http://www.w3.org/2000/svg">
<path d="M16.8842 13.6158C16.3376 13.6158 15.8676 13.4188 15.4742 13.0248C15.0809 12.6308 14.8842 12.1608 14.8842 11.6148C14.8842 11.0688 15.0809 10.5988 15.4742 10.2048C15.8676 9.81078 16.3376 9.61412 16.8842 9.61478C17.4302 9.61478 17.9002 9.81145 18.2942 10.2048C18.6876 10.5988 18.8842 11.0688 18.8842 11.6148C18.8842 12.1614 18.6876 12.6314 18.2942 13.0248C17.9002 13.4181 17.4302 13.6148 16.8842 13.6148M12.3842 17.8078V17.7158C12.3842 17.4051 12.4616 17.1238 12.6162 16.8718C12.7709 16.6191 12.9909 16.4374 13.2762 16.3268C13.8509 16.0894 14.4396 15.9115 15.0422 15.7928C15.6456 15.6748 16.2596 15.6158 16.8842 15.6158C17.5082 15.6158 18.1219 15.6748 18.7252 15.7928C19.3286 15.9115 19.9172 16.0894 20.4912 16.3268C20.7766 16.4374 20.9966 16.6191 21.1512 16.8718C21.3059 17.1238 21.3832 17.4051 21.3832 17.7158V17.8078C21.3832 18.0365 21.3059 18.2281 21.1512 18.3828C20.9966 18.5381 20.8049 18.6158 20.5762 18.6158H13.1912C12.9626 18.6158 12.7709 18.5381 12.6162 18.3828C12.4616 18.2274 12.3842 18.0358 12.3842 17.8078ZM9.61423 11.3848C8.78957 11.3848 8.08357 11.0908 7.49623 10.5028C6.9089 9.91478 6.61523 9.20878 6.61523 8.38478C6.61523 7.56078 6.90857 6.85412 7.49523 6.26478C8.0819 5.67545 8.78857 5.38212 9.61523 5.38478C10.4419 5.38745 11.1479 5.68078 11.7332 6.26478C12.3186 6.84878 12.6126 7.55545 12.6152 8.38478C12.6179 9.21412 12.3239 9.92012 11.7332 10.5028C11.1426 11.0855 10.4366 11.3795 9.61523 11.3848M2.61523 16.9668C2.61523 16.5348 2.73423 16.1378 2.97223 15.7758C3.2109 15.4138 3.53523 15.1461 3.94523 14.9728C4.8299 14.5241 5.74857 14.1858 6.70123 13.9578C7.6539 13.7298 8.62523 13.6158 9.61523 13.6158C10.0186 13.6158 10.4222 13.6368 10.8262 13.6788C11.2302 13.7208 11.6342 13.7765 12.0382 13.8458L11.6112 14.2918L11.1842 14.7388C10.9222 14.6875 10.6606 14.6541 10.3992 14.6388C10.1379 14.6235 9.87657 14.6158 9.61523 14.6158C8.71257 14.6158 7.8209 14.7131 6.94023 14.9078C6.05957 15.1025 5.22023 15.4165 4.42223 15.8498C4.20423 15.9718 4.01523 16.1238 3.85523 16.3058C3.69523 16.4878 3.61523 16.7088 3.61523 16.9688V17.6148H9.61523V17.8018C9.61523 17.9738 9.64157 18.1291 9.69423 18.2678C9.74757 18.4065 9.82157 18.5221 9.91623 18.6148H3.65323C3.3599 18.6148 3.11323 18.5151 2.91323 18.3158C2.71457 18.1165 2.61523 17.8701 2.61523 17.5768V16.9668ZM9.61523 10.3848C10.1652 10.3848 10.6359 10.1888 11.0272 9.79678C11.4186 9.40478 11.6146 8.93412 11.6152 8.38478C11.6159 7.83545 11.4199 7.36445 11.0272 6.97178C10.6346 6.57912 10.1639 6.38345 9.61523 6.38478C9.06657 6.38612 8.59557 6.58178 8.20223 6.97178C7.8089 7.36178 7.61323 7.83278 7.61523 8.38478C7.61723 8.93678 7.8129 9.40745 8.20223 9.79678C8.59157 10.1861 9.06257 10.3821 9.61523 10.3848Z" fill="#1E1E1E"/>
</svg>
