<svg width="24" height="24" viewBox="0 0 24 24" fill="none" xmlns="http://www.w3.org/2000/svg">
<path d="M11.9998 1.9961C13.9464 1.99354 15.8175 2.74894 17.2168 4.10226C18.616 5.45557 19.4334 7.30048 19.4958 9.2461L19.4998 9.4961V13.5931L20.8798 16.7491C20.9628 16.9393 20.9971 17.1471 20.9797 17.3539C20.9623 17.5607 20.8937 17.7598 20.7801 17.9335C20.6665 18.1071 20.5115 18.2497 20.329 18.3485C20.1465 18.4472 19.9423 18.499 19.7348 18.4991L14.9998 18.5021C15.0008 19.2831 14.6972 20.0337 14.1535 20.5944C13.6099 21.1551 12.869 21.4817 12.0883 21.5047C11.3077 21.5278 10.5488 21.2455 9.97298 20.7178C9.39717 20.1902 9.04983 19.4588 9.00477 18.6791L8.99977 18.4991H4.27477C4.06749 18.4991 3.86346 18.4476 3.68105 18.3491C3.49864 18.2507 3.34357 18.1084 3.22981 17.9351C3.11604 17.7619 3.04715 17.563 3.02934 17.3565C3.01153 17.15 3.04536 16.9423 3.12777 16.7521L4.49977 13.5941V9.4961C4.49977 5.3411 7.85177 1.9961 11.9998 1.9961ZM13.4998 18.5001L10.4998 18.5021C10.4997 18.8874 10.6479 19.258 10.9137 19.5369C11.1794 19.8159 11.5423 19.982 11.9272 20.0006C12.312 20.0192 12.6893 19.8891 12.9808 19.6371C13.2723 19.3851 13.4556 19.0306 13.4928 18.6471L13.4998 18.5001ZM11.9998 3.4961C8.67977 3.4961 5.99977 6.1701 5.99977 9.4961V13.9061L4.65577 17.0001H19.3528L17.9998 13.9071V9.5091L17.9958 9.2841C17.9433 7.72969 17.2883 6.25661 16.1693 5.17643C15.0503 4.09625 13.5551 3.49366 11.9998 3.4961ZM20.9998 8.2501H22.9998C23.1898 8.25016 23.3727 8.32234 23.5116 8.45207C23.6504 8.5818 23.7348 8.7594 23.7478 8.94898C23.7607 9.13856 23.7013 9.32599 23.5813 9.4734C23.4614 9.62081 23.29 9.7172 23.1018 9.7431L22.9998 9.7501H20.9998C20.8097 9.75004 20.6268 9.67786 20.488 9.54813C20.3491 9.4184 20.2647 9.2408 20.2517 9.05122C20.2388 8.86164 20.2983 8.67421 20.4182 8.5268C20.5381 8.37939 20.7095 8.283 20.8978 8.2571L20.9998 8.2501ZM0.999771 8.2501H2.99977C3.18979 8.25016 3.37271 8.32234 3.51156 8.45207C3.65041 8.5818 3.73485 8.7594 3.7478 8.94898C3.76075 9.13856 3.70126 9.32599 3.58134 9.4734C3.46142 9.62081 3.29002 9.7172 3.10177 9.7431L2.99977 9.7501H0.999771C0.809748 9.75004 0.62683 9.67786 0.48798 9.54813C0.349129 9.4184 0.264697 9.2408 0.251745 9.05122C0.238793 8.86164 0.298287 8.67421 0.418204 8.5268C0.538121 8.37939 0.709521 8.283 0.897771 8.2571L0.999771 8.2501ZM22.5998 2.5501C22.7077 2.69384 22.7603 2.87154 22.7482 3.05086C22.7361 3.23017 22.66 3.39917 22.5338 3.5271L22.4498 3.6001L20.4498 5.1001C20.2984 5.21421 20.1094 5.26674 19.9208 5.24714C19.7322 5.22753 19.5581 5.13724 19.4334 4.99443C19.3087 4.85162 19.2427 4.66689 19.2487 4.4774C19.2547 4.28791 19.3323 4.10773 19.4658 3.9731L19.5498 3.9001L21.5498 2.4001C21.7089 2.28075 21.9089 2.22951 22.1058 2.25764C22.3027 2.28577 22.4804 2.39097 22.5998 2.5501ZM2.44977 2.4001L4.44977 3.9001C4.52856 3.9592 4.59495 4.03323 4.64513 4.11798C4.69531 4.20273 4.7283 4.29653 4.74223 4.39403C4.75616 4.49154 4.75075 4.59083 4.72631 4.68624C4.70186 4.78165 4.65887 4.87131 4.59977 4.9501C4.54068 5.02889 4.46664 5.09528 4.38189 5.14546C4.29714 5.19564 4.20334 5.22863 4.10584 5.24256C4.00834 5.25649 3.90905 5.25108 3.81364 5.22664C3.71823 5.20219 3.62856 5.15919 3.54977 5.1001L1.54977 3.6001C1.47098 3.54101 1.4046 3.46697 1.35442 3.38222C1.30423 3.29747 1.27124 3.20367 1.25731 3.10617C1.24338 3.00866 1.24879 2.90937 1.27324 2.81396C1.29768 2.71855 1.34068 2.62889 1.39977 2.5501C1.45887 2.47131 1.5329 2.40492 1.61765 2.35474C1.7024 2.30456 1.7962 2.27157 1.89371 2.25764C1.99121 2.24371 2.0905 2.24912 2.18591 2.27356C2.28132 2.29801 2.37098 2.34101 2.44977 2.4001Z" fill="#1E1E1E"/>
</svg>
