<svg width="24" height="24" viewBox="0 0 24 24" fill="none" xmlns="http://www.w3.org/2000/svg">
<path fill-rule="evenodd" clip-rule="evenodd" d="M21.1434 5.47215L21.6371 7.31415C21.7028 7.55998 21.6989 7.81925 21.6257 8.06296C21.5525 8.30668 21.413 8.52522 21.2227 8.69415L21.1562 8.74987C20.8291 9.00504 20.5831 9.34967 20.448 9.74194C20.3129 10.1342 20.2946 10.5572 20.3952 10.9597C20.4959 11.3622 20.7112 11.7268 21.015 12.0093C21.3188 12.2919 21.6981 12.4801 22.1068 12.5513L22.1994 12.5654C22.4583 12.5993 22.7013 12.7092 22.8978 12.8812C23.0942 13.0533 23.2352 13.2797 23.3029 13.5319L23.8057 15.4073C23.864 15.6248 23.8789 15.8516 23.8496 16.0748C23.8202 16.2981 23.7472 16.5133 23.6347 16.7083C23.5221 16.9034 23.3722 17.0743 23.1936 17.2114C23.015 17.3485 22.8111 17.449 22.5937 17.5073L5.20652 22.1659C4.76738 22.2834 4.29953 22.2217 3.90588 21.9943C3.51223 21.767 3.225 21.3926 3.10737 20.9534L2.63466 19.189C2.56446 18.9264 2.56714 18.6496 2.64242 18.3885C2.71771 18.1273 2.86274 17.8915 3.06195 17.7066L3.1318 17.6466C3.45209 17.3853 3.68998 17.0369 3.81682 16.6435C3.94365 16.2501 3.95403 15.8284 3.84668 15.4293C3.73934 15.0301 3.51885 14.6705 3.2118 14.3938C2.90475 14.117 2.52423 13.935 2.11609 13.8696C1.83381 13.824 1.57072 13.6979 1.3585 13.5063C1.14627 13.3146 0.993976 13.0658 0.919946 12.7896L0.445089 11.0183C0.386833 10.8008 0.371995 10.574 0.401422 10.3507C0.43085 10.1275 0.503966 9.91224 0.616594 9.71727C0.729223 9.52229 0.879158 9.35142 1.05784 9.21441C1.23651 9.07739 1.44043 8.97692 1.65795 8.91872L19.0438 4.26015C19.2613 4.20182 19.4881 4.18689 19.7113 4.21623C19.9346 4.24558 20.1498 4.3186 20.3449 4.43115C20.5399 4.5437 20.7108 4.69356 20.8479 4.87218C20.985 5.0508 21.0855 5.25467 21.1438 5.47215M19.3588 5.73229L2.12123 10.351C1.88337 10.4149 1.74195 10.6596 1.8058 10.8974L2.1448 12.163C2.87789 12.3107 3.55516 12.6602 4.10034 13.172C4.64552 13.6839 5.03695 14.3378 5.23052 15.0602C5.42412 15.7825 5.41216 16.5446 5.19598 17.2605C4.97979 17.9765 4.56799 18.6178 4.00695 19.1123L4.34595 20.3779C4.41023 20.6157 4.65452 20.7572 4.89237 20.6933L22.1295 16.0746C22.3674 16.0107 22.5088 15.766 22.4449 15.5281L22.1064 14.263C21.3732 14.1153 20.6959 13.7657 20.1507 13.2538C19.6056 12.7419 19.2142 12.0878 19.0207 11.3654C18.827 10.6431 18.8389 9.88106 19.055 9.16513C19.2711 8.4492 19.6828 7.80784 20.2438 7.31329L19.9048 6.04772C19.8897 5.9911 19.8636 5.93802 19.8279 5.89151C19.7922 5.845 19.7478 5.80598 19.697 5.77669C19.6462 5.74739 19.5902 5.72839 19.5321 5.72077C19.474 5.71315 19.4154 5.71707 19.3588 5.73229ZM18.8085 14.9719C18.8522 15.135 18.8633 15.3051 18.8412 15.4725C18.8192 15.6399 18.7644 15.8013 18.6799 15.9475C18.5955 16.0937 18.483 16.2219 18.3491 16.3246C18.2151 16.4274 18.0622 16.5028 17.8991 16.5464C17.736 16.5901 17.5659 16.6012 17.3985 16.5792C17.2311 16.5571 17.0697 16.5023 16.9235 16.4178C16.7772 16.3334 16.6491 16.221 16.5463 16.087C16.4436 15.953 16.3682 15.8001 16.3245 15.637C16.2363 15.3076 16.2826 14.9567 16.4531 14.6614C16.6237 14.3661 16.9045 14.1506 17.2339 14.0624C17.5633 13.9742 17.9143 14.0205 18.2096 14.191C18.5049 14.3616 18.7203 14.6425 18.8085 14.9719ZM17.9214 11.6599C18.0096 11.9893 17.9634 12.3402 17.7929 12.6356C17.6224 12.9309 17.3416 13.1464 17.0122 13.2347C16.6828 13.3229 16.3318 13.2767 16.0365 13.1062C15.7411 12.9357 15.5256 12.6548 15.4374 12.3254C15.3541 11.9978 15.4033 11.6505 15.5743 11.3588C15.7452 11.0671 16.0241 10.8545 16.3507 10.767C16.6773 10.6795 17.0251 10.7241 17.319 10.8912C17.6129 11.0583 17.8296 11.3345 17.9214 11.6599ZM17.0334 8.34829C17.0771 8.5114 17.0882 8.68151 17.0662 8.84892C17.0441 9.01633 16.9893 9.17776 16.9049 9.32399C16.8205 9.47022 16.7081 9.59839 16.5741 9.70119C16.4402 9.80398 16.2873 9.87938 16.1242 9.92308C15.9611 9.96678 15.7909 9.97793 15.6235 9.95589C15.4561 9.93385 15.2947 9.87905 15.1485 9.79462C15.0022 9.71019 14.8741 9.59779 14.7713 9.46383C14.6685 9.32986 14.5931 9.17697 14.5494 9.01386C14.4611 8.68447 14.5073 8.3335 14.6778 8.03817C14.8483 7.74284 15.1292 7.52734 15.4586 7.43908C15.788 7.35082 16.139 7.39703 16.4343 7.56754C16.7296 7.73805 16.9451 8.01889 17.0334 8.34829ZM12.5921 2.72029L13.6858 4.28201C13.7018 4.30515 13.7171 4.32858 13.7317 4.35229L3.26809 7.15601L10.2045 2.29901C10.577 2.03838 11.0377 1.93635 11.4853 2.01535C11.933 2.09436 12.3314 2.34792 12.5921 2.72029Z" fill="#1E1E1E"/>
</svg>
