<svg width="24" height="24" viewBox="0 0 24 24" fill="none" xmlns="http://www.w3.org/2000/svg">
<path d="M9.21372 14.9244L6.49169 16.5003L12 19.6893L17.5083 16.5003L14.7862 14.9244L15.7863 13.1924L21.5 16.5003L12 22.0003L2.5 16.5003L8.21364 13.1924L9.21372 14.9244Z" fill="#1E1E1E"/>
<path fill-rule="evenodd" clip-rule="evenodd" d="M10.8453 15.7499L11.134 16.25L12 17.75L12.866 16.25L13.1547 15.7499C14.4032 13.5875 16.255 10.3803 16.5475 9.87528C16.995 9.1025 17.25 8.20639 17.25 7.25C17.25 4.3505 14.8995 2 12 2C9.1005 2 6.75 4.3505 6.75 7.25C6.75 8.20639 7.005 9.1025 7.45252 9.87528C7.74497 10.3803 9.59681 13.5875 10.8453 15.7499ZM12 13.75C10.8225 11.7105 9.43383 9.3057 9.18328 8.873L12 13.75ZM12 13.75C13.1775 11.7105 14.5663 9.30556 14.8168 8.873C15.0921 8.3975 15.25 7.84606 15.25 7.25C15.25 5.45506 13.7949 3.99997 12 3.99997C10.2051 3.99997 8.75002 5.45506 8.75002 7.25C8.75002 7.84606 8.90789 8.3975 9.18328 8.873" fill="#1E1E1E"/>
<path d="M13.75 6.99998C13.75 7.9665 12.9665 8.75002 12 8.75002C11.0335 8.75002 10.25 7.9665 10.25 6.99998C10.25 6.03352 11.0335 5.25 12 5.25C12.9665 5.25 13.75 6.03352 13.75 6.99998Z" fill="#1E1E1E"/>
</svg>
