<svg width="61" height="30" viewBox="0 0 61 30" fill="none" xmlns="http://www.w3.org/2000/svg">
<path d="M12.0171 0C12.6825 0.0659324 13.3536 0.0893753 14.0104 0.205123C15.3013 0.432224 16.5338 0.854191 17.6964 1.49154C19.06 2.23877 20.2483 3.20871 21.2414 4.41894C21.9496 5.28045 22.5437 6.22695 22.9612 7.27601C23.2049 7.88698 23.4414 8.50382 23.6209 9.13677C23.7605 9.63053 23.8275 10.1492 23.8873 10.6605C23.9515 11.2041 23.9971 11.755 23.9999 12.3015C24.0028 12.9828 23.9401 13.6612 23.7805 14.3264C23.6508 14.8685 23.5425 15.4179 23.3744 15.9469C23.051 16.9564 22.5907 17.9072 22.0764 18.8288C21.4566 19.9365 20.7413 20.9768 19.9691 21.9745C19.1783 22.9958 18.3732 24.0053 17.5397 24.9898C16.4739 26.2499 15.3312 27.4352 14.1329 28.5648C13.8152 28.8652 13.5174 29.1875 13.2082 29.4982C12.8876 29.8205 12.4816 29.9553 12.0555 29.9949C11.6067 30.0359 11.2234 29.8278 10.9057 29.5172C10.189 28.8139 9.46519 28.1165 8.77842 27.3825C7.80098 26.3393 6.82069 25.2946 5.90025 24.1987C4.97126 23.0925 4.09214 21.9408 3.23439 20.776C2.42651 19.6801 1.72977 18.505 1.16981 17.2508C0.83497 16.5021 0.552853 15.7329 0.390422 14.9212C0.296383 14.4524 0.173847 13.9865 0.115429 13.5132C0.02424 12.7572 -0.0612499 11.9982 0.0598609 11.2334C0.15675 10.618 0.199495 9.99242 0.330579 9.38584C0.45454 8.8115 0.635494 8.24595 0.84067 7.69651C1.12849 6.9273 1.50037 6.19618 1.94492 5.50902C2.63311 4.44384 3.46664 3.5164 4.45262 2.73546C5.45143 1.94574 6.52718 1.29814 7.71264 0.858587C8.21846 0.671045 8.74137 0.53332 9.25858 0.380943C10.1591 0.114283 11.0824 0.0424898 12.0171 0ZM4.27309 6.28995C4.26597 6.31046 4.25884 6.33098 4.25172 6.35149C4.28022 6.38812 4.30159 6.43207 4.33579 6.46284C4.51531 6.62108 4.69627 6.77932 4.87865 6.93316C6.40179 8.2269 7.92352 9.5221 9.44951 10.8114C10.1919 11.4385 10.9413 12.0554 11.6894 12.6751C11.9871 12.9213 12.0128 12.9213 12.3106 12.6722C12.909 12.1726 13.506 11.6686 14.1044 11.1704C14.653 10.7133 15.2087 10.2679 15.7515 9.80488C16.5552 9.11772 17.3474 8.4159 18.151 7.72874C18.6226 7.32436 19.107 6.93609 19.5829 6.5361C19.6513 6.47749 19.7069 6.40277 19.8024 6.29728C19.6755 6.27677 19.6114 6.26065 19.5473 6.25772C19.2125 6.24746 18.8776 6.23574 18.5428 6.23574C14.2512 6.23281 9.96103 6.23134 5.66943 6.23574C5.20351 6.23574 4.73901 6.2709 4.27309 6.28995ZM14.2327 13.9689C14.1985 13.9938 14.1785 14.007 14.16 14.0216C13.6371 14.4597 13.1142 14.8993 12.5913 15.3359C12.1909 15.6699 11.8717 15.6919 11.5269 15.4077C11.0012 14.974 10.4754 14.5403 9.95533 14.0993C9.83564 13.9982 9.75443 13.9806 9.62904 14.0949C8.11587 15.4765 6.59985 16.8538 5.0824 18.2296C4.99548 18.3087 5.01258 18.3702 5.07955 18.4508C5.35597 18.7878 5.68368 18.9768 6.13535 18.9739C8.01613 18.9607 9.89691 18.9724 11.7777 18.9695C13.8594 18.9666 15.9411 18.9578 18.0242 18.9519C18.3846 18.9519 18.701 18.8699 18.9104 18.5197C19.0315 18.3175 19.0543 18.3175 18.8776 18.1578C18.0242 17.3871 17.1678 16.6179 16.3129 15.8472C15.6233 15.226 14.9351 14.6018 14.2355 13.9689H14.2327ZM3.83567 16.5065C5.34172 15.2011 6.80075 13.9366 8.28542 12.6502C6.66111 11.2525 5.0653 9.88107 3.46094 8.50089C3.44099 8.53898 3.42532 8.55803 3.41962 8.58147C3.31133 9.04593 3.17882 9.50745 3.10473 9.97777C3.01781 10.5375 2.9537 11.1045 2.93232 11.67C2.9138 12.155 2.95797 12.6429 2.99359 13.1293C3.02066 13.4956 3.04916 13.8663 3.1261 14.2238C3.24151 14.7645 3.39112 15.2992 3.545 15.8311C3.6077 16.045 3.72026 16.2443 3.83567 16.508V16.5065ZM15.7273 12.6869C17.2177 13.9601 18.6611 15.1952 20.1358 16.4553C20.8411 14.9564 21.1075 13.4048 21.1103 11.8019C21.1132 10.6928 20.9764 9.59829 20.6017 8.49795C18.9646 9.90598 17.363 11.2803 15.7273 12.6869Z" fill="#49159B"/>
<path d="M28 29V1" stroke="#49159B" stroke-linecap="round"/>
<path d="M33.8399 2.424H38.2079C38.6639 2.424 39.0119 2.536 39.2519 2.76C39.4919 2.976 39.6119 3.296 39.6119 3.72C39.6119 3.832 39.5799 3.972 39.5159 4.14C39.4599 4.308 39.2559 4.624 38.9039 5.088C38.8559 5.144 38.4679 5.592 37.7399 6.432C37.0199 7.272 36.4479 7.916 36.0239 8.364V8.496H38.6759C39.0439 8.496 39.3239 8.576 39.5159 8.736C39.7079 8.888 39.8039 9.144 39.8039 9.504C39.8039 9.664 39.7759 9.824 39.7199 9.984C39.6639 10.144 39.5599 10.272 39.4079 10.368C39.2559 10.456 39.0799 10.5 38.8799 10.5H34.2959C33.7919 10.5 33.4319 10.412 33.2159 10.236C32.9999 10.06 32.8919 9.78 32.8919 9.396C32.8919 9.22 32.9399 9.032 33.0359 8.832C33.1319 8.624 33.3239 8.352 33.6119 8.016C34.3879 7.088 35.3799 5.944 36.5879 4.584L36.5999 4.44H33.8399C33.5519 4.44 33.3239 4.356 33.1559 4.188C32.9959 4.02 32.9159 3.768 32.9159 3.432C32.9159 3.104 32.9999 2.856 33.1679 2.688C33.3359 2.512 33.5599 2.424 33.8399 2.424ZM46.9527 7.392C46.9527 7.792 46.8887 8.188 46.7607 8.58C46.6407 8.964 46.4407 9.304 46.1607 9.6C45.8807 9.896 45.5367 10.132 45.1287 10.308C44.7287 10.484 44.2887 10.572 43.8087 10.572C43.4327 10.572 43.0567 10.512 42.6807 10.392C42.3127 10.264 41.9727 10.072 41.6607 9.816C41.3567 9.552 41.1127 9.216 40.9287 8.808C40.7447 8.392 40.6527 7.92 40.6527 7.392C40.6527 6.992 40.7127 6.596 40.8327 6.204C40.9607 5.812 41.1647 5.464 41.4447 5.16C41.7247 4.856 42.0687 4.612 42.4767 4.428C42.8847 4.244 43.3287 4.152 43.8087 4.152C44.2887 4.152 44.7287 4.244 45.1287 4.428C45.5367 4.612 45.8807 4.856 46.1607 5.16C46.4407 5.464 46.6407 5.812 46.7607 6.204C46.8887 6.596 46.9527 6.992 46.9527 7.392ZM42.7167 7.356C42.7167 7.828 42.8167 8.184 43.0167 8.424C43.2167 8.656 43.4767 8.772 43.7967 8.772C44.1247 8.772 44.3847 8.656 44.5767 8.424C44.7767 8.184 44.8767 7.828 44.8767 7.356C44.8767 6.892 44.7767 6.544 44.5767 6.312C44.3767 6.072 44.1167 5.952 43.7967 5.952C43.4767 5.952 43.2167 6.072 43.0167 6.312C42.8167 6.544 42.7167 6.892 42.7167 7.356ZM48.7327 4.236H48.7567C49.1247 4.236 49.3887 4.312 49.5487 4.464C49.7087 4.616 49.7887 4.86 49.7887 5.196V5.484C49.8767 5.236 50.0047 5.012 50.1727 4.812C50.3407 4.612 50.5407 4.452 50.7727 4.332C51.0047 4.212 51.2807 4.152 51.6007 4.152C51.8647 4.152 52.1127 4.196 52.3447 4.284C52.5767 4.372 52.7847 4.512 52.9687 4.704C53.1527 4.888 53.2967 5.136 53.4007 5.448C53.5047 5.752 53.5567 6.108 53.5567 6.516V9.54C53.5567 9.876 53.4767 10.12 53.3167 10.272C53.1647 10.424 52.9047 10.5 52.5367 10.5H52.4407C51.7927 10.5 51.4687 10.18 51.4687 9.54V7.032C51.4687 6.432 51.2087 6.132 50.6887 6.132C50.5607 6.132 50.4247 6.172 50.2807 6.252C50.1447 6.332 50.0287 6.484 49.9327 6.708C49.8367 6.924 49.7887 7.184 49.7887 7.488V9.552C49.7887 9.888 49.7087 10.132 49.5487 10.284C49.3967 10.428 49.1407 10.5 48.7807 10.5H48.7327C48.3647 10.5 48.1007 10.428 47.9407 10.284C47.7887 10.132 47.7127 9.888 47.7127 9.552V5.196C47.7127 4.86 47.7927 4.616 47.9527 4.464C48.1207 4.312 48.3807 4.236 48.7327 4.236ZM55.0264 4.236H55.4224C55.9344 4.236 56.2464 4.46 56.3584 4.908L56.3944 5.052C56.4104 5.108 56.5224 5.58 56.7304 6.468C56.9464 7.356 57.1544 8.104 57.3544 8.712C57.7784 7.352 58.1024 6.084 58.3264 4.908C58.4144 4.46 58.7264 4.236 59.2624 4.236H59.6464C59.8944 4.236 60.0984 4.284 60.2584 4.38C60.4264 4.476 60.5104 4.62 60.5104 4.812C60.5104 4.868 60.4944 4.952 60.4624 5.064C60.4304 5.176 60.4144 5.24 60.4144 5.256C59.8864 7.496 59.1264 9.716 58.1344 11.916C57.9584 12.3 57.7824 12.56 57.6064 12.696C57.4384 12.84 57.2584 12.912 57.0664 12.912H56.5144C56.2824 12.912 56.0984 12.852 55.9624 12.732C55.8264 12.612 55.7584 12.452 55.7584 12.252C55.7584 12.148 55.7944 12.004 55.8664 11.82C55.9384 11.644 56.0704 11.384 56.2624 11.04C56.4544 10.704 56.5704 10.492 56.6104 10.404H56.5984C56.2464 10.308 55.9384 10.012 55.6744 9.516C55.4984 9.188 55.2984 8.744 55.0744 8.184C54.8504 7.624 54.5624 6.596 54.2104 5.1C54.1784 4.972 54.1624 4.876 54.1624 4.812C54.1624 4.612 54.2424 4.468 54.4024 4.38C54.5704 4.284 54.7784 4.236 55.0264 4.236Z" fill="#49159B"/>
<path d="M39.6328 24.5H39.0762C39.0059 24.8555 38.875 25.1641 38.6836 25.4258C38.4922 25.6875 38.2637 25.9043 37.998 26.0762C37.7324 26.252 37.4395 26.3809 37.1191 26.4629C36.8027 26.5488 36.4805 26.5918 36.1523 26.5918C35.7812 26.5918 35.416 26.5352 35.0566 26.4219C34.7012 26.3125 34.3828 26.1445 34.1016 25.918C33.8242 25.6953 33.5996 25.416 33.4277 25.0801C33.2598 24.7441 33.1758 24.3516 33.1758 23.9023V19.6602H34.6699V23.9023C34.6699 24.1016 34.7129 24.2754 34.7988 24.4238C34.8848 24.5723 34.9961 24.6953 35.1328 24.793C35.2734 24.8945 35.4316 24.9707 35.6074 25.0215C35.7871 25.0723 35.9688 25.0977 36.1523 25.0977C36.2812 25.0977 36.4082 25.084 36.5332 25.0566C36.6621 25.0293 36.7832 24.9902 36.8965 24.9395C37.0137 24.8887 37.1211 24.8262 37.2188 24.752C37.3164 24.6777 37.3984 24.5938 37.4648 24.5H35.7188V23.0059H39.6328V24.5ZM36.2871 27.9219C36.2871 27.8164 36.3066 27.7168 36.3457 27.623C36.3848 27.5332 36.4375 27.4531 36.5039 27.3828C36.5742 27.3164 36.6543 27.2637 36.7441 27.2246C36.8379 27.1855 36.9375 27.166 37.043 27.166C37.1484 27.166 37.2461 27.1855 37.3359 27.2246C37.4297 27.2637 37.5098 27.3164 37.5762 27.3828C37.6465 27.4531 37.7012 27.5332 37.7402 27.623C37.7793 27.7168 37.7988 27.8164 37.7988 27.9219C37.7988 28.0273 37.7793 28.125 37.7402 28.2148C37.7012 28.3086 37.6465 28.3887 37.5762 28.4551C37.5098 28.5254 37.4297 28.5801 37.3359 28.6191C37.2461 28.6582 37.1484 28.6777 37.043 28.6777C36.9375 28.6777 36.8379 28.6582 36.7441 28.6191C36.6543 28.5801 36.5742 28.5254 36.5039 28.4551C36.4375 28.3887 36.3848 28.3086 36.3457 28.2148C36.3066 28.125 36.2871 28.0273 36.2871 27.9219ZM34.4824 27.9219C34.4824 27.8164 34.502 27.7168 34.541 27.623C34.5801 27.5332 34.6328 27.4531 34.6992 27.3828C34.7695 27.3164 34.8496 27.2637 34.9395 27.2246C35.0332 27.1855 35.1328 27.166 35.2383 27.166C35.3438 27.166 35.4414 27.1855 35.5312 27.2246C35.625 27.2637 35.7051 27.3164 35.7715 27.3828C35.8418 27.4531 35.8965 27.5332 35.9355 27.623C35.9785 27.7168 36 27.8164 36 27.9219C36 28.0273 35.9785 28.125 35.9355 28.2148C35.8965 28.3086 35.8418 28.3887 35.7715 28.4551C35.7051 28.5254 35.625 28.5801 35.5312 28.6191C35.4414 28.6582 35.3438 28.6777 35.2383 28.6777C35.1328 28.6777 35.0332 28.6582 34.9395 28.6191C34.8496 28.5801 34.7695 28.5254 34.6992 28.4551C34.6328 28.3887 34.5801 28.3086 34.541 28.2148C34.502 28.125 34.4824 28.0273 34.4824 27.9219ZM39.1465 23.0059H41.9941V24.5H39.1465V23.0059ZM41.502 23.0059H44.3496V24.5H41.502V23.0059ZM43.8574 23.0059H46.7051V24.5H43.8574V23.0059ZM48.0059 17.3516C48.0059 17.2461 48.0254 17.1484 48.0645 17.0586C48.1035 16.9648 48.1562 16.8848 48.2227 16.8184C48.293 16.748 48.373 16.6934 48.4629 16.6543C48.5566 16.6113 48.6562 16.5898 48.7617 16.5898C48.8672 16.5898 48.9648 16.6113 49.0547 16.6543C49.1484 16.6934 49.2285 16.748 49.2949 16.8184C49.3652 16.8848 49.4199 16.9648 49.459 17.0586C49.498 17.1484 49.5176 17.2461 49.5176 17.3516C49.5176 17.457 49.498 17.5566 49.459 17.6504C49.4199 17.7402 49.3652 17.8203 49.2949 17.8906C49.2285 17.957 49.1484 18.0098 49.0547 18.0488C48.9648 18.0879 48.8672 18.1074 48.7617 18.1074C48.6562 18.1074 48.5566 18.0879 48.4629 18.0488C48.373 18.0098 48.293 17.957 48.2227 17.8906C48.1562 17.8203 48.1035 17.7402 48.0645 17.6504C48.0254 17.5566 48.0059 17.457 48.0059 17.3516ZM49.5176 18.6758V22.5547C49.5176 22.8242 49.4668 23.0781 49.3652 23.3164C49.2637 23.5508 49.125 23.7559 48.9492 23.9316C48.7734 24.1074 48.5664 24.2461 48.3281 24.3477C48.0938 24.4492 47.8438 24.5 47.5781 24.5H46.2129V23.0059H47.5781C47.6992 23.0059 47.8027 22.9629 47.8887 22.877C47.9785 22.7871 48.0234 22.6797 48.0234 22.5547V18.6758H49.5176ZM51.5332 25.0918H53.4141C53.6367 25.0918 53.8359 25.041 54.0117 24.9395C54.1875 24.8379 54.3223 24.6914 54.416 24.5H52.6875C52.4219 24.5 52.1719 24.4492 51.9375 24.3477C51.7031 24.2461 51.498 24.1094 51.3223 23.9375C51.1465 23.7617 51.0078 23.5566 50.9062 23.3223C50.8047 23.0879 50.7539 22.8379 50.7539 22.5723V21.3887C50.7539 21.0137 50.8223 20.6621 50.959 20.334C51.0996 20.0059 51.2891 19.7188 51.5273 19.4727C51.7695 19.2266 52.0508 19.0332 52.3711 18.8926C52.6953 18.748 53.0391 18.6758 53.4023 18.6758C53.7695 18.6758 54.1133 18.75 54.4336 18.8984C54.7578 19.043 55.0391 19.2383 55.2773 19.4844C55.5195 19.7305 55.709 20.0156 55.8457 20.3398C55.9863 20.6641 56.0566 21.0039 56.0566 21.3594V23.9375C56.0566 24.3008 55.9863 24.6426 55.8457 24.9629C55.709 25.2871 55.5215 25.5684 55.2832 25.8066C55.0449 26.0488 54.7637 26.2383 54.4395 26.375C54.1191 26.5156 53.7773 26.5859 53.4141 26.5859H51.5332V25.0918ZM54.5625 23.0059V21.3594C54.5625 21.2031 54.5312 21.0527 54.4688 20.9082C54.4102 20.7637 54.3281 20.6387 54.2227 20.5332C54.1172 20.4238 53.9941 20.3379 53.8535 20.2754C53.7129 20.209 53.5625 20.1758 53.4023 20.1758C53.2422 20.1758 53.0918 20.207 52.9512 20.2695C52.8145 20.332 52.6934 20.418 52.5879 20.5273C52.4863 20.6367 52.4043 20.7656 52.3418 20.9141C52.2832 21.0625 52.2539 21.2207 52.2539 21.3887V22.5723C52.2539 22.6934 52.2949 22.7969 52.377 22.8828C52.4629 22.9648 52.5664 23.0059 52.6875 23.0059H54.5625ZM58.2949 17.3516C58.2949 17.2461 58.3145 17.1484 58.3535 17.0586C58.3965 16.9648 58.4512 16.8848 58.5176 16.8184C58.5879 16.748 58.668 16.6934 58.7578 16.6543C58.8516 16.6113 58.9512 16.5898 59.0566 16.5898C59.1621 16.5898 59.2598 16.6113 59.3496 16.6543C59.4434 16.6934 59.5234 16.748 59.5898 16.8184C59.6602 16.8848 59.7148 16.9648 59.7539 17.0586C59.7969 17.1484 59.8184 17.2461 59.8184 17.3516C59.8184 17.457 59.7969 17.5566 59.7539 17.6504C59.7148 17.7402 59.6602 17.8203 59.5898 17.8906C59.5234 17.957 59.4434 18.0098 59.3496 18.0488C59.2598 18.0879 59.1621 18.1074 59.0566 18.1074C58.9512 18.1074 58.8516 18.0879 58.7578 18.0488C58.668 18.0098 58.5879 17.957 58.5176 17.8906C58.4512 17.8203 58.3965 17.7402 58.3535 17.6504C58.3145 17.5566 58.2949 17.457 58.2949 17.3516ZM59.8184 18.6758V23.6973C59.8184 23.7051 59.8164 23.7617 59.8125 23.8672C59.8086 23.9727 59.7852 24.1074 59.7422 24.2715C59.7031 24.4355 59.6367 24.623 59.543 24.834C59.4492 25.0449 59.3125 25.2598 59.1328 25.4785C58.9531 25.7012 58.7227 25.9199 58.4414 26.1348C58.1602 26.3496 57.8125 26.5449 57.3984 26.7207L56.8184 25.3379C57.0098 25.2559 57.1777 25.1699 57.3223 25.0801C57.4707 24.9941 57.5977 24.9043 57.7031 24.8105C57.8125 24.7207 57.9023 24.6309 57.9727 24.541C58.043 24.4551 58.1016 24.373 58.1484 24.2949C58.2539 24.1074 58.3105 23.9238 58.3184 23.7441V18.6758H59.8184Z" fill="#49159B"/>
</svg>
