<?xml version="1.0" standalone="no"?>
<!DOCTYPE svg PUBLIC "-//W3C//DTD SVG 1.1//EN" "http://www.w3.org/Graphics/SVG/1.1/DTD/svg11.dtd" >
<svg xmlns="http://www.w3.org/2000/svg" xmlns:xlink="http://www.w3.org/1999/xlink" version="1.1">
<metadata>
Created by FontForge 20201107 at Mon Mar  6 16:33:34 2023
 By 
Copyright 2009 The Cairo Project Authors (https://github.com/Gue3bara/Cairo)
</metadata>
<defs>
<font id="Cairo-Light" horiz-adv-x="560" >
  <font-face 
    font-family="Cairo Light"
    font-weight="300"
    font-stretch="normal"
    units-per-em="1000"
    panose-1="0 0 0 0 0 0 0 0 0 0"
    ascent="800"
    descent="-200"
    x-height="500"
    cap-height="697"
    bbox="-224 -406 1596 1069"
    underline-thickness="50"
    underline-position="-125"
    unicode-range="U+0010-FEFC"
  />
<missing-glyph horiz-adv-x="235" 
d="M21 709h186v-709h-186v709zM41 689v-669h146v669h-146z" />
    <glyph glyph-name="uniFC43" unicode="&#xfedf;&#xfef0;" horiz-adv-x="988" arabic-form="isolated" 
d="M861 0v726h48v-726h-48zM754 0v46h107v-46h-107zM754 0q-7 0 -11 1.5t-6 4.5t-2.5 7.5t-0.5 9.5q0 7 1.5 11.5t5.5 8t13 3.5v-46zM307 -248q-56 0 -104.5 16t-85 44.5t-57 68t-20.5 87.5q0 21 3.5 55.5t9.5 77t13 85.5l48 -7q-12 -69 -18.5 -127t-6.5 -84q0 -49 28 -87.5
t77 -60.5t113 -22h283q85 0 130.5 49t45.5 142v30h48v-31q0 -69 -25 -122.5t-75 -83.5t-124 -30h-283zM688 0q-29 0 -63 5.5t-64 25.5l27 39q13 -9 27.5 -14.5t32.5 -7.5t40 -2h182v-46h-182zM870 0v46q6 0 10 -2t6 -5t3 -7t1 -9t-1 -9.5t-3 -7.5t-6 -4.5t-10 -1.5z" />
    <glyph glyph-name="uniFC44" unicode="&#xfedf;&#xfef2;" horiz-adv-x="988" arabic-form="isolated" 
d="M861 0v726h48v-726h-48zM754 0v46h107v-46h-107zM754 0q-7 0 -11 1.5t-6 4.5t-2.5 7.5t-0.5 9.5q0 7 1.5 11.5t5.5 8t13 3.5v-46zM307 -248q-56 0 -104.5 16t-85 44.5t-57 68t-20.5 87.5q0 21 3.5 55.5t9.5 77t13 85.5l48 -7q-12 -69 -18.5 -127t-6.5 -84q0 -49 28 -87.5
t77 -60.5t113 -22h283q85 0 130.5 49t45.5 142v30h48v-31q0 -69 -25 -122.5t-75 -83.5t-124 -30h-283zM688 0q-29 0 -63 5.5t-64 25.5l27 39q13 -9 27.5 -14.5t32.5 -7.5t40 -2h182v-46h-182zM870 0v46q6 0 10 -2t6 -5t3 -7t1 -9t-1 -9.5t-3 -7.5t-6 -4.5t-10 -1.5z
M350 -379v66h49v-66h-49zM456 -379v66h49v-66h-49z" />
    <glyph glyph-name="uniFC64" unicode="&#xfe8c;&#xfeae;" horiz-adv-x="539" arabic-form="final" 
d="M388 0v500h49v-473l-22 19h124v-46h-151zM183 362v46h205v-46h-205zM0 -216q-13 0 -27.5 1.5t-28.5 2.5l6 46q14 -1 27 -2.5t23 -1.5q61 0 97.5 43.5t36.5 115.5v511h49v-511q0 -61 -23 -107.5t-64.5 -72t-95.5 -25.5zM539 0v46q7 0 11 -2t6 -5t2.5 -7t0.5 -9t-0.5 -9.5
t-2.5 -7.5t-6 -4.5t-11 -1.5zM379 578q-14 17 -21.5 33.5t-7.5 33.5q0 25 12 43.5t31.5 28.5t41.5 10q13 0 25.5 -3.5t23.5 -10.5l-18 -30q-8 5 -15.5 6.5t-15.5 1.5q-20 0 -33.5 -13t-13.5 -33q0 -13 5 -24t17 -25zM331 578v36h163v-36h-163z" />
    <glyph glyph-name="uniFC65" unicode="&#xfe8c;&#xfeb0;" horiz-adv-x="539" arabic-form="final" 
d="M388 0v500h49v-473l-22 19h124v-46h-151zM183 362v46h205v-46h-205zM0 -216q-13 0 -27.5 1.5t-28.5 2.5l6 46q14 -1 27 -2.5t23 -1.5q61 0 97.5 43.5t36.5 115.5v511h49v-511q0 -61 -23 -107.5t-64.5 -72t-95.5 -25.5zM539 0v46q7 0 11 -2t6 -5t2.5 -7t0.5 -9t-0.5 -9.5
t-2.5 -7.5t-6 -4.5t-11 -1.5zM379 578q-14 17 -21.5 33.5t-7.5 33.5q0 25 12 43.5t31.5 28.5t41.5 10q13 0 25.5 -3.5t23.5 -10.5l-18 -30q-8 5 -15.5 6.5t-15.5 1.5q-20 0 -33.5 -13t-13.5 -33q0 -13 5 -24t17 -25zM331 578v36h163v-36h-163zM134 579v66h49v-66h-49z" />
    <glyph glyph-name="uniFC67" unicode="&#xfe8c;&#xfee6;" horiz-adv-x="923" arabic-form="final" 
d="M772 0v500h48v-473l-21 19h124v-46h-151zM566 362v46h206v-46h-206zM309 -248q-75 0 -136.5 27.5t-97 77t-35.5 113.5q0 21 4 57t9.5 79t12.5 87.5t13 82.5l49 -8q-12 -69 -21 -129t-13.5 -104t-4.5 -65q0 -50 28 -89t78 -61t114 -22t110.5 20.5t72.5 58.5t26 88v535h48
v-535q0 -70 -35.5 -117.5t-94 -71.5t-127.5 -24zM281 500v66h48v-66h-48zM923 0v46q6 0 10 -2t6 -5t3 -7t1 -9t-1 -9.5t-3 -7.5t-6 -4.5t-10 -1.5zM762 578q-14 17 -21.5 33.5t-7.5 33.5q0 25 12 43.5t31.5 28.5t41.5 10q13 0 25.5 -3.5t23.5 -10.5l-18 -30q-8 5 -15.5 6.5
t-15.5 1.5q-20 0 -33.5 -13t-13.5 -33q0 -13 5 -24t17 -25zM714 578v36h163v-36h-163z" />
    <glyph glyph-name="uniFC68" unicode="&#xfe8c;&#xfef0;" horiz-adv-x="1047" arabic-form="final" 
d="M307 -248q-56 0 -104.5 16t-85 44.5t-57 68t-20.5 87.5q0 21 3.5 55.5t9.5 77t13 85.5l48 -7q-12 -69 -18.5 -127t-6.5 -84q0 -49 28 -87.5t77 -60.5t113 -22h283q85 0 130.5 48t45.5 147q0 47 -13.5 73.5t-48 44.5t-98.5 37q-44 13 -82 25t-66 30t-44 48t-16 79
q0 57 22.5 95t66 56.5t106.5 18.5l-3 -46q-48 0 -80 -12.5t-48 -39.5t-16 -71q0 -35 11 -57t32 -35.5t53.5 -24t75.5 -22.5q46 -13 82.5 -27t62 -35.5t38.5 -55t13 -86.5q0 -69 -25 -122.5t-75 -83.5t-124 -30h-283zM896 0v500h48v-473l-21 19h124v-46h-151zM590 454l3 46
h303v-46h-306zM1047 0v46q7 0 11 -2t6 -5t2.5 -7t0.5 -9t-0.5 -9.5t-2.5 -7.5t-6 -4.5t-11 -1.5zM829 573q-14 17 -21.5 33.5t-7.5 33.5q0 25 12 43.5t31.5 28.5t41.5 10q13 0 25.5 -3.5t23.5 -10.5l-18 -30q-8 5 -15.5 6.5t-15.5 1.5q-20 0 -33.5 -13t-13.5 -33
q0 -13 5 -24t17 -25zM781 573v36h163v-36h-163z" />
    <glyph glyph-name="uniFC69" unicode="&#xfe8c;&#xfef2;" horiz-adv-x="1047" arabic-form="final" 
d="M307 -248q-56 0 -104.5 16t-85 44.5t-57 68t-20.5 87.5q0 21 3.5 55.5t9.5 77t13 85.5l48 -7q-12 -69 -18.5 -127t-6.5 -84q0 -49 28 -87.5t77 -60.5t113 -22h283q85 0 130.5 48t45.5 147q0 47 -13.5 73.5t-48 44.5t-98.5 37q-44 13 -82 25t-66 30t-44 48t-16 79
q0 57 22.5 95t66 56.5t106.5 18.5l-3 -46q-48 0 -80 -12.5t-48 -39.5t-16 -71q0 -35 11 -57t32 -35.5t53.5 -24t75.5 -22.5q46 -13 82.5 -27t62 -35.5t38.5 -55t13 -86.5q0 -69 -25 -122.5t-75 -83.5t-124 -30h-283zM896 0v500h48v-473l-21 19h124v-46h-151zM590 454l3 46
h303v-46h-306zM1047 0v46q7 0 11 -2t6 -5t2.5 -7t0.5 -9t-0.5 -9.5t-2.5 -7.5t-6 -4.5t-11 -1.5zM829 573q-14 17 -21.5 33.5t-7.5 33.5q0 25 12 43.5t31.5 28.5t41.5 10q13 0 25.5 -3.5t23.5 -10.5l-18 -30q-8 5 -15.5 6.5t-15.5 1.5q-20 0 -33.5 -13t-13.5 -33
q0 -13 5 -24t17 -25zM781 573v36h163v-36h-163zM350 -406v66h49v-66h-49zM456 -406v66h49v-66h-49z" />
    <glyph glyph-name="uniFC6A" unicode="&#xfe92;&#xfeae;" horiz-adv-x="539" arabic-form="final" 
d="M388 0v500h49v-473l-22 19h124v-46h-151zM183 362v46h205v-46h-205zM0 -216q-13 0 -27.5 1.5t-28.5 2.5l6 46q14 -1 27 -2.5t23 -1.5q61 0 97.5 43.5t36.5 115.5v511h49v-511q0 -61 -23 -107.5t-64.5 -72t-95.5 -25.5zM539 0v46q7 0 11 -2t6 -5t2.5 -7t0.5 -9t-0.5 -9.5
t-2.5 -7.5t-6 -4.5t-11 -1.5zM388 -144v66h49v-66h-49z" />
    <glyph glyph-name="uniFC6B" unicode="&#xfe92;&#xfeb0;" horiz-adv-x="539" arabic-form="final" 
d="M388 0v500h49v-473l-22 19h124v-46h-151zM183 362v46h205v-46h-205zM0 -216q-13 0 -27.5 1.5t-28.5 2.5l6 46q14 -1 27 -2.5t23 -1.5q61 0 97.5 43.5t36.5 115.5v511h49v-511q0 -61 -23 -107.5t-64.5 -72t-95.5 -25.5zM539 0v46q7 0 11 -2t6 -5t2.5 -7t0.5 -9t-0.5 -9.5
t-2.5 -7.5t-6 -4.5t-11 -1.5zM388 -144v66h49v-66h-49zM134 579v66h49v-66h-49z" />
    <glyph glyph-name="uniFC6D" unicode="&#xfe92;&#xfee6;" horiz-adv-x="923" arabic-form="final" 
d="M772 0v500h48v-473l-21 19h124v-46h-151zM566 362v46h206v-46h-206zM309 -248q-75 0 -136.5 27.5t-97 77t-35.5 113.5q0 21 4 57t9.5 79t12.5 87.5t13 82.5l49 -8q-12 -69 -21 -129t-13.5 -104t-4.5 -65q0 -50 28 -89t78 -61t114 -22t110.5 20.5t72.5 58.5t26 88v535h48
v-535q0 -70 -35.5 -117.5t-94 -71.5t-127.5 -24zM281 500v66h48v-66h-48zM923 0v46q6 0 10 -2t6 -5t3 -7t1 -9t-1 -9.5t-3 -7.5t-6 -4.5t-10 -1.5zM772 -144v66h49v-66h-49z" />
    <glyph glyph-name="uniFC6E" unicode="&#xfe92;&#xfef0;" horiz-adv-x="1047" arabic-form="final" 
d="M307 -248q-56 0 -104.5 16t-85 44.5t-57 68t-20.5 87.5q0 21 3.5 55.5t9.5 77t13 85.5l48 -7q-12 -69 -18.5 -127t-6.5 -84q0 -49 28 -87.5t77 -60.5t113 -22h283q85 0 130.5 48t45.5 147q0 47 -13.5 73.5t-48 44.5t-98.5 37q-44 13 -82 25t-66 30t-44 48t-16 79
q0 57 22.5 95t66 56.5t106.5 18.5l-3 -46q-48 0 -80 -12.5t-48 -39.5t-16 -71q0 -35 11 -57t32 -35.5t53.5 -24t75.5 -22.5q46 -13 82.5 -27t62 -35.5t38.5 -55t13 -86.5q0 -69 -25 -122.5t-75 -83.5t-124 -30h-283zM896 0v500h48v-473l-21 19h124v-46h-151zM590 454l3 46
h303v-46h-306zM1047 0v46q7 0 11 -2t6 -5t2.5 -7t0.5 -9t-0.5 -9.5t-2.5 -7.5t-6 -4.5t-11 -1.5zM896 -144v66h49v-66h-49z" />
    <glyph glyph-name="uniFC6F" unicode="&#xfe92;&#xfef2;" horiz-adv-x="1047" arabic-form="final" 
d="M307 -248q-56 0 -104.5 16t-85 44.5t-57 68t-20.5 87.5q0 21 3.5 55.5t9.5 77t13 85.5l48 -7q-12 -69 -18.5 -127t-6.5 -84q0 -49 28 -87.5t77 -60.5t113 -22h283q85 0 130.5 48t45.5 147q0 47 -13.5 73.5t-48 44.5t-98.5 37q-44 13 -82 25t-66 30t-44 48t-16 79
q0 57 22.5 95t66 56.5t106.5 18.5l-3 -46q-48 0 -80 -12.5t-48 -39.5t-16 -71q0 -35 11 -57t32 -35.5t53.5 -24t75.5 -22.5q46 -13 82.5 -27t62 -35.5t38.5 -55t13 -86.5q0 -69 -25 -122.5t-75 -83.5t-124 -30h-283zM896 0v500h48v-473l-21 19h124v-46h-151zM590 454l3 46
h303v-46h-306zM1047 0v46q7 0 11 -2t6 -5t2.5 -7t0.5 -9t-0.5 -9.5t-2.5 -7.5t-6 -4.5t-11 -1.5zM896 -144v66h49v-66h-49zM350 -406v66h49v-66h-49zM456 -406v66h49v-66h-49z" />
    <glyph glyph-name="uniFC70" unicode="&#xfe98;&#xfeae;" horiz-adv-x="539" arabic-form="final" 
d="M388 0v500h49v-473l-22 19h124v-46h-151zM183 362v46h205v-46h-205zM0 -216q-13 0 -27.5 1.5t-28.5 2.5l6 46q14 -1 27 -2.5t23 -1.5q61 0 97.5 43.5t36.5 115.5v511h49v-511q0 -61 -23 -107.5t-64.5 -72t-95.5 -25.5zM539 0v46q7 0 11 -2t6 -5t2.5 -7t0.5 -9t-0.5 -9.5
t-2.5 -7.5t-6 -4.5t-11 -1.5zM336 579v66h49v-66h-49zM442 579v66h49v-66h-49z" />
    <glyph glyph-name="uniFC71" unicode="&#xfe98;&#xfeb0;" horiz-adv-x="539" arabic-form="final" 
d="M388 0v500h49v-473l-22 19h124v-46h-151zM183 362v46h205v-46h-205zM0 -216q-13 0 -27.5 1.5t-28.5 2.5l6 46q14 -1 27 -2.5t23 -1.5q61 0 97.5 43.5t36.5 115.5v511h49v-511q0 -61 -23 -107.5t-64.5 -72t-95.5 -25.5zM539 0v46q7 0 11 -2t6 -5t2.5 -7t0.5 -9t-0.5 -9.5
t-2.5 -7.5t-6 -4.5t-11 -1.5zM134 579v66h49v-66h-49zM336 579v66h49v-66h-49zM442 579v66h49v-66h-49z" />
    <glyph glyph-name="uniFC73" unicode="&#xfe98;&#xfee6;" horiz-adv-x="923" arabic-form="final" 
d="M772 0v500h48v-473l-21 19h124v-46h-151zM566 362v46h206v-46h-206zM309 -248q-75 0 -136.5 27.5t-97 77t-35.5 113.5q0 21 4 57t9.5 79t12.5 87.5t13 82.5l49 -8q-12 -69 -21 -129t-13.5 -104t-4.5 -65q0 -50 28 -89t78 -61t114 -22t110.5 20.5t72.5 58.5t26 88v535h48
v-535q0 -70 -35.5 -117.5t-94 -71.5t-127.5 -24zM281 500v66h48v-66h-48zM923 0v46q6 0 10 -2t6 -5t3 -7t1 -9t-1 -9.5t-3 -7.5t-6 -4.5t-10 -1.5zM719 579v66h49v-66h-49zM825 579v66h49v-66h-49z" />
    <glyph glyph-name="uniFC74" unicode="&#xfe98;&#xfef0;" horiz-adv-x="1047" arabic-form="final" 
d="M307 -248q-56 0 -104.5 16t-85 44.5t-57 68t-20.5 87.5q0 21 3.5 55.5t9.5 77t13 85.5l48 -7q-12 -69 -18.5 -127t-6.5 -84q0 -49 28 -87.5t77 -60.5t113 -22h283q85 0 130.5 48t45.5 147q0 47 -13.5 73.5t-48 44.5t-98.5 37q-44 13 -82 25t-66 30t-44 48t-16 79
q0 57 22.5 95t66 56.5t106.5 18.5l-3 -46q-48 0 -80 -12.5t-48 -39.5t-16 -71q0 -35 11 -57t32 -35.5t53.5 -24t75.5 -22.5q46 -13 82.5 -27t62 -35.5t38.5 -55t13 -86.5q0 -69 -25 -122.5t-75 -83.5t-124 -30h-283zM896 0v500h48v-473l-21 19h124v-46h-151zM590 454l3 46
h303v-46h-306zM1047 0v46q7 0 11 -2t6 -5t2.5 -7t0.5 -9t-0.5 -9.5t-2.5 -7.5t-6 -4.5t-11 -1.5zM790 579v66h49v-66h-49zM896 579v66h49v-66h-49z" />
    <glyph glyph-name="uniFC75" unicode="&#xfe98;&#xfef2;" horiz-adv-x="1047" arabic-form="final" 
d="M307 -248q-56 0 -104.5 16t-85 44.5t-57 68t-20.5 87.5q0 21 3.5 55.5t9.5 77t13 85.5l48 -7q-12 -69 -18.5 -127t-6.5 -84q0 -49 28 -87.5t77 -60.5t113 -22h283q85 0 130.5 48t45.5 147q0 47 -13.5 73.5t-48 44.5t-98.5 37q-44 13 -82 25t-66 30t-44 48t-16 79
q0 57 22.5 95t66 56.5t106.5 18.5l-3 -46q-48 0 -80 -12.5t-48 -39.5t-16 -71q0 -35 11 -57t32 -35.5t53.5 -24t75.5 -22.5q46 -13 82.5 -27t62 -35.5t38.5 -55t13 -86.5q0 -69 -25 -122.5t-75 -83.5t-124 -30h-283zM896 0v500h48v-473l-21 19h124v-46h-151zM590 454l3 46
h303v-46h-306zM1047 0v46q7 0 11 -2t6 -5t2.5 -7t0.5 -9t-0.5 -9.5t-2.5 -7.5t-6 -4.5t-11 -1.5zM790 579v66h49v-66h-49zM896 579v66h49v-66h-49zM350 -406v66h49v-66h-49zM456 -406v66h49v-66h-49z" />
    <glyph glyph-name="uniFC76" unicode="&#xfe9c;&#xfeae;" horiz-adv-x="539" arabic-form="final" 
d="M388 0v500h49v-473l-22 19h124v-46h-151zM183 362v46h205v-46h-205zM0 -216q-13 0 -27.5 1.5t-28.5 2.5l6 46q14 -1 27 -2.5t23 -1.5q61 0 97.5 43.5t36.5 115.5v511h49v-511q0 -61 -23 -107.5t-64.5 -72t-95.5 -25.5zM539 0v46q7 0 11 -2t6 -5t2.5 -7t0.5 -9t-0.5 -9.5
t-2.5 -7.5t-6 -4.5t-11 -1.5zM390 686v64h46v-64h-46zM335 579v66h49v-66h-49zM441 579v66h49v-66h-49z" />
    <glyph glyph-name="uniFC77" unicode="&#xfe9c;&#xfeb0;" horiz-adv-x="539" arabic-form="final" 
d="M388 0v500h49v-473l-22 19h124v-46h-151zM183 362v46h205v-46h-205zM0 -216q-13 0 -27.5 1.5t-28.5 2.5l6 46q14 -1 27 -2.5t23 -1.5q61 0 97.5 43.5t36.5 115.5v511h49v-511q0 -61 -23 -107.5t-64.5 -72t-95.5 -25.5zM539 0v46q7 0 11 -2t6 -5t2.5 -7t0.5 -9t-0.5 -9.5
t-2.5 -7.5t-6 -4.5t-11 -1.5zM134 579v66h49v-66h-49zM390 686v64h46v-64h-46zM335 579v66h49v-66h-49zM441 579v66h49v-66h-49z" />
    <glyph glyph-name="uniFC79" unicode="&#xfe9c;&#xfee6;" horiz-adv-x="923" arabic-form="final" 
d="M772 0v500h48v-473l-21 19h124v-46h-151zM566 362v46h206v-46h-206zM309 -248q-75 0 -136.5 27.5t-97 77t-35.5 113.5q0 21 4 57t9.5 79t12.5 87.5t13 82.5l49 -8q-12 -69 -21 -129t-13.5 -104t-4.5 -65q0 -50 28 -89t78 -61t114 -22t110.5 20.5t72.5 58.5t26 88v535h48
v-535q0 -70 -35.5 -117.5t-94 -71.5t-127.5 -24zM281 500v66h48v-66h-48zM923 0v46q6 0 10 -2t6 -5t3 -7t1 -9t-1 -9.5t-3 -7.5t-6 -4.5t-10 -1.5zM774 686v64h46v-64h-46zM719 579v66h49v-66h-49zM825 579v66h49v-66h-49z" />
    <glyph glyph-name="uniFC7A" unicode="&#xfe9c;&#xfef0;" horiz-adv-x="1047" arabic-form="final" 
d="M307 -248q-56 0 -104.5 16t-85 44.5t-57 68t-20.5 87.5q0 21 3.5 55.5t9.5 77t13 85.5l48 -7q-12 -69 -18.5 -127t-6.5 -84q0 -49 28 -87.5t77 -60.5t113 -22h283q85 0 130.5 48t45.5 147q0 47 -13.5 73.5t-48 44.5t-98.5 37q-44 13 -82 25t-66 30t-44 48t-16 79
q0 57 22.5 95t66 56.5t106.5 18.5l-3 -46q-48 0 -80 -12.5t-48 -39.5t-16 -71q0 -35 11 -57t32 -35.5t53.5 -24t75.5 -22.5q46 -13 82.5 -27t62 -35.5t38.5 -55t13 -86.5q0 -69 -25 -122.5t-75 -83.5t-124 -30h-283zM896 0v500h48v-473l-21 19h124v-46h-151zM590 454l3 46
h303v-46h-306zM1047 0v46q7 0 11 -2t6 -5t2.5 -7t0.5 -9t-0.5 -9.5t-2.5 -7.5t-6 -4.5t-11 -1.5zM845 686v64h46v-64h-46zM790 579v66h49v-66h-49zM896 579v66h49v-66h-49z" />
    <glyph glyph-name="uniFC7B" unicode="&#xfe9c;&#xfef2;" horiz-adv-x="1047" arabic-form="final" 
d="M307 -248q-56 0 -104.5 16t-85 44.5t-57 68t-20.5 87.5q0 21 3.5 55.5t9.5 77t13 85.5l48 -7q-12 -69 -18.5 -127t-6.5 -84q0 -49 28 -87.5t77 -60.5t113 -22h283q85 0 130.5 48t45.5 147q0 47 -13.5 73.5t-48 44.5t-98.5 37q-44 13 -82 25t-66 30t-44 48t-16 79
q0 57 22.5 95t66 56.5t106.5 18.5l-3 -46q-48 0 -80 -12.5t-48 -39.5t-16 -71q0 -35 11 -57t32 -35.5t53.5 -24t75.5 -22.5q46 -13 82.5 -27t62 -35.5t38.5 -55t13 -86.5q0 -69 -25 -122.5t-75 -83.5t-124 -30h-283zM896 0v500h48v-473l-21 19h124v-46h-151zM590 454l3 46
h303v-46h-306zM1047 0v46q7 0 11 -2t6 -5t2.5 -7t0.5 -9t-0.5 -9.5t-2.5 -7.5t-6 -4.5t-11 -1.5zM845 686v64h46v-64h-46zM790 579v66h49v-66h-49zM896 579v66h49v-66h-49zM350 -406v66h49v-66h-49zM456 -406v66h49v-66h-49z" />
    <glyph glyph-name="uniFC86" unicode="&#xfee0;&#xfef0;" horiz-adv-x="1012" arabic-form="final" 
d="M909 0v46h103v-46h-103zM754 0q-7 0 -11 1.5t-6 4.5t-2.5 7.5t-0.5 9.5q0 7 1.5 11.5t5.5 8t13 3.5v-46zM861 0v726h48v-726h-48zM754 0v46h107v-46h-107zM870 0v46q6 0 10 -2t6 -5t3 -7t1 -9t-1 -9.5t-3 -7.5t-6 -4.5t-10 -1.5zM307 -248q-56 0 -104.5 16t-85 44.5
t-57 68t-20.5 87.5q0 21 3.5 55.5t9.5 77t13 85.5l48 -7q-12 -69 -18.5 -127t-6.5 -84q0 -49 28 -87.5t77 -60.5t113 -22h283q85 0 130.5 49t45.5 142v30h48v-31q0 -69 -25 -122.5t-75 -83.5t-124 -30h-283zM688 0q-29 0 -63 5.5t-64 25.5l27 39q13 -9 27.5 -14.5t32.5 -7.5
t40 -2h182v-46h-182zM1012 0v46q6 0 10 -2t6 -5t3 -7t1 -9t-1 -9.5t-3 -7.5t-6 -4.5t-10 -1.5z" />
    <glyph glyph-name="uniFC87" unicode="&#xfee0;&#xfef2;" horiz-adv-x="1012" arabic-form="final" 
d="M909 0v46h103v-46h-103zM754 0q-7 0 -11 1.5t-6 4.5t-2.5 7.5t-0.5 9.5q0 7 1.5 11.5t5.5 8t13 3.5v-46zM861 0v726h48v-726h-48zM754 0v46h107v-46h-107zM870 0v46q6 0 10 -2t6 -5t3 -7t1 -9t-1 -9.5t-3 -7.5t-6 -4.5t-10 -1.5zM307 -248q-56 0 -104.5 16t-85 44.5
t-57 68t-20.5 87.5q0 21 3.5 55.5t9.5 77t13 85.5l48 -7q-12 -69 -18.5 -127t-6.5 -84q0 -49 28 -87.5t77 -60.5t113 -22h283q85 0 130.5 49t45.5 142v30h48v-31q0 -69 -25 -122.5t-75 -83.5t-124 -30h-283zM688 0q-29 0 -63 5.5t-64 25.5l27 39q13 -9 27.5 -14.5t32.5 -7.5
t40 -2h182v-46h-182zM1012 0v46q6 0 10 -2t6 -5t3 -7t1 -9t-1 -9.5t-3 -7.5t-6 -4.5t-10 -1.5zM350 -406v66h49v-66h-49zM456 -406v66h49v-66h-49z" />
    <glyph glyph-name="uniFC8A" unicode="&#xfee8;&#xfeae;" horiz-adv-x="539" arabic-form="final" 
d="M388 0v500h49v-473l-22 19h124v-46h-151zM183 362v46h205v-46h-205zM0 -216q-13 0 -27.5 1.5t-28.5 2.5l6 46q14 -1 27 -2.5t23 -1.5q61 0 97.5 43.5t36.5 115.5v511h49v-511q0 -61 -23 -107.5t-64.5 -72t-95.5 -25.5zM539 0v46q7 0 11 -2t6 -5t2.5 -7t0.5 -9t-0.5 -9.5
t-2.5 -7.5t-6 -4.5t-11 -1.5zM388 579v66h49v-66h-49z" />
    <glyph glyph-name="uniFC8B" unicode="&#xfee8;&#xfeb0;" horiz-adv-x="539" arabic-form="final" 
d="M388 0v500h49v-473l-22 19h124v-46h-151zM183 362v46h205v-46h-205zM0 -216q-13 0 -27.5 1.5t-28.5 2.5l6 46q14 -1 27 -2.5t23 -1.5q61 0 97.5 43.5t36.5 115.5v511h49v-511q0 -61 -23 -107.5t-64.5 -72t-95.5 -25.5zM539 0v46q7 0 11 -2t6 -5t2.5 -7t0.5 -9t-0.5 -9.5
t-2.5 -7.5t-6 -4.5t-11 -1.5zM388 579v66h49v-66h-49zM134 579v66h49v-66h-49z" />
    <glyph glyph-name="uniFC8D" unicode="&#xfee8;&#xfee6;" horiz-adv-x="923" arabic-form="final" 
d="M772 0v500h48v-473l-21 19h124v-46h-151zM566 362v46h206v-46h-206zM309 -248q-75 0 -136.5 27.5t-97 77t-35.5 113.5q0 21 4 57t9.5 79t12.5 87.5t13 82.5l49 -8q-12 -69 -21 -129t-13.5 -104t-4.5 -65q0 -50 28 -89t78 -61t114 -22t110.5 20.5t72.5 58.5t26 88v535h48
v-535q0 -70 -35.5 -117.5t-94 -71.5t-127.5 -24zM281 500v66h48v-66h-48zM923 0v46q6 0 10 -2t6 -5t3 -7t1 -9t-1 -9.5t-3 -7.5t-6 -4.5t-10 -1.5zM772 579v66h49v-66h-49z" />
    <glyph glyph-name="uniFC8E" unicode="&#xfee8;&#xfef0;" horiz-adv-x="1047" arabic-form="final" 
d="M307 -248q-56 0 -104.5 16t-85 44.5t-57 68t-20.5 87.5q0 21 3.5 55.5t9.5 77t13 85.5l48 -7q-12 -69 -18.5 -127t-6.5 -84q0 -49 28 -87.5t77 -60.5t113 -22h283q85 0 130.5 48t45.5 147q0 47 -13.5 73.5t-48 44.5t-98.5 37q-44 13 -82 25t-66 30t-44 48t-16 79
q0 57 22.5 95t66 56.5t106.5 18.5l-3 -46q-48 0 -80 -12.5t-48 -39.5t-16 -71q0 -35 11 -57t32 -35.5t53.5 -24t75.5 -22.5q46 -13 82.5 -27t62 -35.5t38.5 -55t13 -86.5q0 -69 -25 -122.5t-75 -83.5t-124 -30h-283zM896 0v500h48v-473l-21 19h124v-46h-151zM590 454l3 46
h303v-46h-306zM1047 0v46q7 0 11 -2t6 -5t2.5 -7t0.5 -9t-0.5 -9.5t-2.5 -7.5t-6 -4.5t-11 -1.5zM896 573v66h49v-66h-49z" />
    <glyph glyph-name="uniFC8F" unicode="&#xfee8;&#xfef2;" horiz-adv-x="1047" arabic-form="final" 
d="M307 -248q-56 0 -104.5 16t-85 44.5t-57 68t-20.5 87.5q0 21 3.5 55.5t9.5 77t13 85.5l48 -7q-12 -69 -18.5 -127t-6.5 -84q0 -49 28 -87.5t77 -60.5t113 -22h283q85 0 130.5 48t45.5 147q0 47 -13.5 73.5t-48 44.5t-98.5 37q-44 13 -82 25t-66 30t-44 48t-16 79
q0 57 22.5 95t66 56.5t106.5 18.5l-3 -46q-48 0 -80 -12.5t-48 -39.5t-16 -71q0 -35 11 -57t32 -35.5t53.5 -24t75.5 -22.5q46 -13 82.5 -27t62 -35.5t38.5 -55t13 -86.5q0 -69 -25 -122.5t-75 -83.5t-124 -30h-283zM896 0v500h48v-473l-21 19h124v-46h-151zM590 454l3 46
h303v-46h-306zM1047 0v46q7 0 11 -2t6 -5t2.5 -7t0.5 -9t-0.5 -9.5t-2.5 -7.5t-6 -4.5t-11 -1.5zM896 573v66h49v-66h-49zM350 -406v66h49v-66h-49zM456 -406v66h49v-66h-49z" />
    <glyph glyph-name="uniFC91" unicode="&#xfef4;&#xfeae;" horiz-adv-x="539" arabic-form="final" 
d="M388 0v500h49v-473l-22 19h124v-46h-151zM183 362v46h205v-46h-205zM0 -216q-13 0 -27.5 1.5t-28.5 2.5l6 46q14 -1 27 -2.5t23 -1.5q61 0 97.5 43.5t36.5 115.5v511h49v-511q0 -61 -23 -107.5t-64.5 -72t-95.5 -25.5zM539 0v46q7 0 11 -2t6 -5t2.5 -7t0.5 -9t-0.5 -9.5
t-2.5 -7.5t-6 -4.5t-11 -1.5zM336 -144v66h49v-66h-49zM442 -144v66h49v-66h-49z" />
    <glyph glyph-name="uniFC92" unicode="&#xfef4;&#xfeb0;" horiz-adv-x="539" arabic-form="final" 
d="M388 0v500h49v-473l-22 19h124v-46h-151zM183 362v46h205v-46h-205zM0 -216q-13 0 -27.5 1.5t-28.5 2.5l6 46q14 -1 27 -2.5t23 -1.5q61 0 97.5 43.5t36.5 115.5v511h49v-511q0 -61 -23 -107.5t-64.5 -72t-95.5 -25.5zM539 0v46q7 0 11 -2t6 -5t2.5 -7t0.5 -9t-0.5 -9.5
t-2.5 -7.5t-6 -4.5t-11 -1.5zM134 579v66h49v-66h-49zM336 -144v66h49v-66h-49zM442 -144v66h49v-66h-49z" />
    <glyph glyph-name="uniFC94" unicode="&#xfef4;&#xfee6;" horiz-adv-x="923" arabic-form="final" 
d="M772 0v500h48v-473l-21 19h124v-46h-151zM566 362v46h206v-46h-206zM309 -248q-75 0 -136.5 27.5t-97 77t-35.5 113.5q0 21 4 57t9.5 79t12.5 87.5t13 82.5l49 -8q-12 -69 -21 -129t-13.5 -104t-4.5 -65q0 -50 28 -89t78 -61t114 -22t110.5 20.5t72.5 58.5t26 88v535h48
v-535q0 -70 -35.5 -117.5t-94 -71.5t-127.5 -24zM281 500v66h48v-66h-48zM923 0v46q6 0 10 -2t6 -5t3 -7t1 -9t-1 -9.5t-3 -7.5t-6 -4.5t-10 -1.5zM719 -144v66h49v-66h-49zM825 -144v66h49v-66h-49z" />
    <glyph glyph-name="uniFC96" unicode="&#xfef4;&#xfef2;" horiz-adv-x="1047" arabic-form="final" 
d="M307 -248q-56 0 -104.5 16t-85 44.5t-57 68t-20.5 87.5q0 21 3.5 55.5t9.5 77t13 85.5l48 -7q-12 -69 -18.5 -127t-6.5 -84q0 -49 28 -87.5t77 -60.5t113 -22h283q85 0 130.5 48t45.5 147q0 47 -13.5 73.5t-48 44.5t-98.5 37q-44 13 -82 25t-66 30t-44 48t-16 79
q0 57 22.5 95t66 56.5t106.5 18.5l-3 -46q-72 0 -108 -29.5t-36 -93.5q0 -35 11 -57t32 -35.5t53.5 -24t75.5 -22.5q46 -13 82.5 -27t62 -35.5t38.5 -55t13 -86.5q0 -69 -25 -122.5t-75 -83.5t-124 -30h-283zM896 0v500h48v-473l-21 19h124v-46h-151zM590 454l3 46h303v-46
h-306zM1047 0v46q7 0 11 -2t6 -5t2.5 -7t0.5 -9t-0.5 -9.5t-2.5 -7.5t-6 -4.5t-11 -1.5zM873 -144v66h49v-66h-49zM979 -144v66h49v-66h-49z" />
    <glyph glyph-name="uniFCFB" unicode="&#xfeb3;&#xfef0;" horiz-adv-x="1552" arabic-form="isolated" 
d="M307 -248q-56 0 -104.5 16t-85 44.5t-57 68t-20.5 87.5q0 21 3.5 55.5t9.5 77t13 85.5l48 -7q-12 -69 -18.5 -127t-6.5 -84q0 -49 28 -87.5t77 -60.5t113 -22h283q85 0 130.5 48t45.5 147q0 47 -13.5 73.5t-48 44.5t-98.5 37q-44 13 -82 25t-66 30t-44 48t-16 79
q0 57 22.5 95t66 56.5t106.5 18.5l-3 -46q-48 0 -80 -12.5t-48 -39.5t-16 -71q0 -35 11 -57t32 -35.5t53.5 -24t75.5 -22.5q46 -13 82.5 -27t62 -35.5t38.5 -55t13 -86.5q0 -69 -25 -122.5t-75 -83.5t-124 -30h-283zM590 454l3 46h299v-46h-302zM892 0v500h48v-500h-48z
M940 0v46h129q36 0 55 10.5t26.5 41t7.5 90.5v262h49v-262q0 -74 -14.5 -115t-44.5 -57t-79 -16h-129zM1267 0q-32 0 -63 12.5t-61 39.5l32 34q24 -21 46.5 -30.5t45.5 -9.5h184l-26 -27v259q0 20 -4 54.5t-11 76t-16 82.5l48 9q8 -34 15 -76t11.5 -81t4.5 -65v-278h-206z
" />
    <glyph glyph-name="uniFCFC" unicode="&#xfeb3;&#xfef2;" horiz-adv-x="1552" arabic-form="isolated" 
d="M307 -248q-56 0 -104.5 16t-85 44.5t-57 68t-20.5 87.5q0 21 3.5 55.5t9.5 77t13 85.5l48 -7q-12 -69 -18.5 -127t-6.5 -84q0 -49 28 -87.5t77 -60.5t113 -22h283q85 0 130.5 48t45.5 147q0 47 -13.5 73.5t-48 44.5t-98.5 37q-44 13 -82 25t-66 30t-44 48t-16 79
q0 57 22.5 95t66 56.5t106.5 18.5l-3 -46q-48 0 -80 -12.5t-48 -39.5t-16 -71q0 -35 11 -57t32 -35.5t53.5 -24t75.5 -22.5q46 -13 82.5 -27t62 -35.5t38.5 -55t13 -86.5q0 -69 -25 -122.5t-75 -83.5t-124 -30h-283zM590 454l3 46h299v-46h-302zM892 0v500h48v-500h-48z
M940 0v46h129q36 0 55 10.5t26.5 41t7.5 90.5v262h49v-262q0 -74 -14.5 -115t-44.5 -57t-79 -16h-129zM1267 0q-32 0 -63 12.5t-61 39.5l32 34q24 -21 46.5 -30.5t45.5 -9.5h184l-26 -27v259q0 20 -4 54.5t-11 76t-16 82.5l48 9q8 -34 15 -76t11.5 -81t4.5 -65v-278h-206z
M350 -393v66h49v-66h-49zM456 -393v66h49v-66h-49z" />
    <glyph glyph-name="uniFCFD" unicode="&#xfeb7;&#xfef0;" horiz-adv-x="1552" arabic-form="isolated" 
d="M307 -248q-56 0 -104.5 16t-85 44.5t-57 68t-20.5 87.5q0 21 3.5 55.5t9.5 77t13 85.5l48 -7q-12 -69 -18.5 -127t-6.5 -84q0 -49 28 -87.5t77 -60.5t113 -22h283q85 0 130.5 48t45.5 147q0 47 -13.5 73.5t-48 44.5t-98.5 37q-44 13 -82 25t-66 30t-44 48t-16 79
q0 57 22.5 95t66 56.5t106.5 18.5l-3 -46q-48 0 -80 -12.5t-48 -39.5t-16 -71q0 -35 11 -57t32 -35.5t53.5 -24t75.5 -22.5q46 -13 82.5 -27t62 -35.5t38.5 -55t13 -86.5q0 -69 -25 -122.5t-75 -83.5t-124 -30h-283zM590 454l3 46h299v-46h-302zM892 0v500h48v-500h-48z
M940 0v46h129q36 0 55 10.5t26.5 41t7.5 90.5v262h49v-262q0 -74 -14.5 -115t-44.5 -57t-79 -16h-129zM1267 0q-32 0 -63 12.5t-61 39.5l32 34q24 -21 46.5 -30.5t45.5 -9.5h184l-26 -27v259q0 20 -4 54.5t-11 76t-16 82.5l48 9q8 -34 15 -76t11.5 -81t4.5 -65v-278h-206z
M1160 686v64h46v-64h-46zM1105 579v66h49v-66h-49zM1211 579v66h49v-66h-49z" />
    <glyph glyph-name="uniFCFE" unicode="&#xfeb7;&#xfef2;" horiz-adv-x="1552" arabic-form="isolated" 
d="M307 -248q-56 0 -104.5 16t-85 44.5t-57 68t-20.5 87.5q0 21 3.5 55.5t9.5 77t13 85.5l48 -7q-12 -69 -18.5 -127t-6.5 -84q0 -49 28 -87.5t77 -60.5t113 -22h283q85 0 130.5 48t45.5 147q0 47 -13.5 73.5t-48 44.5t-98.5 37q-44 13 -82 25t-66 30t-44 48t-16 79
q0 57 22.5 95t66 56.5t106.5 18.5l-3 -46q-48 0 -80 -12.5t-48 -39.5t-16 -71q0 -35 11 -57t32 -35.5t53.5 -24t75.5 -22.5q46 -13 82.5 -27t62 -35.5t38.5 -55t13 -86.5q0 -69 -25 -122.5t-75 -83.5t-124 -30h-283zM590 454l3 46h299v-46h-302zM892 0v500h48v-500h-48z
M940 0v46h129q36 0 55 10.5t26.5 41t7.5 90.5v262h49v-262q0 -74 -14.5 -115t-44.5 -57t-79 -16h-129zM1267 0q-32 0 -63 12.5t-61 39.5l32 34q24 -21 46.5 -30.5t45.5 -9.5h184l-26 -27v259q0 20 -4 54.5t-11 76t-16 82.5l48 9q8 -34 15 -76t11.5 -81t4.5 -65v-278h-206z
M1160 686v64h46v-64h-46zM1105 579v66h49v-66h-49zM1211 579v66h49v-66h-49zM350 -393v66h49v-66h-49zM456 -393v66h49v-66h-49z" />
    <glyph glyph-name="uniFD05" unicode="&#xfebb;&#xfef0;" horiz-adv-x="1550" arabic-form="isolated" 
d="M307 -248q-56 0 -104.5 16t-85 44.5t-57 68t-20.5 87.5q0 21 3.5 55.5t9.5 77t13 85.5l48 -7q-12 -69 -18.5 -127t-6.5 -84q0 -49 28 -87.5t77 -60.5t113 -22h283q85 0 130.5 48t45.5 147q0 47 -13.5 73.5t-48 44.5t-98.5 37q-44 13 -82 25t-66 30t-44 48t-16 79
q0 57 22.5 95t66 56.5t106.5 18.5l-3 -46q-48 0 -80 -12.5t-48 -39.5t-16 -71q0 -35 11 -57t32 -35.5t53.5 -24t75.5 -22.5q46 -13 82.5 -27t62 -35.5t38.5 -55t13 -86.5q0 -69 -25 -122.5t-75 -83.5t-124 -30h-283zM590 454l3 46h299v-46h-302zM892 0v500h48v-500h-48z
M940 0v46h523l-40 -37v232q0 69 -20.5 116.5t-61.5 72t-103 24.5q-43 0 -79 -11.5t-66.5 -32t-57 -47t-51 -56t-48.5 -59.5l-26 37q25 31 50.5 62t53.5 58.5t61.5 48.5t73.5 33.5t90 12.5q71 0 116.5 -24t71 -63.5t35.5 -84.5t10 -87v-241h-532z" />
    <glyph glyph-name="uniFD06" unicode="&#xfebb;&#xfef2;" horiz-adv-x="1550" arabic-form="isolated" 
d="M307 -248q-56 0 -104.5 16t-85 44.5t-57 68t-20.5 87.5q0 21 3.5 55.5t9.5 77t13 85.5l48 -7q-12 -69 -18.5 -127t-6.5 -84q0 -49 28 -87.5t77 -60.5t113 -22h283q85 0 130.5 48t45.5 147q0 47 -13.5 73.5t-48 44.5t-98.5 37q-44 13 -82 25t-66 30t-44 48t-16 79
q0 57 22.5 95t66 56.5t106.5 18.5l-3 -46q-48 0 -80 -12.5t-48 -39.5t-16 -71q0 -35 11 -57t32 -35.5t53.5 -24t75.5 -22.5q46 -13 82.5 -27t62 -35.5t38.5 -55t13 -86.5q0 -69 -25 -122.5t-75 -83.5t-124 -30h-283zM590 454l3 46h299v-46h-302zM892 0v500h48v-500h-48z
M940 0v46h523l-40 -37v232q0 69 -20.5 116.5t-61.5 72t-103 24.5q-43 0 -79 -11.5t-66.5 -32t-57 -47t-51 -56t-48.5 -59.5l-26 37q25 31 50.5 62t53.5 58.5t61.5 48.5t73.5 33.5t90 12.5q71 0 116.5 -24t71 -63.5t35.5 -84.5t10 -87v-241h-532zM350 -366v66h49v-66h-49z
M456 -366v66h49v-66h-49z" />
    <glyph glyph-name="uniFD07" unicode="&#xfebf;&#xfef0;" horiz-adv-x="1550" arabic-form="isolated" 
d="M307 -248q-56 0 -104.5 16t-85 44.5t-57 68t-20.5 87.5q0 21 3.5 55.5t9.5 77t13 85.5l48 -7q-12 -69 -18.5 -127t-6.5 -84q0 -49 28 -87.5t77 -60.5t113 -22h283q85 0 130.5 48t45.5 147q0 47 -13.5 73.5t-48 44.5t-98.5 37q-44 13 -82 25t-66 30t-44 48t-16 79
q0 57 22.5 95t66 56.5t106.5 18.5l-3 -46q-48 0 -80 -12.5t-48 -39.5t-16 -71q0 -35 11 -57t32 -35.5t53.5 -24t75.5 -22.5q46 -13 82.5 -27t62 -35.5t38.5 -55t13 -86.5q0 -69 -25 -122.5t-75 -83.5t-124 -30h-283zM590 454l3 46h299v-46h-302zM892 0v500h48v-500h-48z
M940 0v46h523l-40 -37v232q0 69 -20.5 116.5t-61.5 72t-103 24.5q-43 0 -79 -11.5t-66.5 -32t-57 -47t-51 -56t-48.5 -59.5l-26 37q25 31 50.5 62t53.5 58.5t61.5 48.5t73.5 33.5t90 12.5q71 0 116.5 -24t71 -63.5t35.5 -84.5t10 -87v-241h-532zM1165 573v66h49v-66h-49z
" />
    <glyph glyph-name="uniFD08" unicode="&#xfebf;&#xfef2;" horiz-adv-x="1550" arabic-form="isolated" 
d="M307 -248q-56 0 -104.5 16t-85 44.5t-57 68t-20.5 87.5q0 21 3.5 55.5t9.5 77t13 85.5l48 -7q-12 -69 -18.5 -127t-6.5 -84q0 -49 28 -87.5t77 -60.5t113 -22h283q85 0 130.5 48t45.5 147q0 47 -13.5 73.5t-48 44.5t-98.5 37q-44 13 -82 25t-66 30t-44 48t-16 79
q0 57 22.5 95t66 56.5t106.5 18.5l-3 -46q-48 0 -80 -12.5t-48 -39.5t-16 -71q0 -35 11 -57t32 -35.5t53.5 -24t75.5 -22.5q46 -13 82.5 -27t62 -35.5t38.5 -55t13 -86.5q0 -69 -25 -122.5t-75 -83.5t-124 -30h-283zM590 454l3 46h299v-46h-302zM892 0v500h48v-500h-48z
M940 0v46h523l-40 -37v232q0 69 -20.5 116.5t-61.5 72t-103 24.5q-43 0 -79 -11.5t-66.5 -32t-57 -47t-51 -56t-48.5 -59.5l-26 37q25 31 50.5 62t53.5 58.5t61.5 48.5t73.5 33.5t90 12.5q71 0 116.5 -24t71 -63.5t35.5 -84.5t10 -87v-241h-532zM1165 573v66h49v-66h-49z
M350 -366v66h49v-66h-49zM456 -366v66h49v-66h-49z" />
    <glyph glyph-name="uniFD0D" unicode="&#xfeb7;&#xfeae;" horiz-adv-x="1049" arabic-form="isolated" 
d="M764 0q-32 0 -63 12.5t-62 39.5l33 34q24 -21 46 -30.5t46 -9.5h177l-19 -20v252q0 20 -4 54.5t-11 76t-16 82.5l48 9q7 -34 14 -76t12 -81t5 -65v-278h-206zM183 362v46h205v-46h-205zM388 0v500h49v-500h-49zM437 0v46h128q36 0 55 10.5t27 41t8 90.5v262h48v-262
q0 -74 -14 -115t-44 -57t-80 -16h-128zM0 -216q-13 0 -27.5 1.5t-28.5 2.5l6 46q14 -1 27 -2.5t23 -1.5q61 0 97.5 43.5t36.5 115.5v511h49v-511q0 -61 -23 -107.5t-64.5 -72t-95.5 -25.5zM657 686v64h46v-64h-46zM602 579v66h49v-66h-49zM708 579v66h49v-66h-49z" />
    <glyph glyph-name="uniFD0E" unicode="&#xfeb3;&#xfeae;" horiz-adv-x="1049" arabic-form="isolated" 
d="M764 0q-32 0 -63 12.5t-62 39.5l33 34q24 -21 46 -30.5t46 -9.5h177l-19 -20v252q0 20 -4 54.5t-11 76t-16 82.5l48 9q7 -34 14 -76t12 -81t5 -65v-278h-206zM183 362v46h205v-46h-205zM388 0v500h49v-500h-49zM437 0v46h128q36 0 55 10.5t27 41t8 90.5v262h48v-262
q0 -74 -14 -115t-44 -57t-80 -16h-128zM0 -216q-13 0 -27.5 1.5t-28.5 2.5l6 46q14 -1 27 -2.5t23 -1.5q61 0 97.5 43.5t36.5 115.5v511h49v-511q0 -61 -23 -107.5t-64.5 -72t-95.5 -25.5z" />
    <glyph glyph-name="uniFD0F" unicode="&#xfebb;&#xfeae;" horiz-adv-x="1047" arabic-form="isolated" 
d="M437 0v46h523l-40 -37v232q0 69 -20.5 116.5t-61.5 72t-103 24.5q-43 0 -79 -11.5t-66.5 -32t-57 -47t-51 -56t-48.5 -59.5l-26 37q25 31 50.5 62t53.5 58.5t61.5 48.5t73.5 33.5t90 12.5q71 0 116.5 -24t71 -63.5t35.5 -84.5t10 -87v-241h-532zM183 362v46h205v-46h-205
zM388 0v500h49v-500h-49zM0 -216q-13 0 -27.5 1.5t-28.5 2.5l6 46q14 -1 27 -2.5t23 -1.5q61 0 97.5 43.5t36.5 115.5v511h49v-511q0 -61 -23 -107.5t-64.5 -72t-95.5 -25.5z" />
    <glyph glyph-name="uniFD10" unicode="&#xfebf;&#xfeae;" horiz-adv-x="1047" arabic-form="isolated" 
d="M437 0v46h523l-40 -37v232q0 69 -20.5 116.5t-61.5 72t-103 24.5q-43 0 -79 -11.5t-66.5 -32t-57 -47t-51 -56t-48.5 -59.5l-26 37q25 31 50.5 62t53.5 58.5t61.5 48.5t73.5 33.5t90 12.5q71 0 116.5 -24t71 -63.5t35.5 -84.5t10 -87v-241h-532zM183 362v46h205v-46h-205
zM388 0v500h49v-500h-49zM0 -216q-13 0 -27.5 1.5t-28.5 2.5l6 46q14 -1 27 -2.5t23 -1.5q61 0 97.5 43.5t36.5 115.5v511h49v-511q0 -61 -23 -107.5t-64.5 -72t-95.5 -25.5zM661 573v66h49v-66h-49z" />
    <glyph glyph-name="uniFD17" unicode="&#xfeb4;&#xfef0;" horiz-adv-x="1576" arabic-form="final" 
d="M1473 0v46h103v-46h-103zM307 -248q-56 0 -104.5 16t-85 44.5t-57 68t-20.5 87.5q0 21 3.5 55.5t9.5 77t13 85.5l48 -7q-12 -69 -18.5 -127t-6.5 -84q0 -49 28 -87.5t77 -60.5t113 -22h283q85 0 130.5 48t45.5 147q0 47 -13.5 73.5t-48 44.5t-98.5 37q-44 13 -82 25
t-66 30t-44 48t-16 79q0 57 22.5 95t66 56.5t106.5 18.5l-3 -46q-48 0 -80 -12.5t-48 -39.5t-16 -71q0 -35 11 -57t32 -35.5t53.5 -24t75.5 -22.5q46 -13 82.5 -27t62 -35.5t38.5 -55t13 -86.5q0 -69 -25 -122.5t-75 -83.5t-124 -30h-283zM590 454l3 46h299v-46h-302zM892 0
v500h48v-500h-48zM940 0v46h129q36 0 55 10.5t26.5 41t7.5 90.5v262h49v-262q0 -74 -14.5 -115t-44.5 -57t-79 -16h-129zM1267 0q-32 0 -63 12.5t-61 39.5l32 34q24 -21 46.5 -30.5t45.5 -9.5h184l-26 -27v259q0 20 -4 54.5t-11 76t-16 82.5l48 9q8 -34 15 -76t11.5 -81
t4.5 -65v-278h-206zM1576 0v46q7 0 11 -2t6 -5t2.5 -7t0.5 -9t-0.5 -9.5t-2.5 -7.5t-6 -4.5t-11 -1.5z" />
    <glyph glyph-name="uniFD18" unicode="&#xfeb4;&#xfef2;" horiz-adv-x="1576" arabic-form="final" 
d="M1473 0v46h103v-46h-103zM307 -248q-56 0 -104.5 16t-85 44.5t-57 68t-20.5 87.5q0 21 3.5 55.5t9.5 77t13 85.5l48 -7q-12 -69 -18.5 -127t-6.5 -84q0 -49 28 -87.5t77 -60.5t113 -22h283q85 0 130.5 48t45.5 147q0 47 -13.5 73.5t-48 44.5t-98.5 37q-44 13 -82 25
t-66 30t-44 48t-16 79q0 57 22.5 95t66 56.5t106.5 18.5l-3 -46q-48 0 -80 -12.5t-48 -39.5t-16 -71q0 -35 11 -57t32 -35.5t53.5 -24t75.5 -22.5q46 -13 82.5 -27t62 -35.5t38.5 -55t13 -86.5q0 -69 -25 -122.5t-75 -83.5t-124 -30h-283zM590 454l3 46h299v-46h-302zM892 0
v500h48v-500h-48zM940 0v46h129q36 0 55 10.5t26.5 41t7.5 90.5v262h49v-262q0 -74 -14.5 -115t-44.5 -57t-79 -16h-129zM1267 0q-32 0 -63 12.5t-61 39.5l32 34q24 -21 46.5 -30.5t45.5 -9.5h184l-26 -27v259q0 20 -4 54.5t-11 76t-16 82.5l48 9q8 -34 15 -76t11.5 -81
t4.5 -65v-278h-206zM1576 0v46q7 0 11 -2t6 -5t2.5 -7t0.5 -9t-0.5 -9.5t-2.5 -7.5t-6 -4.5t-11 -1.5zM350 -393v66h49v-66h-49zM456 -393v66h49v-66h-49z" />
    <glyph glyph-name="uniFD19" unicode="&#xfeb8;&#xfef0;" horiz-adv-x="1576" arabic-form="final" 
d="M1473 0v46h103v-46h-103zM307 -248q-56 0 -104.5 16t-85 44.5t-57 68t-20.5 87.5q0 21 3.5 55.5t9.5 77t13 85.5l48 -7q-12 -69 -18.5 -127t-6.5 -84q0 -49 28 -87.5t77 -60.5t113 -22h283q85 0 130.5 48t45.5 147q0 47 -13.5 73.5t-48 44.5t-98.5 37q-44 13 -82 25
t-66 30t-44 48t-16 79q0 57 22.5 95t66 56.5t106.5 18.5l-3 -46q-48 0 -80 -12.5t-48 -39.5t-16 -71q0 -35 11 -57t32 -35.5t53.5 -24t75.5 -22.5q46 -13 82.5 -27t62 -35.5t38.5 -55t13 -86.5q0 -69 -25 -122.5t-75 -83.5t-124 -30h-283zM590 454l3 46h299v-46h-302zM892 0
v500h48v-500h-48zM940 0v46h129q36 0 55 10.5t26.5 41t7.5 90.5v262h49v-262q0 -74 -14.5 -115t-44.5 -57t-79 -16h-129zM1267 0q-32 0 -63 12.5t-61 39.5l32 34q24 -21 46.5 -30.5t45.5 -9.5h184l-26 -27v259q0 20 -4 54.5t-11 76t-16 82.5l48 9q8 -34 15 -76t11.5 -81
t4.5 -65v-278h-206zM1576 0v46q7 0 11 -2t6 -5t2.5 -7t0.5 -9t-0.5 -9.5t-2.5 -7.5t-6 -4.5t-11 -1.5zM1160 686v64h46v-64h-46zM1105 579v66h49v-66h-49zM1211 579v66h49v-66h-49z" />
    <glyph glyph-name="uniFD1A" unicode="&#xfeb8;&#xfef2;" horiz-adv-x="1576" arabic-form="final" 
d="M1473 0v46h103v-46h-103zM307 -248q-56 0 -104.5 16t-85 44.5t-57 68t-20.5 87.5q0 21 3.5 55.5t9.5 77t13 85.5l48 -7q-12 -69 -18.5 -127t-6.5 -84q0 -49 28 -87.5t77 -60.5t113 -22h283q85 0 130.5 48t45.5 147q0 47 -13.5 73.5t-48 44.5t-98.5 37q-44 13 -82 25
t-66 30t-44 48t-16 79q0 57 22.5 95t66 56.5t106.5 18.5l-3 -46q-48 0 -80 -12.5t-48 -39.5t-16 -71q0 -35 11 -57t32 -35.5t53.5 -24t75.5 -22.5q46 -13 82.5 -27t62 -35.5t38.5 -55t13 -86.5q0 -69 -25 -122.5t-75 -83.5t-124 -30h-283zM590 454l3 46h299v-46h-302zM892 0
v500h48v-500h-48zM940 0v46h129q36 0 55 10.5t26.5 41t7.5 90.5v262h49v-262q0 -74 -14.5 -115t-44.5 -57t-79 -16h-129zM1267 0q-32 0 -63 12.5t-61 39.5l32 34q24 -21 46.5 -30.5t45.5 -9.5h184l-26 -27v259q0 20 -4 54.5t-11 76t-16 82.5l48 9q8 -34 15 -76t11.5 -81
t4.5 -65v-278h-206zM1576 0v46q7 0 11 -2t6 -5t2.5 -7t0.5 -9t-0.5 -9.5t-2.5 -7.5t-6 -4.5t-11 -1.5zM1160 686v64h46v-64h-46zM1105 579v66h49v-66h-49zM1211 579v66h49v-66h-49zM350 -393v66h49v-66h-49zM456 -393v66h49v-66h-49z" />
    <glyph glyph-name="uniFD21" unicode="&#xfebc;&#xfef0;" horiz-adv-x="1575" arabic-form="final" 
d="M1472 0v46h103v-46h-103zM307 -248q-56 0 -104.5 16t-85 44.5t-57 68t-20.5 87.5q0 21 3.5 55.5t9.5 77t13 85.5l48 -7q-12 -69 -18.5 -127t-6.5 -84q0 -49 28 -87.5t77 -60.5t113 -22h283q85 0 130.5 48t45.5 147q0 47 -13.5 73.5t-48 44.5t-98.5 37q-44 13 -82 25
t-66 30t-44 48t-16 79q0 57 22.5 95t66 56.5t106.5 18.5l-3 -46q-48 0 -80 -12.5t-48 -39.5t-16 -71q0 -35 11 -57t32 -35.5t53.5 -24t75.5 -22.5q46 -13 82.5 -27t62 -35.5t38.5 -55t13 -86.5q0 -69 -25 -122.5t-75 -83.5t-124 -30h-283zM590 454l3 46h299v-46h-302zM892 0
v500h48v-500h-48zM940 0v46h523l-40 -37v232q0 69 -20.5 116.5t-61.5 72t-103 24.5q-43 0 -79 -11.5t-66.5 -32t-57 -47t-51 -56t-48.5 -59.5l-26 37q25 31 50.5 62t53.5 58.5t61.5 48.5t73.5 33.5t90 12.5q71 0 116.5 -24t71 -63.5t35.5 -84.5t10 -87v-241h-532zM1575 0v46
q6 0 10 -2t6 -5t3 -7t1 -9t-1 -9.5t-3 -7.5t-6 -4.5t-10 -1.5z" />
    <glyph glyph-name="uniFD22" unicode="&#xfebc;&#xfef2;" horiz-adv-x="1575" arabic-form="final" 
d="M1472 0v46h103v-46h-103zM307 -248q-56 0 -104.5 16t-85 44.5t-57 68t-20.5 87.5q0 21 3.5 55.5t9.5 77t13 85.5l48 -7q-12 -69 -18.5 -127t-6.5 -84q0 -49 28 -87.5t77 -60.5t113 -22h283q85 0 130.5 48t45.5 147q0 47 -13.5 73.5t-48 44.5t-98.5 37q-44 13 -82 25
t-66 30t-44 48t-16 79q0 57 22.5 95t66 56.5t106.5 18.5l-3 -46q-48 0 -80 -12.5t-48 -39.5t-16 -71q0 -35 11 -57t32 -35.5t53.5 -24t75.5 -22.5q46 -13 82.5 -27t62 -35.5t38.5 -55t13 -86.5q0 -69 -25 -122.5t-75 -83.5t-124 -30h-283zM590 454l3 46h299v-46h-302zM892 0
v500h48v-500h-48zM940 0v46h523l-40 -37v232q0 69 -20.5 116.5t-61.5 72t-103 24.5q-43 0 -79 -11.5t-66.5 -32t-57 -47t-51 -56t-48.5 -59.5l-26 37q25 31 50.5 62t53.5 58.5t61.5 48.5t73.5 33.5t90 12.5q71 0 116.5 -24t71 -63.5t35.5 -84.5t10 -87v-241h-532zM1575 0v46
q6 0 10 -2t6 -5t3 -7t1 -9t-1 -9.5t-3 -7.5t-6 -4.5t-10 -1.5zM350 -366v66h49v-66h-49zM456 -366v66h49v-66h-49z" />
    <glyph glyph-name="uniFD23" unicode="&#xfec0;&#xfef0;" horiz-adv-x="1575" arabic-form="final" 
d="M1472 0v46h103v-46h-103zM307 -248q-56 0 -104.5 16t-85 44.5t-57 68t-20.5 87.5q0 21 3.5 55.5t9.5 77t13 85.5l48 -7q-12 -69 -18.5 -127t-6.5 -84q0 -49 28 -87.5t77 -60.5t113 -22h283q85 0 130.5 48t45.5 147q0 47 -13.5 73.5t-48 44.5t-98.5 37q-44 13 -82 25
t-66 30t-44 48t-16 79q0 57 22.5 95t66 56.5t106.5 18.5l-3 -46q-48 0 -80 -12.5t-48 -39.5t-16 -71q0 -35 11 -57t32 -35.5t53.5 -24t75.5 -22.5q46 -13 82.5 -27t62 -35.5t38.5 -55t13 -86.5q0 -69 -25 -122.5t-75 -83.5t-124 -30h-283zM590 454l3 46h299v-46h-302zM892 0
v500h48v-500h-48zM940 0v46h523l-40 -37v232q0 69 -20.5 116.5t-61.5 72t-103 24.5q-43 0 -79 -11.5t-66.5 -32t-57 -47t-51 -56t-48.5 -59.5l-26 37q25 31 50.5 62t53.5 58.5t61.5 48.5t73.5 33.5t90 12.5q71 0 116.5 -24t71 -63.5t35.5 -84.5t10 -87v-241h-532zM1575 0v46
q6 0 10 -2t6 -5t3 -7t1 -9t-1 -9.5t-3 -7.5t-6 -4.5t-10 -1.5zM1165 573v66h49v-66h-49z" />
    <glyph glyph-name="uniFD24" unicode="&#xfec0;&#xfef2;" horiz-adv-x="1575" arabic-form="final" 
d="M1472 0v46h103v-46h-103zM307 -248q-56 0 -104.5 16t-85 44.5t-57 68t-20.5 87.5q0 21 3.5 55.5t9.5 77t13 85.5l48 -7q-12 -69 -18.5 -127t-6.5 -84q0 -49 28 -87.5t77 -60.5t113 -22h283q85 0 130.5 48t45.5 147q0 47 -13.5 73.5t-48 44.5t-98.5 37q-44 13 -82 25
t-66 30t-44 48t-16 79q0 57 22.5 95t66 56.5t106.5 18.5l-3 -46q-48 0 -80 -12.5t-48 -39.5t-16 -71q0 -35 11 -57t32 -35.5t53.5 -24t75.5 -22.5q46 -13 82.5 -27t62 -35.5t38.5 -55t13 -86.5q0 -69 -25 -122.5t-75 -83.5t-124 -30h-283zM590 454l3 46h299v-46h-302zM892 0
v500h48v-500h-48zM940 0v46h523l-40 -37v232q0 69 -20.5 116.5t-61.5 72t-103 24.5q-43 0 -79 -11.5t-66.5 -32t-57 -47t-51 -56t-48.5 -59.5l-26 37q25 31 50.5 62t53.5 58.5t61.5 48.5t73.5 33.5t90 12.5q71 0 116.5 -24t71 -63.5t35.5 -84.5t10 -87v-241h-532zM1575 0v46
q6 0 10 -2t6 -5t3 -7t1 -9t-1 -9.5t-3 -7.5t-6 -4.5t-10 -1.5zM350 -366v66h49v-66h-49zM456 -366v66h49v-66h-49zM1165 573v66h49v-66h-49z" />
    <glyph glyph-name="uniFD29" unicode="&#xfeb8;&#xfeae;" horiz-adv-x="1073" arabic-form="final" 
d="M970 0v46h103v-46h-103zM1073 0v46q6 0 10 -2t6 -5t3 -7t1 -9t-1 -9.5t-3 -7.5t-6 -4.5t-10 -1.5zM0 -216q-13 0 -27.5 1.5t-28.5 2.5l6 46q14 -1 27 -2.5t23 -1.5q61 0 97.5 43.5t36.5 115.5v511h49v-511q0 -61 -23 -107.5t-64.5 -72t-95.5 -25.5zM764 0q-32 0 -63 12.5
t-62 39.5l33 34q24 -21 46 -30.5t46 -9.5h177l-19 -20v252q0 20 -4 54.5t-11 76t-16 82.5l48 9q7 -34 14 -76t12 -81t5 -65v-278h-206zM183 362v46h205v-46h-205zM388 0v500h49v-500h-49zM437 0v46h128q36 0 55 10.5t27 41t8 90.5v262h48v-262q0 -74 -14 -115t-44 -57
t-80 -16h-128zM657 686v64h46v-64h-46zM602 579v66h49v-66h-49zM708 579v66h49v-66h-49z" />
    <glyph glyph-name="uniFD2A" unicode="&#xfeb4;&#xfeae;" horiz-adv-x="1073" arabic-form="final" 
d="M970 0v46h103v-46h-103zM1073 0v46q6 0 10 -2t6 -5t3 -7t1 -9t-1 -9.5t-3 -7.5t-6 -4.5t-10 -1.5zM0 -216q-13 0 -27.5 1.5t-28.5 2.5l6 46q14 -1 27 -2.5t23 -1.5q61 0 97.5 43.5t36.5 115.5v511h49v-511q0 -61 -23 -107.5t-64.5 -72t-95.5 -25.5zM764 0q-32 0 -63 12.5
t-62 39.5l33 34q24 -21 46 -30.5t46 -9.5h177l-19 -20v252q0 20 -4 54.5t-11 76t-16 82.5l48 9q7 -34 14 -76t12 -81t5 -65v-278h-206zM183 362v46h205v-46h-205zM388 0v500h49v-500h-49zM437 0v46h128q36 0 55 10.5t27 41t8 90.5v262h48v-262q0 -74 -14 -115t-44 -57
t-80 -16h-128z" />
    <glyph glyph-name="uniFD2B" unicode="&#xfebc;&#xfeae;" horiz-adv-x="1071" arabic-form="final" 
d="M969 0v46h102v-46h-102zM1071 0v46q7 0 11 -2t6 -5t2.5 -7t0.5 -9t-0.5 -9.5t-2.5 -7.5t-6 -4.5t-11 -1.5zM0 -216q-13 0 -27.5 1.5t-28.5 2.5l6 46q14 -1 27 -2.5t23 -1.5q61 0 97.5 43.5t36.5 115.5v511h49v-511q0 -61 -23 -107.5t-64.5 -72t-95.5 -25.5zM437 0v46h523
l-40 -37v232q0 69 -20.5 116.5t-61.5 72t-103 24.5q-43 0 -79 -11.5t-66.5 -32t-57 -47t-51 -56t-48.5 -59.5l-26 37q25 31 50.5 62t53.5 58.5t61.5 48.5t73.5 33.5t90 12.5q71 0 116.5 -24t71 -63.5t35.5 -84.5t10 -87v-241h-532zM183 362v46h205v-46h-205zM388 0v500h49
v-500h-49z" />
    <glyph glyph-name="uniFD2C" unicode="&#xfec0;&#xfeae;" horiz-adv-x="1071" arabic-form="final" 
d="M969 0v46h102v-46h-102zM1071 0v46q7 0 11 -2t6 -5t2.5 -7t0.5 -9t-0.5 -9.5t-2.5 -7.5t-6 -4.5t-11 -1.5zM0 -216q-13 0 -27.5 1.5t-28.5 2.5l6 46q14 -1 27 -2.5t23 -1.5q61 0 97.5 43.5t36.5 115.5v511h49v-511q0 -61 -23 -107.5t-64.5 -72t-95.5 -25.5zM437 0v46h523
l-40 -37v232q0 69 -20.5 116.5t-61.5 72t-103 24.5q-43 0 -79 -11.5t-66.5 -32t-57 -47t-51 -56t-48.5 -59.5l-26 37q25 31 50.5 62t53.5 58.5t61.5 48.5t73.5 33.5t90 12.5q71 0 116.5 -24t71 -63.5t35.5 -84.5t10 -87v-241h-532zM183 362v46h205v-46h-205zM388 0v500h49
v-500h-49zM661 573v66h49v-66h-49z" />
    <glyph glyph-name="uniFDF2" unicode="&#x627;&#xfedf;&#xfee0;&#xfeea;" horiz-adv-x="1211" arabic-form="isolated" 
d="M635 0v601h49v-601h-49zM528 0v46h107v-46h-107zM684 0v46h102v-46h-102zM1064 0v726h48v-726h-48zM554 0v46q7 0 11 -2t6 -5t2.5 -7t0.5 -9t-0.5 -9.5t-2.5 -7.5t-6 -4.5t-11 -1.5zM263 0q-87 0 -135.5 26.5t-68 82t-19.5 141.5t19.5 141.5t68 82t135.5 26.5h189v-474
h-49v449l23 -21h-163q-68 0 -106 -17.5t-53 -62t-15 -124.5t15 -124.5t53 -62t106 -17.5h291v-46h-291zM760 0q-7 0 -11 1.5t-6 4.5t-2.5 7.5t-0.5 9.5q0 7 1.5 11.5t5.5 8t13 3.5v-46zM866 0v726h49v-726h-49zM760 0v46h106v-46h-106z" />
    <glyph glyph-name="uniFEF5" unicode="&#xfedf;&#xfe82;" horiz-adv-x="616" arabic-form="isolated" 
d="M40 0v46h471l-31 -31v711h49v-726h-489zM207 46v534h48v-534h-48zM149 633l-22 20l37 49h35q10 -13 27 -19.5t33 -6.5q17 0 33.5 6.5t25.5 18.5l16 -14q-7 -15 -19.5 -26t-28 -17.5t-35.5 -6.5q-19 0 -38 7t-32 21z" />
    <glyph glyph-name="uniFEF6" unicode="&#xfee0;&#xfe82;" horiz-adv-x="631" arabic-form="final" 
d="M529 0v46h102v-46h-102zM40 0v46h471l-31 -31v711h49v-726h-489zM207 46v534h48v-534h-48zM631 0v46q7 0 11 -2t6 -5t2.5 -7t0.5 -9t-0.5 -9.5t-2.5 -7.5t-6 -4.5t-11 -1.5zM149 633l-22 20l37 49h35q10 -13 27 -19.5t33 -6.5q17 0 33.5 6.5t25.5 18.5l16 -14
q-7 -15 -19.5 -26t-28 -17.5t-35.5 -6.5q-19 0 -38 7t-32 21z" />
    <glyph glyph-name="uniFEF7" unicode="&#xfedf;&#xfe84;" horiz-adv-x="616" arabic-form="isolated" 
d="M40 0v46h471l-31 -31v711h49v-726h-489zM207 46v534h48v-534h-48zM198 637q-14 17 -21.5 33.5t-7.5 33.5q0 25 12 43.5t31.5 28.5t41.5 10q13 0 25.5 -3.5t23.5 -10.5l-18 -30q-8 5 -15.5 6.5t-15.5 1.5q-20 0 -33.5 -13t-13.5 -33q0 -13 5 -24t17 -25zM150 637v36h163
v-36h-163z" />
    <glyph glyph-name="uniFEF8" unicode="&#xfee0;&#xfe84;" horiz-adv-x="631" arabic-form="final" 
d="M529 0v46h102v-46h-102zM40 0v46h471l-31 -31v711h49v-726h-489zM207 46v534h48v-534h-48zM631 0v46q7 0 11 -2t6 -5t2.5 -7t0.5 -9t-0.5 -9.5t-2.5 -7.5t-6 -4.5t-11 -1.5zM198 637q-14 17 -21.5 33.5t-7.5 33.5q0 25 12 43.5t31.5 28.5t41.5 10q13 0 25.5 -3.5
t23.5 -10.5l-18 -30q-8 5 -15.5 6.5t-15.5 1.5q-20 0 -33.5 -13t-13.5 -33q0 -13 5 -24t17 -25zM150 637v36h163v-36h-163z" />
    <glyph glyph-name="uniFEF9" unicode="&#xfedf;&#xfe88;" horiz-adv-x="616" arabic-form="isolated" 
d="M40 0v46h471l-31 -31v711h49v-726h-489zM207 46v534h48v-534h-48zM198 -232q-14 17 -21.5 33.5t-7.5 33.5q0 25 12 43.5t31.5 28.5t41.5 10q13 0 25.5 -3.5t23.5 -10.5l-18 -30q-8 5 -15.5 6.5t-15.5 1.5q-20 0 -33.5 -13t-13.5 -33q0 -13 5 -24t17 -25zM150 -232v36h163
v-36h-163z" />
    <glyph glyph-name="uniFEFA" unicode="&#xfee0;&#xfe88;" horiz-adv-x="631" arabic-form="final" 
d="M529 0v46h102v-46h-102zM40 0v46h471l-31 -31v711h49v-726h-489zM207 46v534h48v-534h-48zM631 0v46q7 0 11 -2t6 -5t2.5 -7t0.5 -9t-0.5 -9.5t-2.5 -7.5t-6 -4.5t-11 -1.5zM198 -232q-14 17 -21.5 33.5t-7.5 33.5q0 25 12 43.5t31.5 28.5t41.5 10q13 0 25.5 -3.5
t23.5 -10.5l-18 -30q-8 5 -15.5 6.5t-15.5 1.5q-20 0 -33.5 -13t-13.5 -33q0 -13 5 -24t17 -25zM150 -232v36h163v-36h-163z" />
    <glyph glyph-name="uniFEFB" unicode="&#xfedf;&#xfe8e;" horiz-adv-x="616" arabic-form="isolated" 
d="M40 0v46h471l-31 -31v711h49v-726h-489zM207 46v534h48v-534h-48z" />
    <glyph glyph-name="uniFEFC" unicode="&#xfee0;&#xfe8e;" horiz-adv-x="631" arabic-form="final" 
d="M529 0v46h102v-46h-102zM40 0v46h471l-31 -31v711h49v-726h-489zM207 46v534h48v-534h-48zM631 0v46q7 0 11 -2t6 -5t2.5 -7t0.5 -9t-0.5 -9.5t-2.5 -7.5t-6 -4.5t-11 -1.5z" />
    <glyph glyph-name="lam_alefWaslaar" unicode="&#xfedf;&#xfb51;" horiz-adv-x="616" 
d="M40 0v46h471l-31 -31v711h49v-726h-489zM207 46v534h48v-534h-48zM161 676q0 24 11.5 42.5t31 28.5t41.5 10q23 0 42 -10t30.5 -28.5t11.5 -42.5h-41q0 18 -12 30t-31 12q-18 0 -30.5 -12t-12.5 -30h-41zM133 636v40h196v-40h-196z" />
    <glyph glyph-name="beh_yehHamzaabovear.fina" unicode="&#xfe92;&#xfe8a;" horiz-adv-x="1047" 
d="M307 -248q-56 0 -104.5 16t-85 44.5t-57 68t-20.5 87.5q0 21 3.5 55.5t9.5 77t13 85.5l48 -7q-12 -69 -18.5 -127t-6.5 -84q0 -49 28 -87.5t77 -60.5t113 -22h283q85 0 130.5 48t45.5 147q0 47 -13.5 73.5t-48 44.5t-98.5 37q-44 13 -82 25t-66 30t-44 48t-16 79
q0 57 22.5 95t66 56.5t106.5 18.5l-3 -46q-48 0 -80 -12.5t-48 -39.5t-16 -71q0 -35 11 -57t32 -35.5t53.5 -24t75.5 -22.5q46 -13 82.5 -27t62 -35.5t38.5 -55t13 -86.5q0 -69 -25 -122.5t-75 -83.5t-124 -30h-283zM896 0v500h48v-473l-21 19h124v-46h-151zM590 454l3 46
h303v-46h-306zM1047 0v46q7 0 11 -2t6 -5t2.5 -7t0.5 -9t-0.5 -9.5t-2.5 -7.5t-6 -4.5t-11 -1.5zM896 -144v66h49v-66h-49zM66 263q-14 17 -21.5 33.5t-7.5 33.5q0 25 12 43.5t31.5 28.5t41.5 10q13 0 25.5 -3.5t23.5 -10.5l-18 -30q-8 5 -15.5 6.5t-15.5 1.5
q-20 0 -33.5 -13t-13.5 -33q0 -13 5 -24t17 -25zM18 263v36h163v-36h-163z" />
    <glyph glyph-name="lam_alefWaslaar.fina" unicode="&#xfee0;&#xfb51;" horiz-adv-x="631" 
d="M529 0v46h102v-46h-102zM40 0v46h471l-31 -31v711h49v-726h-489zM207 46v534h48v-534h-48zM631 0v46q7 0 11 -2t6 -5t2.5 -7t0.5 -9t-0.5 -9.5t-2.5 -7.5t-6 -4.5t-11 -1.5zM161 676q0 24 11.5 42.5t31 28.5t41.5 10q23 0 42 -10t30.5 -28.5t11.5 -42.5h-41q0 18 -12 30
t-31 12q-18 0 -30.5 -12t-12.5 -30h-41zM133 636v40h196v-40h-196z" />
    <glyph glyph-name="peh_rehar.fina" unicode="&#xfb59;&#xfeae;" horiz-adv-x="539" 
d="M388 0v500h49v-473l-22 19h124v-46h-151zM183 362v46h205v-46h-205zM0 -216q-13 0 -27.5 1.5t-28.5 2.5l6 46q14 -1 27 -2.5t23 -1.5q61 0 97.5 43.5t36.5 115.5v511h49v-511q0 -61 -23 -107.5t-64.5 -72t-95.5 -25.5zM539 0v46q7 0 11 -2t6 -5t2.5 -7t0.5 -9t-0.5 -9.5
t-2.5 -7.5t-6 -4.5t-11 -1.5zM335 -78h49v-66h-49v66zM441 -78h49v-66h-49v66zM390 -185h46v-65h-46v65z" />
    <glyph glyph-name="peh_zainar.fina" unicode="&#xfb59;&#xfeb0;" horiz-adv-x="539" 
d="M388 0v500h49v-473l-22 19h124v-46h-151zM183 362v46h205v-46h-205zM0 -216q-13 0 -27.5 1.5t-28.5 2.5l6 46q14 -1 27 -2.5t23 -1.5q61 0 97.5 43.5t36.5 115.5v511h49v-511q0 -61 -23 -107.5t-64.5 -72t-95.5 -25.5zM539 0v46q7 0 11 -2t6 -5t2.5 -7t0.5 -9t-0.5 -9.5
t-2.5 -7.5t-6 -4.5t-11 -1.5zM134 579v66h49v-66h-49zM335 -78h49v-66h-49v66zM441 -78h49v-66h-49v66zM390 -185h46v-65h-46v65z" />
    <glyph glyph-name="peh_noonar.fina" unicode="&#xfb59;&#xfee6;" horiz-adv-x="923" 
d="M772 0v500h48v-473l-21 19h124v-46h-151zM566 362v46h206v-46h-206zM309 -248q-75 0 -136.5 27.5t-97 77t-35.5 113.5q0 21 4 57t9.5 79t12.5 87.5t13 82.5l49 -8q-12 -69 -21 -129t-13.5 -104t-4.5 -65q0 -50 28 -89t78 -61t114 -22t110.5 20.5t72.5 58.5t26 88v535h48
v-535q0 -70 -35.5 -117.5t-94 -71.5t-127.5 -24zM281 500v66h48v-66h-48zM923 0v46q6 0 10 -2t6 -5t3 -7t1 -9t-1 -9.5t-3 -7.5t-6 -4.5t-10 -1.5zM719 -78h49v-66h-49v66zM825 -78h49v-66h-49v66zM774 -185h46v-65h-46v65z" />
    <glyph glyph-name="peh_alefMaksuraar.fina" unicode="&#xfb59;&#xfef0;" horiz-adv-x="1047" 
d="M307 -248q-56 0 -104.5 16t-85 44.5t-57 68t-20.5 87.5q0 21 3.5 55.5t9.5 77t13 85.5l48 -7q-12 -69 -18.5 -127t-6.5 -84q0 -49 28 -87.5t77 -60.5t113 -22h283q85 0 130.5 48t45.5 147q0 47 -13.5 73.5t-48 44.5t-98.5 37q-44 13 -82 25t-66 30t-44 48t-16 79
q0 57 22.5 95t66 56.5t106.5 18.5l-3 -46q-72 0 -108 -29.5t-36 -93.5q0 -35 11 -57t32 -35.5t53.5 -24t75.5 -22.5q46 -13 82.5 -27t62 -35.5t38.5 -55t13 -86.5q0 -69 -25 -122.5t-75 -83.5t-124 -30h-283zM896 0v500h48v-473l-21 19h124v-46h-151zM590 454l3 46h303v-46
h-306zM1047 0v46q7 0 11 -2t6 -5t2.5 -7t0.5 -9t-0.5 -9.5t-2.5 -7.5t-6 -4.5t-11 -1.5zM873 -78h49v-66h-49v66zM979 -78h49v-66h-49v66zM928 -185h46v-65h-46v65z" />
    <glyph glyph-name="peh_yehar.fina" unicode="&#xfb59;&#xfef2;" horiz-adv-x="1047" 
d="M307 -248q-56 0 -104.5 16t-85 44.5t-57 68t-20.5 87.5q0 21 3.5 55.5t9.5 77t13 85.5l48 -7q-12 -69 -18.5 -127t-6.5 -84q0 -49 28 -87.5t77 -60.5t113 -22h283q85 0 130.5 48t45.5 147q0 47 -13.5 73.5t-48 44.5t-98.5 37q-44 13 -82 25t-66 30t-44 48t-16 79
q0 57 22.5 95t66 56.5t106.5 18.5l-3 -46q-72 0 -108 -29.5t-36 -93.5q0 -35 11 -57t32 -35.5t53.5 -24t75.5 -22.5q46 -13 82.5 -27t62 -35.5t38.5 -55t13 -86.5q0 -69 -25 -122.5t-75 -83.5t-124 -30h-283zM896 0v500h48v-473l-21 19h124v-46h-151zM590 454l3 46h303v-46
h-306zM1047 0v46q7 0 11 -2t6 -5t2.5 -7t0.5 -9t-0.5 -9.5t-2.5 -7.5t-6 -4.5t-11 -1.5zM350 -406v66h49v-66h-49zM456 -406v66h49v-66h-49zM873 -78h49v-66h-49v66zM979 -78h49v-66h-49v66zM928 -185h46v-65h-46v65z" />
    <glyph glyph-name="peh_yehHamzaabovear.fina" unicode="&#xfb59;&#xfe8a;" horiz-adv-x="1047" 
d="M307 -248q-56 0 -104.5 16t-85 44.5t-57 68t-20.5 87.5q0 21 3.5 55.5t9.5 77t13 85.5l48 -7q-12 -69 -18.5 -127t-6.5 -84q0 -49 28 -87.5t77 -60.5t113 -22h283q85 0 130.5 48t45.5 147q0 47 -13.5 73.5t-48 44.5t-98.5 37q-44 13 -82 25t-66 30t-44 48t-16 79
q0 57 22.5 95t66 56.5t106.5 18.5l-3 -46q-72 0 -108 -29.5t-36 -93.5q0 -35 11 -57t32 -35.5t53.5 -24t75.5 -22.5q46 -13 82.5 -27t62 -35.5t38.5 -55t13 -86.5q0 -69 -25 -122.5t-75 -83.5t-124 -30h-283zM896 0v500h48v-473l-21 19h124v-46h-151zM590 454l3 46h303v-46
h-306zM1047 0v46q7 0 11 -2t6 -5t2.5 -7t0.5 -9t-0.5 -9.5t-2.5 -7.5t-6 -4.5t-11 -1.5zM66 263q-14 17 -21.5 33.5t-7.5 33.5q0 25 12 43.5t31.5 28.5t41.5 10q13 0 25.5 -3.5t23.5 -10.5l-18 -30q-8 5 -15.5 6.5t-15.5 1.5q-20 0 -33.5 -13t-13.5 -33q0 -13 5 -24t17 -25z
M18 263v36h163v-36h-163zM873 -78h49v-66h-49v66zM979 -78h49v-66h-49v66zM928 -185h46v-65h-46v65z" />
    <glyph glyph-name="teh_yehHamzaabovear.fina" unicode="&#xfe98;&#xfe8a;" horiz-adv-x="1047" 
d="M307 -248q-56 0 -104.5 16t-85 44.5t-57 68t-20.5 87.5q0 21 3.5 55.5t9.5 77t13 85.5l48 -7q-12 -69 -18.5 -127t-6.5 -84q0 -49 28 -87.5t77 -60.5t113 -22h283q85 0 130.5 48t45.5 147q0 47 -13.5 73.5t-48 44.5t-98.5 37q-44 13 -82 25t-66 30t-44 48t-16 79
q0 57 22.5 95t66 56.5t106.5 18.5l-3 -46q-48 0 -80 -12.5t-48 -39.5t-16 -71q0 -35 11 -57t32 -35.5t53.5 -24t75.5 -22.5q46 -13 82.5 -27t62 -35.5t38.5 -55t13 -86.5q0 -69 -25 -122.5t-75 -83.5t-124 -30h-283zM896 0v500h48v-473l-21 19h124v-46h-151zM590 454l3 46
h303v-46h-306zM1047 0v46q7 0 11 -2t6 -5t2.5 -7t0.5 -9t-0.5 -9.5t-2.5 -7.5t-6 -4.5t-11 -1.5zM790 579v66h49v-66h-49zM896 579v66h49v-66h-49zM66 263q-14 17 -21.5 33.5t-7.5 33.5q0 25 12 43.5t31.5 28.5t41.5 10q13 0 25.5 -3.5t23.5 -10.5l-18 -30q-8 5 -15.5 6.5
t-15.5 1.5q-20 0 -33.5 -13t-13.5 -33q0 -13 5 -24t17 -25zM18 263v36h163v-36h-163z" />
    <glyph glyph-name="theh_yehHamzaabovear.fina" unicode="&#xfe9c;&#xfe8a;" horiz-adv-x="1047" 
d="M307 -248q-56 0 -104.5 16t-85 44.5t-57 68t-20.5 87.5q0 21 3.5 55.5t9.5 77t13 85.5l48 -7q-12 -69 -18.5 -127t-6.5 -84q0 -49 28 -87.5t77 -60.5t113 -22h283q85 0 130.5 48t45.5 147q0 47 -13.5 73.5t-48 44.5t-98.5 37q-44 13 -82 25t-66 30t-44 48t-16 79
q0 57 22.5 95t66 56.5t106.5 18.5l-3 -46q-48 0 -80 -12.5t-48 -39.5t-16 -71q0 -35 11 -57t32 -35.5t53.5 -24t75.5 -22.5q46 -13 82.5 -27t62 -35.5t38.5 -55t13 -86.5q0 -69 -25 -122.5t-75 -83.5t-124 -30h-283zM896 0v500h48v-473l-21 19h124v-46h-151zM590 454l3 46
h303v-46h-306zM1047 0v46q7 0 11 -2t6 -5t2.5 -7t0.5 -9t-0.5 -9.5t-2.5 -7.5t-6 -4.5t-11 -1.5zM845 686v64h46v-64h-46zM790 579v66h49v-66h-49zM896 579v66h49v-66h-49zM66 263q-14 17 -21.5 33.5t-7.5 33.5q0 25 12 43.5t31.5 28.5t41.5 10q13 0 25.5 -3.5t23.5 -10.5
l-18 -30q-8 5 -15.5 6.5t-15.5 1.5q-20 0 -33.5 -13t-13.5 -33q0 -13 5 -24t17 -25zM18 263v36h163v-36h-163z" />
    <glyph glyph-name="seen_zainar" unicode="&#xfeb3;&#xfeb0;" horiz-adv-x="1049" 
d="M764 0q-32 0 -63 12.5t-62 39.5l33 34q24 -21 46 -30.5t46 -9.5h177l-19 -20v252q0 20 -4 54.5t-11 76t-16 82.5l48 9q7 -34 14 -76t12 -81t5 -65v-278h-206zM183 362v46h205v-46h-205zM388 0v500h49v-500h-49zM437 0v46h128q36 0 55 10.5t27 41t8 90.5v262h48v-262
q0 -74 -14 -115t-44 -57t-80 -16h-128zM0 -216q-13 0 -27.5 1.5t-28.5 2.5l6 46q14 -1 27 -2.5t23 -1.5q61 0 97.5 43.5t36.5 115.5v511h49v-511q0 -61 -23 -107.5t-64.5 -72t-95.5 -25.5zM134 579v66h49v-66h-49z" />
    <glyph glyph-name="seen_zainar.fina" unicode="&#xfeb4;&#xfeb0;" horiz-adv-x="1073" 
d="M970 0v46h103v-46h-103zM1073 0v46q6 0 10 -2t6 -5t3 -7t1 -9t-1 -9.5t-3 -7.5t-6 -4.5t-10 -1.5zM0 -216q-13 0 -27.5 1.5t-28.5 2.5l6 46q14 -1 27 -2.5t23 -1.5q61 0 97.5 43.5t36.5 115.5v511h49v-511q0 -61 -23 -107.5t-64.5 -72t-95.5 -25.5zM764 0q-32 0 -63 12.5
t-62 39.5l33 34q24 -21 46 -30.5t46 -9.5h177l-19 -20v252q0 20 -4 54.5t-11 76t-16 82.5l48 9q7 -34 14 -76t12 -81t5 -65v-278h-206zM183 362v46h205v-46h-205zM388 0v500h49v-500h-49zM437 0v46h128q36 0 55 10.5t27 41t8 90.5v262h48v-262q0 -74 -14 -115t-44 -57
t-80 -16h-128zM134 579v66h49v-66h-49z" />
    <glyph glyph-name="seen_noonar" unicode="&#xfeb3;&#xfee6;" horiz-adv-x="1432" 
d="M1147 0q-32 0 -63 12.5t-61 39.5l32 34q24 -21 46.5 -30.5t45.5 -9.5h184l-26 -27v259q0 20 -4 54.5t-11 76t-16 82.5l48 9q8 -34 15 -76t11.5 -81t4.5 -65v-278h-206zM566 362v46h206v-46h-206zM772 0v500h48v-500h-48zM820 0v46h129q36 0 55 10.5t26.5 41t7.5 90.5v262
h49v-262q0 -74 -14.5 -115t-44.5 -57t-79 -16h-129zM309 -248q-75 0 -136.5 27.5t-97 77t-35.5 113.5q0 21 4 57t9.5 79t12.5 87.5t13 82.5l49 -8q-12 -69 -21 -129t-13.5 -104t-4.5 -65q0 -50 28 -89t78 -61t114 -22t110.5 20.5t72.5 58.5t26 88v535h48v-535
q0 -70 -35.5 -117.5t-94 -71.5t-127.5 -24zM281 500v66h49v-66h-49z" />
    <glyph glyph-name="seen_noonar.fina" unicode="&#xfeb4;&#xfee6;" horiz-adv-x="1456" 
d="M1353 0v46h103v-46h-103zM309 -248q-75 0 -136.5 27.5t-97 77t-35.5 113.5q0 21 4 57t9.5 79t12.5 87.5t13 82.5l49 -8q-12 -69 -21 -129t-13.5 -104t-4.5 -65q0 -50 28 -89t78 -61t114 -22t110.5 20.5t72.5 58.5t26 88v535h48v-535q0 -70 -35.5 -117.5t-94 -71.5
t-127.5 -24zM1147 0q-32 0 -63 12.5t-61 39.5l32 34q24 -21 46.5 -30.5t45.5 -9.5h184l-26 -27v259q0 20 -4 54.5t-11 76t-16 82.5l48 9q8 -34 15 -76t11.5 -81t4.5 -65v-278h-206zM566 362v46h206v-46h-206zM772 0v500h48v-500h-48zM820 0v46h129q36 0 55 10.5t26.5 41
t7.5 90.5v262h49v-262q0 -74 -14.5 -115t-44.5 -57t-79 -16h-129zM1456 0v46q6 0 10 -2t6 -5t3 -7t1 -9t-1 -9.5t-3 -7.5t-6 -4.5t-10 -1.5zM281 500v66h49v-66h-49z" />
    <glyph glyph-name="seen_noonghunnaar" unicode="&#xfeb3;&#xfb9f;" horiz-adv-x="1432" 
d="M1147 0q-32 0 -63 12.5t-61 39.5l32 34q24 -21 46.5 -30.5t45.5 -9.5h184l-26 -27v259q0 20 -4 54.5t-11 76t-16 82.5l48 9q8 -34 15 -76t11.5 -81t4.5 -65v-278h-206zM566 362v46h206v-46h-206zM772 0v500h48v-500h-48zM820 0v46h129q36 0 55 10.5t26.5 41t7.5 90.5v262
h49v-262q0 -74 -14.5 -115t-44.5 -57t-79 -16h-129zM309 -248q-75 0 -136.5 27.5t-97 77t-35.5 113.5q0 21 4 57t9.5 79t12.5 87.5t13 82.5l49 -8q-12 -69 -21 -129t-13.5 -104t-4.5 -65q0 -50 28 -89t78 -61t114 -22t110.5 20.5t72.5 58.5t26 88v535h48v-535
q0 -70 -35.5 -117.5t-94 -71.5t-127.5 -24z" />
    <glyph glyph-name="seen_noonghunnaar.fina" unicode="&#xfeb4;&#xfb9f;" horiz-adv-x="1456" 
d="M1353 0v46h103v-46h-103zM309 -248q-75 0 -136.5 27.5t-97 77t-35.5 113.5q0 21 4 57t9.5 79t12.5 87.5t13 82.5l49 -8q-12 -69 -21 -129t-13.5 -104t-4.5 -65q0 -50 28 -89t78 -61t114 -22t110.5 20.5t72.5 58.5t26 88v535h48v-535q0 -70 -35.5 -117.5t-94 -71.5
t-127.5 -24zM1147 0q-32 0 -63 12.5t-61 39.5l32 34q24 -21 46.5 -30.5t45.5 -9.5h184l-26 -27v259q0 20 -4 54.5t-11 76t-16 82.5l48 9q8 -34 15 -76t11.5 -81t4.5 -65v-278h-206zM566 362v46h206v-46h-206zM772 0v500h48v-500h-48zM820 0v46h129q36 0 55 10.5t26.5 41
t7.5 90.5v262h49v-262q0 -74 -14.5 -115t-44.5 -57t-79 -16h-129zM1456 0v46q6 0 10 -2t6 -5t3 -7t1 -9t-1 -9.5t-3 -7.5t-6 -4.5t-10 -1.5z" />
    <glyph glyph-name="seen_yehHamzaabovear" unicode="&#xfeb3;&#xfe8a;" horiz-adv-x="1552" 
d="M307 -248q-56 0 -104.5 16t-85 44.5t-57 68t-20.5 87.5q0 21 3.5 55.5t9.5 77t13 85.5l48 -7q-12 -69 -18.5 -127t-6.5 -84q0 -49 28 -87.5t77 -60.5t113 -22h283q85 0 130.5 48t45.5 147q0 47 -13.5 73.5t-48 44.5t-98.5 37q-44 13 -82 25t-66 30t-44 48t-16 79
q0 57 22.5 95t66 56.5t106.5 18.5l-3 -46q-48 0 -80 -12.5t-48 -39.5t-16 -71q0 -35 11 -57t32 -35.5t53.5 -24t75.5 -22.5q46 -13 82.5 -27t62 -35.5t38.5 -55t13 -86.5q0 -69 -25 -122.5t-75 -83.5t-124 -30h-283zM590 454l3 46h299v-46h-302zM892 0v500h48v-500h-48z
M940 0v46h129q36 0 55 10.5t26.5 41t7.5 90.5v262h49v-262q0 -74 -14.5 -115t-44.5 -57t-79 -16h-129zM1267 0q-32 0 -63 12.5t-61 39.5l32 34q24 -21 46.5 -30.5t45.5 -9.5h184l-26 -27v259q0 20 -4 54.5t-11 76t-16 82.5l48 9q8 -34 15 -76t11.5 -81t4.5 -65v-278h-206z
M66 263q-14 17 -21.5 33.5t-7.5 33.5q0 25 12 43.5t31.5 28.5t41.5 10q13 0 25.5 -3.5t23.5 -10.5l-18 -30q-8 5 -15.5 6.5t-15.5 1.5q-20 0 -33.5 -13t-13.5 -33q0 -13 5 -24t17 -25zM18 263v36h163v-36h-163z" />
    <glyph glyph-name="seen_yehHamzaabovear.fina" unicode="&#xfeb4;&#xfe8a;" horiz-adv-x="1576" 
d="M1473 0v46h103v-46h-103zM307 -248q-56 0 -104.5 16t-85 44.5t-57 68t-20.5 87.5q0 21 3.5 55.5t9.5 77t13 85.5l48 -7q-12 -69 -18.5 -127t-6.5 -84q0 -49 28 -87.5t77 -60.5t113 -22h283q85 0 130.5 48t45.5 147q0 47 -13.5 73.5t-48 44.5t-98.5 37q-44 13 -82 25
t-66 30t-44 48t-16 79q0 57 22.5 95t66 56.5t106.5 18.5l-3 -46q-48 0 -80 -12.5t-48 -39.5t-16 -71q0 -35 11 -57t32 -35.5t53.5 -24t75.5 -22.5q46 -13 82.5 -27t62 -35.5t38.5 -55t13 -86.5q0 -69 -25 -122.5t-75 -83.5t-124 -30h-283zM590 454l3 46h299v-46h-302zM892 0
v500h48v-500h-48zM940 0v46h129q36 0 55 10.5t26.5 41t7.5 90.5v262h49v-262q0 -74 -14.5 -115t-44.5 -57t-79 -16h-129zM1267 0q-32 0 -63 12.5t-61 39.5l32 34q24 -21 46.5 -30.5t45.5 -9.5h184l-26 -27v259q0 20 -4 54.5t-11 76t-16 82.5l48 9q8 -34 15 -76t11.5 -81
t4.5 -65v-278h-206zM1576 0v46q7 0 11 -2t6 -5t2.5 -7t0.5 -9t-0.5 -9.5t-2.5 -7.5t-6 -4.5t-11 -1.5zM66 263q-14 17 -21.5 33.5t-7.5 33.5q0 25 12 43.5t31.5 28.5t41.5 10q13 0 25.5 -3.5t23.5 -10.5l-18 -30q-8 5 -15.5 6.5t-15.5 1.5q-20 0 -33.5 -13t-13.5 -33
q0 -13 5 -24t17 -25zM18 263v36h163v-36h-163z" />
    <glyph glyph-name="sheen_zainar" unicode="&#xfeb7;&#xfeb0;" horiz-adv-x="1049" 
d="M764 0q-32 0 -63 12.5t-62 39.5l33 34q24 -21 46 -30.5t46 -9.5h177l-19 -20v252q0 20 -4 54.5t-11 76t-16 82.5l48 9q7 -34 14 -76t12 -81t5 -65v-278h-206zM183 362v46h205v-46h-205zM388 0v500h49v-500h-49zM437 0v46h128q36 0 55 10.5t27 41t8 90.5v262h48v-262
q0 -74 -14 -115t-44 -57t-80 -16h-128zM0 -216q-13 0 -27.5 1.5t-28.5 2.5l6 46q14 -1 27 -2.5t23 -1.5q61 0 97.5 43.5t36.5 115.5v511h49v-511q0 -61 -23 -107.5t-64.5 -72t-95.5 -25.5zM657 686v64h46v-64h-46zM602 579v66h49v-66h-49zM708 579v66h49v-66h-49zM134 579
v66h49v-66h-49z" />
    <glyph glyph-name="sheen_zainar.fina" unicode="&#xfeb8;&#xfeb0;" horiz-adv-x="1073" 
d="M970 0v46h103v-46h-103zM1073 0v46q6 0 10 -2t6 -5t3 -7t1 -9t-1 -9.5t-3 -7.5t-6 -4.5t-10 -1.5zM0 -216q-13 0 -27.5 1.5t-28.5 2.5l6 46q14 -1 27 -2.5t23 -1.5q61 0 97.5 43.5t36.5 115.5v511h49v-511q0 -61 -23 -107.5t-64.5 -72t-95.5 -25.5zM764 0q-32 0 -63 12.5
t-62 39.5l33 34q24 -21 46 -30.5t46 -9.5h177l-19 -20v252q0 20 -4 54.5t-11 76t-16 82.5l48 9q7 -34 14 -76t12 -81t5 -65v-278h-206zM183 362v46h205v-46h-205zM388 0v500h49v-500h-49zM437 0v46h128q36 0 55 10.5t27 41t8 90.5v262h48v-262q0 -74 -14 -115t-44 -57
t-80 -16h-128zM657 686v64h46v-64h-46zM602 579v66h49v-66h-49zM708 579v66h49v-66h-49zM134 579v66h49v-66h-49z" />
    <glyph glyph-name="sheen_noonar" unicode="&#xfeb7;&#xfee6;" horiz-adv-x="1432" 
d="M1147 0q-32 0 -63 12.5t-61 39.5l32 34q24 -21 46.5 -30.5t45.5 -9.5h184l-26 -27v259q0 20 -4 54.5t-11 76t-16 82.5l48 9q8 -34 15 -76t11.5 -81t4.5 -65v-278h-206zM566 362v46h206v-46h-206zM772 0v500h48v-500h-48zM820 0v46h129q36 0 55 10.5t26.5 41t7.5 90.5v262
h49v-262q0 -74 -14.5 -115t-44.5 -57t-79 -16h-129zM309 -248q-75 0 -136.5 27.5t-97 77t-35.5 113.5q0 21 4 57t9.5 79t12.5 87.5t13 82.5l49 -8q-12 -69 -21 -129t-13.5 -104t-4.5 -65q0 -50 28 -89t78 -61t114 -22t110.5 20.5t72.5 58.5t26 88v535h48v-535
q0 -70 -35.5 -117.5t-94 -71.5t-127.5 -24zM281 500v66h49v-66h-49zM1040 686v64h46v-64h-46zM985 579v66h49v-66h-49zM1091 579v66h49v-66h-49z" />
    <glyph glyph-name="sheen_noonar.fina" unicode="&#xfeb8;&#xfee6;" horiz-adv-x="1456" 
d="M1353 0v46h103v-46h-103zM309 -248q-75 0 -136.5 27.5t-97 77t-35.5 113.5q0 21 4 57t9.5 79t12.5 87.5t13 82.5l49 -8q-12 -69 -21 -129t-13.5 -104t-4.5 -65q0 -50 28 -89t78 -61t114 -22t110.5 20.5t72.5 58.5t26 88v535h48v-535q0 -70 -35.5 -117.5t-94 -71.5
t-127.5 -24zM1147 0q-32 0 -63 12.5t-61 39.5l32 34q24 -21 46.5 -30.5t45.5 -9.5h184l-26 -27v259q0 20 -4 54.5t-11 76t-16 82.5l48 9q8 -34 15 -76t11.5 -81t4.5 -65v-278h-206zM566 362v46h206v-46h-206zM772 0v500h48v-500h-48zM820 0v46h129q36 0 55 10.5t26.5 41
t7.5 90.5v262h49v-262q0 -74 -14.5 -115t-44.5 -57t-79 -16h-129zM1456 0v46q6 0 10 -2t6 -5t3 -7t1 -9t-1 -9.5t-3 -7.5t-6 -4.5t-10 -1.5zM281 500v66h49v-66h-49zM1040 686v64h46v-64h-46zM985 579v66h49v-66h-49zM1091 579v66h49v-66h-49z" />
    <glyph glyph-name="sheen_yehHamzaabovear" unicode="&#xfeb7;&#xfe8a;" horiz-adv-x="1552" 
d="M307 -248q-56 0 -104.5 16t-85 44.5t-57 68t-20.5 87.5q0 21 3.5 55.5t9.5 77t13 85.5l48 -7q-12 -69 -18.5 -127t-6.5 -84q0 -49 28 -87.5t77 -60.5t113 -22h283q85 0 130.5 48t45.5 147q0 47 -13.5 73.5t-48 44.5t-98.5 37q-44 13 -82 25t-66 30t-44 48t-16 79
q0 57 22.5 95t66 56.5t106.5 18.5l-3 -46q-48 0 -80 -12.5t-48 -39.5t-16 -71q0 -35 11 -57t32 -35.5t53.5 -24t75.5 -22.5q46 -13 82.5 -27t62 -35.5t38.5 -55t13 -86.5q0 -69 -25 -122.5t-75 -83.5t-124 -30h-283zM590 454l3 46h299v-46h-302zM892 0v500h48v-500h-48z
M940 0v46h129q36 0 55 10.5t26.5 41t7.5 90.5v262h49v-262q0 -74 -14.5 -115t-44.5 -57t-79 -16h-129zM1267 0q-32 0 -63 12.5t-61 39.5l32 34q24 -21 46.5 -30.5t45.5 -9.5h184l-26 -27v259q0 20 -4 54.5t-11 76t-16 82.5l48 9q8 -34 15 -76t11.5 -81t4.5 -65v-278h-206z
M1160 686v64h46v-64h-46zM1105 579v66h49v-66h-49zM1211 579v66h49v-66h-49zM66 263q-14 17 -21.5 33.5t-7.5 33.5q0 25 12 43.5t31.5 28.5t41.5 10q13 0 25.5 -3.5t23.5 -10.5l-18 -30q-8 5 -15.5 6.5t-15.5 1.5q-20 0 -33.5 -13t-13.5 -33q0 -13 5 -24t17 -25zM18 263v36
h163v-36h-163z" />
    <glyph glyph-name="sheen_yehHamzaabovear.fina" unicode="&#xfeb8;&#xfe8a;" horiz-adv-x="1576" 
d="M1473 0v46h103v-46h-103zM307 -248q-56 0 -104.5 16t-85 44.5t-57 68t-20.5 87.5q0 21 3.5 55.5t9.5 77t13 85.5l48 -7q-12 -69 -18.5 -127t-6.5 -84q0 -49 28 -87.5t77 -60.5t113 -22h283q85 0 130.5 48t45.5 147q0 47 -13.5 73.5t-48 44.5t-98.5 37q-44 13 -82 25
t-66 30t-44 48t-16 79q0 57 22.5 95t66 56.5t106.5 18.5l-3 -46q-48 0 -80 -12.5t-48 -39.5t-16 -71q0 -35 11 -57t32 -35.5t53.5 -24t75.5 -22.5q46 -13 82.5 -27t62 -35.5t38.5 -55t13 -86.5q0 -69 -25 -122.5t-75 -83.5t-124 -30h-283zM590 454l3 46h299v-46h-302zM892 0
v500h48v-500h-48zM940 0v46h129q36 0 55 10.5t26.5 41t7.5 90.5v262h49v-262q0 -74 -14.5 -115t-44.5 -57t-79 -16h-129zM1267 0q-32 0 -63 12.5t-61 39.5l32 34q24 -21 46.5 -30.5t45.5 -9.5h184l-26 -27v259q0 20 -4 54.5t-11 76t-16 82.5l48 9q8 -34 15 -76t11.5 -81
t4.5 -65v-278h-206zM1576 0v46q7 0 11 -2t6 -5t2.5 -7t0.5 -9t-0.5 -9.5t-2.5 -7.5t-6 -4.5t-11 -1.5zM1160 686v64h46v-64h-46zM1105 579v66h49v-66h-49zM1211 579v66h49v-66h-49zM66 263q-14 17 -21.5 33.5t-7.5 33.5q0 25 12 43.5t31.5 28.5t41.5 10q13 0 25.5 -3.5
t23.5 -10.5l-18 -30q-8 5 -15.5 6.5t-15.5 1.5q-20 0 -33.5 -13t-13.5 -33q0 -13 5 -24t17 -25zM18 263v36h163v-36h-163z" />
    <glyph glyph-name="sad_zainar" unicode="&#xfebb;&#xfeb0;" horiz-adv-x="1047" 
d="M437 0v46h523l-40 -37v232q0 69 -20.5 116.5t-61.5 72t-103 24.5q-43 0 -79 -11.5t-66.5 -32t-57 -47t-51 -56t-48.5 -59.5l-26 37q25 31 50.5 62t53.5 58.5t61.5 48.5t73.5 33.5t90 12.5q71 0 116.5 -24t71 -63.5t35.5 -84.5t10 -87v-241h-532zM183 362v46h205v-46h-205
zM388 0v500h49v-500h-49zM0 -216q-13 0 -27.5 1.5t-28.5 2.5l6 46q14 -1 27 -2.5t23 -1.5q61 0 97.5 43.5t36.5 115.5v511h49v-511q0 -61 -23 -107.5t-64.5 -72t-95.5 -25.5zM134 573v66h49v-66h-49z" />
    <glyph glyph-name="sad_zainar.fina" unicode="&#xfebc;&#xfeb0;" horiz-adv-x="1071" 
d="M969 0v46h102v-46h-102zM1071 0v46q7 0 11 -2t6 -5t2.5 -7t0.5 -9t-0.5 -9.5t-2.5 -7.5t-6 -4.5t-11 -1.5zM0 -216q-13 0 -27.5 1.5t-28.5 2.5l6 46q14 -1 27 -2.5t23 -1.5q61 0 97.5 43.5t36.5 115.5v511h49v-511q0 -61 -23 -107.5t-64.5 -72t-95.5 -25.5zM437 0v46h523
l-40 -37v232q0 69 -20.5 116.5t-61.5 72t-103 24.5q-43 0 -79 -11.5t-66.5 -32t-57 -47t-51 -56t-48.5 -59.5l-26 37q25 31 50.5 62t53.5 58.5t61.5 48.5t73.5 33.5t90 12.5q71 0 116.5 -24t71 -63.5t35.5 -84.5t10 -87v-241h-532zM183 362v46h205v-46h-205zM388 0v500h49
v-500h-49zM134 573v66h49v-66h-49z" />
    <glyph glyph-name="sad_noonar" unicode="&#xfebb;&#xfee6;" horiz-adv-x="1430" 
d="M772 0v46h571l-40 -37v232q0 69 -20.5 116.5t-61.5 72t-103 24.5q-43 0 -79 -11.5t-66.5 -32t-57 -47t-51 -56t-48.5 -59.5l-26 37q25 31 50.5 62t53.5 58.5t61.5 48.5t73.5 33.5t90 12.5q71 0 116.5 -24t71 -63.5t35.5 -84.5t10 -87v-241h-580zM566 362v46h206v-46h-206
zM772 46v454h48v-454h-48zM309 -248q-75 0 -136.5 27.5t-97 77t-35.5 113.5q0 21 4 57t9.5 79t12.5 87.5t13 82.5l49 -8q-12 -69 -21 -129t-13.5 -104t-4.5 -65q0 -50 28 -89t78 -61t114 -22t110.5 20.5t72.5 58.5t26 88v535h48v-535q0 -70 -35.5 -117.5t-94 -71.5
t-127.5 -24zM281 500v66h49v-66h-49z" />
    <glyph glyph-name="sad_noonar.fina" unicode="&#xfebc;&#xfee6;" horiz-adv-x="1455" 
d="M1352 0v46h103v-46h-103zM1455 0v46q6 0 10 -2t6 -5t3 -7t1 -9t-1 -9.5t-3 -7.5t-6 -4.5t-10 -1.5zM309 -248q-75 0 -136.5 27.5t-97 77t-35.5 113.5q0 21 4 57t9.5 79t12.5 87.5t13 82.5l49 -8q-12 -69 -21 -129t-13.5 -104t-4.5 -65q0 -50 28 -89t78 -61t114 -22
t110.5 20.5t72.5 58.5t26 88v535h48v-535q0 -70 -35.5 -117.5t-94 -71.5t-127.5 -24zM772 0v46h571l-40 -37v232q0 69 -20.5 116.5t-61.5 72t-103 24.5q-43 0 -79 -11.5t-66.5 -32t-57 -47t-51 -56t-48.5 -59.5l-26 37q25 31 50.5 62t53.5 58.5t61.5 48.5t73.5 33.5t90 12.5
q71 0 116.5 -24t71 -63.5t35.5 -84.5t10 -87v-241h-580zM566 362v46h206v-46h-206zM772 46v454h48v-454h-48zM281 500v66h49v-66h-49z" />
    <glyph glyph-name="sad_noonghunnaar" unicode="&#xfebb;&#xfb9f;" horiz-adv-x="1430" 
d="M772 0v46h571l-40 -37v232q0 69 -20.5 116.5t-61.5 72t-103 24.5q-43 0 -79 -11.5t-66.5 -32t-57 -47t-51 -56t-48.5 -59.5l-26 37q25 31 50.5 62t53.5 58.5t61.5 48.5t73.5 33.5t90 12.5q71 0 116.5 -24t71 -63.5t35.5 -84.5t10 -87v-241h-580zM566 362v46h206v-46h-206
zM772 46v454h48v-454h-48zM309 -248q-75 0 -136.5 27.5t-97 77t-35.5 113.5q0 21 4 57t9.5 79t12.5 87.5t13 82.5l49 -8q-12 -69 -21 -129t-13.5 -104t-4.5 -65q0 -50 28 -89t78 -61t114 -22t110.5 20.5t72.5 58.5t26 88v535h48v-535q0 -70 -35.5 -117.5t-94 -71.5
t-127.5 -24z" />
    <glyph glyph-name="sad_noonghunnaar.fina" unicode="&#xfebc;&#xfb9f;" horiz-adv-x="1455" 
d="M1352 0v46h103v-46h-103zM1455 0v46q6 0 10 -2t6 -5t3 -7t1 -9t-1 -9.5t-3 -7.5t-6 -4.5t-10 -1.5zM309 -248q-75 0 -136.5 27.5t-97 77t-35.5 113.5q0 21 4 57t9.5 79t12.5 87.5t13 82.5l49 -8q-12 -69 -21 -129t-13.5 -104t-4.5 -65q0 -50 28 -89t78 -61t114 -22
t110.5 20.5t72.5 58.5t26 88v535h48v-535q0 -70 -35.5 -117.5t-94 -71.5t-127.5 -24zM772 0v46h571l-40 -37v232q0 69 -20.5 116.5t-61.5 72t-103 24.5q-43 0 -79 -11.5t-66.5 -32t-57 -47t-51 -56t-48.5 -59.5l-26 37q25 31 50.5 62t53.5 58.5t61.5 48.5t73.5 33.5t90 12.5
q71 0 116.5 -24t71 -63.5t35.5 -84.5t10 -87v-241h-580zM566 362v46h206v-46h-206zM772 46v454h48v-454h-48z" />
    <glyph glyph-name="sad_yehHamzaabovear" unicode="&#xfebb;&#xfe8a;" horiz-adv-x="1550" 
d="M307 -248q-56 0 -104.5 16t-85 44.5t-57 68t-20.5 87.5q0 21 3.5 55.5t9.5 77t13 85.5l48 -7q-12 -69 -18.5 -127t-6.5 -84q0 -49 28 -87.5t77 -60.5t113 -22h283q85 0 130.5 48t45.5 147q0 47 -13.5 73.5t-48 44.5t-98.5 37q-44 13 -82 25t-66 30t-44 48t-16 79
q0 57 22.5 95t66 56.5t106.5 18.5l-3 -46q-48 0 -80 -12.5t-48 -39.5t-16 -71q0 -35 11 -57t32 -35.5t53.5 -24t75.5 -22.5q46 -13 82.5 -27t62 -35.5t38.5 -55t13 -86.5q0 -69 -25 -122.5t-75 -83.5t-124 -30h-283zM590 454l3 46h299v-46h-302zM892 0v500h48v-500h-48z
M940 0v46h523l-40 -37v232q0 69 -20.5 116.5t-61.5 72t-103 24.5q-43 0 -79 -11.5t-66.5 -32t-57 -47t-51 -56t-48.5 -59.5l-26 37q25 31 50.5 62t53.5 58.5t61.5 48.5t73.5 33.5t90 12.5q71 0 116.5 -24t71 -63.5t35.5 -84.5t10 -87v-241h-532zM66 263q-14 17 -21.5 33.5
t-7.5 33.5q0 25 12 43.5t31.5 28.5t41.5 10q13 0 25.5 -3.5t23.5 -10.5l-18 -30q-8 5 -15.5 6.5t-15.5 1.5q-20 0 -33.5 -13t-13.5 -33q0 -13 5 -24t17 -25zM18 263v36h163v-36h-163z" />
    <glyph glyph-name="sad_yehHamzaabovear.fina" unicode="&#xfebc;&#xfe8a;" horiz-adv-x="1575" 
d="M1472 0v46h103v-46h-103zM307 -248q-56 0 -104.5 16t-85 44.5t-57 68t-20.5 87.5q0 21 3.5 55.5t9.5 77t13 85.5l48 -7q-12 -69 -18.5 -127t-6.5 -84q0 -49 28 -87.5t77 -60.5t113 -22h283q85 0 130.5 48t45.5 147q0 47 -13.5 73.5t-48 44.5t-98.5 37q-44 13 -82 25
t-66 30t-44 48t-16 79q0 57 22.5 95t66 56.5t106.5 18.5l-3 -46q-48 0 -80 -12.5t-48 -39.5t-16 -71q0 -35 11 -57t32 -35.5t53.5 -24t75.5 -22.5q46 -13 82.5 -27t62 -35.5t38.5 -55t13 -86.5q0 -69 -25 -122.5t-75 -83.5t-124 -30h-283zM590 454l3 46h299v-46h-302zM892 0
v500h48v-500h-48zM940 0v46h523l-40 -37v232q0 69 -20.5 116.5t-61.5 72t-103 24.5q-43 0 -79 -11.5t-66.5 -32t-57 -47t-51 -56t-48.5 -59.5l-26 37q25 31 50.5 62t53.5 58.5t61.5 48.5t73.5 33.5t90 12.5q71 0 116.5 -24t71 -63.5t35.5 -84.5t10 -87v-241h-532zM1575 0v46
q6 0 10 -2t6 -5t3 -7t1 -9t-1 -9.5t-3 -7.5t-6 -4.5t-10 -1.5zM66 263q-14 17 -21.5 33.5t-7.5 33.5q0 25 12 43.5t31.5 28.5t41.5 10q13 0 25.5 -3.5t23.5 -10.5l-18 -30q-8 5 -15.5 6.5t-15.5 1.5q-20 0 -33.5 -13t-13.5 -33q0 -13 5 -24t17 -25zM18 263v36h163v-36h-163z
" />
    <glyph glyph-name="dad_zainar" unicode="&#xfebf;&#xfeb0;" horiz-adv-x="1047" 
d="M437 0v46h523l-40 -37v232q0 69 -20.5 116.5t-61.5 72t-103 24.5q-43 0 -79 -11.5t-66.5 -32t-57 -47t-51 -56t-48.5 -59.5l-26 37q25 31 50.5 62t53.5 58.5t61.5 48.5t73.5 33.5t90 12.5q71 0 116.5 -24t71 -63.5t35.5 -84.5t10 -87v-241h-532zM183 362v46h205v-46h-205
zM388 0v500h49v-500h-49zM0 -216q-13 0 -27.5 1.5t-28.5 2.5l6 46q14 -1 27 -2.5t23 -1.5q61 0 97.5 43.5t36.5 115.5v511h49v-511q0 -61 -23 -107.5t-64.5 -72t-95.5 -25.5zM661 573v66h49v-66h-49zM134 573v66h49v-66h-49z" />
    <glyph glyph-name="dad_zainar.fina" unicode="&#xfec0;&#xfeb0;" horiz-adv-x="1071" 
d="M969 0v46h102v-46h-102zM1071 0v46q7 0 11 -2t6 -5t2.5 -7t0.5 -9t-0.5 -9.5t-2.5 -7.5t-6 -4.5t-11 -1.5zM0 -216q-13 0 -27.5 1.5t-28.5 2.5l6 46q14 -1 27 -2.5t23 -1.5q61 0 97.5 43.5t36.5 115.5v511h49v-511q0 -61 -23 -107.5t-64.5 -72t-95.5 -25.5zM437 0v46h523
l-40 -37v232q0 69 -20.5 116.5t-61.5 72t-103 24.5q-43 0 -79 -11.5t-66.5 -32t-57 -47t-51 -56t-48.5 -59.5l-26 37q25 31 50.5 62t53.5 58.5t61.5 48.5t73.5 33.5t90 12.5q71 0 116.5 -24t71 -63.5t35.5 -84.5t10 -87v-241h-532zM183 362v46h205v-46h-205zM388 0v500h49
v-500h-49zM661 573v66h49v-66h-49zM134 573v66h49v-66h-49z" />
    <glyph glyph-name="dad_noonar" unicode="&#xfebf;&#xfee6;" horiz-adv-x="1430" 
d="M772 0v46h571l-40 -37v232q0 69 -20.5 116.5t-61.5 72t-103 24.5q-43 0 -79 -11.5t-66.5 -32t-57 -47t-51 -56t-48.5 -59.5l-26 37q25 31 50.5 62t53.5 58.5t61.5 48.5t73.5 33.5t90 12.5q71 0 116.5 -24t71 -63.5t35.5 -84.5t10 -87v-241h-580zM566 362v46h206v-46h-206
zM772 46v454h48v-454h-48zM309 -248q-75 0 -136.5 27.5t-97 77t-35.5 113.5q0 21 4 57t9.5 79t12.5 87.5t13 82.5l49 -8q-12 -69 -21 -129t-13.5 -104t-4.5 -65q0 -50 28 -89t78 -61t114 -22t110.5 20.5t72.5 58.5t26 88v535h48v-535q0 -70 -35.5 -117.5t-94 -71.5
t-127.5 -24zM281 500v66h49v-66h-49zM1045 579v66h49v-66h-49z" />
    <glyph glyph-name="dad_noonar.fina" unicode="&#xfec0;&#xfee6;" horiz-adv-x="1455" 
d="M1352 0v46h103v-46h-103zM1455 0v46q6 0 10 -2t6 -5t3 -7t1 -9t-1 -9.5t-3 -7.5t-6 -4.5t-10 -1.5zM309 -248q-75 0 -136.5 27.5t-97 77t-35.5 113.5q0 21 4 57t9.5 79t12.5 87.5t13 82.5l49 -8q-12 -69 -21 -129t-13.5 -104t-4.5 -65q0 -50 28 -89t78 -61t114 -22
t110.5 20.5t72.5 58.5t26 88v535h48v-535q0 -70 -35.5 -117.5t-94 -71.5t-127.5 -24zM772 0v46h571l-40 -37v232q0 69 -20.5 116.5t-61.5 72t-103 24.5q-43 0 -79 -11.5t-66.5 -32t-57 -47t-51 -56t-48.5 -59.5l-26 37q25 31 50.5 62t53.5 58.5t61.5 48.5t73.5 33.5t90 12.5
q71 0 116.5 -24t71 -63.5t35.5 -84.5t10 -87v-241h-580zM566 362v46h206v-46h-206zM772 46v454h48v-454h-48zM281 500v66h49v-66h-49zM1045 579v66h49v-66h-49z" />
    <glyph glyph-name="dad_yehHamzaabovear" unicode="&#xfebf;&#xfe8a;" horiz-adv-x="1550" 
d="M307 -248q-56 0 -104.5 16t-85 44.5t-57 68t-20.5 87.5q0 21 3.5 55.5t9.5 77t13 85.5l48 -7q-12 -69 -18.5 -127t-6.5 -84q0 -49 28 -87.5t77 -60.5t113 -22h283q85 0 130.5 48t45.5 147q0 47 -13.5 73.5t-48 44.5t-98.5 37q-44 13 -82 25t-66 30t-44 48t-16 79
q0 57 22.5 95t66 56.5t106.5 18.5l-3 -46q-48 0 -80 -12.5t-48 -39.5t-16 -71q0 -35 11 -57t32 -35.5t53.5 -24t75.5 -22.5q46 -13 82.5 -27t62 -35.5t38.5 -55t13 -86.5q0 -69 -25 -122.5t-75 -83.5t-124 -30h-283zM590 454l3 46h299v-46h-302zM892 0v500h48v-500h-48z
M940 0v46h523l-40 -37v232q0 69 -20.5 116.5t-61.5 72t-103 24.5q-43 0 -79 -11.5t-66.5 -32t-57 -47t-51 -56t-48.5 -59.5l-26 37q25 31 50.5 62t53.5 58.5t61.5 48.5t73.5 33.5t90 12.5q71 0 116.5 -24t71 -63.5t35.5 -84.5t10 -87v-241h-532zM1165 573v66h49v-66h-49z
M66 263q-14 17 -21.5 33.5t-7.5 33.5q0 25 12 43.5t31.5 28.5t41.5 10q13 0 25.5 -3.5t23.5 -10.5l-18 -30q-8 5 -15.5 6.5t-15.5 1.5q-20 0 -33.5 -13t-13.5 -33q0 -13 5 -24t17 -25zM18 263v36h163v-36h-163z" />
    <glyph glyph-name="dad_yehHamzaabovear.fina" unicode="&#xfec0;&#xfe8a;" horiz-adv-x="1575" 
d="M1472 0v46h103v-46h-103zM307 -248q-56 0 -104.5 16t-85 44.5t-57 68t-20.5 87.5q0 21 3.5 55.5t9.5 77t13 85.5l48 -7q-12 -69 -18.5 -127t-6.5 -84q0 -49 28 -87.5t77 -60.5t113 -22h283q85 0 130.5 48t45.5 147q0 47 -13.5 73.5t-48 44.5t-98.5 37q-44 13 -82 25
t-66 30t-44 48t-16 79q0 57 22.5 95t66 56.5t106.5 18.5l-3 -46q-48 0 -80 -12.5t-48 -39.5t-16 -71q0 -35 11 -57t32 -35.5t53.5 -24t75.5 -22.5q46 -13 82.5 -27t62 -35.5t38.5 -55t13 -86.5q0 -69 -25 -122.5t-75 -83.5t-124 -30h-283zM590 454l3 46h299v-46h-302zM892 0
v500h48v-500h-48zM940 0v46h523l-40 -37v232q0 69 -20.5 116.5t-61.5 72t-103 24.5q-43 0 -79 -11.5t-66.5 -32t-57 -47t-51 -56t-48.5 -59.5l-26 37q25 31 50.5 62t53.5 58.5t61.5 48.5t73.5 33.5t90 12.5q71 0 116.5 -24t71 -63.5t35.5 -84.5t10 -87v-241h-532zM1575 0v46
q6 0 10 -2t6 -5t3 -7t1 -9t-1 -9.5t-3 -7.5t-6 -4.5t-10 -1.5zM1165 573v66h49v-66h-49zM66 263q-14 17 -21.5 33.5t-7.5 33.5q0 25 12 43.5t31.5 28.5t41.5 10q13 0 25.5 -3.5t23.5 -10.5l-18 -30q-8 5 -15.5 6.5t-15.5 1.5q-20 0 -33.5 -13t-13.5 -33q0 -13 5 -24t17 -25z
M18 263v36h163v-36h-163z" />
    <glyph glyph-name="lam_yehHamzaabovear" unicode="&#xfedf;&#xfe8a;" horiz-adv-x="988" 
d="M861 0v726h48v-726h-48zM754 0v46h107v-46h-107zM754 0q-7 0 -11 1.5t-6 4.5t-2.5 7.5t-0.5 9.5q0 7 1.5 11.5t5.5 8t13 3.5v-46zM307 -248q-56 0 -104.5 16t-85 44.5t-57 68t-20.5 87.5q0 21 3.5 55.5t9.5 77t13 85.5l48 -7q-12 -69 -18.5 -127t-6.5 -84q0 -49 28 -87.5
t77 -60.5t113 -22h283q85 0 130.5 49t45.5 142v30h48v-31q0 -69 -25 -122.5t-75 -83.5t-124 -30h-283zM688 0q-29 0 -63 5.5t-64 25.5l27 39q13 -9 27.5 -14.5t32.5 -7.5t40 -2h182v-46h-182zM870 0v46q6 0 10 -2t6 -5t3 -7t1 -9t-1 -9.5t-3 -7.5t-6 -4.5t-10 -1.5zM66 263
q-14 17 -21.5 33.5t-7.5 33.5q0 25 12 43.5t31.5 28.5t41.5 10q13 0 25.5 -3.5t23.5 -10.5l-18 -30q-8 5 -15.5 6.5t-15.5 1.5q-20 0 -33.5 -13t-13.5 -33q0 -13 5 -24t17 -25zM18 263v36h163v-36h-163z" />
    <glyph glyph-name="lam_yehHamzaabovear.fina" unicode="&#xfee0;&#xfe8a;" horiz-adv-x="1012" 
d="M909 0v46h103v-46h-103zM754 0q-7 0 -11 1.5t-6 4.5t-2.5 7.5t-0.5 9.5q0 7 1.5 11.5t5.5 8t13 3.5v-46zM861 0v726h48v-726h-48zM754 0v46h107v-46h-107zM870 0v46q6 0 10 -2t6 -5t3 -7t1 -9t-1 -9.5t-3 -7.5t-6 -4.5t-10 -1.5zM307 -248q-56 0 -104.5 16t-85 44.5
t-57 68t-20.5 87.5q0 21 3.5 55.5t9.5 77t13 85.5l48 -7q-12 -69 -18.5 -127t-6.5 -84q0 -49 28 -87.5t77 -60.5t113 -22h283q85 0 130.5 49t45.5 142v30h48v-31q0 -69 -25 -122.5t-75 -83.5t-124 -30h-283zM688 0q-29 0 -63 5.5t-64 25.5l27 39q13 -9 27.5 -14.5t32.5 -7.5
t40 -2h182v-46h-182zM1012 0v46q6 0 10 -2t6 -5t3 -7t1 -9t-1 -9.5t-3 -7.5t-6 -4.5t-10 -1.5zM66 263q-14 17 -21.5 33.5t-7.5 33.5q0 25 12 43.5t31.5 28.5t41.5 10q13 0 25.5 -3.5t23.5 -10.5l-18 -30q-8 5 -15.5 6.5t-15.5 1.5q-20 0 -33.5 -13t-13.5 -33q0 -13 5 -24
t17 -25zM18 263v36h163v-36h-163z" />
    <glyph glyph-name="noon_yehHamzaabovear.fina" unicode="&#xfee8;&#xfe8a;" horiz-adv-x="1047" 
d="M307 -248q-56 0 -104.5 16t-85 44.5t-57 68t-20.5 87.5q0 21 3.5 55.5t9.5 77t13 85.5l48 -7q-12 -69 -18.5 -127t-6.5 -84q0 -49 28 -87.5t77 -60.5t113 -22h283q85 0 130.5 48t45.5 147q0 47 -13.5 73.5t-48 44.5t-98.5 37q-44 13 -82 25t-66 30t-44 48t-16 79
q0 57 22.5 95t66 56.5t106.5 18.5l-3 -46q-48 0 -80 -12.5t-48 -39.5t-16 -71q0 -35 11 -57t32 -35.5t53.5 -24t75.5 -22.5q46 -13 82.5 -27t62 -35.5t38.5 -55t13 -86.5q0 -69 -25 -122.5t-75 -83.5t-124 -30h-283zM896 0v500h48v-473l-21 19h124v-46h-151zM590 454l3 46
h303v-46h-306zM1047 0v46q7 0 11 -2t6 -5t2.5 -7t0.5 -9t-0.5 -9.5t-2.5 -7.5t-6 -4.5t-11 -1.5zM896 573v66h49v-66h-49zM66 263q-14 17 -21.5 33.5t-7.5 33.5q0 25 12 43.5t31.5 28.5t41.5 10q13 0 25.5 -3.5t23.5 -10.5l-18 -30q-8 5 -15.5 6.5t-15.5 1.5
q-20 0 -33.5 -13t-13.5 -33q0 -13 5 -24t17 -25zM18 263v36h163v-36h-163z" />
    <glyph glyph-name="alefMaksura_rehar.fina" unicode="&#x649;&#xfeae;" horiz-adv-x="539" 
d="M388 0v500h49v-473l-22 19h124v-46h-151zM183 362v46h205v-46h-205zM0 -216q-13 0 -27.5 1.5t-28.5 2.5l6 46q14 -1 27 -2.5t23 -1.5q61 0 97.5 43.5t36.5 115.5v511h49v-511q0 -61 -23 -107.5t-64.5 -72t-95.5 -25.5zM539 0v46q7 0 11 -2t6 -5t2.5 -7t0.5 -9t-0.5 -9.5
t-2.5 -7.5t-6 -4.5t-11 -1.5z" />
    <glyph glyph-name="alefMaksura_zainar.fina" unicode="&#x649;&#xfeb0;" horiz-adv-x="539" 
d="M388 0v500h49v-473l-22 19h124v-46h-151zM183 362v46h205v-46h-205zM0 -216q-13 0 -27.5 1.5t-28.5 2.5l6 46q14 -1 27 -2.5t23 -1.5q61 0 97.5 43.5t36.5 115.5v511h49v-511q0 -61 -23 -107.5t-64.5 -72t-95.5 -25.5zM539 0v46q7 0 11 -2t6 -5t2.5 -7t0.5 -9t-0.5 -9.5
t-2.5 -7.5t-6 -4.5t-11 -1.5zM134 579v66h49v-66h-49z" />
    <glyph glyph-name="alefMaksura_noonar.fina" unicode="&#x649;&#xfee6;" horiz-adv-x="923" 
d="M772 0v500h48v-473l-21 19h124v-46h-151zM566 362v46h206v-46h-206zM309 -248q-75 0 -136.5 27.5t-97 77t-35.5 113.5q0 21 4 57t9.5 79t12.5 87.5t13 82.5l49 -8q-12 -69 -21 -129t-13.5 -104t-4.5 -65q0 -50 28 -89t78 -61t114 -22t110.5 20.5t72.5 58.5t26 88v535h48
v-535q0 -70 -35.5 -117.5t-94 -71.5t-127.5 -24zM281 500v66h48v-66h-48zM923 0v46q6 0 10 -2t6 -5t3 -7t1 -9t-1 -9.5t-3 -7.5t-6 -4.5t-10 -1.5z" />
    <glyph glyph-name="alefMaksura_alefMaksuraar.fina" unicode="&#x649;&#xfef0;" horiz-adv-x="1047" 
d="M307 -248q-56 0 -104.5 16t-85 44.5t-57 68t-20.5 87.5q0 21 3.5 55.5t9.5 77t13 85.5l48 -7q-12 -69 -18.5 -127t-6.5 -84q0 -49 28 -87.5t77 -60.5t113 -22h283q85 0 130.5 48t45.5 147q0 47 -13.5 73.5t-48 44.5t-98.5 37q-44 13 -82 25t-66 30t-44 48t-16 79
q0 57 22.5 95t66 56.5t106.5 18.5l-3 -46q-48 0 -80 -12.5t-48 -39.5t-16 -71q0 -35 11 -57t32 -35.5t53.5 -24t75.5 -22.5q46 -13 82.5 -27t62 -35.5t38.5 -55t13 -86.5q0 -69 -25 -122.5t-75 -83.5t-124 -30h-283zM896 0v500h48v-473l-21 19h124v-46h-151zM590 454l3 46
h303v-46h-306zM1047 0v46q7 0 11 -2t6 -5t2.5 -7t0.5 -9t-0.5 -9.5t-2.5 -7.5t-6 -4.5t-11 -1.5z" />
    <glyph glyph-name="yehHamzaabove_yehHamzaabovear.fina" unicode="&#xfe8c;&#xfe8a;" horiz-adv-x="1047" 
d="M307 -248q-56 0 -104.5 16t-85 44.5t-57 68t-20.5 87.5q0 21 3.5 55.5t9.5 77t13 85.5l48 -7q-12 -69 -18.5 -127t-6.5 -84q0 -49 28 -87.5t77 -60.5t113 -22h283q85 0 130.5 48t45.5 147q0 47 -13.5 73.5t-48 44.5t-98.5 37q-44 13 -82 25t-66 30t-44 48t-16 79
q0 57 22.5 95t66 56.5t106.5 18.5l-3 -46q-48 0 -80 -12.5t-48 -39.5t-16 -71q0 -35 11 -57t32 -35.5t53.5 -24t75.5 -22.5q46 -13 82.5 -27t62 -35.5t38.5 -55t13 -86.5q0 -69 -25 -122.5t-75 -83.5t-124 -30h-283zM896 0v500h48v-473l-21 19h124v-46h-151zM590 454l3 46
h303v-46h-306zM1047 0v46q7 0 11 -2t6 -5t2.5 -7t0.5 -9t-0.5 -9.5t-2.5 -7.5t-6 -4.5t-11 -1.5zM829 573q-14 17 -21.5 33.5t-7.5 33.5q0 25 12 43.5t31.5 28.5t41.5 10q13 0 25.5 -3.5t23.5 -10.5l-18 -30q-8 5 -15.5 6.5t-15.5 1.5q-20 0 -33.5 -13t-13.5 -33
q0 -13 5 -24t17 -25zM781 573v36h163v-36h-163zM66 263q-14 17 -21.5 33.5t-7.5 33.5q0 25 12 43.5t31.5 28.5t41.5 10q13 0 25.5 -3.5t23.5 -10.5l-18 -30q-8 5 -15.5 6.5t-15.5 1.5q-20 0 -33.5 -13t-13.5 -33q0 -13 5 -24t17 -25zM18 263v36h163v-36h-163z" />
    <glyph glyph-name="uniFDF2.tashkeel" unicode="&#x627;&#xfedf;&#xfee0;&#xfeea;" horiz-adv-x="1210" 
d="M635 0v601h49v-601h-49zM528 0v46h107v-46h-107zM684 0v46h102v-46h-102zM704 658q-29 0 -42.5 20t-13.5 54v28h25v-27q0 -28 8 -39t23 -11q21 0 28.5 23t-2.5 70l25 5q11 -55 -1 -89t-50 -34zM618 658q-39 0 -50.5 34t-1.5 89l25 -5q-9 -47 -1.5 -70t28.5 -23
q15 0 22.5 11t7.5 39v27h25v-28q0 -34 -13.5 -54t-41.5 -20zM649 812v109h25v-109h-25zM1064 0v726h48v-726h-48zM554 0v46q7 0 11 -2t6 -5t2.5 -7t0.5 -9t-0.5 -9.5t-2.5 -7.5t-6 -4.5t-11 -1.5zM263 0q-87 0 -135.5 26.5t-68 82t-19.5 141.5t19.5 141.5t68 82t135.5 26.5
h189v-474h-49v449l23 -21h-163q-68 0 -106 -17.5t-53 -62t-15 -124.5t15 -124.5t53 -62t106 -17.5h291v-46h-291zM760 0q-7 0 -11 1.5t-6 4.5t-2.5 7.5t-0.5 9.5q0 7 1.5 11.5t5.5 8t13 3.5v-46zM866 0v726h49v-726h-49zM760 0v46h106v-46h-106z" />
    <glyph glyph-name="uni066E.init" unicode="&#x66e;" horiz-adv-x="238" 
d="M0 0v46h124l-21 -19v473h48v-500h-151zM0 0q-7 0 -11 1.5t-6 4.5t-2.5 7.5t-0.5 9.5q0 7 1.5 11.5t5.5 8t13 3.5v-46z" />
    <glyph glyph-name="uni066E.medi" unicode="&#x66e;" horiz-adv-x="254" 
d="M151 0v46h103v-46h-103zM0 0q-7 0 -11 1.5t-6 4.5t-2.5 7.5t-0.5 9.5q0 7 1.5 11.5t5.5 8t13 3.5v-46zM0 0v46h124l-21 -19v473h48v-500h-151zM254 0v46q6 0 10 -2t6 -5t3 -7t1 -9t-1 -9.5t-3 -7.5t-6 -4.5t-10 -1.5z" />
    <glyph glyph-name="uni066E.fina" unicode="&#x66e;" horiz-adv-x="786" 
d="M683 0v46h103v-46h-103zM337 0q-99 0 -165 23t-99 70t-33 120q0 23 3.5 52t8.5 55.5t9 46t5 25.5l47 -9q-3 -18 -9 -47t-10.5 -61.5t-4.5 -61.5q0 -43 14 -75t43.5 -52.5t77 -30t113.5 -9.5h297v454h49v-500h-346zM786 0v46q6 0 10 -2t6 -5t3 -7t1 -9t-1 -9.5t-3 -7.5
t-6 -4.5t-10 -1.5z" />
    <glyph glyph-name="uni066F.fina" unicode="&#x66f;" horiz-adv-x="890" 
d="M787 0v46h103v-46h-103zM303 -266q-73 0 -133 27t-95 75t-35 111q0 21 4 57.5t10 80t13 88.5t13 82l48 -8q-11 -69 -20 -128.5t-14 -103.5t-5 -66q0 -51 27.5 -89t75.5 -59t111 -21h232q63 0 108 20t70 56.5t25 85.5v533l24 -21h-164q-67 0 -105 -17.5t-53.5 -62
t-15.5 -124.5t15.5 -124.5t53.5 -62t105 -17.5h140v-46h-140q-87 0 -135.5 26.5t-68 82t-19.5 141.5t19.5 141.5t68 82t135.5 26.5h189v-558q0 -69 -35.5 -115.5t-93 -69.5t-123.5 -23h-232zM890 0v46q6 0 10 -2t6 -5t3 -7t1 -9t-1 -9.5t-3 -7.5t-6 -4.5t-10 -1.5z" />
    <glyph glyph-name="uni06A1.init" unicode="&#x6a1;" horiz-adv-x="596" 
d="M0 0v46h502l-33 -31v460l23 -21h-163q-68 0 -106 -17.5t-53.5 -62t-15.5 -124.5t15.5 -124.5t53.5 -62t106 -17.5v-40q-87 0 -135.5 25t-68 79t-19.5 140t19.5 141.5t68 82t135.5 26.5h188v-500h-517zM0 0q-7 0 -11 1.5t-6 4.5t-2.5 7.5t-0.5 9.5q0 7 1.5 11.5t5.5 8
t13 3.5v-46z" />
    <glyph glyph-name="uni06A1.medi" unicode="&#x6a1;" horiz-adv-x="620" 
d="M517 0v46h103v-46h-103zM0 0q-7 0 -11 1.5t-6 4.5t-2.5 7.5t-0.5 9.5q0 7 1.5 11.5t5.5 8t13 3.5v-46zM0 0v46h502l-33 -31v460l23 -21h-163q-68 0 -106 -17.5t-53.5 -62t-15.5 -124.5t15.5 -124.5t53.5 -62t106 -17.5v-40q-87 0 -135.5 25t-68 79t-19.5 140t19.5 141.5
t68 82t135.5 26.5h188v-500h-517zM620 0v46q7 0 11 -2t6 -5t2.5 -7t0.5 -9t-0.5 -9.5t-2.5 -7.5t-6 -4.5t-11 -1.5z" />
    <glyph glyph-name="uni06A1.fina" unicode="&#x6a1;" horiz-adv-x="1037" 
d="M935 0v46h102v-46h-102zM351 0q-99 0 -165 23t-99 70t-33 120q0 23 3.5 52t8.5 55.5t9 46t5 25.5l47 -9q-3 -18 -9 -47t-10.5 -61.5t-4.5 -61.5q0 -43 14 -75t43.5 -52.5t77 -30t113.5 -9.5h569l-34 -31v460l23 -21h-163q-67 0 -105 -17.5t-53.5 -62t-15.5 -124.5
t15.5 -124.5t53.5 -62t105 -17.5v-40q-87 0 -135.5 25t-68 79t-19.5 140t19.5 141.5t68 82t135.5 26.5h189v-500h-584zM1037 0v46q7 0 11 -2t6 -5t2.5 -7t0.5 -9t-0.5 -9.5t-2.5 -7.5t-6 -4.5t-11 -1.5z" />
    <glyph glyph-name="uni06BA.init" unicode="&#x6ba;" horiz-adv-x="238" 
d="M0 0v46h124l-21 -19v473h48v-500h-151zM0 0q-7 0 -11 1.5t-6 4.5t-2.5 7.5t-0.5 9.5q0 7 1.5 11.5t5.5 8t13 3.5v-46z" />
    <glyph glyph-name="uni06BA.medi" unicode="&#x6ba;" horiz-adv-x="254" 
d="M151 0v46h103v-46h-103zM254 0v46q6 0 10 -2t6 -5t3 -7t1 -9t-1 -9.5t-3 -7.5t-6 -4.5t-10 -1.5zM0 0q-7 0 -11 1.5t-6 4.5t-2.5 7.5t-0.5 9.5q0 7 1.5 11.5t5.5 8t13 3.5v-46zM0 0v46h124l-21 -19v473h48v-500h-151z" />
    <glyph glyph-name="uni06C2.init" unicode="&#x6c2;" horiz-adv-x="238" 
d="M29 -293l47 195h41l-39 -195h-49zM0 0q-7 0 -11 1.5t-6 4.5t-2.5 7.5t-0.5 9.5q0 7 1.5 11.5t5.5 8t13 3.5v-46zM0 0v46h124l-21 -19v473h48v-500h-151zM93 573q-13 17 -20.5 33.5t-7.5 33.5q0 25 11.5 43.5t31 28.5t41.5 10q13 0 26 -3.5t23 -10.5l-18 -30q-7 5 -15 6.5
t-15 1.5q-21 0 -34.5 -13t-13.5 -33q0 -13 5 -24t18 -25zM46 573v36h162v-36h-162z" />
    <glyph glyph-name="uni06C2.medi" unicode="&#x6c2;" horiz-adv-x="554" 
d="M442 -309q-31 -4 -58 -5.5t-49 -1.5q-59 0 -101 16t-68.5 54.5t-39 104t-13.5 164.5l23 -23h-136v46h162q2 -96 11 -158.5t29 -96.5t53 -47.5t80 -13.5q13 0 25.5 0.5t28 2t34.5 3.5l-29 -39v349h160v-46h-134l22 22v-331zM554 0v46q7 0 11 -2t6 -5t2.5 -7t0.5 -9
t-0.5 -9.5t-2.5 -7.5t-6 -4.5t-11 -1.5zM0 0q-7 0 -11 1.5t-6 4.5t-2.5 7.5t-0.5 9.5q0 7 1.5 11.5t5.5 8t13 3.5v-46zM244 282q-14 17 -21.5 33.5t-7.5 33.5q0 25 12 43.5t31.5 28.5t41.5 10q13 0 25.5 -3.5t23.5 -10.5l-18 -30q-8 5 -15.5 6.5t-15.5 1.5q-20 0 -33.5 -13
t-13.5 -33q0 -13 5 -24t17 -25zM196 282v36h163v-36h-163z" />
    <glyph glyph-name="uni06C2.fina" unicode="&#x6c2;" horiz-adv-x="554" 
d="M40 0v250q0 91 21 146t70 79.5t132 24.5h189v-470l-17 16h119v-46h-151v476l21 -22h-161q-68 0 -106 -17.5t-53 -62t-15 -124.5v-250h-49zM554 0v46q7 0 11 -2t6 -5t2.5 -7t0.5 -9t-0.5 -9.5t-2.5 -7.5t-6 -4.5t-11 -1.5zM232 578q-14 17 -21.5 33.5t-7.5 33.5
q0 25 12 43.5t31.5 28.5t41.5 10q13 0 25.5 -3.5t23.5 -10.5l-18 -30q-8 5 -15.5 6.5t-15.5 1.5q-20 0 -33.5 -13t-13.5 -33q0 -13 5 -24t17 -25zM184 578v36h163v-36h-163z" />
    <glyph glyph-name="uni06C3.fina" unicode="&#x6c3;" horiz-adv-x="554" 
d="M40 0v250q0 91 21 146t70 79.5t132 24.5h189v-470l-17 16h119v-46h-151v476l21 -22h-161q-68 0 -106 -17.5t-53 -62t-15 -124.5v-250h-49zM554 0v46q7 0 11 -2t6 -5t2.5 -7t0.5 -9t-0.5 -9.5t-2.5 -7.5t-6 -4.5t-11 -1.5zM189 579v66h49v-66h-49zM295 579v66h49v-66h-49z
" />
    <glyph glyph-name="uniFB51" unicode="&#x671;" horiz-adv-x="254" arabic-form="final" 
d="M147 0v46h107v-46h-107zM99 0v726h48v-726h-48zM254 0v46q7 0 11 -2t6 -5t2.5 -7t0.5 -9t-0.5 -9.5t-2.5 -7.5t-6 -4.5t-11 -1.5zM53 823q0 24 11.5 42.5t31 28.5t41.5 10q23 0 42 -10t30.5 -28.5t11.5 -42.5h-41q0 18 -12 30t-31 12q-18 0 -30.5 -12t-12.5 -30h-41z
M25 783v40h196v-40h-196z" />
    <glyph glyph-name="uniFB57" unicode="&#x67e;" horiz-adv-x="786" arabic-form="final" 
d="M683 0v46h103v-46h-103zM337 0q-99 0 -165 23t-99 70t-33 120q0 23 3.5 52t8.5 55.5t9 46t5 25.5l47 -9q-3 -18 -9 -47t-10.5 -61.5t-4.5 -61.5q0 -43 14 -75t43.5 -52.5t77 -30t113.5 -9.5h297v454h49v-500h-346zM786 0v46q6 0 10 -2t6 -5t3 -7t1 -9t-1 -9.5t-3 -7.5
t-6 -4.5t-10 -1.5zM284 -78h49v-66h-49v66zM390 -78h49v-66h-49v66zM339 -185h46v-65h-46v65z" />
    <glyph glyph-name="uniFB58" unicode="&#x67e;" horiz-adv-x="238" arabic-form="initial" 
d="M0 0v46h124l-21 -19v473h48v-500h-151zM0 0q-7 0 -11 1.5t-6 4.5t-2.5 7.5t-0.5 9.5q0 7 1.5 11.5t5.5 8t13 3.5v-46zM50 -78h49v-66h-49v66zM156 -78h49v-66h-49v66zM105 -185h46v-65h-46v65z" />
    <glyph glyph-name="uniFB59" unicode="&#x67e;" horiz-adv-x="254" arabic-form="medial" 
d="M151 0v46h103v-46h-103zM254 0v46q6 0 10 -2t6 -5t3 -7t1 -9t-1 -9.5t-3 -7.5t-6 -4.5t-10 -1.5zM0 0q-7 0 -11 1.5t-6 4.5t-2.5 7.5t-0.5 9.5q0 7 1.5 11.5t5.5 8t13 3.5v-46zM0 0v46h124l-21 -19v473h48v-500h-151zM50 -68h49v-66h-49v66zM156 -68h49v-66h-49v66z
M105 -175h46v-65h-46v65z" />
    <glyph glyph-name="uniFB67" unicode="&#x679;" horiz-adv-x="786" arabic-form="final" 
d="M683 0v46h103v-46h-103zM337 0q-99 0 -165 23t-99 70t-33 120q0 23 3.5 52t8.5 55.5t9 46t5 25.5l47 -9q-3 -18 -9 -47t-10.5 -61.5t-4.5 -61.5q0 -43 14 -75t43.5 -52.5t77 -30t113.5 -9.5h297v454h49v-500h-346zM786 0v46q6 0 10 -2t6 -5t3 -7t1 -9t-1 -9.5t-3 -7.5
t-6 -4.5t-10 -1.5zM291 523q0 24 11.5 42.5t31 28.5t41.5 10q23 0 42 -10t30.5 -28.5t11.5 -42.5h-41q0 18 -12 30t-31 12q-12 0 -23.5 -5.5t-18.5 -15t-7 -21.5h-35zM263 484v39h196v-39h-196zM291 523v117h41v-117h-41z" />
    <glyph glyph-name="uniFB68" unicode="&#x679;" horiz-adv-x="238" arabic-form="initial" 
d="M0 0v46h124l-21 -19v473h48v-500h-151zM0 0q-7 0 -11 1.5t-6 4.5t-2.5 7.5t-0.5 9.5q0 7 1.5 11.5t5.5 8t13 3.5v-46zM56 618q0 24 11.5 42.5t31 28.5t41.5 10q23 0 42 -10t30.5 -28.5t11.5 -42.5h-41q0 18 -12 30t-31 12q-12 0 -23.5 -5.5t-18.5 -15t-7 -21.5h-35z
M28 579v39h196v-39h-196zM56 618v117h41v-117h-41z" />
    <glyph glyph-name="uniFB69" unicode="&#x679;" horiz-adv-x="254" arabic-form="medial" 
d="M151 0v46h103v-46h-103zM0 0q-7 0 -11 1.5t-6 4.5t-2.5 7.5t-0.5 9.5q0 7 1.5 11.5t5.5 8t13 3.5v-46zM0 0v46h124l-21 -19v473h48v-500h-151zM254 0v46q6 0 10 -2t6 -5t3 -7t1 -9t-1 -9.5t-3 -7.5t-6 -4.5t-10 -1.5zM56 618q0 24 11.5 42.5t31 28.5t41.5 10q23 0 42 -10
t30.5 -28.5t11.5 -42.5h-41q0 18 -12 30t-31 12q-12 0 -23.5 -5.5t-18.5 -15t-7 -21.5h-35zM28 579v39h196v-39h-196zM56 618v117h41v-117h-41z" />
    <glyph glyph-name="uniFB6B" unicode="&#x6a4;" horiz-adv-x="1037" arabic-form="final" 
d="M935 0v46h102v-46h-102zM351 0q-99 0 -165 23t-99 70t-33 120q0 23 3.5 52t8.5 55.5t9 46t5 25.5l47 -9q-3 -18 -9 -47t-10.5 -61.5t-4.5 -61.5q0 -43 14 -75t43.5 -52.5t77 -30t113.5 -9.5h569l-34 -31v460l23 -21h-163q-67 0 -105 -17.5t-53.5 -62t-15.5 -124.5
t15.5 -124.5t53.5 -62t105 -17.5v-40q-87 0 -135.5 25t-68 79t-19.5 140t19.5 141.5t68 82t135.5 26.5h189v-500h-584zM1037 0v46q7 0 11 -2t6 -5t2.5 -7t0.5 -9t-0.5 -9.5t-2.5 -7.5t-6 -4.5t-11 -1.5zM728 686v64h46v-64h-46zM673 579v66h49v-66h-49zM779 579v66h49v-66
h-49z" />
    <glyph glyph-name="uniFB6C" unicode="&#x6a4;" horiz-adv-x="596" arabic-form="initial" 
d="M0 0v46h502l-33 -31v460l23 -21h-163q-68 0 -106 -17.5t-53.5 -62t-15.5 -124.5t15.5 -124.5t53.5 -62t106 -17.5v-40q-87 0 -135.5 25t-68 79t-19.5 140t19.5 141.5t68 82t135.5 26.5h188v-500h-517zM0 0q-7 0 -11 1.5t-6 4.5t-2.5 7.5t-0.5 9.5q0 7 1.5 11.5t5.5 8
t13 3.5v-46zM311 686v64h46v-64h-46zM256 579v66h49v-66h-49zM362 579v66h49v-66h-49z" />
    <glyph glyph-name="uniFB6D" unicode="&#x6a4;" horiz-adv-x="620" arabic-form="medial" 
d="M517 0v46h103v-46h-103zM0 0q-7 0 -11 1.5t-6 4.5t-2.5 7.5t-0.5 9.5q0 7 1.5 11.5t5.5 8t13 3.5v-46zM0 0v46h502l-33 -31v460l23 -21h-163q-68 0 -106 -17.5t-53.5 -62t-15.5 -124.5t15.5 -124.5t53.5 -62t106 -17.5v-40q-87 0 -135.5 25t-68 79t-19.5 140t19.5 141.5
t68 82t135.5 26.5h188v-500h-517zM620 0v46q7 0 11 -2t6 -5t2.5 -7t0.5 -9t-0.5 -9.5t-2.5 -7.5t-6 -4.5t-11 -1.5zM311 686v64h46v-64h-46zM256 579v66h49v-66h-49zM362 579v66h49v-66h-49z" />
    <glyph glyph-name="uniFB7B" unicode="&#x686;" horiz-adv-x="615" arabic-form="final" 
d="M307 -151h38v-54h-38v54zM351 -59h39v-56h-39v56zM261 -59h40v-56h-40v56zM615 0v46q7 0 11 -2t6 -5t2.5 -7t0.5 -9t-0.5 -9.5t-2.5 -7.5t-6 -4.5t-11 -1.5zM260 -311q-69 0 -118.5 20.5t-75.5 60.5t-26 97q0 58 26 98t75.5 60.5t119.5 20.5h203v265q0 71 -45.5 106.5
t-136.5 35.5q-30 0 -76 -4.5t-111 -13.5l-6 40q40 9 91 17t99 8q75 0 127 -21.5t79 -64t27 -103.5v-311h-251q-88 0 -130 -33.5t-42 -99.5q0 -65 42 -98.5t128 -33.5q24 0 54.5 2.5t75.5 8.5l8 -41q-28 -6 -64.5 -11t-72.5 -5zM512 0v46h103v-46h-103z" />
    <glyph glyph-name="uniFB7C" unicode="&#x686;" horiz-adv-x="547" arabic-form="initial" 
d="M0 0v46h456l-18 -16v281q0 71 -45 106.5t-137 35.5q-30 0 -76 -4.5t-111 -13.5l-6 40q40 9 91 17t100 8q74 0 126 -21.5t79.5 -63.5t27.5 -104v-311h-487zM0 0q-7 0 -11 1.5t-6 4.5t-2.5 7.5t-0.5 9.5q0 7 1.5 11.5t5.5 8t13 3.5v-46zM176 -78h49v-66h-49v66zM282 -78h49
v-66h-49v66zM231 -185h46v-65h-46v65z" />
    <glyph glyph-name="uniFB7D" unicode="&#x686;" horiz-adv-x="589" arabic-form="medial" 
d="M487 0v46h102v-46h-102zM0 0q-7 0 -11 1.5t-6 4.5t-2.5 7.5t-0.5 9.5q0 7 1.5 11.5t5.5 8t13 3.5v-46zM0 0v46h456l-18 -16v281q0 71 -45 106.5t-137 35.5q-30 0 -76 -4.5t-111 -13.5l-6 40q40 9 91 17t100 8q74 0 126 -21.5t79.5 -63.5t27.5 -104v-311h-487zM589 0v46
q7 0 11 -2t6 -5t2.5 -7t0.5 -9t-0.5 -9.5t-2.5 -7.5t-6 -4.5t-11 -1.5zM176 -78h49v-66h-49v66zM282 -78h49v-66h-49v66zM231 -185h46v-65h-46v65z" />
    <glyph glyph-name="uniFB89" unicode="&#x688;" horiz-adv-x="530" arabic-form="final" 
d="M427 0v46h103v-46h-103zM40 0v46h376l-38 -35v221q0 81 -20 129.5t-65.5 70.5t-119.5 22h-81v46h81q80 0 137 -25t87 -83.5t30 -159.5v-232h-387zM530 0v46q6 0 10 -2t6 -5t3 -7t1 -9t-1 -9.5t-3 -7.5t-6 -4.5t-10 -1.5zM120 605q0 24 11.5 42.5t31 28.5t41.5 10
q23 0 42 -10t30.5 -28.5t11.5 -42.5h-41q0 18 -12 30t-31 12q-12 0 -23.5 -5.5t-18.5 -15t-7 -21.5h-35zM92 566v39h196v-39h-196zM120 605v117h41v-117h-41z" />
    <glyph glyph-name="uniFB8B" unicode="&#x698;" horiz-adv-x="286" arabic-form="final" 
d="M163 0v46h123v-46h-123zM0 -216q-13 0 -27.5 1.5t-28.5 2.5l6 46q14 -1 27 -2.5t23 -1.5q61 0 97.5 43.5t36.5 115.5v511h49v-511q0 -61 -23 -107.5t-64.5 -72t-95.5 -25.5zM286 0v46q6 0 10 -2t6 -5t3 -7t1 -9t-1 -9.5t-3 -7.5t-6 -4.5t-10 -1.5zM136 686v64h46v-64h-46
zM81 579v66h49v-66h-49zM187 579v66h49v-66h-49z" />
    <glyph glyph-name="uniFB8D" unicode="&#x691;" horiz-adv-x="286" arabic-form="final" 
d="M163 0v46h123v-46h-123zM0 -216q-13 0 -27.5 1.5t-28.5 2.5l6 46q14 -1 27 -2.5t23 -1.5q61 0 97.5 43.5t36.5 115.5v511h49v-511q0 -61 -23 -107.5t-64.5 -72t-95.5 -25.5zM286 0v46q6 0 10 -2t6 -5t3 -7t1 -9t-1 -9.5t-3 -7.5t-6 -4.5t-10 -1.5zM88 618q0 24 11.5 42.5
t31 28.5t41.5 10q23 0 42 -10t30.5 -28.5t11.5 -42.5h-41q0 18 -12 30t-31 12q-12 0 -23.5 -5.5t-18.5 -15t-7 -21.5h-35zM60 579v39h196v-39h-196zM88 618v117h41v-117h-41z" />
    <glyph glyph-name="uniFB8F" unicode="&#x6a9;" horiz-adv-x="786" arabic-form="final" 
d="M683 0v46h103v-46h-103zM337 0q-99 0 -165 23t-99 70t-33 120q0 19 3.5 47t8.5 55.5t9 49t5 27.5l47 -9q-1 -7 -5 -28t-8.5 -47t-7.5 -52t-3 -43q0 -43 14 -75t43.5 -52.5t77 -30t113.5 -9.5h297v170q0 59 -17 98t-50.5 59.5t-82.5 20.5h-218l-38 60l41 78q12 23 25 46.5
t33.5 55t51.5 78.5l40 -26q-31 -46 -50.5 -77t-32.5 -53.5t-24 -45.5l-38 -71h210q61 0 99.5 -20.5t60.5 -54.5t30.5 -73t8.5 -75v-216h-346zM786 0v46q6 0 10 -2t6 -5t3 -7t1 -9t-1 -9.5t-3 -7.5t-6 -4.5t-10 -1.5z" />
    <glyph glyph-name="uniFB90" unicode="&#x6a9;" horiz-adv-x="612" arabic-form="initial" 
d="M0 0v46h504l-19 -18v188q0 59 -17 98t-50.5 59.5t-83.5 20.5h-217l-39 60l41 78q12 23 25.5 46.5t34 55t51.5 78.5l40 -26q-31 -46 -50.5 -77t-32.5 -53.5t-25 -45.5l-47 -90l-13 19h232q61 0 100 -20.5t60.5 -54.5t30.5 -73t9 -75v-216h-534zM0 0q-7 0 -11 1.5t-6 4.5
t-2.5 7.5t-0.5 9.5q0 7 1.5 11.5t5.5 8t13 3.5v-46z" />
    <glyph glyph-name="uniFB91" unicode="&#x6a9;" horiz-adv-x="636" arabic-form="medial" 
d="M534 0v46h102v-46h-102zM0 0q-7 0 -11 1.5t-6 4.5t-2.5 7.5t-0.5 9.5q0 7 1.5 11.5t5.5 8t13 3.5v-46zM0 0v46h504l-19 -18v188q0 59 -17 98t-50.5 59.5t-83.5 20.5h-217l-39 60l41 78q12 23 25.5 46.5t34 55t51.5 78.5l40 -26q-31 -46 -50.5 -77t-32.5 -53.5t-25 -45.5
l-47 -90l-13 19h232q61 0 100 -20.5t60.5 -54.5t30.5 -73t9 -75v-216h-534zM636 0v46q7 0 11 -2t6 -5t2.5 -7t0.5 -9t-0.5 -9.5t-2.5 -7.5t-6 -4.5t-11 -1.5z" />
    <glyph glyph-name="uniFB93" unicode="&#x6af;" horiz-adv-x="786" arabic-form="final" 
d="M208 484l-25 39q23 44 41.5 79.5t40 71t51.5 78.5l34 -22q-24 -37 -41.5 -65.5t-33 -53.5t-31.5 -55t-36 -72zM337 0q-99 0 -165 23t-99 70t-33 120q0 19 3.5 47t8.5 55.5t9 49t5 27.5l47 -9q-1 -7 -5 -28t-8.5 -47t-7.5 -52t-3 -43q0 -43 14 -75t43.5 -52.5t77 -30
t113.5 -9.5h297v170q0 59 -17 98t-50.5 59.5t-82.5 20.5h-218l-38 60l41 78q12 23 25 46.5t33.5 55t51.5 78.5l40 -26q-31 -46 -50.5 -77t-32.5 -53.5t-24 -45.5l-38 -71h210q61 0 99.5 -20.5t60.5 -54.5t30.5 -73t8.5 -75v-216h-346zM786 0v46q6 0 10 -2t6 -5t3 -7t1 -9
t-1 -9.5t-3 -7.5t-6 -4.5t-10 -1.5zM683 0v46h103v-46h-103z" />
    <glyph glyph-name="uniFB94" unicode="&#x6af;" horiz-adv-x="642" arabic-form="initial" 
d="M75 484l-25 39q23 44 41.5 79.5t40 71t51.5 78.5l34 -22q-24 -37 -41.5 -65.5t-33 -53.5t-31.5 -55t-36 -72zM0 0v46h534l-20 -18v188q0 59 -17 98t-50.5 59.5t-82.5 20.5h-218l-38 60l41 78q12 23 25 46.5t33.5 55t51.5 78.5l41 -26q-31 -46 -50.5 -77t-33 -53.5
t-24.5 -45.5l-47 -90l-13 19h232q61 0 99.5 -20.5t60.5 -54.5t30.5 -73t8.5 -75v-216h-563zM0 0q-7 0 -11 1.5t-6 4.5t-2.5 7.5t-0.5 9.5q0 7 1.5 11.5t5.5 8t13 3.5v-46z" />
    <glyph glyph-name="uniFB95" unicode="&#x6af;" horiz-adv-x="666" arabic-form="medial" 
d="M563 0v46h103v-46h-103zM75 484l-25 39q23 44 41.5 79.5t40 71t51.5 78.5l34 -22q-24 -37 -41.5 -65.5t-33 -53.5t-31.5 -55t-36 -72zM0 0v46h534l-20 -18v188q0 59 -17 98t-50.5 59.5t-82.5 20.5h-218l-38 60l41 78q12 23 25 46.5t33.5 55t51.5 78.5l41 -26
q-31 -46 -50.5 -77t-33 -53.5t-24.5 -45.5l-47 -90l-13 19h232q61 0 99.5 -20.5t60.5 -54.5t30.5 -73t8.5 -75v-216h-563zM666 0v46q6 0 10 -2t6 -5t3 -7t1 -9t-1 -9.5t-3 -7.5t-6 -4.5t-10 -1.5zM0 0q-7 0 -11 1.5t-6 4.5t-2.5 7.5t-0.5 9.5q0 7 1.5 11.5t5.5 8t13 3.5v-46
z" />
    <glyph glyph-name="uniFB9F" unicode="&#x6ba;" horiz-adv-x="669" arabic-form="final" 
d="M566 0v46h103v-46h-103zM309 -248q-75 0 -136.5 27.5t-97 77t-35.5 113.5q0 21 4 57t9.5 79t12.5 87.5t13 82.5l49 -8q-12 -69 -21 -129t-13.5 -104t-4.5 -65q0 -50 28 -89t78 -61t114 -22t110.5 20.5t72.5 58.5t26 88v535h48v-535q0 -70 -35.5 -117.5t-94 -71.5
t-127.5 -24zM669 0v46q7 0 11 -2t6 -5t2.5 -7t0.5 -9t-0.5 -9.5t-2.5 -7.5t-6 -4.5t-11 -1.5z" />
    <glyph glyph-name="uniFBA7" unicode="&#x6c1;" horiz-adv-x="554" arabic-form="final" 
d="M40 0v250q0 91 21 146t70 79.5t132 24.5h189v-470l-17 16h119v-46h-151v476l21 -22h-161q-68 0 -106 -17.5t-53 -62t-15 -124.5v-250h-49zM554 0v46q7 0 11 -2t6 -5t2.5 -7t0.5 -9t-0.5 -9.5t-2.5 -7.5t-6 -4.5t-11 -1.5z" />
    <glyph glyph-name="uniFBA8" unicode="&#x6c1;" horiz-adv-x="238" arabic-form="initial" 
d="M29 -293l47 195h41l-39 -195h-49zM0 0q-7 0 -11 1.5t-6 4.5t-2.5 7.5t-0.5 9.5q0 7 1.5 11.5t5.5 8t13 3.5v-46zM0 0v46h124l-21 -19v473h48v-500h-151z" />
    <glyph glyph-name="uniFBA9" unicode="&#x6c1;" horiz-adv-x="554" arabic-form="medial" 
d="M442 -309q-31 -4 -58 -5.5t-49 -1.5q-59 0 -101 16t-68.5 54.5t-39 104t-13.5 164.5l23 -23h-136v46h162q2 -96 11 -158.5t29 -96.5t53 -47.5t80 -13.5q13 0 25.5 0.5t28 2t34.5 3.5l-29 -39v349h160v-46h-134l22 22v-331zM554 0v46q7 0 11 -2t6 -5t2.5 -7t0.5 -9
t-0.5 -9.5t-2.5 -7.5t-6 -4.5t-11 -1.5zM0 0q-7 0 -11 1.5t-6 4.5t-2.5 7.5t-0.5 9.5q0 7 1.5 11.5t5.5 8t13 3.5v-46z" />
    <glyph glyph-name="uniFBAB" unicode="&#x6be;" horiz-adv-x="792" arabic-form="final" 
d="M690 0v46h102v-46h-102zM40 0v46h627l-26 -23v169q0 98 -31.5 162t-94.5 96.5t-156 32.5q-36 0 -76 -4t-79 -10t-73 -12l-7 36q16 5 53.5 13.5t86.5 15.5t97 7q63 0 122 -16.5t105.5 -55t74 -103.5t27.5 -162v-192h-650zM110 46v110q0 46 23 83.5t62 59.5t87 22t86.5 -22
t61 -59.5t22.5 -83.5v-110h-48v110q0 34 -16.5 61t-44 43t-61.5 16t-62 -16t-44.5 -43t-16.5 -61v-110h-49zM792 0v46q7 0 11 -2t6 -5t2.5 -7t0.5 -9t-0.5 -9.5t-2.5 -7.5t-6 -4.5t-11 -1.5z" />
    <glyph glyph-name="uniFBAC" unicode="&#x6be;" horiz-adv-x="785" arabic-form="initial" 
d="M0 0v46h684l-26 -23v169q0 98 -31.5 162t-94.5 96.5t-156 32.5q-36 0 -76 -4t-79 -10t-73 -12l-7 36q16 5 53.5 13.5t86 15.5t97.5 7q62 0 121 -16.5t106 -55t74 -103.5t27 -162v-192h-706zM127 46v110q0 46 22.5 83.5t61.5 59.5t87 22t87 -22t61.5 -59.5t22.5 -83.5
v-110h-49v110q0 34 -16 61t-43.5 43t-62.5 16q-34 0 -62 -16t-44.5 -43t-16.5 -61v-110h-48zM0 0q-7 0 -11 1.5t-6 4.5t-2.5 7.5t-0.5 9.5q0 7 1.5 11.5t5.5 8t13 3.5v-46z" />
    <glyph glyph-name="uniFBAD" unicode="&#x6be;" horiz-adv-x="792" arabic-form="medial" 
d="M0 0v46h40v-46h-40zM40 0v46h627l-26 -23v169q0 98 -31.5 162t-94.5 96.5t-156 32.5q-36 0 -76 -4t-79 -10t-73 -12l-7 36q16 5 53.5 13.5t86.5 15.5t97 7q63 0 122 -16.5t105.5 -55t74 -103.5t27.5 -162v-192h-650zM110 46v110q0 46 23 83.5t62 59.5t87 22t86.5 -22
t61 -59.5t22.5 -83.5v-110h-48v110q0 34 -16.5 61t-44 43t-61.5 16t-62 -16t-44.5 -43t-16.5 -61v-110h-49zM792 0v46q7 0 11 -2t6 -5t2.5 -7t0.5 -9t-0.5 -9.5t-2.5 -7.5t-6 -4.5t-11 -1.5zM690 0v46h102v-46h-102zM0 0q-7 0 -11 1.5t-6 4.5t-2.5 7.5t-0.5 9.5
q0 7 1.5 11.5t5.5 8t13 3.5v-46z" />
    <glyph glyph-name="uniFBAF" unicode="&#x6d2;" horiz-adv-x="688" arabic-form="final" 
d="M275 -214q-117 0 -176 41.5t-59 126.5v54l48 38h600v-46h-616l17 14v-60q0 -33 11 -56.5t34 -38t58.5 -21.5t82.5 -7h311v-45h-311zM688 0v46q7 0 11 -2t6 -5t2.5 -7t0.5 -9t-0.5 -9.5t-2.5 -7.5t-6 -4.5t-11 -1.5z" />
    <glyph glyph-name="uniFBB1" unicode="&#x6d3;" horiz-adv-x="688" arabic-form="final" 
d="M275 -214q-117 0 -176 41.5t-59 126.5v54l48 38h600v-46h-616l17 14v-60q0 -33 11 -56.5t34 -38t58.5 -21.5t82.5 -7h311v-45h-311zM688 0v46q7 0 11 -2t6 -5t2.5 -7t0.5 -9t-0.5 -9.5t-2.5 -7.5t-6 -4.5t-11 -1.5zM84 164q-14 17 -21.5 33.5t-7.5 33.5q0 25 12 43.5
t31.5 28.5t41.5 10q13 0 25.5 -3.5t23.5 -10.5l-18 -30q-8 5 -15.5 6.5t-15.5 1.5q-20 0 -33.5 -13t-13.5 -33q0 -13 5 -24t17 -25zM36 164v36h163v-36h-163z" />
    <glyph glyph-name="uniFBE8" unicode="&#x649;" horiz-adv-x="238" arabic-form="initial" 
d="M0 0v46h124l-21 -19v473h48v-500h-151zM0 0q-7 0 -11 1.5t-6 4.5t-2.5 7.5t-0.5 9.5q0 7 1.5 11.5t5.5 8t13 3.5v-46z" />
    <glyph glyph-name="uniFBE9" unicode="&#x649;" horiz-adv-x="254" arabic-form="medial" 
d="M151 0v46h103v-46h-103zM0 0q-7 0 -11 1.5t-6 4.5t-2.5 7.5t-0.5 9.5q0 7 1.5 11.5t5.5 8t13 3.5v-46zM0 0v46h124l-21 -19v473h48v-500h-151zM254 0v46q6 0 10 -2t6 -5t3 -7t1 -9t-1 -9.5t-3 -7.5t-6 -4.5t-10 -1.5z" />
    <glyph glyph-name="uniFBFD" unicode="&#x6cc;" horiz-adv-x="870" arabic-form="final" 
d="M307 -248q-56 0 -104.5 16t-85 44.5t-57 68t-20.5 87.5q0 21 3.5 55.5t9.5 77t13 85.5l48 -7q-12 -69 -18.5 -127t-6.5 -84q0 -49 28 -87.5t77 -60.5t113 -22h283q85 0 130.5 49t45.5 142v30h48v-31q0 -69 -25 -122.5t-75 -83.5t-124 -30h-283zM688 0q-29 0 -63 5.5
t-64 25.5l27 39q13 -9 27.5 -14.5t32.5 -7.5t40 -2h182v-46h-182zM870 0v46q6 0 10 -2t6 -5t3 -7t1 -9t-1 -9.5t-3 -7.5t-6 -4.5t-10 -1.5z" />
    <glyph glyph-name="uniFBFE" unicode="&#x6cc;" horiz-adv-x="238" arabic-form="initial" 
d="M0 0v46h124l-21 -19v473h48v-500h-151zM0 0q-7 0 -11 1.5t-6 4.5t-2.5 7.5t-0.5 9.5q0 7 1.5 11.5t5.5 8t13 3.5v-46zM50 -144v66h49v-66h-49zM156 -144v66h49v-66h-49z" />
    <glyph glyph-name="uniFBFF" unicode="&#x6cc;" horiz-adv-x="254" arabic-form="medial" 
d="M151 0v46h103v-46h-103zM254 0v46q6 0 10 -2t6 -5t3 -7t1 -9t-1 -9.5t-3 -7.5t-6 -4.5t-10 -1.5zM0 0q-7 0 -11 1.5t-6 4.5t-2.5 7.5t-0.5 9.5q0 7 1.5 11.5t5.5 8t13 3.5v-46zM0 0v46h124l-21 -19v473h48v-500h-151zM50 -144v66h49v-66h-49zM156 -144v66h49v-66h-49z
" />
    <glyph glyph-name="uniFE82" unicode="&#x622;" horiz-adv-x="254" arabic-form="final" 
d="M147 0v46h107v-46h-107zM99 0v726h48v-726h-48zM254 0v46q7 0 11 -2t6 -5t2.5 -7t0.5 -9t-0.5 -9.5t-2.5 -7.5t-6 -4.5t-11 -1.5zM40 780l-22 20l37 49h35q10 -13 27 -19.5t33 -6.5q17 0 33.5 6.5t25.5 18.5l16 -14q-7 -15 -19.5 -26t-28 -17.5t-35.5 -6.5q-19 0 -38 7
t-32 21z" />
    <glyph glyph-name="uniFE84" unicode="&#x623;" horiz-adv-x="254" arabic-form="final" 
d="M147 0v46h107v-46h-107zM99 0v726h48v-726h-48zM254 0v46q7 0 11 -2t6 -5t2.5 -7t0.5 -9t-0.5 -9.5t-2.5 -7.5t-6 -4.5t-11 -1.5zM89 783q-14 17 -21.5 33.5t-7.5 33.5q0 25 12 43.5t31.5 28.5t41.5 10q13 0 25.5 -3.5t23.5 -10.5l-18 -30q-8 5 -15.5 6.5t-15.5 1.5
q-20 0 -33.5 -13t-13.5 -33q0 -13 5 -24t17 -25zM41 783v36h163v-36h-163z" />
    <glyph glyph-name="uniFE86" unicode="&#x624;" horiz-adv-x="554" arabic-form="final" 
d="M452 0v46h102v-46h-102zM232 -216q-39 0 -78.5 5.5t-74.5 13.5l8 40q51 -7 85.5 -10t59.5 -3q87 0 129 34t42 99v509l23 -18h-163q-68 0 -106 -17.5t-53 -62t-15 -124.5t15 -124.5t53 -62t106 -17.5h140v-46h-140q-87 0 -135.5 26.5t-68 82t-19.5 141.5t19.5 141.5t68 82
t135.5 26.5h189v-537q0 -58 -26.5 -98t-75 -60.5t-118.5 -20.5zM554 0v46q7 0 11 -2t6 -5t2.5 -7t0.5 -9t-0.5 -9.5t-2.5 -7.5t-6 -4.5t-11 -1.5zM232 578q-14 17 -21.5 33.5t-7.5 33.5q0 25 12 43.5t31.5 28.5t41.5 10q13 0 25.5 -3.5t23.5 -10.5l-18 -30q-8 5 -15.5 6.5
t-15.5 1.5q-20 0 -33.5 -13t-13.5 -33q0 -13 5 -24t17 -25zM184 578v36h163v-36h-163z" />
    <glyph glyph-name="uniFE88" unicode="&#x625;" horiz-adv-x="254" arabic-form="final" 
d="M147 0v46h107v-46h-107zM99 0v726h48v-726h-48zM254 0v46q7 0 11 -2t6 -5t2.5 -7t0.5 -9t-0.5 -9.5t-2.5 -7.5t-6 -4.5t-11 -1.5zM89 -232q-14 17 -21.5 33.5t-7.5 33.5q0 25 12 43.5t31.5 28.5t41.5 10q13 0 25.5 -3.5t23.5 -10.5l-18 -30q-8 5 -15.5 6.5t-15.5 1.5
q-20 0 -33.5 -13t-13.5 -33q0 -13 5 -24t17 -25zM41 -232v36h163v-36h-163z" />
    <glyph glyph-name="uniFE8A" unicode="&#x626;" horiz-adv-x="870" arabic-form="final" 
d="M307 -248q-56 0 -104.5 16t-85 44.5t-57 68t-20.5 87.5q0 21 3.5 55.5t9.5 77t13 85.5l48 -7q-12 -69 -18.5 -127t-6.5 -84q0 -49 28 -87.5t77 -60.5t113 -22h283q85 0 130.5 49t45.5 142v30h48v-31q0 -69 -25 -122.5t-75 -83.5t-124 -30h-283zM688 0q-29 0 -63 5.5
t-64 25.5l27 39q13 -9 27.5 -14.5t32.5 -7.5t40 -2h182v-46h-182zM870 0v46q6 0 10 -2t6 -5t3 -7t1 -9t-1 -9.5t-3 -7.5t-6 -4.5t-10 -1.5zM66 263q-14 17 -21.5 33.5t-7.5 33.5q0 25 12 43.5t31.5 28.5t41.5 10q13 0 25.5 -3.5t23.5 -10.5l-18 -30q-8 5 -15.5 6.5
t-15.5 1.5q-20 0 -33.5 -13t-13.5 -33q0 -13 5 -24t17 -25zM18 263v36h163v-36h-163z" />
    <glyph glyph-name="uniFE8B" unicode="&#x626;" horiz-adv-x="238" arabic-form="initial" 
d="M0 0v46h124l-21 -19v473h48v-500h-151zM0 0q-7 0 -11 1.5t-6 4.5t-2.5 7.5t-0.5 9.5q0 7 1.5 11.5t5.5 8t13 3.5v-46zM93 578q-14 17 -21.5 33.5t-7.5 33.5q0 25 12 43.5t31.5 28.5t41.5 10q13 0 25.5 -3.5t23.5 -10.5l-18 -30q-8 5 -15.5 6.5t-15.5 1.5q-20 0 -33.5 -13
t-13.5 -33q0 -13 5 -24t17 -25zM45 578v36h163v-36h-163z" />
    <glyph glyph-name="uniFE8C" unicode="&#x626;" horiz-adv-x="254" arabic-form="medial" 
d="M151 0v46h103v-46h-103zM0 0q-7 0 -11 1.5t-6 4.5t-2.5 7.5t-0.5 9.5q0 7 1.5 11.5t5.5 8t13 3.5v-46zM0 0v46h124l-21 -19v473h48v-500h-151zM254 0v46q6 0 10 -2t6 -5t3 -7t1 -9t-1 -9.5t-3 -7.5t-6 -4.5t-10 -1.5zM93 578q-14 17 -21.5 33.5t-7.5 33.5q0 25 12 43.5
t31.5 28.5t41.5 10q13 0 25.5 -3.5t23.5 -10.5l-18 -30q-8 5 -15.5 6.5t-15.5 1.5q-20 0 -33.5 -13t-13.5 -33q0 -13 5 -24t17 -25zM45 578v36h163v-36h-163z" />
    <glyph glyph-name="uniFE8E" unicode="&#x627;" horiz-adv-x="254" arabic-form="final" 
d="M147 0v46h107v-46h-107zM99 0v726h48v-726h-48zM254 0v46q7 0 11 -2t6 -5t2.5 -7t0.5 -9t-0.5 -9.5t-2.5 -7.5t-6 -4.5t-11 -1.5z" />
    <glyph glyph-name="uniFE90" unicode="&#x628;" horiz-adv-x="786" arabic-form="final" 
d="M683 0v46h103v-46h-103zM337 0q-99 0 -165 23t-99 70t-33 120q0 23 3.5 52t8.5 55.5t9 46t5 25.5l47 -9q-3 -18 -9 -47t-10.5 -61.5t-4.5 -61.5q0 -43 14 -75t43.5 -52.5t77 -30t113.5 -9.5h297v454h49v-500h-346zM786 0v46q6 0 10 -2t6 -5t3 -7t1 -9t-1 -9.5t-3 -7.5
t-6 -4.5t-10 -1.5zM337 -144v66h49v-66h-49z" />
    <glyph glyph-name="uniFE91" unicode="&#x628;" horiz-adv-x="238" arabic-form="initial" 
d="M0 0v46h124l-21 -19v473h48v-500h-151zM0 0q-7 0 -11 1.5t-6 4.5t-2.5 7.5t-0.5 9.5q0 7 1.5 11.5t5.5 8t13 3.5v-46zM103 -144v66h49v-66h-49z" />
    <glyph glyph-name="uniFE92" unicode="&#x628;" horiz-adv-x="254" arabic-form="medial" 
d="M151 0v46h103v-46h-103zM0 0q-7 0 -11 1.5t-6 4.5t-2.5 7.5t-0.5 9.5q0 7 1.5 11.5t5.5 8t13 3.5v-46zM0 0v46h124l-21 -19v473h48v-500h-151zM254 0v46q6 0 10 -2t6 -5t3 -7t1 -9t-1 -9.5t-3 -7.5t-6 -4.5t-10 -1.5zM103 -144v66h49v-66h-49z" />
    <glyph glyph-name="uniFE94" unicode="&#x629;" horiz-adv-x="554" arabic-form="final" 
d="M263 0q-87 0 -135.5 26.5t-68 82t-19.5 141.5t19.5 141.5t68 82t135.5 26.5h189v-474h-49v449l23 -21h-163q-68 0 -106 -17.5t-53 -62t-15 -124.5t15 -124.5t53 -62t106 -17.5h291v-46h-291zM554 0v46q7 0 11 -2t6 -5t2.5 -7t0.5 -9t-0.5 -9.5t-2.5 -7.5t-6 -4.5
t-11 -1.5zM189 579v66h49v-66h-49zM295 579v66h49v-66h-49z" />
    <glyph glyph-name="uniFE96" unicode="&#x62a;" horiz-adv-x="786" arabic-form="final" 
d="M683 0v46h103v-46h-103zM337 0q-99 0 -165 23t-99 70t-33 120q0 23 3.5 52t8.5 55.5t9 46t5 25.5l47 -9q-3 -18 -9 -47t-10.5 -61.5t-4.5 -61.5q0 -43 14 -75t43.5 -52.5t77 -30t113.5 -9.5h297v454h49v-500h-346zM786 0v46q6 0 10 -2t6 -5t3 -7t1 -9t-1 -9.5t-3 -7.5
t-6 -4.5t-10 -1.5zM285 484v66h49v-66h-49zM391 484v66h49v-66h-49z" />
    <glyph glyph-name="uniFE97" unicode="&#x62a;" horiz-adv-x="238" arabic-form="initial" 
d="M0 0v46h124l-21 -19v473h48v-500h-151zM0 0q-7 0 -11 1.5t-6 4.5t-2.5 7.5t-0.5 9.5q0 7 1.5 11.5t5.5 8t13 3.5v-46zM50 579v66h49v-66h-49zM156 579v66h49v-66h-49z" />
    <glyph glyph-name="uniFE98" unicode="&#x62a;" horiz-adv-x="254" arabic-form="medial" 
d="M151 0v46h103v-46h-103zM254 0v46q6 0 10 -2t6 -5t3 -7t1 -9t-1 -9.5t-3 -7.5t-6 -4.5t-10 -1.5zM0 0q-7 0 -11 1.5t-6 4.5t-2.5 7.5t-0.5 9.5q0 7 1.5 11.5t5.5 8t13 3.5v-46zM0 0v46h124l-21 -19v473h48v-500h-151zM50 579v66h49v-66h-49zM156 579v66h49v-66h-49z" />
    <glyph glyph-name="uniFE9A" unicode="&#x62b;" horiz-adv-x="786" arabic-form="final" 
d="M683 0v46h103v-46h-103zM337 0q-99 0 -165 23t-99 70t-33 120q0 23 3.5 52t8.5 55.5t9 46t5 25.5l47 -9q-3 -18 -9 -47t-10.5 -61.5t-4.5 -61.5q0 -43 14 -75t43.5 -52.5t77 -30t113.5 -9.5h297v454h49v-500h-346zM786 0v46q6 0 10 -2t6 -5t3 -7t1 -9t-1 -9.5t-3 -7.5
t-6 -4.5t-10 -1.5zM339 591v64h46v-64h-46zM284 484v66h49v-66h-49zM390 484v66h49v-66h-49z" />
    <glyph glyph-name="uniFE9B" unicode="&#x62b;" horiz-adv-x="238" arabic-form="initial" 
d="M0 0v46h124l-21 -19v473h48v-500h-151zM0 0q-7 0 -11 1.5t-6 4.5t-2.5 7.5t-0.5 9.5q0 7 1.5 11.5t5.5 8t13 3.5v-46zM105 686v64h46v-64h-46zM50 579v66h49v-66h-49zM156 579v66h49v-66h-49z" />
    <glyph glyph-name="uniFE9C" unicode="&#x62b;" horiz-adv-x="254" arabic-form="medial" 
d="M151 0v46h103v-46h-103zM254 0v46q6 0 10 -2t6 -5t3 -7t1 -9t-1 -9.5t-3 -7.5t-6 -4.5t-10 -1.5zM0 0q-7 0 -11 1.5t-6 4.5t-2.5 7.5t-0.5 9.5q0 7 1.5 11.5t5.5 8t13 3.5v-46zM0 0v46h124l-21 -19v473h48v-500h-151zM105 686v64h46v-64h-46zM50 579v66h49v-66h-49z
M156 579v66h49v-66h-49z" />
    <glyph glyph-name="uniFE9E" unicode="&#x62c;" horiz-adv-x="615" arabic-form="final" 
d="M333 -166v63h45v-63h-45zM615 0v46q7 0 11 -2t6 -5t2.5 -7t0.5 -9t-0.5 -9.5t-2.5 -7.5t-6 -4.5t-11 -1.5zM260 -311q-69 0 -118.5 20.5t-75.5 60.5t-26 97q0 58 26 98t75.5 60.5t119.5 20.5h203v265q0 71 -45.5 106.5t-136.5 35.5q-30 0 -76 -4.5t-111 -13.5l-6 40
q40 9 91 17t99 8q75 0 127 -21.5t79 -63.5t27 -104v-311h-251q-88 0 -130 -33.5t-42 -99.5q0 -65 42 -98.5t128 -33.5q24 0 54.5 2.5t75.5 8.5l8 -41q-28 -6 -64.5 -11t-72.5 -5zM512 0v46h103v-46h-103z" />
    <glyph glyph-name="uniFE9F" unicode="&#x62c;" horiz-adv-x="547" arabic-form="initial" 
d="M0 0v46h456l-18 -16v281q0 71 -45 106.5t-137 35.5q-30 0 -76 -4.5t-111 -13.5l-6 40q40 9 91 17t100 8q74 0 126 -21.5t79.5 -63.5t27.5 -104v-311h-487zM0 0q-7 0 -11 1.5t-6 4.5t-2.5 7.5t-0.5 9.5q0 7 1.5 11.5t5.5 8t13 3.5v-46zM229 -144v66h49v-66h-49z" />
    <glyph glyph-name="uniFEA0" unicode="&#x62c;" horiz-adv-x="589" arabic-form="medial" 
d="M487 0v46h102v-46h-102zM0 0q-7 0 -11 1.5t-6 4.5t-2.5 7.5t-0.5 9.5q0 7 1.5 11.5t5.5 8t13 3.5v-46zM0 0v46h456l-18 -16v281q0 71 -45 106.5t-137 35.5q-30 0 -76 -4.5t-111 -13.5l-6 40q40 9 91 17t100 8q74 0 126 -21.5t79.5 -63.5t27.5 -104v-311h-487zM589 0v46
q7 0 11 -2t6 -5t2.5 -7t0.5 -9t-0.5 -9.5t-2.5 -7.5t-6 -4.5t-11 -1.5zM229 -144v66h49v-66h-49z" />
    <glyph glyph-name="uniFEA2" unicode="&#x62d;" horiz-adv-x="615" arabic-form="final" 
d="M512 0v46h103v-46h-103zM405 -252l8 -40q-36 -8 -75.5 -13.5t-77.5 -5.5q-69 0 -118.5 20.5t-75.5 60.5t-26 97q0 58 26 98t75.5 60.5t119.5 20.5h203v-46h-203q-88 0 -130 -33.5t-42 -99.5q0 -65 42 -98.5t128 -33.5q26 0 60.5 3t85.5 10zM95 435l-6 40q40 9 91 17t99 8
q75 0 127 -21.5t79 -63.5t27 -104v-311h-48v311q0 71 -45.5 106.5t-136.5 35.5q-30 0 -76 -4.5t-111 -13.5zM615 0v46q7 0 11 -2t6 -5t2.5 -7t0.5 -9t-0.5 -9.5t-2.5 -7.5t-6 -4.5t-11 -1.5z" />
    <glyph glyph-name="uniFEA3" unicode="&#x62d;" horiz-adv-x="547" arabic-form="initial" 
d="M0 0v46h456l-18 -16v281q0 71 -45 106.5t-137 35.5q-30 0 -76 -4.5t-111 -13.5l-6 40q40 9 91 17t100 8q74 0 126 -21.5t79.5 -63.5t27.5 -104v-311h-487zM0 0q-7 0 -11 1.5t-6 4.5t-2.5 7.5t-0.5 9.5q0 7 1.5 11.5t5.5 8t13 3.5v-46z" />
    <glyph glyph-name="uniFEA4" unicode="&#x62d;" horiz-adv-x="589" arabic-form="medial" 
d="M487 0v46h102v-46h-102zM0 0q-7 0 -11 1.5t-6 4.5t-2.5 7.5t-0.5 9.5q0 7 1.5 11.5t5.5 8t13 3.5v-46zM0 0v46h456l-18 -16v281q0 71 -45 106.5t-137 35.5q-30 0 -76 -4.5t-111 -13.5l-6 40q40 9 91 17t100 8q74 0 126 -21.5t79.5 -63.5t27.5 -104v-311h-487zM589 0v46
q7 0 11 -2t6 -5t2.5 -7t0.5 -9t-0.5 -9.5t-2.5 -7.5t-6 -4.5t-11 -1.5z" />
    <glyph glyph-name="uniFEA6" unicode="&#x62e;" horiz-adv-x="615" arabic-form="final" 
d="M512 0v46h103v-46h-103zM405 -252l8 -40q-36 -8 -75.5 -13.5t-77.5 -5.5q-69 0 -118.5 20.5t-75.5 60.5t-26 97q0 58 26 98t75.5 60.5t119.5 20.5h203v-46h-203q-88 0 -130 -33.5t-42 -99.5q0 -65 42 -98.5t128 -33.5q26 0 60.5 3t85.5 10zM95 435l-6 40q40 9 91 17t99 8
q75 0 127 -21.5t79 -63.5t27 -104v-311h-48v311q0 71 -45.5 106.5t-136.5 35.5q-30 0 -76 -4.5t-111 -13.5zM615 0v46q7 0 11 -2t6 -5t2.5 -7t0.5 -9t-0.5 -9.5t-2.5 -7.5t-6 -4.5t-11 -1.5zM255 573v66h49v-66h-49z" />
    <glyph glyph-name="uniFEA7" unicode="&#x62e;" horiz-adv-x="547" arabic-form="initial" 
d="M0 0v46h456l-18 -16v281q0 71 -45 106.5t-137 35.5q-30 0 -76 -4.5t-111 -13.5l-6 40q40 9 91 17t100 8q74 0 126 -21.5t79.5 -63.5t27.5 -104v-311h-487zM0 0q-7 0 -11 1.5t-6 4.5t-2.5 7.5t-0.5 9.5q0 7 1.5 11.5t5.5 8t13 3.5v-46zM229 572v66h49v-66h-49z" />
    <glyph glyph-name="uniFEA8" unicode="&#x62e;" horiz-adv-x="589" arabic-form="medial" 
d="M487 0v46h102v-46h-102zM0 0q-7 0 -11 1.5t-6 4.5t-2.5 7.5t-0.5 9.5q0 7 1.5 11.5t5.5 8t13 3.5v-46zM0 0v46h456l-18 -16v281q0 71 -45 106.5t-137 35.5q-30 0 -76 -4.5t-111 -13.5l-6 40q40 9 91 17t100 8q74 0 126 -21.5t79.5 -63.5t27.5 -104v-311h-487zM589 0v46
q7 0 11 -2t6 -5t2.5 -7t0.5 -9t-0.5 -9.5t-2.5 -7.5t-6 -4.5t-11 -1.5zM229 572v66h49v-66h-49z" />
    <glyph glyph-name="uniFEAA" unicode="&#x62f;" horiz-adv-x="530" arabic-form="final" 
d="M427 0v46h103v-46h-103zM40 0v46h376l-38 -35v221q0 81 -20 129.5t-65.5 70.5t-119.5 22h-81v46h81q80 0 137 -25t87 -83.5t30 -159.5v-232h-387zM530 0v46q6 0 10 -2t6 -5t3 -7t1 -9t-1 -9.5t-3 -7.5t-6 -4.5t-10 -1.5z" />
    <glyph glyph-name="uniFEAC" unicode="&#x630;" horiz-adv-x="530" arabic-form="final" 
d="M427 0v46h103v-46h-103zM40 0v46h376l-38 -35v221q0 81 -20 129.5t-65.5 70.5t-119.5 22h-81v46h81q80 0 137 -25t87 -83.5t30 -159.5v-232h-387zM530 0v46q6 0 10 -2t6 -5t3 -7t1 -9t-1 -9.5t-3 -7.5t-6 -4.5t-10 -1.5zM128 594v66h49v-66h-49z" />
    <glyph glyph-name="uniFEAE" unicode="&#x631;" horiz-adv-x="286" arabic-form="final" 
d="M163 0v46h123v-46h-123zM0 -216q-13 0 -27.5 1.5t-28.5 2.5l6 46q14 -1 27 -2.5t23 -1.5q61 0 97.5 43.5t36.5 115.5v511h49v-511q0 -61 -23 -107.5t-64.5 -72t-95.5 -25.5zM286 0v46q6 0 10 -2t6 -5t3 -7t1 -9t-1 -9.5t-3 -7.5t-6 -4.5t-10 -1.5z" />
    <glyph glyph-name="uniFEB0" unicode="&#x632;" horiz-adv-x="286" arabic-form="final" 
d="M163 0v46h123v-46h-123zM0 -216q-13 0 -27.5 1.5t-28.5 2.5l6 46q14 -1 27 -2.5t23 -1.5q61 0 97.5 43.5t36.5 115.5v511h49v-511q0 -61 -23 -107.5t-64.5 -72t-95.5 -25.5zM286 0v46q6 0 10 -2t6 -5t3 -7t1 -9t-1 -9.5t-3 -7.5t-6 -4.5t-10 -1.5zM134 579v66h49v-66h-49
z" />
    <glyph glyph-name="uniFEB2" unicode="&#x633;" horiz-adv-x="1202" arabic-form="final" 
d="M1099 0v46h103v-46h-103zM309 -248q-75 0 -136.5 27.5t-97 77t-35.5 113.5q0 21 4 57t9.5 79t12.5 87.5t13 82.5l49 -8q-12 -69 -21 -129t-13.5 -104t-4.5 -65q0 -50 28 -89t78 -61t114 -22t110.5 20.5t72.5 58.5t26 88v435h48v-435q0 -70 -35.5 -117.5t-94 -71.5
t-127.5 -24zM566 0v46h129q36 0 55 10.5t26.5 41t7.5 90.5v262h49v-262q0 -74 -14 -115t-44 -57t-80 -16h-129zM894 0q-32 0 -63.5 12.5t-61.5 39.5l32 34q24 -21 46.5 -30.5t46.5 -9.5h184l-27 -27v259q0 20 -4 54.5t-11 76t-15 82.5l47 9q8 -34 15 -76t11.5 -81t4.5 -65
v-278h-205zM1202 0v46q7 0 11 -2t6 -5t2.5 -7t0.5 -9t-0.5 -9.5t-2.5 -7.5t-6 -4.5t-11 -1.5z" />
    <glyph glyph-name="uniFEB3" unicode="&#x633;" horiz-adv-x="782" arabic-form="initial" 
d="M497 0q-32 0 -63 12.5t-61 39.5l32 34q24 -21 46.5 -30.5t45.5 -9.5h184l-26 -27v259q0 20 -4 54.5t-10.5 76t-15.5 82.5l47 9q8 -34 15 -76t12 -81t5 -65v-278h-207zM0 0v46h138l-16 -16v370h48v-400h-170zM170 0v46h129q36 0 55 10.5t26.5 41t7.5 90.5v262h49v-262
q0 -74 -14 -115t-44 -57t-80 -16h-129zM0 0q-7 0 -11 1.5t-6 4.5t-2.5 7.5t-0.5 9.5q0 7 1.5 11.5t5.5 8t13 3.5v-46z" />
    <glyph glyph-name="uniFEB4" unicode="&#x633;" horiz-adv-x="806" arabic-form="medial" 
d="M704 0v46h102v-46h-102zM0 0q-7 0 -11 1.5t-6 4.5t-2.5 7.5t-0.5 9.5q0 7 1.5 11.5t5.5 8t13 3.5v-46zM497 0q-32 0 -63 12.5t-61 39.5l32 34q24 -21 46.5 -30.5t45.5 -9.5h184l-26 -27v259q0 20 -4 54.5t-10.5 76t-15.5 82.5l47 9q8 -34 15 -76t12 -81t5 -65v-278h-207z
M0 0v46h138l-16 -16v370h48v-400h-170zM170 0v46h129q36 0 55 10.5t26.5 41t7.5 90.5v262h49v-262q0 -74 -14 -115t-44 -57t-80 -16h-129zM806 0v46q7 0 11 -2t6 -5t2.5 -7t0.5 -9t-0.5 -9.5t-2.5 -7.5t-6 -4.5t-11 -1.5z" />
    <glyph glyph-name="uniFEB6" unicode="&#x634;" horiz-adv-x="1202" arabic-form="final" 
d="M1099 0v46h103v-46h-103zM309 -248q-75 0 -136.5 27.5t-97 77t-35.5 113.5q0 21 4 57t9.5 79t12.5 87.5t13 82.5l49 -8q-12 -69 -21 -129t-13.5 -104t-4.5 -65q0 -50 28 -89t78 -61t114 -22t110.5 20.5t72.5 58.5t26 88v435h48v-435q0 -70 -35.5 -117.5t-94 -71.5
t-127.5 -24zM566 0v46h129q36 0 55 10.5t26.5 41t7.5 90.5v262h49v-262q0 -74 -14 -115t-44 -57t-80 -16h-129zM894 0q-32 0 -63.5 12.5t-61.5 39.5l32 34q24 -21 46.5 -30.5t46.5 -9.5h184l-27 -27v259q0 20 -4 54.5t-11 76t-15 82.5l47 9q8 -34 15 -76t11.5 -81t4.5 -65
v-278h-205zM1202 0v46q7 0 11 -2t6 -5t2.5 -7t0.5 -9t-0.5 -9.5t-2.5 -7.5t-6 -4.5t-11 -1.5zM785 686v64h46v-64h-46zM730 579v66h49v-66h-49zM836 579v66h49v-66h-49z" />
    <glyph glyph-name="uniFEB7" unicode="&#x634;" horiz-adv-x="782" arabic-form="initial" 
d="M497 0q-32 0 -63 12.5t-61 39.5l32 34q24 -21 46.5 -30.5t45.5 -9.5h184l-26 -27v259q0 20 -4 54.5t-10.5 76t-15.5 82.5l47 9q8 -34 15 -76t12 -81t5 -65v-278h-207zM0 0v46h138l-16 -16v370h48v-400h-170zM170 0v46h129q36 0 55 10.5t26.5 41t7.5 90.5v262h49v-262
q0 -74 -14 -115t-44 -57t-80 -16h-129zM0 0q-7 0 -11 1.5t-6 4.5t-2.5 7.5t-0.5 9.5q0 7 1.5 11.5t5.5 8t13 3.5v-46zM389 686v64h46v-64h-46zM334 579v66h49v-66h-49zM440 579v66h49v-66h-49z" />
    <glyph glyph-name="uniFEB8" unicode="&#x634;" horiz-adv-x="806" arabic-form="medial" 
d="M704 0v46h102v-46h-102zM0 0q-7 0 -11 1.5t-6 4.5t-2.5 7.5t-0.5 9.5q0 7 1.5 11.5t5.5 8t13 3.5v-46zM497 0q-32 0 -63 12.5t-61 39.5l32 34q24 -21 46.5 -30.5t45.5 -9.5h184l-26 -27v259q0 20 -4 54.5t-10.5 76t-15.5 82.5l47 9q8 -34 15 -76t12 -81t5 -65v-278h-207z
M0 0v46h138l-16 -16v370h48v-400h-170zM170 0v46h129q36 0 55 10.5t26.5 41t7.5 90.5v262h49v-262q0 -74 -14 -115t-44 -57t-80 -16h-129zM806 0v46q7 0 11 -2t6 -5t2.5 -7t0.5 -9t-0.5 -9.5t-2.5 -7.5t-6 -4.5t-11 -1.5zM389 686v64h46v-64h-46zM334 579v66h49v-66h-49z
M440 579v66h49v-66h-49z" />
    <glyph glyph-name="uniFEBA" unicode="&#x635;" horiz-adv-x="1201" arabic-form="final" 
d="M1098 0v46h103v-46h-103zM309 -248q-75 0 -136.5 27.5t-97 77t-35.5 113.5q0 21 4 57t9.5 79t12.5 87.5t13 82.5l49 -8q-12 -69 -21 -129t-13.5 -104t-4.5 -65q0 -50 28 -89t78 -61t114 -22t110.5 20.5t72.5 58.5t26 88v535h48v-535q0 -70 -35.5 -117.5t-94 -71.5
t-127.5 -24zM566 0v46h524l-40 -37v232q0 69 -21 116.5t-62 72t-103 24.5q-43 0 -79 -11.5t-66.5 -32t-57 -47t-51 -56t-47.5 -59.5l-27 37q25 31 50.5 62t53.5 58.5t61.5 48.5t73.5 33.5t90 12.5q71 0 116.5 -24t71 -63.5t35.5 -84.5t10 -87v-241h-532zM1201 0v46
q6 0 10 -2t6 -5t3 -7t1 -9t-1 -9.5t-3 -7.5t-6 -4.5t-10 -1.5z" />
    <glyph glyph-name="uniFEBB" unicode="&#x635;" horiz-adv-x="772" arabic-form="initial" 
d="M0 0v46h685l-40 -37v232q0 69 -20.5 116.5t-62 72t-102.5 24.5q-43 0 -79 -11.5t-66.5 -32t-57 -47t-51 -56t-48.5 -59.5l-26 37q25 31 50.5 62t53.5 58.5t61.5 48.5t73.5 33.5t90 12.5q71 0 116.5 -24t71 -63.5t35.5 -84.5t10 -87v-241h-694zM113 46v454h49v-454h-49z
M0 0q-7 0 -11 1.5t-6 4.5t-2.5 7.5t-0.5 9.5q0 7 1.5 11.5t5.5 8t13 3.5v-46z" />
    <glyph glyph-name="uniFEBC" unicode="&#x635;" horiz-adv-x="796" arabic-form="medial" 
d="M694 0v46h102v-46h-102zM0 0q-7 0 -11 1.5t-6 4.5t-2.5 7.5t-0.5 9.5q0 7 1.5 11.5t5.5 8t13 3.5v-46zM0 0v46h685l-40 -37v232q0 69 -20.5 116.5t-62 72t-102.5 24.5q-43 0 -79 -11.5t-66.5 -32t-57 -47t-51 -56t-48.5 -59.5l-26 37q25 31 50.5 62t53.5 58.5t61.5 48.5
t73.5 33.5t90 12.5q71 0 116.5 -24t71 -63.5t35.5 -84.5t10 -87v-241h-694zM113 46v454h49v-454h-49zM796 0v46q7 0 11 -2t6 -5t2.5 -7t0.5 -9t-0.5 -9.5t-2.5 -7.5t-6 -4.5t-11 -1.5z" />
    <glyph glyph-name="uniFEBE" unicode="&#x636;" horiz-adv-x="1201" arabic-form="final" 
d="M1098 0v46h103v-46h-103zM309 -248q-75 0 -136.5 27.5t-97 77t-35.5 113.5q0 21 4 57t9.5 79t12.5 87.5t13 82.5l49 -8q-12 -69 -21 -129t-13.5 -104t-4.5 -65q0 -50 28 -89t78 -61t114 -22t110.5 20.5t72.5 58.5t26 88v535h48v-535q0 -70 -35.5 -117.5t-94 -71.5
t-127.5 -24zM566 0v46h524l-40 -37v232q0 69 -21 116.5t-62 72t-103 24.5q-43 0 -79 -11.5t-66.5 -32t-57 -47t-51 -56t-47.5 -59.5l-27 37q25 31 50.5 62t53.5 58.5t61.5 48.5t73.5 33.5t90 12.5q71 0 116.5 -24t71 -63.5t35.5 -84.5t10 -87v-241h-532zM1201 0v46
q6 0 10 -2t6 -5t3 -7t1 -9t-1 -9.5t-3 -7.5t-6 -4.5t-10 -1.5zM791 578v66h49v-66h-49z" />
    <glyph glyph-name="uniFEBF" unicode="&#x636;" horiz-adv-x="772" arabic-form="initial" 
d="M0 0v46h685l-40 -37v232q0 69 -20.5 116.5t-62 72t-102.5 24.5q-43 0 -79 -11.5t-66.5 -32t-57 -47t-51 -56t-48.5 -59.5l-26 37q25 31 50.5 62t53.5 58.5t61.5 48.5t73.5 33.5t90 12.5q71 0 116.5 -24t71 -63.5t35.5 -84.5t10 -87v-241h-694zM113 46v454h49v-454h-49z
M0 0q-7 0 -11 1.5t-6 4.5t-2.5 7.5t-0.5 9.5q0 7 1.5 11.5t5.5 8t13 3.5v-46zM386 578v66h49v-66h-49z" />
    <glyph glyph-name="uniFEC0" unicode="&#x636;" horiz-adv-x="796" arabic-form="medial" 
d="M694 0v46h102v-46h-102zM0 0q-7 0 -11 1.5t-6 4.5t-2.5 7.5t-0.5 9.5q0 7 1.5 11.5t5.5 8t13 3.5v-46zM0 0v46h685l-40 -37v232q0 69 -20.5 116.5t-62 72t-102.5 24.5q-43 0 -79 -11.5t-66.5 -32t-57 -47t-51 -56t-48.5 -59.5l-26 37q25 31 50.5 62t53.5 58.5t61.5 48.5
t73.5 33.5t90 12.5q71 0 116.5 -24t71 -63.5t35.5 -84.5t10 -87v-241h-694zM113 46v454h49v-454h-49zM796 0v46q7 0 11 -2t6 -5t2.5 -7t0.5 -9t-0.5 -9.5t-2.5 -7.5t-6 -4.5t-11 -1.5zM386 578v66h49v-66h-49z" />
    <glyph glyph-name="uniFEC2" unicode="&#x637;" horiz-adv-x="770" arabic-form="final" 
d="M667 0v46h103v-46h-103zM20 0v46h638l-39 -37v232q0 69 -21 116.5t-62 72t-103 24.5q-43 0 -79 -11.5t-66.5 -32t-57 -47t-51 -56t-47.5 -59.5l-27 37q31 39 63 77t70 69t86 50t110 19q71 0 116.5 -24t71 -63.5t35.5 -84.5t10 -87v-241h-647zM87 46v680h48v-680h-48z
M770 0v46q6 0 10 -2t6 -5t3 -7t1 -9t-1 -9.5t-3 -7.5t-6 -4.5t-10 -1.5z" />
    <glyph glyph-name="uniFEC3" unicode="&#x637;" horiz-adv-x="725" arabic-form="initial" 
d="M0 0v46h638l-39 -37v232q0 69 -21 116.5t-62 72t-103 24.5q-43 0 -79 -11.5t-66.5 -32t-57 -47t-51 -56t-47.5 -59.5l-27 37q31 39 63 77t70 69t86 50t110 19q71 0 116.5 -24t71 -63.5t35.5 -84.5t10 -87v-241h-647zM67 46v680h48v-680h-48zM0 0q-7 0 -11 1.5t-6 4.5
t-2.5 7.5t-0.5 9.5q0 7 1.5 11.5t5.5 8t13 3.5v-46z" />
    <glyph glyph-name="uniFEC4" unicode="&#x637;" horiz-adv-x="729" arabic-form="medial" 
d="M627 0v46h102v-46h-102zM0 0v46h638l-39 -37v232q0 69 -21 116.5t-62 72t-103 24.5q-43 0 -79 -11.5t-66.5 -32t-57 -47t-51 -56t-47.5 -59.5l-27 37q31 39 63 77t70 69t86 50t110 19q71 0 116.5 -24t71 -63.5t35.5 -84.5t10 -87v-241h-647zM67 46v680h48v-680h-48zM0 0
q-7 0 -11 1.5t-6 4.5t-2.5 7.5t-0.5 9.5q0 7 1.5 11.5t5.5 8t13 3.5v-46zM729 0v46q7 0 11 -2t6 -5t2.5 -7t0.5 -9t-0.5 -9.5t-2.5 -7.5t-6 -4.5t-11 -1.5z" />
    <glyph glyph-name="uniFEC6" unicode="&#x638;" horiz-adv-x="770" arabic-form="final" 
d="M667 0v46h103v-46h-103zM20 0v46h638l-39 -37v232q0 69 -21 116.5t-62 72t-103 24.5q-43 0 -79 -11.5t-66.5 -32t-57 -47t-51 -56t-47.5 -59.5l-27 37q31 39 63 77t70 69t86 50t110 19q71 0 116.5 -24t71 -63.5t35.5 -84.5t10 -87v-241h-647zM87 46v680h48v-680h-48z
M770 0v46q6 0 10 -2t6 -5t3 -7t1 -9t-1 -9.5t-3 -7.5t-6 -4.5t-10 -1.5zM360 579v66h49v-66h-49z" />
    <glyph glyph-name="uniFEC7" unicode="&#x638;" horiz-adv-x="725" arabic-form="initial" 
d="M0 0v46h638l-39 -37v232q0 69 -21 116.5t-62 72t-103 24.5q-43 0 -79 -11.5t-66.5 -32t-57 -47t-51 -56t-47.5 -59.5l-27 37q31 39 63 77t70 69t86 50t110 19q71 0 116.5 -24t71 -63.5t35.5 -84.5t10 -87v-241h-647zM67 46v680h48v-680h-48zM0 0q-7 0 -11 1.5t-6 4.5
t-2.5 7.5t-0.5 9.5q0 7 1.5 11.5t5.5 8t13 3.5v-46zM340 579v66h49v-66h-49z" />
    <glyph glyph-name="uniFEC8" unicode="&#x638;" horiz-adv-x="729" arabic-form="medial" 
d="M627 0v46h102v-46h-102zM0 0v46h638l-39 -37v232q0 69 -21 116.5t-62 72t-103 24.5q-43 0 -79 -11.5t-66.5 -32t-57 -47t-51 -56t-47.5 -59.5l-27 37q31 39 63 77t70 69t86 50t110 19q71 0 116.5 -24t71 -63.5t35.5 -84.5t10 -87v-241h-647zM67 46v680h48v-680h-48zM0 0
q-7 0 -11 1.5t-6 4.5t-2.5 7.5t-0.5 9.5q0 7 1.5 11.5t5.5 8t13 3.5v-46zM729 0v46q7 0 11 -2t6 -5t2.5 -7t0.5 -9t-0.5 -9.5t-2.5 -7.5t-6 -4.5t-11 -1.5zM340 579v66h49v-66h-49z" />
    <glyph glyph-name="uniFECA" unicode="&#x639;" horiz-adv-x="613" arabic-form="final" 
d="M405 -252l8 -40q-36 -8 -75.5 -13.5t-77.5 -5.5q-69 0 -118.5 20.5t-75.5 60.5t-26 97q0 44 14.5 80.5t43 64t68.5 43.5l19 9q37 16 81 36t86.5 46t78 59t57 74.5t21.5 92.5v61l26 -41q-61 32 -117.5 47t-111.5 15t-111 -15t-117 -47l27 41v-61q0 -37 19 -81t54 -87
t84 -79t109.5 -57.5t129.5 -21.5h112v-46h-112q-78 0 -146 25t-123 66.5t-94.5 91t-60.5 99t-21 90.5v61q43 23 85 37.5t83.5 22t81.5 7.5q41 0 82 -7.5t83.5 -22t85.5 -37.5v-61q0 -60 -23.5 -107.5t-61 -84.5t-82.5 -65t-87 -49q-12 -5 -30.5 -13.5t-37.5 -17t-33.5 -14.5
t-17.5 -8q-24 -12 -46 -30t-35.5 -45.5t-13.5 -69.5q0 -66 42 -99.5t128 -33.5q26 0 60.5 3t85.5 10zM613 0v46q6 0 10 -2t6 -5t3 -7t1 -9t-1 -9.5t-3 -7.5t-6 -4.5t-10 -1.5z" />
    <glyph glyph-name="uniFECB" unicode="&#x639;" horiz-adv-x="595" arabic-form="initial" 
d="M217 3q-54 46 -82.5 105.5t-28.5 126.5q0 57 20 105.5t55 84.5t83 55.5t103 19.5q29 0 62.5 -6t64.5 -17l-17 -43q-26 10 -54.5 15t-55.5 5q-61 0 -109 -28.5t-75.5 -77.5t-27.5 -113q0 -57 23.5 -107.5t70.5 -89.5zM0 0v46h506v-46h-506zM0 0q-7 0 -11 1.5t-6 4.5
t-2.5 7.5t-0.5 9.5q0 7 1.5 11.5t5.5 8t13 3.5v-46z" />
    <glyph glyph-name="uniFECC" unicode="&#x639;" horiz-adv-x="620" arabic-form="medial" 
d="M0 0v46h119q69 0 129.5 21.5t109.5 57.5t84.5 79t54.5 87t19 81v61l26 -41q-61 32 -117 47t-112 15q-55 0 -111 -15t-117 -47l27 41v-61q0 -37 19 -81t54 -87t84 -79t109.5 -57.5t129.5 -21.5h112v-46h-112q-78 0 -146 25t-123 66.5t-94.5 91t-60.5 99t-21 90.5v61
q43 23 85.5 37.5t83.5 22t81 7.5q41 0 82 -7.5t83.5 -22t85.5 -37.5v-61q0 -41 -21 -90.5t-60.5 -99t-94.5 -91t-123 -66.5t-146 -25h-119zM0 0q-7 0 -11 1.5t-6 4.5t-2.5 7.5t-0.5 9.5q0 7 1.5 11.5t5.5 8t13 3.5v-46zM620 0v46q7 0 11 -2t6 -5t2.5 -7t0.5 -9t-0.5 -9.5
t-2.5 -7.5t-6 -4.5t-11 -1.5z" />
    <glyph glyph-name="uniFECE" unicode="&#x63a;" horiz-adv-x="613" arabic-form="final" 
d="M405 -252l8 -40q-36 -8 -75.5 -13.5t-77.5 -5.5q-69 0 -118.5 20.5t-75.5 60.5t-26 97q0 44 14.5 80.5t43 64t68.5 43.5l19 9q37 16 81 36t86.5 46t78 59t57 74.5t21.5 92.5v61l26 -41q-61 32 -117.5 47t-111.5 15t-111 -15t-117 -47l27 41v-61q0 -37 19 -81t54 -87
t84 -79t109.5 -57.5t129.5 -21.5h112v-46h-112q-78 0 -146 25t-123 66.5t-94.5 91t-60.5 99t-21 90.5v61q43 23 85 37.5t83.5 22t81.5 7.5q41 0 82 -7.5t83.5 -22t85.5 -37.5v-61q0 -60 -23.5 -107.5t-61 -84.5t-82.5 -65t-87 -49q-12 -5 -30.5 -13.5t-37.5 -17t-33.5 -14.5
t-17.5 -8q-24 -12 -46 -30t-35.5 -45.5t-13.5 -69.5q0 -66 42 -99.5t128 -33.5q26 0 60.5 3t85.5 10zM613 0v46q6 0 10 -2t6 -5t3 -7t1 -9t-1 -9.5t-3 -7.5t-6 -4.5t-10 -1.5zM282 579v66h49v-66h-49z" />
    <glyph glyph-name="uniFECF" unicode="&#x63a;" horiz-adv-x="595" arabic-form="initial" 
d="M217 3q-54 46 -82.5 105.5t-28.5 126.5q0 57 20 105.5t55 84.5t83 55.5t103 19.5q29 0 62.5 -6t64.5 -17l-17 -43q-26 10 -54.5 15t-55.5 5q-61 0 -109 -28.5t-75.5 -77.5t-27.5 -113q0 -57 23.5 -107.5t70.5 -89.5zM0 0v46h506v-46h-506zM0 0q-7 0 -11 1.5t-6 4.5
t-2.5 7.5t-0.5 9.5q0 7 1.5 11.5t5.5 8t13 3.5v-46zM305 579v66h49v-66h-49z" />
    <glyph glyph-name="uniFED0" unicode="&#x63a;" horiz-adv-x="620" arabic-form="medial" 
d="M0 0v46h119q69 0 129.5 21.5t109.5 57.5t84.5 79t54.5 87t19 81v61l26 -41q-61 32 -117 47t-112 15q-55 0 -111 -15t-117 -47l27 41v-61q0 -37 19 -81t54 -87t84 -79t109.5 -57.5t129.5 -21.5h112v-46h-112q-78 0 -146 25t-123 66.5t-94.5 91t-60.5 99t-21 90.5v61
q43 23 85.5 37.5t83.5 22t81 7.5q41 0 82 -7.5t83.5 -22t85.5 -37.5v-61q0 -41 -21 -90.5t-60.5 -99t-94.5 -91t-123 -66.5t-146 -25h-119zM0 0q-7 0 -11 1.5t-6 4.5t-2.5 7.5t-0.5 9.5q0 7 1.5 11.5t5.5 8t13 3.5v-46zM620 0v46q7 0 11 -2t6 -5t2.5 -7t0.5 -9t-0.5 -9.5
t-2.5 -7.5t-6 -4.5t-11 -1.5zM289 579v66h49v-66h-49z" />
    <glyph glyph-name="uniFED2" unicode="&#x641;" horiz-adv-x="1037" arabic-form="final" 
d="M935 0v46h102v-46h-102zM351 0q-99 0 -165 23t-99 70t-33 120q0 23 3.5 52t8.5 55.5t9 46t5 25.5l47 -9q-3 -18 -9 -47t-10.5 -61.5t-4.5 -61.5q0 -43 14 -75t43.5 -52.5t77 -30t113.5 -9.5h569l-34 -31v460l23 -21h-163q-67 0 -105 -17.5t-53.5 -62t-15.5 -124.5
t15.5 -124.5t53.5 -62t105 -17.5v-40q-87 0 -135.5 25t-68 79t-19.5 140t19.5 141.5t68 82t135.5 26.5h189v-500h-584zM1037 0v46q7 0 11 -2t6 -5t2.5 -7t0.5 -9t-0.5 -9.5t-2.5 -7.5t-6 -4.5t-11 -1.5zM726 579v66h49v-66h-49z" />
    <glyph glyph-name="uniFED3" unicode="&#x641;" horiz-adv-x="596" arabic-form="initial" 
d="M0 0v46h502l-33 -31v460l23 -21h-163q-68 0 -106 -17.5t-53.5 -62t-15.5 -124.5t15.5 -124.5t53.5 -62t106 -17.5v-40q-87 0 -135.5 25t-68 79t-19.5 140t19.5 141.5t68 82t135.5 26.5h188v-500h-517zM0 0q-7 0 -11 1.5t-6 4.5t-2.5 7.5t-0.5 9.5q0 7 1.5 11.5t5.5 8
t13 3.5v-46zM309 579v66h49v-66h-49z" />
    <glyph glyph-name="uniFED4" unicode="&#x641;" horiz-adv-x="620" arabic-form="medial" 
d="M517 0v46h103v-46h-103zM0 0q-7 0 -11 1.5t-6 4.5t-2.5 7.5t-0.5 9.5q0 7 1.5 11.5t5.5 8t13 3.5v-46zM0 0v46h502l-33 -31v460l23 -21h-163q-68 0 -106 -17.5t-53.5 -62t-15.5 -124.5t15.5 -124.5t53.5 -62t106 -17.5v-40q-87 0 -135.5 25t-68 79t-19.5 140t19.5 141.5
t68 82t135.5 26.5h188v-500h-517zM620 0v46q7 0 11 -2t6 -5t2.5 -7t0.5 -9t-0.5 -9.5t-2.5 -7.5t-6 -4.5t-11 -1.5zM309 579v66h49v-66h-49z" />
    <glyph glyph-name="uniFED6" unicode="&#x642;" horiz-adv-x="890" arabic-form="final" 
d="M787 0v46h103v-46h-103zM303 -266q-73 0 -133 27t-95 75t-35 111q0 21 4 57.5t10 80t13 88.5t13 82l48 -8q-11 -69 -20 -128.5t-14 -103.5t-5 -66q0 -51 27.5 -89t75.5 -59t111 -21h232q63 0 108 20t70 56.5t25 85.5v533l24 -21h-164q-67 0 -105 -17.5t-53.5 -62
t-15.5 -124.5t15.5 -124.5t53.5 -62t105 -17.5h140v-46h-140q-87 0 -135.5 26.5t-68 82t-19.5 141.5t19.5 141.5t68 82t135.5 26.5h189v-558q0 -69 -35.5 -115.5t-93 -69.5t-123.5 -23h-232zM890 0v46q6 0 10 -2t6 -5t3 -7t1 -9t-1 -9.5t-3 -7.5t-6 -4.5t-10 -1.5zM526 579
v66h49v-66h-49zM632 579v66h49v-66h-49z" />
    <glyph glyph-name="uniFED7" unicode="&#x642;" horiz-adv-x="596" arabic-form="initial" 
d="M0 0v46h502l-33 -31v460l23 -21h-163q-68 0 -106 -17.5t-53.5 -62t-15.5 -124.5t15.5 -124.5t53.5 -62t106 -17.5v-40q-87 0 -135.5 25t-68 79t-19.5 140t19.5 141.5t68 82t135.5 26.5h188v-500h-517zM0 0q-7 0 -11 1.5t-6 4.5t-2.5 7.5t-0.5 9.5q0 7 1.5 11.5t5.5 8
t13 3.5v-46zM256 579v66h49v-66h-49zM362 579v66h49v-66h-49z" />
    <glyph glyph-name="uniFED8" unicode="&#x642;" horiz-adv-x="620" arabic-form="medial" 
d="M517 0v46h103v-46h-103zM0 0q-7 0 -11 1.5t-6 4.5t-2.5 7.5t-0.5 9.5q0 7 1.5 11.5t5.5 8t13 3.5v-46zM0 0v46h502l-33 -31v460l23 -21h-163q-68 0 -106 -17.5t-53.5 -62t-15.5 -124.5t15.5 -124.5t53.5 -62t106 -17.5v-40q-87 0 -135.5 25t-68 79t-19.5 140t19.5 141.5
t68 82t135.5 26.5h188v-500h-517zM620 0v46q7 0 11 -2t6 -5t2.5 -7t0.5 -9t-0.5 -9.5t-2.5 -7.5t-6 -4.5t-11 -1.5zM256 579v66h49v-66h-49zM362 579v66h49v-66h-49z" />
    <glyph glyph-name="uniFEDA" unicode="&#x643;" horiz-adv-x="786" arabic-form="final" 
d="M683 0v46h103v-46h-103zM337 0q-99 0 -165 23t-99 70t-33 120q0 23 3.5 52t8.5 55.5t9 46t5 25.5l47 -9q-3 -18 -9 -47t-10.5 -61.5t-4.5 -61.5q0 -43 14 -75t43.5 -52.5t77 -30t113.5 -9.5h319l-22 -19v699h49v-726h-346zM786 0v46q6 0 10 -2t6 -5t3 -7t1 -9t-1 -9.5
t-3 -7.5t-6 -4.5t-10 -1.5zM328 349q-14 17 -21.5 33.5t-7.5 33.5q0 25 12 43.5t31.5 28.5t41.5 10q13 0 25.5 -3.5t23.5 -10.5l-18 -30q-8 5 -15.5 6.5t-15.5 1.5q-20 0 -33.5 -13t-13.5 -33q0 -13 5 -24t17 -25zM280 349v36h163v-36h-163z" />
    <glyph glyph-name="uniFEDB" unicode="&#x643;" horiz-adv-x="612" arabic-form="initial" 
d="M0 0v46h504l-19 -18v188q0 59 -17 98t-50.5 59.5t-83.5 20.5h-217l-39 60l41 78q12 23 25.5 46.5t34 55t51.5 78.5l40 -26q-31 -46 -50.5 -77t-32.5 -53.5t-25 -45.5l-47 -90l-13 19h232q61 0 100 -20.5t60.5 -54.5t30.5 -73t9 -75v-216h-534zM0 0q-7 0 -11 1.5t-6 4.5
t-2.5 7.5t-0.5 9.5q0 7 1.5 11.5t5.5 8t13 3.5v-46z" />
    <glyph glyph-name="uniFEDC" unicode="&#x643;" horiz-adv-x="636" arabic-form="medial" 
d="M534 0v46h102v-46h-102zM0 0q-7 0 -11 1.5t-6 4.5t-2.5 7.5t-0.5 9.5q0 7 1.5 11.5t5.5 8t13 3.5v-46zM0 0v46h504l-19 -18v188q0 59 -17 98t-50.5 59.5t-83.5 20.5h-217l-39 60l41 78q12 23 25.5 46.5t34 55t51.5 78.5l40 -26q-31 -46 -50.5 -77t-32.5 -53.5t-25 -45.5
l-47 -90l-13 19h232q61 0 100 -20.5t60.5 -54.5t30.5 -73t9 -75v-216h-534zM636 0v46q7 0 11 -2t6 -5t2.5 -7t0.5 -9t-0.5 -9.5t-2.5 -7.5t-6 -4.5t-11 -1.5z" />
    <glyph glyph-name="uniFEDE" unicode="&#x644;" horiz-adv-x="669" arabic-form="final" 
d="M566 0v46h103v-46h-103zM309 -248q-75 0 -136.5 27.5t-97 77t-35.5 113.5q0 21 4 57t9.5 79t12.5 87.5t13 82.5l49 -8q-12 -69 -21 -129t-13.5 -104t-4.5 -65q0 -50 28 -89t78 -61t114 -22t110.5 20.5t72.5 58.5t26 88v761h48v-761q0 -70 -35.5 -117.5t-94 -71.5
t-127.5 -24zM669 0v46q7 0 11 -2t6 -5t2.5 -7t0.5 -9t-0.5 -9.5t-2.5 -7.5t-6 -4.5t-11 -1.5z" />
    <glyph glyph-name="uniFEDF" unicode="&#x644;" horiz-adv-x="234" arabic-form="initial" 
d="M107 0v726h48v-726h-48zM0 0v46h107v-46h-107zM0 0q-7 0 -11 1.5t-6 4.5t-2.5 7.5t-0.5 9.5q0 7 1.5 11.5t5.5 8t13 3.5v-46z" />
    <glyph glyph-name="uniFEE0" unicode="&#x644;" horiz-adv-x="258" arabic-form="medial" 
d="M155 0v46h103v-46h-103zM0 0q-7 0 -11 1.5t-6 4.5t-2.5 7.5t-0.5 9.5q0 7 1.5 11.5t5.5 8t13 3.5v-46zM107 0v726h48v-726h-48zM0 0v46h107v-46h-107zM258 0v46q7 0 11 -2t6 -5t2.5 -7t0.5 -9t-0.5 -9.5t-2.5 -7.5t-6 -4.5t-11 -1.5z" />
    <glyph glyph-name="uniFEE2" unicode="&#x645;" horiz-adv-x="624" arabic-form="final" 
d="M522 0v46h102v-46h-102zM66 -332q-11 60 -18.5 111t-7.5 84q0 58 18.5 99t54.5 62.5t87 21.5h56.5h79h88.5h84l-35 -33v232q0 77 -19 122.5t-61.5 66t-113.5 20.5q-42 0 -85 -6t-66 -17l29 31q-6 -23 -12 -60t-10 -82t-4 -91q0 -50 4 -94.5t9.5 -75t8.5 -40.5l-46 -15
q-3 12 -9 44.5t-11 80t-5 100.5q0 50 4.5 97t11 85.5t12.5 61.5q20 9 66.5 18t102.5 9q48 0 86.5 -8.5t68 -27.5t49 -48.5t29.5 -72t10 -98.5v-245h-87h-93h-83.5h-58.5q-16 0 -35 -4.5t-36.5 -18t-28.5 -41t-11 -73.5q0 -39 7 -88t16 -107h-46zM624 0v46q7 0 11 -2t6 -5
t2.5 -7t0.5 -9t-0.5 -9.5t-2.5 -7.5t-6 -4.5t-11 -1.5z" />
    <glyph glyph-name="uniFEE3" unicode="&#x645;" horiz-adv-x="624" arabic-form="initial" 
d="M0 0v46h533l-36 -30v229q0 77 -19 122.5t-61.5 66t-113.5 20.5q-42 0 -85 -6t-66 -17l29 31q-5 -23 -11.5 -60t-10.5 -82t-4 -91q0 -50 4.5 -94.5t9.5 -75t8 -40.5l-46 -15q-3 12 -9 44.5t-10.5 80t-4.5 100.5q0 50 4.5 97t11 85.5t11.5 61.5q21 9 67 18t102 9
q81 0 135 -25t81 -80.5t27 -149.5v-245h-546zM0 0q-7 0 -11 1.5t-6 4.5t-2.5 7.5t-0.5 9.5q0 7 1.5 11.5t5.5 8t13 3.5v-46z" />
    <glyph glyph-name="uniFEE4" unicode="&#x645;" horiz-adv-x="648" arabic-form="medial" 
d="M546 0v46h102v-46h-102zM0 0q-7 0 -11 1.5t-6 4.5t-2.5 7.5t-0.5 9.5q0 7 1.5 11.5t5.5 8t13 3.5v-46zM0 0v46h533l-36 -30v229q0 77 -19 122.5t-61.5 66t-113.5 20.5q-42 0 -85 -6t-66 -17l29 31q-5 -23 -11.5 -60t-10.5 -82t-4 -91q0 -50 4.5 -94.5t9.5 -75t8 -40.5
l-46 -15q-3 12 -9 44.5t-10.5 80t-4.5 100.5q0 50 4.5 97t11 85.5t11.5 61.5q21 9 67 18t102 9q81 0 135 -25t81 -80.5t27 -149.5v-245h-546zM648 0v46q7 0 11 -2t6 -5t2.5 -7t0.5 -9t-0.5 -9.5t-2.5 -7.5t-6 -4.5t-11 -1.5z" />
    <glyph glyph-name="uniFEE6" unicode="&#x646;" horiz-adv-x="669" arabic-form="final" 
d="M566 0v46h103v-46h-103zM309 -248q-75 0 -136.5 27.5t-97 77t-35.5 113.5q0 21 4 57t9.5 79t12.5 87.5t13 82.5l49 -8q-12 -69 -21 -129t-13.5 -104t-4.5 -65q0 -50 28 -89t78 -61t114 -22t110.5 20.5t72.5 58.5t26 88v535h48v-535q0 -70 -35.5 -117.5t-94 -71.5
t-127.5 -24zM669 0v46q7 0 11 -2t6 -5t2.5 -7t0.5 -9t-0.5 -9.5t-2.5 -7.5t-6 -4.5t-11 -1.5zM281 500v66h49v-66h-49z" />
    <glyph glyph-name="uniFEE7" unicode="&#x646;" horiz-adv-x="238" arabic-form="initial" 
d="M0 0v46h124l-21 -19v473h48v-500h-151zM0 0q-7 0 -11 1.5t-6 4.5t-2.5 7.5t-0.5 9.5q0 7 1.5 11.5t5.5 8t13 3.5v-46zM103 579v66h49v-66h-49z" />
    <glyph glyph-name="uniFEE8" unicode="&#x646;" horiz-adv-x="254" arabic-form="medial" 
d="M151 0v46h103v-46h-103zM0 0q-7 0 -11 1.5t-6 4.5t-2.5 7.5t-0.5 9.5q0 7 1.5 11.5t5.5 8t13 3.5v-46zM0 0v46h124l-21 -19v473h48v-500h-151zM254 0v46q6 0 10 -2t6 -5t3 -7t1 -9t-1 -9.5t-3 -7.5t-6 -4.5t-10 -1.5zM103 579v66h49v-66h-49z" />
    <glyph glyph-name="uniFEEA" unicode="&#x647;" horiz-adv-x="554" arabic-form="final" 
d="M263 0q-87 0 -135.5 26.5t-68 82t-19.5 141.5t19.5 141.5t68 82t135.5 26.5h189v-474h-49v449l23 -21h-163q-68 0 -106 -17.5t-53 -62t-15 -124.5t15 -124.5t53 -62t106 -17.5h291v-46h-291zM554 0v46q7 0 11 -2t6 -5t2.5 -7t0.5 -9t-0.5 -9.5t-2.5 -7.5t-6 -4.5
t-11 -1.5z" />
    <glyph glyph-name="uniFEEB" unicode="&#x647;" horiz-adv-x="785" arabic-form="initial" 
d="M0 0v46h684l-26 -23v169q0 98 -31.5 162t-94.5 96.5t-156 32.5q-36 0 -76 -4t-79 -10t-73 -12l-7 36q16 5 53.5 13.5t86 15.5t97.5 7q62 0 121 -16.5t106 -55t74 -103.5t27 -162v-192h-706zM127 46v110q0 46 22.5 83.5t61.5 59.5t87 22t87 -22t61.5 -59.5t22.5 -83.5
v-110h-49v110q0 34 -16 61t-43.5 43t-62.5 16q-34 0 -62 -16t-44.5 -43t-16.5 -61v-110h-48zM0 0q-7 0 -11 1.5t-6 4.5t-2.5 7.5t-0.5 9.5q0 7 1.5 11.5t5.5 8t13 3.5v-46z" />
    <glyph glyph-name="uniFEEC" unicode="&#x647;" horiz-adv-x="628" arabic-form="medial" 
d="M0 0v46h525l-48 -46v245q0 76 -19 121.5t-61 66.5t-113 21q-43 0 -86 -6t-66 -17l28 31q-5 -23 -11 -60t-10 -82t-4 -92q0 -50 4 -94t9.5 -74.5t8.5 -40.5l-46 -15q-3 12 -9 45t-11 79.5t-5 99.5q0 50 4.5 97.5t11 86t11.5 61.5q21 9 67.5 18t102.5 9q81 0 134.5 -25
t80.5 -80.5t27 -149.5v-245h-525zM282 -247q-56 0 -102 5t-67 11q-5 13 -11.5 35.5t-11 50t-4.5 57.5q0 31 5 58.5t11 46.5t9 26l43 -21q-4 -8 -8.5 -27.5t-7.5 -42.5t-3 -42q0 -20 3 -42.5t8.5 -44t11.5 -38.5l-32 28q23 -6 68 -10t92 -4q71 0 113 10t60 33.5t18 59.5v144
h48v-144q0 -54 -27 -87t-80.5 -47.5t-135.5 -14.5zM525 0v46h103v-46h-103zM628 0v46q7 0 11 -2t6 -5t2.5 -7t0.5 -9t-0.5 -9.5t-2.5 -7.5t-6 -4.5t-11 -1.5zM0 0q-7 0 -11 1.5t-6 4.5t-2.5 7.5t-0.5 9.5q0 7 1.5 11.5t5.5 8t13 3.5v-46z" />
    <glyph glyph-name="uniFEEE" unicode="&#x648;" horiz-adv-x="554" arabic-form="final" 
d="M452 0v46h102v-46h-102zM232 -216q-39 0 -78.5 5.5t-74.5 13.5l8 40q51 -7 85.5 -10t59.5 -3q87 0 129 34t42 99v509l23 -18h-163q-68 0 -106 -17.5t-53 -62t-15 -124.5t15 -124.5t53 -62t106 -17.5h140v-46h-140q-87 0 -135.5 26.5t-68 82t-19.5 141.5t19.5 141.5t68 82
t135.5 26.5h189v-537q0 -58 -26.5 -98t-75 -60.5t-118.5 -20.5zM554 0v46q7 0 11 -2t6 -5t2.5 -7t0.5 -9t-0.5 -9.5t-2.5 -7.5t-6 -4.5t-11 -1.5z" />
    <glyph glyph-name="uniFEF0" unicode="&#x649;" horiz-adv-x="870" arabic-form="final" 
d="M307 -248q-56 0 -104.5 16t-85 44.5t-57 68t-20.5 87.5q0 21 3.5 55.5t9.5 77t13 85.5l48 -7q-12 -69 -18.5 -127t-6.5 -84q0 -49 28 -87.5t77 -60.5t113 -22h283q85 0 130.5 49t45.5 142v30h48v-31q0 -69 -25 -122.5t-75 -83.5t-124 -30h-283zM688 0q-29 0 -63 5.5
t-64 25.5l27 39q13 -9 27.5 -14.5t32.5 -7.5t40 -2h182v-46h-182zM870 0v46q6 0 10 -2t6 -5t3 -7t1 -9t-1 -9.5t-3 -7.5t-6 -4.5t-10 -1.5z" />
    <glyph glyph-name="uniFEF2" unicode="&#x64a;" horiz-adv-x="870" arabic-form="final" 
d="M307 -248q-56 0 -104.5 16t-85 44.5t-57 68t-20.5 87.5q0 21 3.5 55.5t9.5 77t13 85.5l48 -7q-12 -69 -18.5 -127t-6.5 -84q0 -49 28 -87.5t77 -60.5t113 -22h283q85 0 130.5 49t45.5 142v30h48v-31q0 -69 -25 -122.5t-75 -83.5t-124 -30h-283zM688 0q-29 0 -63 5.5
t-64 25.5l27 39q13 -9 27.5 -14.5t32.5 -7.5t40 -2h182v-46h-182zM870 0v46q6 0 10 -2t6 -5t3 -7t1 -9t-1 -9.5t-3 -7.5t-6 -4.5t-10 -1.5zM350 -406v66h49v-66h-49zM456 -406v66h49v-66h-49z" />
    <glyph glyph-name="uniFEF3" unicode="&#x64a;" horiz-adv-x="238" arabic-form="initial" 
d="M0 0v46h124l-21 -19v473h48v-500h-151zM0 0q-7 0 -11 1.5t-6 4.5t-2.5 7.5t-0.5 9.5q0 7 1.5 11.5t5.5 8t13 3.5v-46zM50 -144v66h49v-66h-49zM156 -144v66h49v-66h-49z" />
    <glyph glyph-name="uniFEF4" unicode="&#x64a;" horiz-adv-x="254" arabic-form="medial" 
d="M151 0v46h103v-46h-103zM254 0v46q6 0 10 -2t6 -5t3 -7t1 -9t-1 -9.5t-3 -7.5t-6 -4.5t-10 -1.5zM0 0q-7 0 -11 1.5t-6 4.5t-2.5 7.5t-0.5 9.5q0 7 1.5 11.5t5.5 8t13 3.5v-46zM0 0v46h124l-21 -19v473h48v-500h-151zM50 -144v66h49v-66h-49zM156 -144v66h49v-66h-49z
" />
    <glyph glyph-name=".notdef" horiz-adv-x="235" 
d="M21 709h186v-709h-186v709zM41 689v-669h146v669h-146z" />
    <glyph glyph-name=".null" horiz-adv-x="0" 
 />
    <glyph glyph-name="nonmarkingreturn" horiz-adv-x="333" 
 />
    <glyph glyph-name="DLE" horiz-adv-x="0" 
 />
    <glyph glyph-name="space" unicode=" " horiz-adv-x="220" 
 />
    <glyph glyph-name="exclam" unicode="!" horiz-adv-x="233" 
d="M93 219l-2 478h50l-1 -478h-47zM90 0v91h54v-91h-54z" />
    <glyph glyph-name="quotedbl" unicode="&#x22;" horiz-adv-x="357" 
d="M237 483l-3 214h51l-3 -214h-45zM75 483l-4 214h52l-4 -214h-44z" />
    <glyph glyph-name="numbersign" unicode="#" 
d="M145 0v184h-117v43h117v213h-117v43h117v186h47v-186h176v186h47v-186h117v-43h-117v-213h117v-43h-117v-184h-47v184h-176v-184h-47zM192 227h176v213h-176v-213z" />
    <glyph glyph-name="dollar" unicode="$" 
d="M208 -121l59 448l39 -7l-57 -441h-41zM310 350l-40 7l57 436h40zM284 -8q-27 0 -64 3t-74 7t-66 7l5 43q28 -3 64.5 -7t72 -6.5t60.5 -2.5q52 0 86.5 15.5t52.5 49t18 87.5q0 45 -16.5 69.5t-51 37.5t-91.5 23q-66 11 -111.5 27.5t-69 52t-23.5 102.5q0 61 25 98.5
t71.5 54.5t109.5 17q27 0 62.5 -3t70 -7t58.5 -7l-5 -43q-27 3 -62.5 7t-68.5 6.5t-53 2.5q-52 0 -87 -13t-53.5 -40t-18.5 -71q0 -52 18.5 -78.5t56 -38.5t96.5 -22q48 -9 84 -20.5t59.5 -29.5t35.5 -47.5t12 -73.5q0 -73 -23.5 -117t-69 -63.5t-110.5 -19.5z" />
    <glyph glyph-name="percent" unicode="%" 
d="M205 -12l-37 10l192 675l38 -11zM140 395q-31 0 -55 14.5t-37 46t-13 79.5t13 77.5t36.5 43t55.5 13.5t55.5 -13.5t36.5 -43.5t13 -78t-13 -79t-37 -45.5t-55 -14.5zM140 433q23 0 36.5 12t19.5 34.5t6 54.5t-6 53.5t-19.5 32.5t-36.5 11q-22 0 -35.5 -11t-20 -32
t-6.5 -53q0 -33 6.5 -55.5t20 -34.5t35.5 -12zM421 -9q-31 0 -55 14.5t-37.5 46t-13.5 79.5t13.5 77.5t37 43t55.5 13.5t55.5 -13.5t36.5 -43.5t13 -78t-13.5 -79t-37 -45.5t-54.5 -14.5zM421 29q23 0 36.5 11.5t19.5 34t6 55.5q0 32 -6 53.5t-19.5 32.5t-36.5 11
q-22 0 -35.5 -11t-20 -32t-6.5 -53q0 -33 6.5 -56t20 -34.5t35.5 -11.5z" />
    <glyph glyph-name="ampersand" unicode="&#x26;" horiz-adv-x="683" 
d="M281 -9q-90 0 -141.5 26t-73 74.5t-21.5 114.5q0 61 17.5 99.5t53.5 62t90 40.5q-24 27 -35.5 49t-15 45t-3.5 50q0 42 18.5 75t54 51.5t88.5 18.5q56 0 91 -18.5t52 -52t17 -77.5q0 -37 -9.5 -64.5t-29 -48.5t-50.5 -38.5t-73 -33.5l175 -172q7 18 14 49.5t12 66t7 61.5
l48 -1q-3 -34 -10 -74t-16 -76t-18 -60l136 -131l-31 -35l-128 124q-34 -65 -89 -95t-130 -30zM280 35q64 0 110.5 27t74.5 86l-228 226q-51 -14 -83 -34t-46 -51t-14 -80q0 -84 42 -129t144 -45zM280 396q52 19 83.5 38.5t46 46.5t14.5 67q0 50 -25.5 77.5t-85.5 27.5
q-55 0 -83.5 -26t-28.5 -80q0 -20 2 -36t9.5 -32t23.5 -35.5t44 -47.5z" />
    <glyph glyph-name="quotesingle" unicode="'" horiz-adv-x="194" 
d="M74 483l-3 214h53l-5 -214h-45z" />
    <glyph glyph-name="parenleft" unicode="(" horiz-adv-x="244" 
d="M156 -125q-16 35 -34 85t-32.5 107.5t-24 117.5t-9.5 116t9.5 118.5t24 123t32 114.5t34.5 93h47q-15 -41 -32 -96.5t-31 -117t-23 -122t-9 -113.5q0 -51 9 -109.5t23 -117t31 -109.5t32 -90h-47z" />
    <glyph glyph-name="parenright" unicode=")" horiz-adv-x="244" 
d="M89 -125h-48q15 38 32 89.5t31 110t23 117t9 109.5q0 52 -9 113t-23 122.5t-31 117t-32 96.5h48q16 -39 33.5 -93t32.5 -114.5t24.5 -123t9.5 -118.5t-9.5 -116t-24.5 -117.5t-32.5 -107.5t-33.5 -85z" />
    <glyph glyph-name="asterisk" unicode="*" horiz-adv-x="418" 
d="M234 377l-41 129l-109 -79l-23 31l109 80l-108 79l24 32l108 -80l42 128l38 -12l-42 -129h134v-40h-135l41 -128z" />
    <glyph glyph-name="plus" unicode="+" 
d="M255 20v208h-197v46h197v206h48v-206h199v-46h-199v-208h-48z" />
    <glyph glyph-name="comma" unicode="," horiz-adv-x="206" 
d="M41 -123l43 217h55l-57 -217h-41z" />
    <glyph glyph-name="hyphen" unicode="-" horiz-adv-x="451" 
d="M73 256v46h306v-46h-306z" />
    <glyph glyph-name="period" unicode="." horiz-adv-x="199" 
d="M72 0v92h55v-92h-55z" />
    <glyph glyph-name="slash" unicode="/" horiz-adv-x="388" 
d="M77 -5l-44 16l278 693l45 -18z" />
    <glyph glyph-name="zero" unicode="0" 
d="M280 -9q-54 0 -97.5 15t-74 51.5t-46.5 100t-16 159.5q0 105 15.5 174t46 108t73.5 55t98 16q57 0 100.5 -16t73.5 -55t45 -107.5t15 -174.5q0 -126 -28 -197.5t-80 -100t-125 -28.5zM280 36q43 0 76.5 12.5t57 43.5t35.5 85.5t12 139.5q0 92 -11 152t-33.5 94t-56.5 48
t-81 14q-45 0 -79 -14t-56.5 -47.5t-34 -94t-11.5 -153.5q0 -85 12 -139.5t36 -85t57.5 -43t76.5 -12.5z" />
    <glyph glyph-name="one" unicode="1" 
d="M326 0v605l-181 -121l-24 39l206 137h49v-660h-50z" />
    <glyph glyph-name="two" unicode="2" 
d="M71 0v43l215 228q41 42 70.5 77t46 70.5t16.5 76.5q0 72 -41 100t-119 28q-27 0 -60 -3.5t-64 -9t-53 -11.5l-5 44q20 6 50.5 12t66.5 10t70 4q101 0 154 -39t53 -132q0 -49 -16 -87.5t-45.5 -75t-72.5 -79.5l-203 -212h356v-44h-419z" />
    <glyph glyph-name="three" unicode="3" 
d="M281 -9q-38 0 -79.5 3.5t-77 9.5t-59.5 11l6 44q23 -5 57.5 -10.5t73.5 -9t77 -3.5q83 1 122 37.5t39 107.5q0 55 -21 85.5t-56 43.5t-76 14h-134v45h133q26 0 57.5 15t55 44.5t23.5 74.5q0 66 -34 94t-117 28q-35 0 -71 -3.5t-66.5 -8.5t-50.5 -10l-6 43q20 6 51.5 11.5
t69 9t73.5 3.5q74 0 118.5 -17.5t64.5 -54.5t20 -95q0 -43 -15.5 -72t-36 -46t-37.5 -24.5t-19 -9.5q36 -10 64.5 -27t45 -49.5t16.5 -90.5q0 -65 -22.5 -108t-69 -64t-119.5 -21z" />
    <glyph glyph-name="four" unicode="4" 
d="M378 0v138h-338v40l199 482h55l-198 -477h282v215h50v-215h93v-45h-93v-138h-50z" />
    <glyph glyph-name="five" unicode="5" 
d="M281 -8q-36 0 -76 4.5t-76 10.5t-60 11l6 43q25 -4 59.5 -9.5t72.5 -9.5t71 -4q77 0 123.5 46t46.5 134q0 58 -20.5 90.5t-56.5 46t-83 13.5q-32 0 -64.5 -8t-61 -19.5t-46.5 -22.5l-40 6l19 336h376v-47h-332l-18 -247q18 10 46 21t60.5 18.5t64.5 7.5q63 0 110 -18.5
t73 -60.5t26 -114q0 -76 -26.5 -127t-76 -76t-117.5 -25z" />
    <glyph glyph-name="six" unicode="6" 
d="M285 -9q-80 0 -130.5 41t-74 118.5t-23.5 185.5q0 88 17.5 151t50.5 103.5t79 59.5t103 19q31 0 63.5 -2t61.5 -5t48 -5l-5 -43q-17 2 -45.5 4t-60 4t-62.5 2q-94 0 -145.5 -66.5t-52.5 -194.5q3 1 20.5 7.5t44 15.5t57.5 15.5t61 6.5q108 0 163.5 -49.5t55.5 -150.5
q0 -68 -26 -117t-76 -74.5t-124 -25.5zM285 36q85 0 129.5 44.5t44.5 127.5q0 79 -45.5 116.5t-124.5 37.5q-31 0 -65.5 -7t-64.5 -17.5t-51 -20.5q1 -80 18.5 -144t56 -100.5t102.5 -36.5z" />
    <glyph glyph-name="seven" unicode="7" 
d="M222 -9l-47 17l259 582v24h-353v46h405v-77z" />
    <glyph glyph-name="eight" unicode="8" 
d="M278 -9q-49 0 -93 8.5t-78.5 29t-54 54.5t-19.5 85q0 54 16.5 87t45.5 54t66 38q-37 15 -63 35t-40 49.5t-14 72.5q0 57 28.5 93.5t81 54.5t124.5 18q71 0 124.5 -17.5t83.5 -54.5t30 -95q0 -43 -14 -73t-42.5 -49.5t-70.5 -33.5q39 -13 70 -33.5t49 -52.5t18 -82
q0 -55 -19 -91.5t-53.5 -58t-79.5 -30t-96 -8.5zM278 37q56 0 100 12.5t69.5 43.5t25.5 88q0 49 -19.5 76t-52 41.5t-71.5 23.5h-113q-60 -15 -95 -47.5t-35 -101.5q0 -51 26 -81t69.5 -42.5t95.5 -12.5zM217 367h113q63 17 97.5 46.5t34.5 85.5q0 69 -49 97t-135 28
q-83 0 -132 -27.5t-49 -96.5q0 -56 30.5 -85.5t89.5 -47.5z" />
    <glyph glyph-name="nine" unicode="9" 
d="M247 -9q-30 0 -63 2t-62 5t-49 6l5 43q19 -2 46.5 -4.5t60 -4.5t62.5 -2q100 0 151 62t52 198q-24 -9 -58 -19t-69 -16.5t-65 -6.5q-102 0 -156.5 47t-54.5 150q0 67 27.5 116t78 75.5t117.5 26.5q82 0 133 -42t75 -119.5t24 -182.5q0 -94 -17 -159t-50 -103t-80 -55
t-108 -17zM262 300q28 0 62.5 7t68.5 16.5t58 18.5q-2 83 -20 146.5t-57 99.5t-104 36q-79 0 -125 -47t-46 -126q0 -80 41.5 -115.5t121.5 -35.5z" />
    <glyph glyph-name="colon" unicode=":" horiz-adv-x="200" 
d="M72 336v92h55v-92h-55zM72 0v92h55v-92h-55z" />
    <glyph glyph-name="semicolon" unicode=";" horiz-adv-x="235" 
d="M57 -123l43 217h56l-57 -217h-42zM96 336v92h54v-92h-54z" />
    <glyph glyph-name="less" unicode="&#x3c;" 
d="M480 14l-422 214v46l422 212v-53l-373 -182l373 -183v-54z" />
    <glyph glyph-name="equal" unicode="=" 
d="M67 315v46h426v-46h-426zM67 140v46h426v-46h-426z" />
    <glyph glyph-name="greater" unicode="&#x3e;" 
d="M79 14v54l373 183l-373 182v53l422 -212v-46z" />
    <glyph glyph-name="question" unicode="?" horiz-adv-x="451" 
d="M170 194q-2 11 -4 23t-2 24q0 31 15 56.5t38.5 49t49.5 46.5q36 31 55.5 53.5t27 45t7.5 54.5q0 66 -39 91t-114 25q-18 0 -47 -4.5t-59 -10.5t-53 -12l-6 44q24 6 55 12.5t61 11t51 4.5q65 0 109.5 -15.5t68 -50t23.5 -93.5q0 -42 -7.5 -69t-29 -52t-62.5 -61
q-40 -35 -67.5 -65.5t-27.5 -69.5v-37h-43zM164 1v91h54v-91h-54z" />
    <glyph glyph-name="at" unicode="@" horiz-adv-x="978" 
d="M504 -200q-111 0 -194.5 21.5t-139.5 73.5t-84.5 141.5t-28.5 224.5q0 126 28.5 213.5t85 141.5t140 79t193.5 25q152 0 245.5 -45t136 -137t42.5 -233v-16q0 -83 -8 -138t-22.5 -87t-35.5 -48t-46.5 -20.5t-55.5 -4.5q-35 0 -58.5 10t-36 25t-15.5 27
q-22 -12 -54.5 -26.5t-67 -24.5t-63.5 -10q-21 0 -44.5 4t-46 17t-41 40.5t-29.5 73.5t-11 117q0 85 18.5 144t63.5 89.5t126 30.5q30 0 66.5 -9t59.5 -18v17h49v-197q0 -90 2 -144t10.5 -80.5t26.5 -35t49 -8.5q26 0 46.5 6t35.5 30.5t23 76.5t8 143v17q0 96 -20 166
t-64 115.5t-115.5 67.5t-173.5 22q-101 0 -175.5 -22.5t-124 -71.5t-73.5 -128t-24 -194q0 -120 24 -200.5t72.5 -128.5t123.5 -68.5t177 -20.5q15 0 40.5 1.5t53 4l49.5 4.5l3 -44q-21 -2 -48 -4t-53.5 -3.5t-44.5 -1.5zM466 36q24 0 55.5 8.5t62.5 21.5t54 25q-2 24 -5 58
t-4.5 71.5t-1.5 72.5v146q-22 9 -57.5 17t-64.5 8q-66 0 -101.5 -25.5t-48.5 -75.5t-13 -121q0 -70 12 -111t30 -61.5t40 -27t42 -6.5z" />
    <glyph glyph-name="A" unicode="A" horiz-adv-x="593" 
d="M26 0l207 697h127l207 -697h-50l-60 202h-321l-60 -202h-50zM149 248h295l-120 404h-55z" />
    <glyph glyph-name="B" unicode="B" horiz-adv-x="618" 
d="M89 0v697h244q68 0 113 -18.5t68 -57t23 -98.5q0 -47 -12 -79.5t-33 -52.5t-49 -32q30 -8 57.5 -27t44.5 -52.5t17 -86.5q0 -56 -15 -93.5t-43.5 -59t-67 -31t-86.5 -9.5h-261zM139 45h210q48 0 84.5 13.5t57 45.5t20.5 90q0 49 -19 77t-46.5 41.5t-55.5 17t-48 3.5h-203
v-288zM139 378h203q51 0 82.5 16t46.5 47.5t15 79.5q0 69 -38 100t-116 31h-193v-274z" />
    <glyph glyph-name="C" unicode="C" horiz-adv-x="545" 
d="M315 -9q-78 0 -127 24t-76 69.5t-37.5 111.5t-10.5 150t10 150.5t36.5 113.5t75.5 72t129 25q35 0 69.5 -3.5t64.5 -7.5t53 -9l-3 -46q-22 5 -53.5 9.5t-65 7.5t-62.5 3q-66 0 -106.5 -21t-61 -62t-27.5 -99t-7 -133q0 -74 7.5 -131.5t28 -97t60.5 -60t106 -20.5
q45 0 94 6t87 13l3 -45q-25 -5 -55.5 -9.5t-64.5 -7.5t-67 -3z" />
    <glyph glyph-name="D" unicode="D" horiz-adv-x="647" 
d="M89 0v697h256q70 0 116.5 -27t74 -74t39.5 -108.5t12 -130.5q0 -68 -12 -132t-39.5 -115t-74 -80.5t-116.5 -29.5h-256zM139 46h206q56 0 92.5 27t58 72t30.5 100.5t9 111.5t-9 109t-30.5 95t-58 66t-92.5 24h-206v-605z" />
    <glyph glyph-name="E" unicode="E" horiz-adv-x="552" 
d="M89 0v697h414v-46h-364v-273h304v-45h-304v-287h364v-46h-414z" />
    <glyph glyph-name="F" unicode="F" horiz-adv-x="524" 
d="M89 0v697h406v-46h-356v-300h305v-45h-305v-306h-50z" />
    <glyph glyph-name="G" unicode="G" horiz-adv-x="618" 
d="M326 -9q-78 0 -129 24t-81 70t-42 112t-12 149q0 84 12 150.5t41 113.5t80 72t131 25q39 0 80.5 -4t79 -10t62.5 -12l-3 -45q-27 6 -65 11.5t-78 9.5t-73 4q-67 0 -109 -21t-65 -62t-32 -99t-9 -133q0 -99 17 -168t63 -105.5t134 -36.5q27 0 58.5 3t61.5 7.5l50 7.5v249
h-138v46h188v-334q-14 -3 -41 -7t-59.5 -8t-64.5 -6.5t-57 -2.5z" />
    <glyph glyph-name="H" unicode="H" horiz-adv-x="674" 
d="M89 0v697h50v-324h396v324h50v-697h-50v327h-396v-327h-50z" />
    <glyph glyph-name="I" unicode="I" horiz-adv-x="229" 
d="M89 0v697h50v-697h-50z" />
    <glyph glyph-name="J" unicode="J" horiz-adv-x="283" 
d="M18 -73v46q41 0 66 2.5t39 14.5t19 38t5 71v598h50v-611q0 -56 -10.5 -88.5t-32.5 -47t-55.5 -19t-80.5 -4.5z" />
    <glyph glyph-name="K" unicode="K" horiz-adv-x="558" 
d="M89 0v697h50v-331l124 1l206 330h58l-219 -350l234 -347h-62l-215 321l-126 -1v-320h-50z" />
    <glyph glyph-name="L" unicode="L" horiz-adv-x="481" 
d="M89 0v697h50v-651h329v-46h-379z" />
    <glyph glyph-name="M" unicode="M" horiz-adv-x="832" 
d="M89 0v697h98l229 -624l229 624h98v-697h-50v647h-15l-230 -625h-64l-230 625h-15v-647h-50z" />
    <glyph glyph-name="N" unicode="N" horiz-adv-x="669" 
d="M89 0v697h106l310 -651h24v651h50v-697h-104l-312 651h-24v-651h-50z" />
    <glyph glyph-name="O" unicode="O" horiz-adv-x="664" 
d="M332 -9q-108 0 -166.5 40t-81 119.5t-22.5 194.5t23 195.5t81.5 123.5t165.5 43t165.5 -42.5t81.5 -123.5t23 -196q0 -120 -22.5 -198.5t-81 -117t-166.5 -38.5zM332 36q91 0 137.5 33.5t63.5 102t17 173.5q0 101 -17.5 171.5t-64.5 107.5t-136 37q-90 0 -136.5 -37
t-64 -107t-17.5 -172q0 -101 17 -170t63.5 -104t137.5 -35z" />
    <glyph glyph-name="P" unicode="P" horiz-adv-x="594" 
d="M89 0v697h255q74 0 120.5 -23.5t69 -72t22.5 -122.5q0 -73 -22.5 -124.5t-69 -78.5t-120.5 -27h-205v-249h-50zM139 294h205q85 0 122.5 49t37.5 136q0 88 -37.5 130.5t-122.5 42.5h-205v-358z" />
    <glyph glyph-name="Q" unicode="Q" horiz-adv-x="664" 
d="M520 -141l-87 144q-21 -6 -46.5 -9t-54.5 -3q-108 0 -166.5 40t-81 119t-22.5 195q0 115 23 195.5t81.5 123.5t165.5 43t165.5 -42.5t81.5 -123.5t23 -196q0 -127 -25 -207t-94 -116l86 -140zM332 36q91 0 137.5 33.5t63.5 102t17 173.5q0 101 -17.5 171.5t-64.5 107.5
t-136 37q-90 0 -136.5 -37t-64 -107t-17.5 -172q0 -101 17 -170t63.5 -104t137.5 -35z" />
    <glyph glyph-name="R" unicode="R" horiz-adv-x="614" 
d="M89 0v697h253q71 0 118.5 -21t71 -66t23.5 -116q0 -79 -32.5 -133t-106.5 -71l150 -290h-57l-145 281h-225v-281h-50zM139 327h204q60 0 94.5 21.5t50 59t15.5 86.5q0 82 -39 120t-122 38h-203v-325z" />
    <glyph glyph-name="S" unicode="S" horiz-adv-x="541" 
d="M274 -8q-28 0 -67.5 3t-79 7.5t-69.5 7.5l5 45q30 -3 68.5 -7t76.5 -7t64 -3q54 0 91 16.5t55.5 52t18.5 92.5q0 47 -17 73.5t-53.5 40t-96.5 23.5q-52 9 -92.5 20.5t-68 32t-42 54t-14.5 86.5q0 66 27 105t76 56.5t116 17.5q28 0 65.5 -2.5t74 -6.5t62.5 -8l-5 -45
q-29 4 -67 7.5t-72.5 6.5t-55.5 3q-55 0 -92.5 -13.5t-57 -42.5t-19.5 -75q0 -56 19.5 -83.5t59.5 -40.5t102 -25q51 -9 89 -21t63 -31.5t38 -50t13 -77.5q0 -77 -25 -123.5t-73.5 -67t-116.5 -20.5z" />
    <glyph glyph-name="T" unicode="T" horiz-adv-x="526" 
d="M239 0v651h-226v46h500v-46h-224v-651h-50z" />
    <glyph glyph-name="U" unicode="U" horiz-adv-x="640" 
d="M316 -9q-72 0 -123.5 20.5t-79.5 66t-28 123.5v496h50v-497q0 -89 48.5 -126.5t132.5 -37.5q90 0 139.5 37t49.5 127v497h50v-496q0 -77 -28 -123t-81.5 -66.5t-129.5 -20.5z" />
    <glyph glyph-name="V" unicode="V" horiz-adv-x="573" 
d="M219 0l-191 697h51l177 -651h61l177 651h51l-191 -697h-135z" />
    <glyph glyph-name="W" unicode="W" horiz-adv-x="866" 
d="M180 0l-145 697h51l133 -652h35l149 644h60l149 -644h35l133 652h51l-145 -697h-111l-147 645h10l-147 -645h-111z" />
    <glyph glyph-name="X" unicode="X" horiz-adv-x="554" 
d="M23 0l222 344l-222 353h58l197 -315l196 315h57l-220 -352l220 -345h-58l-195 310l-199 -310h-56z" />
    <glyph glyph-name="Y" unicode="Y" horiz-adv-x="530" 
d="M240 0v298l-225 399h57l193 -347l193 347h57l-225 -399v-298h-50z" />
    <glyph glyph-name="Z" unicode="Z" horiz-adv-x="538" 
d="M44 -1v76l395 554v22h-395v46h450v-77l-396 -554v-21h396v-46h-450z" />
    <glyph glyph-name="bracketleft" unicode="[" horiz-adv-x="317" 
d="M83 -123v872h192v-44h-143v-784h143v-44h-192z" />
    <glyph glyph-name="backslash" unicode="\" horiz-adv-x="409" 
d="M333 -5l-304 689l46 19l304 -689z" />
    <glyph glyph-name="bracketright" unicode="]" horiz-adv-x="317" 
d="M234 -123h-192v44h143v784h-143v44h192v-872z" />
    <glyph glyph-name="asciicircum" unicode="^" 
d="M74 322l182 338h46l190 -338h-54l-159 289l-152 -289h-53z" />
    <glyph glyph-name="underscore" unicode="_" horiz-adv-x="637" 
d="M105 -145v45h428v-45h-428z" />
    <glyph glyph-name="grave" unicode="`" horiz-adv-x="222" 
d="M209 603l-203 89l20 43l200 -97z" />
    <glyph glyph-name="a" unicode="a" horiz-adv-x="497" 
d="M180 -9q-64 0 -99.5 37t-35.5 111q0 45 15 75t47 47.5t82 22.5l178 19v49q0 60 -26 86.5t-78 26.5q-26 0 -60.5 -3t-68.5 -6.5t-60 -6.5l-3 41q24 4 58 8.5t70 7.5t66 3q53 0 86 -17.5t49 -52t16 -87.5v-277q2 -22 23 -31.5t46 -11.5l-2 -41q-12 0 -24 1t-22.5 3.5
t-20.5 6.5q-12 5 -22.5 12.5t-19.5 17.5q-21 -8 -53 -18t-69 -16.5t-72 -6.5zM184 33q33 0 67 6t65 15t51 17v191l-173 -17q-54 -5 -76 -31t-22 -74q0 -51 22.5 -79t65.5 -28z" />
    <glyph glyph-name="b" unicode="b" horiz-adv-x="518" 
d="M231 -9q-24 0 -53 1.5t-55.5 3.5t-46.5 4v726h48v-255q18 9 44.5 17.5t57.5 14.5t62 6q68 0 106 -26.5t53 -82t15 -142.5q0 -95 -19 -154t-69.5 -86t-142.5 -27zM230 35q79 0 117.5 23.5t51 73t12.5 126.5q0 71 -10 116.5t-37 68t-79 22.5q-30 0 -60.5 -5.5t-57 -14
t-43.5 -16.5v-389q25 -2 57 -3.5t49 -1.5z" />
    <glyph glyph-name="c" unicode="c" horiz-adv-x="431" 
d="M262 -9q-81 0 -126 25.5t-62 85t-17 158.5q0 92 20 146.5t66 78.5t120 24q15 0 37.5 -1.5t46.5 -4.5t41 -5l-2 -42q-17 2 -39 4t-43.5 3.5t-35.5 1.5q-62 0 -96.5 -20t-49.5 -65t-15 -120q0 -82 12.5 -131.5t46.5 -71.5t102 -22q14 0 35.5 1.5t44.5 3.5t40 3l2 -42
q-19 -2 -43 -4.5t-47 -4t-38 -1.5z" />
    <glyph glyph-name="d" unicode="d" horiz-adv-x="520" 
d="M229 -9q-23 0 -47 4t-46.5 17.5t-40.5 40.5t-29 73.5t-11 116.5q0 87 19.5 146.5t65.5 89.5t126 30q22 0 47 -2t47 -5t34 -5v229h49v-726h-48v39q-17 -10 -44.5 -21.5t-59 -19t-62.5 -7.5zM232 35q30 0 60.5 7.5t57.5 18.5t44 21v372q-12 2 -35 5t-48 5t-44 2
q-65 0 -99.5 -26t-48 -75.5t-13.5 -121.5q0 -71 11.5 -112.5t30 -62t40.5 -27t44 -6.5z" />
    <glyph glyph-name="e" unicode="e" horiz-adv-x="503" 
d="M247 -9q-74 0 -116 30t-59 88t-17 140q0 98 27 154.5t72.5 81t105.5 24.5q94 0 143.5 -55t49.5 -183l-1 -41h-347q1 -95 32 -145.5t113 -50.5q27 0 60 1.5t66 3.5t57 4l2 -41q-24 -2 -57.5 -5t-68 -4.5t-62.5 -1.5zM105 272h298q0 108 -34.5 151.5t-108.5 43.5
q-48 0 -82.5 -19.5t-53.5 -62t-19 -113.5z" />
    <glyph glyph-name="f" unicode="f" horiz-adv-x="319" 
d="M96 0v457h-67v43h67v56q0 72 13 111t42 53.5t75 14.5q10 0 27.5 -0.5t36.5 -1.5t31 -2v-42q-20 1 -47.5 1.5t-42.5 0.5q-32 0 -51 -11t-27 -40.5t-8 -84.5v-55h156v-43h-156v-457h-49z" />
    <glyph glyph-name="g" unicode="g" horiz-adv-x="505" 
d="M259 -238q-82 0 -126 14.5t-61 49t-17 92.5q0 32 10 53t28.5 38t44.5 36q-12 9 -18 26.5t-6 40.5q0 6 5.5 19.5t12.5 29.5t14 29q-23 9 -41.5 26t-30.5 47.5t-12 78.5q0 60 21.5 97t61.5 54t93 17q29 0 59 -4t47 -9l142 3v-45l-103 1q17 -16 27.5 -41.5t10.5 -72.5
q0 -63 -21 -99t-62 -51.5t-103 -15.5q-7 0 -25.5 1.5t-27.5 2.5q-6 -17 -13.5 -38t-7.5 -28q0 -17 3.5 -27t15.5 -15.5t39 -7t74 -1.5q65 0 105 -10.5t58.5 -41.5t18.5 -93q0 -82 -53 -119t-163 -37zM260 -195q87 0 126 26.5t39 85.5q0 46 -13.5 68t-43.5 28.5t-79 6.5
q-9 0 -27.5 0.5t-38.5 1t-34 1t-16 0.5q-26 -18 -41.5 -32.5t-21.5 -30.5t-6 -39q0 -42 12 -68t45.5 -37t98.5 -11zM238 218q73 0 103 27t30 97q0 69 -30 97.5t-103 28.5q-67 0 -97 -28.5t-30 -97.5q0 -70 30 -97t97 -27z" />
    <glyph glyph-name="h" unicode="h" horiz-adv-x="530" 
d="M77 0v726h48v-255q19 9 47 17.5t59.5 14.5t60.5 6q52 0 84 -12.5t50.5 -41t25 -76t6.5 -117.5v-262h-49v259q0 79 -8.5 124t-34 63.5t-78.5 18.5q-30 0 -61 -5.5t-57.5 -14t-44.5 -16.5v-429h-48z" />
    <glyph glyph-name="i" unicode="i" horiz-adv-x="202" 
d="M77 0v500h48v-500h-48zM77 634v66h48v-66h-48z" />
    <glyph glyph-name="j" unicode="j" horiz-adv-x="201" 
d="M-36 -220l-20 41q42 22 68 40.5t40 38t19.5 45t5.5 64.5v491h48v-492q0 -44 -7 -75.5t-24.5 -56.5t-49 -47.5t-80.5 -48.5zM77 634v66h48v-66h-48z" />
    <glyph glyph-name="k" unicode="k" horiz-adv-x="463" 
d="M77 0v726h48v-435l90 1l162 208h57l-177 -228l185 -272h-57l-169 248l-91 -1v-247h-48z" />
    <glyph glyph-name="l" unicode="l" horiz-adv-x="214" 
d="M83 0v726h48v-726h-48z" />
    <glyph glyph-name="m" unicode="m" horiz-adv-x="835" 
d="M77 0v500h48v-38q17 10 42.5 21t56 18.5t59.5 7.5q54 0 84 -12t48 -41q20 12 49 24.5t64 20.5t69 8q51 0 83.5 -12t50.5 -40.5t25 -76t7 -118.5v-262h-48v259q0 79 -9 124t-34.5 63.5t-78.5 18.5q-32 0 -63 -7t-56.5 -17.5t-41.5 -20.5q10 -27 13 -68t3 -92v-260h-48v258
q0 80 -8.5 125t-34.5 63.5t-78 18.5q-31 0 -60.5 -7t-54 -17.5t-39.5 -20.5v-420h-48z" />
    <glyph glyph-name="n" unicode="n" horiz-adv-x="530" 
d="M77 0v500h48v-38q18 10 46 21t60 18.5t62 7.5q51 0 83.5 -12.5t50.5 -41t25 -76t7 -117.5v-262h-49v259q0 79 -8.5 124t-34 63.5t-78.5 18.5q-30 0 -61.5 -7t-58 -17.5t-44.5 -20.5v-420h-48z" />
    <glyph glyph-name="o" unicode="o" horiz-adv-x="527" 
d="M263 -9q-82 0 -127 26t-62 85t-17 156q0 91 20 146t65.5 80t120.5 25q76 0 121.5 -25t65.5 -80t20 -146q0 -97 -17 -156t-61.5 -85t-128.5 -26zM263 34q69 0 102.5 22t43.5 71.5t10 130.5q0 79 -14 124.5t-47.5 64.5t-94.5 19q-60 0 -94 -19t-48 -64.5t-14 -124.5
q0 -81 10.5 -130.5t43.5 -71.5t102 -22z" />
    <glyph glyph-name="p" unicode="p" horiz-adv-x="520" 
d="M77 -227v727h48v-40q17 11 44 22.5t58.5 19t62.5 7.5q62 0 100 -27t56.5 -82.5t18.5 -142.5q0 -94 -21.5 -153t-68.5 -86t-125 -27q-37 0 -72.5 4.5t-52.5 8.5v-231h-48zM249 34q62 0 98 22.5t51.5 71.5t15.5 129q0 115 -33 161.5t-95 46.5q-28 0 -59 -7.5t-57.5 -18.5
t-44.5 -22v-370q17 -3 52.5 -8t71.5 -5z" />
    <glyph glyph-name="q" unicode="q" horiz-adv-x="518" 
d="M393 -227v254q-23 -11 -66 -23.5t-89 -12.5q-68 0 -108 27t-57.5 83t-17.5 141q0 94 21 153t71.5 86.5t138.5 27.5q18 0 46 -1.5t57.5 -3.5t51.5 -4v-727h-48zM241 35q45 0 87.5 12t64.5 24v389q-23 2 -55 4t-51 2q-74 0 -113 -24.5t-54 -74t-15 -125.5
q0 -102 29.5 -154.5t106.5 -52.5z" />
    <glyph glyph-name="r" unicode="r" horiz-adv-x="334" 
d="M77 0v500h48v-75q19 15 49.5 32t68 32t75.5 21v-49q-35 -7 -72 -21t-68.5 -30t-52.5 -28v-382h-48z" />
    <glyph glyph-name="s" unicode="s" horiz-adv-x="463" 
d="M224 -9q-22 0 -52.5 2.5t-61.5 6.5t-55 8l4 43q24 -3 54.5 -7t59.5 -6.5t47 -2.5q45 0 77.5 8.5t50 32t17.5 66.5q0 32 -13 50t-44.5 27.5t-90.5 18.5q-57 9 -94.5 22t-55.5 38.5t-18 72.5q0 54 26 84t66 42t82 12q28 0 60.5 -2.5t63 -6.5t51.5 -7l-2 -44
q-23 4 -53.5 7.5t-62 6t-56.5 2.5q-31 0 -60 -7.5t-47 -27t-18 -56.5q0 -29 11 -45.5t41 -27t86 -19.5q65 -10 104 -24t56.5 -39.5t17.5 -73.5q0 -58 -23 -92t-65.5 -48t-102.5 -14z" />
    <glyph glyph-name="t" unicode="t" horiz-adv-x="345" 
d="M235 -10q-47 0 -75.5 15t-41.5 53.5t-13 110.5v288h-77v43h77v160h48v-160h174v-43h-174v-254q0 -68 5.5 -104.5t24 -50.5t55.5 -14q10 0 27 1t35.5 3t32.5 3l4 -42q-14 -2 -33 -4t-37.5 -3.5t-31.5 -1.5z" />
    <glyph glyph-name="u" unicode="u" horiz-adv-x="521" 
d="M226 -9q-63 0 -96.5 24t-45.5 79t-12 146v260h48v-259q0 -77 8.5 -122t33.5 -64.5t74 -19.5q52 0 93.5 15.5t66.5 29.5v420h48v-500h-48v38q-28 -16 -69 -31.5t-101 -15.5z" />
    <glyph glyph-name="v" unicode="v" horiz-adv-x="474" 
d="M179 0l-150 500h54l133 -457h42l136 457h51l-150 -500h-116z" />
    <glyph glyph-name="w" unicode="w" horiz-adv-x="758" 
d="M164 0l-130 500h50l118 -457h13l138 447h52l138 -447h13l118 457h50l-130 -500h-87l-128 429l-128 -429h-87z" />
    <glyph glyph-name="x" unicode="x" horiz-adv-x="442" 
d="M26 0l165 250l-165 250h55l140 -214l140 214h55l-166 -249l165 -251h-55l-139 213l-140 -213h-55z" />
    <glyph glyph-name="y" unicode="y" horiz-adv-x="475" 
d="M175 -227l70 227h-65l-151 500h50l139 -457h39l140 457h50l-222 -727h-50z" />
    <glyph glyph-name="z" unicode="z" horiz-adv-x="455" 
d="M42 0v44l311 412h-311v44h371v-44l-310 -412h310v-44h-371z" />
    <glyph glyph-name="braceleft" unicode="{" horiz-adv-x="348" 
d="M305 -125q-49 2 -83.5 13t-55.5 32t-31 53.5t-10 77.5q0 17 1.5 36t2.5 38q2 15 2.5 28t0.5 21q0 46 -24 73t-81 43v41q58 14 81.5 42t23.5 75q0 10 -1 24.5t-2 30.5q-1 20 -2.5 38.5t-1.5 33.5q0 46 10 78.5t31.5 54t55.5 32t83 12.5l2 -43q-53 -2 -82 -18.5
t-40.5 -45.5t-11.5 -71q0 -12 1.5 -29t2.5 -35l2 -30t1 -26q0 -43 -9.5 -70.5t-31.5 -44t-60 -28.5q38 -12 60 -29t31.5 -44t9.5 -69q0 -10 -1 -21.5t-2 -23.5q-1 -18 -2.5 -35.5t-1.5 -35.5q0 -40 11 -69.5t40 -46t83 -19.5z" />
    <glyph glyph-name="bar" unicode="|" horiz-adv-x="214" 
d="M82 -227v953h49v-953h-49z" />
    <glyph glyph-name="braceright" unicode="}" horiz-adv-x="348" 
d="M43 -125l-2 43q54 3 82.5 19.5t40 46t11.5 69.5q0 18 -1 35.5t-3 35.5q-1 12 -2 23.5t-1 21.5q0 42 9.5 69t32 44t59.5 29q-37 12 -59.5 28.5t-32 44t-9.5 70.5q0 11 1 26t2 31q2 17 3 33.5t1 29.5q0 42 -11.5 71t-40 45.5t-82.5 18.5l2 43q48 -2 82.5 -12.5t56 -32
t31.5 -54t10 -78.5q0 -15 -1 -34t-3 -37q-1 -16 -2 -31t-1 -25q0 -47 23.5 -75t81.5 -42v-41q-57 -16 -81 -43t-24 -73q0 -8 1 -21t2 -29q2 -18 3 -37t1 -36q0 -45 -10 -77.5t-31 -53.5t-55.5 -32t-83.5 -13z" />
    <glyph glyph-name="asciitilde" unicode="~" 
d="M381 206q-19 0 -47 10.5t-56.5 24t-53.5 24t-41 10.5q-13 0 -32 -8t-38 -19.5t-33 -22.5l-10 42q14 12 33 24.5t40.5 21t39.5 8.5q20 0 47.5 -10.5t55.5 -24t53.5 -24t41.5 -10.5q13 0 31.5 8t37.5 20t33 22l11 -41q-13 -12 -32.5 -25t-40 -21.5t-40.5 -8.5z" />
    <glyph glyph-name="uni00A0" unicode="&#xa0;" horiz-adv-x="220" 
 />
    <glyph glyph-name="exclamdown" unicode="&#xa1;" horiz-adv-x="212" 
d="M129 281l2 -478h-50l1 478h47zM132 500v-91h-54v91h54z" />
    <glyph glyph-name="cent" unicode="&#xa2;" 
d="M282 -84v123q-60 3 -99.5 21t-58 62.5t-18.5 124.5q0 75 18.5 121.5t57.5 69t99 24.5v126h46v-127q24 0 56.5 -4t53.5 -8l-2 -43q-16 2 -40.5 4.5t-49.5 3.5t-45 1q-78 0 -109.5 -38t-31.5 -130q0 -62 13 -97t45.5 -49.5t91.5 -14.5q20 0 44 1.5t46.5 3.5t37.5 3l2 -44
q-22 -3 -55.5 -6t-56.5 -4v-124h-45z" />
    <glyph glyph-name="sterling" unicode="&#xa3;" 
d="M82 0v45h90v321h-69v44h69v53q0 63 7.5 103.5t24.5 63t43.5 31t64.5 8.5q16 0 38.5 -2t46 -5t40.5 -6l-1 -42q-17 3 -40.5 5.5t-45.5 4t-35 1.5q-38 0 -58.5 -13.5t-28.5 -49.5t-8 -104v-48h178v-44h-178v-321h167l80 16l9 -43l-82 -18h-312z" />
    <glyph glyph-name="currency" unicode="&#xa4;" 
d="M280 78q-48 1 -87.5 24t-63 62.5t-23.5 87.5t23.5 87.5t63 63t87.5 23.5t87.5 -23.5t63 -63t23.5 -87.5t-23.5 -87.5t-63 -62.5t-87.5 -24zM106 43l-35 35l97 96l34 -34zM280 125q35 0 63.5 17.5t46 46.5t17.5 63q0 35 -17.5 63.5t-46 46t-63.5 17.5q-34 0 -63 -17.5
t-46.5 -46t-17.5 -63.5q0 -34 17.5 -63t46.5 -46.5t63 -17.5zM168 330l-97 96l35 35l96 -97zM454 43l-96 97l34 34l97 -96zM392 330l-34 34l96 97l35 -35z" />
    <glyph glyph-name="yen" unicode="&#xa5;" 
d="M256 0v175h-198v45h198v86l-11 20h-188v44h160l-186 290h56l194 -296l191 296h57l-184 -290h157v-44h-185l-11 -20v-86h197v-45h-197v-175h-50z" />
    <glyph glyph-name="brokenbar" unicode="&#xa6;" horiz-adv-x="218" 
d="M84 351v375h49v-375h-49zM84 -227v376h49v-376h-49z" />
    <glyph glyph-name="section" unicode="&#xa7;" horiz-adv-x="491" 
d="M245 -132q-22 0 -53 2t-62.5 5.5t-54.5 6.5l4 43q14 -2 31 -4t35.5 -3.5t36.5 -3t34 -2.5t28 -1q64 0 98 28.5t34 87.5q0 39 -16 57.5t-48 27.5t-80 16q-56 9 -95 24t-58.5 43.5t-19.5 77.5q0 38 18.5 72t36.5 50q-14 11 -24 26.5t-15 36.5t-5 50q0 51 21.5 84t62.5 49
t97 16q23 0 52.5 -2t57.5 -5.5t48 -6.5l-2 -43q-23 3 -53 6t-57 5t-45 2q-66 0 -100 -25t-34 -78q0 -42 16 -64t48.5 -32.5t81.5 -18.5q53 -9 89.5 -23t55.5 -41.5t19 -77.5q0 -35 -13 -71t-27 -57q12 -10 20 -23t12 -30.5t4 -42.5q0 -40 -11.5 -70.5t-34.5 -50.5t-56 -30
t-77 -10zM351 145q10 16 19.5 45t9.5 58q0 38 -15.5 58.5t-45 30t-70.5 15.5q-30 5 -56.5 10.5t-44.5 14.5q-13 -16 -27 -44t-14 -54q0 -53 33.5 -74.5t102.5 -32.5q22 -3 42 -7.5t37 -9t29 -10.5z" />
    <glyph glyph-name="dieresis" unicode="&#xa8;" horiz-adv-x="261" 
d="M203 632v72h48v-72h-48zM10 632v72h48v-72h-48z" />
    <glyph glyph-name="copyright" unicode="&#xa9;" horiz-adv-x="646" 
d="M323 166q-74 0 -132.5 36t-92 97t-33.5 135q0 75 33.5 135.5t92 97t132.5 36.5q75 0 133.5 -36.5t92 -97.5t33.5 -135t-33.5 -135t-92 -97t-133.5 -36zM324 279q-44 0 -68 18.5t-34 53.5t-10 83t9.5 82.5t34 53.5t69.5 19q21 0 42.5 -3t31.5 -6l-1 -39q-13 2 -34.5 4.5
t-38.5 2.5q-32 0 -47 -13t-19.5 -38.5t-4.5 -62.5q0 -55 13.5 -84.5t57.5 -29.5q16 0 37.5 3t35.5 5l1 -39q-12 -3 -34 -6.5t-41 -3.5zM323 202q64 0 114.5 31.5t79 84t28.5 116.5q0 48 -16.5 90t-46.5 74.5t-71 50.5t-88 18q-64 0 -114 -31.5t-79 -84.5t-29 -117t29 -116.5
t79 -84t114 -31.5z" />
    <glyph glyph-name="ordfeminine" unicode="&#xaa;" horiz-adv-x="373" 
d="M310 375q-19 4 -32.5 9t-23 14.5t-15.5 23.5v146q0 31 -11.5 41.5t-39.5 10.5q-19 0 -51 -3t-55 -5l-4 36q24 4 56.5 7.5t55.5 3.5q47 0 69 -21t22 -71v-135q6 -9 15.5 -14t19.5 -7zM134 376q-33 0 -54 23t-21 61t20.5 57.5t61.5 22.5l104 6l1 -35l-100 -7
q-25 -1 -34.5 -11t-9.5 -32q0 -23 10 -35t28 -12q28 0 60.5 7.5t52.5 14.5l8 -32q-23 -10 -58.5 -19t-68.5 -9z" />
    <glyph glyph-name="guillemotleft" unicode="&#xab;" horiz-adv-x="511" 
d="M439 86l-175 143v44l175 134v-53l-131 -101l131 -113v-54zM222 86l-175 143v44l175 134v-53l-132 -101l132 -113v-54z" />
    <glyph glyph-name="logicalnot" unicode="&#xac;" 
d="M446 123v167h-377v45h424v-212h-47z" />
    <glyph glyph-name="uni00AD" unicode="&#xad;" horiz-adv-x="452" 
d="M73 256v46h306v-46h-306z" />
    <glyph glyph-name="registered" unicode="&#xae;" horiz-adv-x="646" 
d="M323 166q-74 0 -132.5 36t-92 97t-33.5 135q0 75 33.5 135.5t92 97t132.5 36.5q75 0 133.5 -36.5t92 -97.5t33.5 -135t-33.5 -135t-92 -97t-133.5 -36zM322 202q65 0 115.5 31.5t79 84t28.5 116.5q0 48 -16.5 90t-47 74.5t-71 50.5t-87.5 18q-48 0 -88.5 -18t-70.5 -50.5
t-46.5 -75t-16.5 -89.5q0 -48 16.5 -90t46.5 -74t70.5 -50t87.5 -18zM218 285v297h99q56 0 84.5 -19.5t28.5 -71.5q0 -36 -12 -57.5t-44 -31.5l62 -117h-44l-61 113h-72v-113h-41zM259 434h73q31 0 44.5 12.5t13.5 43.5q0 32 -18 44t-56 12h-57v-112z" />
    <glyph glyph-name="macron" unicode="&#xaf;" horiz-adv-x="222" 
d="M-18 636v41h270v-41h-270z" />
    <glyph glyph-name="degree" unicode="&#xb0;" 
d="M280 432q-62 0 -100 37.5t-38 99.5t38 100t100 38t100 -38t38 -100t-38 -99.5t-100 -37.5zM280 469q45 0 72.5 28t27.5 72q0 45 -27.5 72.5t-72.5 27.5t-71.5 -27.5t-26.5 -72.5t26.5 -72.5t71.5 -27.5z" />
    <glyph glyph-name="plusminus" unicode="&#xb1;" 
d="M255 165v138h-197v46h197v134h48v-134h199v-46h-199v-138h-48zM58 46v46h444v-46h-444z" />
    <glyph glyph-name="uni00B2" unicode="&#xb2;" horiz-adv-x="280" 
d="M34 478v39l95 101q22 22 37 43.5t15 49.5q0 24 -15 35.5t-39 11.5q-18 0 -44 -3.5t-44 -6.5l-2 39q18 5 45.5 8.5t50.5 3.5q48 0 71 -21.5t23 -65.5q0 -23 -7 -41.5t-20.5 -36t-35.5 -39.5l-74 -75h143v-42h-199z" />
    <glyph glyph-name="uni00B3" unicode="&#xb3;" horiz-adv-x="280" 
d="M140 469q-23 0 -54.5 3.5t-50.5 6.5l3 40q17 -3 47 -6t48 -3q35 0 50.5 13t15.5 41q0 31 -15.5 43t-39.5 12h-65v40h65q16 0 31 16.5t15 42.5q0 21 -14 30.5t-44 9.5q-20 0 -46.5 -3t-43.5 -6l-3 42q20 3 47.5 5.5t49.5 2.5q52 0 76 -18.5t24 -60.5q0 -33 -13.5 -52
t-30.5 -25q25 -7 38.5 -22.5t13.5 -53.5q0 -51 -25 -74.5t-79 -23.5z" />
    <glyph glyph-name="acute" unicode="&#xb4;" horiz-adv-x="268" 
d="M52 603l-17 35l200 97l20 -43z" />
    <glyph glyph-name="uni03BC" unicode="&#xb5;" horiz-adv-x="513" 
d="M226 -9q-63 0 -96.5 24t-45.5 79t-12 146v260h48v-259q0 -77 8.5 -122t33.5 -64.5t74 -19.5q52 0 93.5 15.5t66.5 29.5v420h48v-500h-48v38q-28 -16 -69 -31.5t-101 -15.5zM72 -185v500h48v-500h-48z" />
    <glyph glyph-name="paragraph" unicode="&#xb6;" horiz-adv-x="590" 
d="M231 0v341h-6q-52 0 -94.5 22t-67.5 62.5t-25 92.5q0 54 25 94t67.5 62.5t94.5 22.5h328v-44h-89v-653h-46v653h-140v-653h-47z" />
    <glyph glyph-name="periodcentered" unicode="&#xb7;" horiz-adv-x="200" 
d="M73 256v92h55v-92h-55z" />
    <glyph glyph-name="cedilla" unicode="&#xb8;" horiz-adv-x="263" 
d="M130 -206q-24 0 -47 1.5t-36 3.5l2 34q13 -1 35.5 -2t38.5 -1q22 0 34.5 9.5t12.5 33.5q0 22 -12.5 30.5t-34.5 8.5h-50v89h36v-55q37 0 60.5 -6t35 -22t11.5 -45q0 -43 -24 -61t-62 -18z" />
    <glyph glyph-name="uni00B9" unicode="&#xb9;" horiz-adv-x="280" 
d="M140 478v262l-78 -52l-21 34l100 68h43v-312h-44z" />
    <glyph glyph-name="ordmasculine" unicode="&#xba;" horiz-adv-x="362" 
d="M182 376q-61 0 -92 35t-31 108t31 106.5t92 33.5q60 0 90 -33.5t30 -106.5t-30 -108t-90 -35zM182 418q41 0 57.5 23.5t16.5 77.5t-16.5 76t-57.5 22t-59 -22t-18 -76t18 -77.5t59 -23.5z" />
    <glyph glyph-name="guillemotright" unicode="&#xbb;" horiz-adv-x="512" 
d="M290 86v54l131 113l-131 101v53l174 -134v-44zM72 86v54l132 113l-132 101v53l175 -134v-44z" />
    <glyph glyph-name="onequarter" unicode="&#xbc;" horiz-adv-x="561" 
d="M140 478v262l-78 -52l-21 34l100 68h43v-312h-44zM89 8l-33 20l392 631l33 -21zM420 -112v54h-144v39l82 219h49l-82 -217h95l2 89h43v-89h34v-41h-34v-54h-45z" />
    <glyph glyph-name="onehalf" unicode="&#xbd;" horiz-adv-x="561" 
d="M140 478v262l-78 -52l-21 34l100 68h43v-312h-44zM89 8l-33 20l392 631l33 -21zM315 -112v39l95 101q22 22 37 43.5t15 49.5q0 24 -15 35.5t-39 11.5q-18 0 -44 -3.5t-44 -6.5l-2 39q18 5 45.5 8.5t50.5 3.5q48 0 71 -21.5t23 -65.5q0 -23 -7 -41.5t-20.5 -36
t-35.5 -39.5l-74 -75h143v-42h-199z" />
    <glyph glyph-name="threequarters" unicode="&#xbe;" horiz-adv-x="561" 
d="M140 469q-23 0 -54.5 3.5t-50.5 6.5l3 40q17 -3 47 -6t48 -3q35 0 50.5 13t15.5 41q0 31 -15.5 43t-39.5 12h-65v40h65q16 0 31 16.5t15 42.5q0 21 -14 30.5t-44 9.5q-20 0 -46.5 -3t-43.5 -6l-3 42q20 3 47.5 5.5t49.5 2.5q52 0 76 -18.5t24 -60.5q0 -33 -13.5 -52
t-30.5 -25q25 -7 38.5 -22.5t13.5 -53.5q0 -51 -25 -74.5t-79 -23.5zM89 8l-33 20l392 631l33 -21zM420 -112v54h-144v39l82 219h49l-82 -217h95l2 89h43v-89h34v-41h-34v-54h-45z" />
    <glyph glyph-name="questiondown" unicode="&#xbf;" horiz-adv-x="445" 
d="M278 307q2 -10 3.5 -22t1.5 -25q0 -30 -14.5 -55.5t-38 -49t-49.5 -47.5q-35 -31 -55 -53.5t-28 -44.5t-8 -55q0 -66 39.5 -91t114.5 -25q19 0 47.5 4.5t58.5 10.5t53 12l5 -44q-23 -6 -54 -12t-61 -11t-51 -5q-65 0 -110 15.5t-68 50.5t-23 93q0 42 7.5 69t29 52
t62.5 61q39 35 66.5 65.5t27.5 69.5v37h44zM284 500v-91h-54v91h54z" />
    <glyph glyph-name="Agrave" unicode="&#xc0;" horiz-adv-x="593" 
d="M26 0l207 697h127l207 -697h-50l-60 202h-321l-60 -202h-50zM149 248h295l-120 404h-55zM374 792l-202 90l19 43l200 -97z" />
    <glyph glyph-name="Aacute" unicode="&#xc1;" horiz-adv-x="593" 
d="M26 0l207 697h127l207 -697h-50l-60 202h-321l-60 -202h-50zM149 248h295l-120 404h-55zM214 792l-18 36l201 97l19 -43z" />
    <glyph glyph-name="Acircumflex" unicode="&#xc2;" horiz-adv-x="593" 
d="M26 0l207 697h127l207 -697h-50l-60 202h-321l-60 -202h-50zM149 248h295l-120 404h-55zM141 803l134 128h42l134 -128h-58l-97 91l-96 -91h-59z" />
    <glyph glyph-name="Atilde" unicode="&#xc3;" horiz-adv-x="593" 
d="M26 0l207 697h127l207 -697h-50l-60 202h-321l-60 -202h-50zM149 248h295l-120 404h-55zM377 823q-16 0 -38.5 8.5t-46.5 20.5t-44 20.5t-31 8.5q-12 0 -33 -17t-36 -34l-13 38q11 13 24.5 25.5t29 21.5t28.5 9q17 0 39.5 -9t45.5 -20t43 -19.5t32 -8.5q10 0 29 15.5
t33 31.5l13 -38q-8 -11 -21 -23.5t-27 -21t-27 -8.5z" />
    <glyph glyph-name="Adieresis" unicode="&#xc4;" horiz-adv-x="593" 
d="M26 0l207 697h127l207 -697h-50l-60 202h-321l-60 -202h-50zM149 248h295l-120 404h-55zM372 828v71h47v-71h-47zM173 828v71h48v-71h-48z" />
    <glyph glyph-name="Aring" unicode="&#xc5;" horiz-adv-x="593" 
d="M26 0l207 697h127l207 -697h-50l-60 202h-321l-60 -202h-50zM149 248h295l-120 404h-55zM295 658q-46 0 -75 25.5t-29 70.5q0 31 13 52.5t37 33t54 11.5q46 0 75 -25.5t29 -71.5q0 -45 -29 -70.5t-75 -25.5zM295 695q20 0 34 7t21.5 20t7.5 32q0 29 -16.5 44t-46.5 15
q-20 0 -34 -6.5t-21.5 -20t-7.5 -32.5q0 -28 17 -43.5t46 -15.5z" />
    <glyph glyph-name="AE" unicode="&#xc6;" horiz-adv-x="878" 
d="M23 0l242 699h563v-48h-363v-268h303v-47h-303v-289h363v-47h-413v201h-267l-71 -201h-54zM163 249h252l1 402h-114z" />
    <glyph glyph-name="Ccedilla" unicode="&#xc7;" horiz-adv-x="545" 
d="M315 -9q-78 0 -127 24t-76 69.5t-37.5 111.5t-10.5 150t10 150.5t36.5 113.5t75.5 72t129 25q35 0 69.5 -3.5t64.5 -7.5t53 -9l-3 -46q-22 5 -53.5 9.5t-65 7.5t-62.5 3q-66 0 -106.5 -21t-61 -62t-27.5 -99t-7 -133q0 -74 7.5 -131.5t28 -97t60.5 -60t106 -20.5
q45 0 94 6t87 13l3 -45q-25 -5 -55.5 -9.5t-64.5 -7.5t-67 -3zM346 -206q-24 0 -47 1.5t-36 3.5l2 34q13 -1 35.5 -2t38.5 -1q22 0 34.5 9.5t12.5 33.5q0 22 -12.5 30.5t-34.5 8.5h-50v89h36v-55q37 0 60.5 -6t35 -22t11.5 -45q0 -43 -24 -61t-62 -18z" />
    <glyph glyph-name="Egrave" unicode="&#xc8;" horiz-adv-x="552" 
d="M89 0v697h414v-46h-364v-273h304v-45h-304v-287h364v-46h-414zM384 792l-202 90l19 43l200 -97z" />
    <glyph glyph-name="Eacute" unicode="&#xc9;" horiz-adv-x="552" 
d="M89 0v697h414v-46h-364v-273h304v-45h-304v-287h364v-46h-414zM204 792l-18 36l201 97l19 -43z" />
    <glyph glyph-name="Ecircumflex" unicode="&#xca;" horiz-adv-x="552" 
d="M89 0v697h414v-46h-364v-273h304v-45h-304v-287h364v-46h-414zM137 803l134 128h42l134 -128h-58l-97 91l-96 -91h-59z" />
    <glyph glyph-name="Edieresis" unicode="&#xcb;" horiz-adv-x="552" 
d="M89 0v697h414v-46h-364v-273h304v-45h-304v-287h364v-46h-414zM371 828v71h47v-71h-47zM172 828v71h48v-71h-48z" />
    <glyph glyph-name="Igrave" unicode="&#xcc;" horiz-adv-x="229" 
d="M89 0v697h50v-697h-50zM183 792l-202 90l19 43l200 -97z" />
    <glyph glyph-name="Iacute" unicode="&#xcd;" horiz-adv-x="229" 
d="M89 0v697h50v-697h-50zM33 792l-18 36l201 97l19 -43z" />
    <glyph glyph-name="Icircumflex" unicode="&#xce;" horiz-adv-x="229" 
d="M89 0v697h50v-697h-50zM-46 803l134 128h42l134 -128h-58l-97 91l-96 -91h-59z" />
    <glyph glyph-name="Idieresis" unicode="&#xcf;" horiz-adv-x="229" 
d="M89 0v697h50v-697h-50zM190 828v71h47v-71h-47zM-9 828v71h48v-71h-48z" />
    <glyph glyph-name="Eth" unicode="&#xd0;" horiz-adv-x="650" 
d="M18 326v48h294v-48h-294zM92 0v697h256q69 0 115.5 -27t74 -74t39.5 -108.5t12 -130.5q0 -68 -11.5 -132t-39.5 -115t-74.5 -80.5t-115.5 -29.5h-256zM142 46h206q55 0 91.5 27t58 72t30.5 100.5t9 111.5t-9 109t-30.5 95t-58 66t-91.5 24h-206v-605z" />
    <glyph glyph-name="Ntilde" unicode="&#xd1;" horiz-adv-x="669" 
d="M89 0v697h106l310 -651h24v651h50v-697h-104l-312 651h-24v-651h-50zM416 823q-16 0 -38.5 8.5t-46.5 20.5t-44 20.5t-31 8.5q-12 0 -33 -17t-36 -34l-13 38q11 13 24.5 25.5t29 21.5t28.5 9q17 0 39.5 -9t45.5 -20t43 -19.5t32 -8.5q10 0 29 15.5t33 31.5l13 -38
q-8 -11 -21 -23.5t-27 -21t-27 -8.5z" />
    <glyph glyph-name="Ograve" unicode="&#xd2;" horiz-adv-x="664" 
d="M332 -9q-108 0 -166.5 40t-81 119.5t-22.5 194.5t23 195.5t81.5 123.5t165.5 43t165.5 -42.5t81.5 -123.5t23 -196q0 -120 -22.5 -198.5t-81 -117t-166.5 -38.5zM332 36q91 0 137.5 33.5t63.5 102t17 173.5q0 101 -17.5 171.5t-64.5 107.5t-136 37q-90 0 -136.5 -37
t-64 -107t-17.5 -172q0 -101 17 -170t63.5 -104t137.5 -35zM419 792l-202 90l19 43l200 -97z" />
    <glyph glyph-name="Oacute" unicode="&#xd3;" horiz-adv-x="664" 
d="M332 -9q-108 0 -166.5 40t-81 119.5t-22.5 194.5t23 195.5t81.5 123.5t165.5 43t165.5 -42.5t81.5 -123.5t23 -196q0 -120 -22.5 -198.5t-81 -117t-166.5 -38.5zM332 36q91 0 137.5 33.5t63.5 102t17 173.5q0 101 -17.5 171.5t-64.5 107.5t-136 37q-90 0 -136.5 -37
t-64 -107t-17.5 -172q0 -101 17 -170t63.5 -104t137.5 -35zM230 792l-18 36l201 97l19 -43z" />
    <glyph glyph-name="Ocircumflex" unicode="&#xd4;" horiz-adv-x="664" 
d="M332 -9q-108 0 -166.5 40t-81 119.5t-22.5 194.5t23 195.5t81.5 123.5t165.5 43t165.5 -42.5t81.5 -123.5t23 -196q0 -120 -22.5 -198.5t-81 -117t-166.5 -38.5zM332 36q91 0 137.5 33.5t63.5 102t17 173.5q0 101 -17.5 171.5t-64.5 107.5t-136 37q-90 0 -136.5 -37
t-64 -107t-17.5 -172q0 -101 17 -170t63.5 -104t137.5 -35zM177 803l134 128h42l134 -128h-58l-97 91l-96 -91h-59z" />
    <glyph glyph-name="Otilde" unicode="&#xd5;" horiz-adv-x="664" 
d="M332 -9q-108 0 -166.5 40t-81 119.5t-22.5 194.5t23 195.5t81.5 123.5t165.5 43t165.5 -42.5t81.5 -123.5t23 -196q0 -120 -22.5 -198.5t-81 -117t-166.5 -38.5zM332 36q91 0 137.5 33.5t63.5 102t17 173.5q0 101 -17.5 171.5t-64.5 107.5t-136 37q-90 0 -136.5 -37
t-64 -107t-17.5 -172q0 -101 17 -170t63.5 -104t137.5 -35zM412 823q-16 0 -38.5 8.5t-46.5 20.5t-44 20.5t-31 8.5q-12 0 -33 -17t-36 -34l-13 38q11 13 24.5 25.5t29 21.5t28.5 9q17 0 39.5 -9t45.5 -20t43 -19.5t32 -8.5q10 0 29 15.5t33 31.5l13 -38q-8 -11 -21 -23.5
t-27 -21t-27 -8.5z" />
    <glyph glyph-name="Odieresis" unicode="&#xd6;" horiz-adv-x="664" 
d="M332 -9q-108 0 -166.5 40t-81 119.5t-22.5 194.5t23 195.5t81.5 123.5t165.5 43t165.5 -42.5t81.5 -123.5t23 -196q0 -120 -22.5 -198.5t-81 -117t-166.5 -38.5zM332 36q91 0 137.5 33.5t63.5 102t17 173.5q0 101 -17.5 171.5t-64.5 107.5t-136 37q-90 0 -136.5 -37
t-64 -107t-17.5 -172q0 -101 17 -170t63.5 -104t137.5 -35zM408 828v71h47v-71h-47zM209 828v71h48v-71h-48z" />
    <glyph glyph-name="multiply" unicode="&#xd7;" 
d="M110 49l-32 32l171 170l-171 170l32 32l170 -171l170 171l32 -32l-171 -170l171 -170l-32 -32l-170 171z" />
    <glyph glyph-name="Oslash" unicode="&#xd8;" horiz-adv-x="664" 
d="M320 261l-40 16l243 518l39 -17zM145 -112l-39 17l230 492l39 -18zM332 -9q-108 0 -166.5 40t-81 119.5t-22.5 194.5t23 195.5t81.5 123.5t165.5 43t165.5 -42.5t81.5 -123.5t23 -196q0 -120 -22.5 -198.5t-81 -117t-166.5 -38.5zM332 36q91 0 137.5 33.5t63.5 102
t17 173.5q0 101 -17.5 171.5t-64.5 107.5t-136 37q-90 0 -136.5 -37t-64 -107t-17.5 -172q0 -101 17 -170t63.5 -104t137.5 -35z" />
    <glyph glyph-name="Ugrave" unicode="&#xd9;" horiz-adv-x="640" 
d="M316 -9q-72 0 -123.5 20.5t-79.5 66t-28 123.5v496h50v-497q0 -89 48.5 -126.5t132.5 -37.5q90 0 139.5 37t49.5 127v497h50v-496q0 -77 -28 -123t-81.5 -66.5t-129.5 -20.5zM407 792l-202 90l19 43l200 -97z" />
    <glyph glyph-name="Uacute" unicode="&#xda;" horiz-adv-x="640" 
d="M316 -9q-72 0 -123.5 20.5t-79.5 66t-28 123.5v496h50v-497q0 -89 48.5 -126.5t132.5 -37.5q90 0 139.5 37t49.5 127v497h50v-496q0 -77 -28 -123t-81.5 -66.5t-129.5 -20.5zM227 792l-18 36l201 97l19 -43z" />
    <glyph glyph-name="Ucircumflex" unicode="&#xdb;" horiz-adv-x="640" 
d="M316 -9q-72 0 -123.5 20.5t-79.5 66t-28 123.5v496h50v-497q0 -89 48.5 -126.5t132.5 -37.5q90 0 139.5 37t49.5 127v497h50v-496q0 -77 -28 -123t-81.5 -66.5t-129.5 -20.5zM164 803l134 128h42l134 -128h-58l-97 91l-96 -91h-59z" />
    <glyph glyph-name="Udieresis" unicode="&#xdc;" horiz-adv-x="640" 
d="M316 -9q-72 0 -123.5 20.5t-79.5 66t-28 123.5v496h50v-497q0 -89 48.5 -126.5t132.5 -37.5q90 0 139.5 37t49.5 127v497h50v-496q0 -77 -28 -123t-81.5 -66.5t-129.5 -20.5zM396 828v71h47v-71h-47zM197 828v71h48v-71h-48z" />
    <glyph glyph-name="Yacute" unicode="&#xdd;" horiz-adv-x="530" 
d="M240 0v298l-225 399h57l193 -347l193 347h57l-225 -399v-298h-50zM200 792l-18 36l201 97l19 -43z" />
    <glyph glyph-name="Thorn" unicode="&#xde;" horiz-adv-x="600" 
d="M89 0v699h50v-119h205q74 0 120.5 -23t69 -70.5t22.5 -121.5q0 -73 -22.5 -125.5t-69 -81t-120.5 -28.5h-205v-130h-50zM139 178h205q85 0 122.5 50.5t37.5 136.5t-37.5 127t-122.5 41h-205v-355z" />
    <glyph glyph-name="germandbls" unicode="&#xdf;" horiz-adv-x="558" 
d="M317 -9q-15 0 -37.5 1.5t-44.5 4.5t-38 5l2 43q17 -2 39 -4t43 -3.5t34 -1.5q87 0 118.5 35t31.5 105q0 34 -10 55.5t-35.5 40t-70.5 40.5q-40 20 -61.5 34.5t-30.5 30t-9 38.5q0 21 9.5 35.5t26.5 25.5t41 22q24 10 36 23t17 31t5 43q0 52 -27 73.5t-99 21.5
q-46 0 -75 -11.5t-43 -43t-14 -91.5v-544h-48v556q0 51 10.5 85.5t32 55.5t55.5 29.5t82 8.5q66 0 105 -14.5t56 -45t17 -79.5q0 -34 -7.5 -59t-24.5 -41.5t-44 -28.5q-23 -10 -36 -17.5t-18.5 -15t-5.5 -18.5q0 -10 7.5 -19.5t26 -20.5t52.5 -28q49 -25 77.5 -47t41.5 -49
t13 -69q0 -67 -19.5 -110t-63.5 -62.5t-117 -19.5z" />
    <glyph glyph-name="agrave" unicode="&#xe0;" horiz-adv-x="497" 
d="M180 -9q-64 0 -99.5 37t-35.5 111q0 45 15 75t47 47.5t82 22.5l178 19v49q0 60 -26 86.5t-78 26.5q-26 0 -60.5 -3t-68.5 -6.5t-60 -6.5l-3 41q24 4 58 8.5t70 7.5t66 3q53 0 86 -17.5t49 -52t16 -87.5v-277q2 -22 23 -31.5t46 -11.5l-2 -41q-12 0 -24 1t-22.5 3.5
t-20.5 6.5q-12 5 -22.5 12.5t-19.5 17.5q-21 -8 -53 -18t-69 -16.5t-72 -6.5zM184 33q33 0 67 6t65 15t51 17v191l-173 -17q-54 -5 -76 -31t-22 -74q0 -51 22.5 -79t65.5 -28zM332 603l-203 89l20 43l200 -97z" />
    <glyph glyph-name="aacute" unicode="&#xe1;" horiz-adv-x="497" 
d="M180 -9q-64 0 -99.5 37t-35.5 111q0 45 15 75t47 47.5t82 22.5l178 19v49q0 60 -26 86.5t-78 26.5q-26 0 -60.5 -3t-68.5 -6.5t-60 -6.5l-3 41q24 4 58 8.5t70 7.5t66 3q53 0 86 -17.5t49 -52t16 -87.5v-277q2 -22 23 -31.5t46 -11.5l-2 -41q-12 0 -24 1t-22.5 3.5
t-20.5 6.5q-12 5 -22.5 12.5t-19.5 17.5q-21 -8 -53 -18t-69 -16.5t-72 -6.5zM184 33q33 0 67 6t65 15t51 17v191l-173 -17q-54 -5 -76 -31t-22 -74q0 -51 22.5 -79t65.5 -28zM144 603l-17 35l200 97l20 -43z" />
    <glyph glyph-name="acircumflex" unicode="&#xe2;" horiz-adv-x="497" 
d="M180 -9q-64 0 -99.5 37t-35.5 111q0 45 15 75t47 47.5t82 22.5l178 19v49q0 60 -26 86.5t-78 26.5q-26 0 -60.5 -3t-68.5 -6.5t-60 -6.5l-3 41q24 4 58 8.5t70 7.5t66 3q53 0 86 -17.5t49 -52t16 -87.5v-277q2 -22 23 -31.5t46 -11.5l-2 -41q-12 0 -24 1t-22.5 3.5
t-20.5 6.5q-12 5 -22.5 12.5t-19.5 17.5q-21 -8 -53 -18t-69 -16.5t-72 -6.5zM184 33q33 0 67 6t65 15t51 17v191l-173 -17q-54 -5 -76 -31t-22 -74q0 -51 22.5 -79t65.5 -28zM100 597l121 135h36l123 -135h-54l-86 96l-86 -96h-54z" />
    <glyph glyph-name="atilde" unicode="&#xe3;" horiz-adv-x="497" 
d="M180 -9q-64 0 -99.5 37t-35.5 111q0 45 15 75t47 47.5t82 22.5l178 19v49q0 60 -26 86.5t-78 26.5q-26 0 -60.5 -3t-68.5 -6.5t-60 -6.5l-3 41q24 4 58 8.5t70 7.5t66 3q53 0 86 -17.5t49 -52t16 -87.5v-277q2 -22 23 -31.5t46 -11.5l-2 -41q-12 0 -24 1t-22.5 3.5
t-20.5 6.5q-12 5 -22.5 12.5t-19.5 17.5q-21 -8 -53 -18t-69 -16.5t-72 -6.5zM184 33q33 0 67 6t65 15t51 17v191l-173 -17q-54 -5 -76 -31t-22 -74q0 -51 22.5 -79t65.5 -28zM315 624q-16 0 -35.5 7.5t-40 18t-39 18t-30.5 7.5q-11 0 -33 -14.5t-38 -28.5l-12 36
q11 10 26 21.5t30.5 19t28.5 7.5q14 0 34 -7.5t40.5 -17.5t39 -17.5t30.5 -7.5q11 0 30.5 13.5t33.5 26.5l12 -36q-9 -10 -22 -20.5t-27.5 -18t-27.5 -7.5z" />
    <glyph glyph-name="adieresis" unicode="&#xe4;" horiz-adv-x="497" 
d="M180 -9q-64 0 -99.5 37t-35.5 111q0 45 15 75t47 47.5t82 22.5l178 19v49q0 60 -26 86.5t-78 26.5q-26 0 -60.5 -3t-68.5 -6.5t-60 -6.5l-3 41q24 4 58 8.5t70 7.5t66 3q53 0 86 -17.5t49 -52t16 -87.5v-277q2 -22 23 -31.5t46 -11.5l-2 -41q-12 0 -24 1t-22.5 3.5
t-20.5 6.5q-12 5 -22.5 12.5t-19.5 17.5q-21 -8 -53 -18t-69 -16.5t-72 -6.5zM184 33q33 0 67 6t65 15t51 17v191l-173 -17q-54 -5 -76 -31t-22 -74q0 -51 22.5 -79t65.5 -28zM330 632v72h48v-72h-48zM137 632v72h48v-72h-48z" />
    <glyph glyph-name="aring" unicode="&#xe5;" horiz-adv-x="497" 
d="M180 -9q-64 0 -99.5 37t-35.5 111q0 45 15 75t47 47.5t82 22.5l178 19v49q0 60 -26 86.5t-78 26.5q-26 0 -60.5 -3t-68.5 -6.5t-60 -6.5l-3 41q24 4 58 8.5t70 7.5t66 3q53 0 86 -17.5t49 -52t16 -87.5v-277q2 -22 23 -31.5t46 -11.5l-2 -41q-12 0 -24 1t-22.5 3.5
t-20.5 6.5q-12 5 -22.5 12.5t-19.5 17.5q-21 -8 -53 -18t-69 -16.5t-72 -6.5zM184 33q33 0 67 6t65 15t51 17v191l-173 -17q-54 -5 -76 -31t-22 -74q0 -51 22.5 -79t65.5 -28zM252 550q-42 0 -70.5 28.5t-28.5 69.5q0 28 13 50t35.5 35t50.5 13q41 0 69 -28t28 -70
q0 -41 -28 -69.5t-69 -28.5zM251 587q17 0 30.5 8t21 22.5t7.5 30.5q0 26 -16.5 43.5t-42.5 17.5q-16 0 -30 -8t-21.5 -22t-7.5 -31q0 -25 17.5 -43t41.5 -18z" />
    <glyph glyph-name="ae" unicode="&#xe6;" horiz-adv-x="813" 
d="M175 -9q-63 0 -96.5 37.5t-33.5 110.5q0 56 19 85.5t59.5 43t105.5 21.5l138 14v48q0 60 -26.5 85.5t-76.5 25.5q-27 0 -61.5 -1.5t-68 -3.5t-58.5 -4l-3 45q25 2 58.5 5t69.5 4.5t65 1.5q56 0 90 -22t47 -66q27 48 70.5 68t96.5 20q95 0 144.5 -55t49.5 -183l-2 -41
h-346q0 -95 31 -145t114 -50q26 0 59.5 1.5t66 3.5t56.5 4l2 -42q-24 -2 -57.5 -5t-68 -4.5t-62.5 -1.5q-52 0 -87.5 15t-56.5 41q-40 -17 -78 -30t-77 -19.5t-83 -6.5zM180 34q32 0 66 6.5t64.5 14.5t52.5 15t28 10q-15 32 -20.5 79t-5.5 101l-171 -16q-51 -4 -74.5 -29
t-23.5 -75q0 -52 22.5 -79t61.5 -27zM416 272h298q0 106 -35 149.5t-109 43.5q-72 0 -113 -44.5t-41 -148.5z" />
    <glyph glyph-name="ccedilla" unicode="&#xe7;" horiz-adv-x="431" 
d="M262 -9q-81 0 -126 25.5t-62 85t-17 158.5q0 92 20 146.5t66 78.5t120 24q15 0 37.5 -1.5t46.5 -4.5t41 -5l-2 -42q-17 2 -39 4t-43.5 3.5t-35.5 1.5q-62 0 -96.5 -20t-49.5 -65t-15 -120q0 -82 12.5 -131.5t46.5 -71.5t102 -22q14 0 35.5 1.5t44.5 3.5t40 3l2 -42
q-19 -2 -43 -4.5t-47 -4t-38 -1.5zM266 -206q-24 0 -47 1.5t-36 3.5l2 34q13 -1 35.5 -2t38.5 -1q22 0 34.5 9.5t12.5 33.5q0 22 -12.5 30.5t-34.5 8.5h-50v89h36v-55q37 0 60.5 -6t35 -22t11.5 -45q0 -43 -24 -61t-62 -18z" />
    <glyph glyph-name="egrave" unicode="&#xe8;" horiz-adv-x="503" 
d="M247 -9q-74 0 -116 30t-59 88t-17 140q0 98 27 154.5t72.5 81t105.5 24.5q94 0 143.5 -55t49.5 -183l-1 -41h-347q1 -95 32 -145.5t113 -50.5q27 0 60 1.5t66 3.5t57 4l2 -41q-24 -2 -57.5 -5t-68 -4.5t-62.5 -1.5zM105 272h298q0 108 -34.5 151.5t-108.5 43.5
q-48 0 -82.5 -19.5t-53.5 -62t-19 -113.5zM328 604l-203 89l20 43l200 -97z" />
    <glyph glyph-name="eacute" unicode="&#xe9;" horiz-adv-x="503" 
d="M247 -9q-74 0 -116 30t-59 88t-17 140q0 98 27 154.5t72.5 81t105.5 24.5q94 0 143.5 -55t49.5 -183l-1 -41h-347q1 -95 32 -145.5t113 -50.5q27 0 60 1.5t66 3.5t57 4l2 -41q-24 -2 -57.5 -5t-68 -4.5t-62.5 -1.5zM105 272h298q0 108 -34.5 151.5t-108.5 43.5
q-48 0 -82.5 -19.5t-53.5 -62t-19 -113.5zM179 603l-17 35l200 97l20 -43z" />
    <glyph glyph-name="ecircumflex" unicode="&#xea;" horiz-adv-x="503" 
d="M247 -9q-74 0 -116 30t-59 88t-17 140q0 98 27 154.5t72.5 81t105.5 24.5q94 0 143.5 -55t49.5 -183l-1 -41h-347q1 -95 32 -145.5t113 -50.5q27 0 60 1.5t66 3.5t57 4l2 -41q-24 -2 -57.5 -5t-68 -4.5t-62.5 -1.5zM105 272h298q0 108 -34.5 151.5t-108.5 43.5
q-48 0 -82.5 -19.5t-53.5 -62t-19 -113.5zM123 597l121 135h36l123 -135h-54l-86 96l-86 -96h-54z" />
    <glyph glyph-name="edieresis" unicode="&#xeb;" horiz-adv-x="503" 
d="M247 -9q-74 0 -116 30t-59 88t-17 140q0 98 27 154.5t72.5 81t105.5 24.5q94 0 143.5 -55t49.5 -183l-1 -41h-347q1 -95 32 -145.5t113 -50.5q27 0 60 1.5t66 3.5t57 4l2 -41q-24 -2 -57.5 -5t-68 -4.5t-62.5 -1.5zM105 272h298q0 108 -34.5 151.5t-108.5 43.5
q-48 0 -82.5 -19.5t-53.5 -62t-19 -113.5zM343 632v72h48v-72h-48zM150 632v72h48v-72h-48z" />
    <glyph glyph-name="igrave" unicode="&#xec;" horiz-adv-x="202" 
d="M77 0v500h48v-500h-48zM143 603l-203 89l20 43l200 -97z" />
    <glyph glyph-name="iacute" unicode="&#xed;" horiz-adv-x="202" 
d="M77 0v500h48v-500h-48zM58 603l-17 35l200 97l20 -43z" />
    <glyph glyph-name="icircumflex" unicode="&#xee;" horiz-adv-x="202" 
d="M77 0v500h48v-500h-48zM-40 597l121 135h36l123 -135h-54l-86 96l-86 -96h-54z" />
    <glyph glyph-name="idieresis" unicode="&#xef;" horiz-adv-x="202" 
d="M77 0v500h48v-500h-48zM184 632v72h48v-72h-48zM-9 632v72h48v-72h-48z" />
    <glyph glyph-name="eth" unicode="&#xf0;" horiz-adv-x="539" 
d="M262 -9q-102 0 -160 57.5t-58 165.5q0 64 24.5 112t70.5 74.5t111 26.5q28 0 61.5 -6.5t65.5 -16t54 -19.5q-2 47 -20.5 92.5t-57.5 85.5t-100.5 74t-150.5 59l13 39q120 -31 202 -83.5t123.5 -126.5t41.5 -171q0 -133 -22.5 -213t-71 -115t-126.5 -35zM262 37
q61 0 98 27.5t54 93.5t18 181q-23 10 -55 19t-64.5 16t-59.5 7q-50 0 -86 -21.5t-54 -59t-18 -86.5q0 -85 43 -131t124 -46zM154 544l-25 34l247 166l25 -34z" />
    <glyph glyph-name="ntilde" unicode="&#xf1;" horiz-adv-x="530" 
d="M77 0v500h48v-38q18 10 46 21t60 18.5t62 7.5q51 0 83.5 -12.5t50.5 -41t25 -76t7 -117.5v-262h-49v259q0 79 -8.5 124t-34 63.5t-78.5 18.5q-30 0 -61.5 -7t-58 -17.5t-44.5 -20.5v-420h-48zM351 624q-16 0 -35.5 7.5t-40 18t-39 18t-30.5 7.5q-11 0 -33 -14.5
t-38 -28.5l-12 36q11 10 26 21.5t30.5 19t28.5 7.5q14 0 34 -7.5t40.5 -17.5t39 -17.5t30.5 -7.5q11 0 30.5 13.5t33.5 26.5l12 -36q-9 -10 -22 -20.5t-27.5 -18t-27.5 -7.5z" />
    <glyph glyph-name="ograve" unicode="&#xf2;" horiz-adv-x="527" 
d="M263 -9q-82 0 -127 26t-62 85t-17 156q0 91 20 146t65.5 80t120.5 25q76 0 121.5 -25t65.5 -80t20 -146q0 -97 -17 -156t-61.5 -85t-128.5 -26zM263 34q69 0 102.5 22t43.5 71.5t10 130.5q0 79 -14 124.5t-47.5 64.5t-94.5 19q-60 0 -94 -19t-48 -64.5t-14 -124.5
q0 -81 10.5 -130.5t43.5 -71.5t102 -22zM352 603l-203 89l20 43l200 -97z" />
    <glyph glyph-name="oacute" unicode="&#xf3;" horiz-adv-x="527" 
d="M263 -9q-82 0 -127 26t-62 85t-17 156q0 91 20 146t65.5 80t120.5 25q76 0 121.5 -25t65.5 -80t20 -146q0 -97 -17 -156t-61.5 -85t-128.5 -26zM263 34q69 0 102.5 22t43.5 71.5t10 130.5q0 79 -14 124.5t-47.5 64.5t-94.5 19q-60 0 -94 -19t-48 -64.5t-14 -124.5
q0 -81 10.5 -130.5t43.5 -71.5t102 -22zM187 603l-17 35l200 97l20 -43z" />
    <glyph glyph-name="ocircumflex" unicode="&#xf4;" horiz-adv-x="527" 
d="M263 -9q-82 0 -127 26t-62 85t-17 156q0 91 20 146t65.5 80t120.5 25q76 0 121.5 -25t65.5 -80t20 -146q0 -97 -17 -156t-61.5 -85t-128.5 -26zM263 34q69 0 102.5 22t43.5 71.5t10 130.5q0 79 -14 124.5t-47.5 64.5t-94.5 19q-60 0 -94 -19t-48 -64.5t-14 -124.5
q0 -81 10.5 -130.5t43.5 -71.5t102 -22zM123 597l121 135h36l123 -135h-54l-86 96l-86 -96h-54z" />
    <glyph glyph-name="otilde" unicode="&#xf5;" horiz-adv-x="527" 
d="M263 -9q-82 0 -127 26t-62 85t-17 156q0 91 20 146t65.5 80t120.5 25q76 0 121.5 -25t65.5 -80t20 -146q0 -97 -17 -156t-61.5 -85t-128.5 -26zM263 34q69 0 102.5 22t43.5 71.5t10 130.5q0 79 -14 124.5t-47.5 64.5t-94.5 19q-60 0 -94 -19t-48 -64.5t-14 -124.5
q0 -81 10.5 -130.5t43.5 -71.5t102 -22zM339 624q-16 0 -35.5 7.5t-40 18t-39 18t-30.5 7.5q-11 0 -33 -14.5t-38 -28.5l-12 36q11 10 26 21.5t30.5 19t28.5 7.5q14 0 34 -7.5t40.5 -17.5t39 -17.5t30.5 -7.5q11 0 30.5 13.5t33.5 26.5l12 -36q-9 -10 -22 -20.5t-27.5 -18
t-27.5 -7.5z" />
    <glyph glyph-name="odieresis" unicode="&#xf6;" horiz-adv-x="527" 
d="M263 -9q-82 0 -127 26t-62 85t-17 156q0 91 20 146t65.5 80t120.5 25q76 0 121.5 -25t65.5 -80t20 -146q0 -97 -17 -156t-61.5 -85t-128.5 -26zM263 34q69 0 102.5 22t43.5 71.5t10 130.5q0 79 -14 124.5t-47.5 64.5t-94.5 19q-60 0 -94 -19t-48 -64.5t-14 -124.5
q0 -81 10.5 -130.5t43.5 -71.5t102 -22zM346 632v72h48v-72h-48zM153 632v72h48v-72h-48z" />
    <glyph glyph-name="divide" unicode="&#xf7;" 
d="M57 228v46h446v-46h-446zM254 36v87h51v-87h-51zM254 379v87h51v-87h-51z" />
    <glyph glyph-name="oslash" unicode="&#xf8;" horiz-adv-x="527" 
d="M137 -113l-37 13l289 705l37 -13zM137 -113l-37 13l289 705l37 -13zM263 -9q-82 0 -127 26t-62 85t-17 156q0 91 20 146t65.5 80t120.5 25q76 0 121.5 -25t65.5 -80t20 -146q0 -97 -17 -156t-61.5 -85t-128.5 -26zM263 34q69 0 102.5 22t43.5 71.5t10 130.5
q0 79 -14 124.5t-47.5 64.5t-94.5 19q-60 0 -94 -19t-48 -64.5t-14 -124.5q0 -81 10.5 -130.5t43.5 -71.5t102 -22z" />
    <glyph glyph-name="ugrave" unicode="&#xf9;" horiz-adv-x="521" 
d="M226 -9q-63 0 -96.5 24t-45.5 79t-12 146v260h48v-259q0 -77 8.5 -122t33.5 -64.5t74 -19.5q52 0 93.5 15.5t66.5 29.5v420h48v-500h-48v38q-28 -16 -69 -31.5t-101 -15.5zM324 603l-203 89l20 43l200 -97z" />
    <glyph glyph-name="uacute" unicode="&#xfa;" horiz-adv-x="521" 
d="M226 -9q-63 0 -96.5 24t-45.5 79t-12 146v260h48v-259q0 -77 8.5 -122t33.5 -64.5t74 -19.5q52 0 93.5 15.5t66.5 29.5v420h48v-500h-48v38q-28 -16 -69 -31.5t-101 -15.5zM183 603l-17 35l200 97l20 -43z" />
    <glyph glyph-name="ucircumflex" unicode="&#xfb;" horiz-adv-x="521" 
d="M226 -9q-63 0 -96.5 24t-45.5 79t-12 146v260h48v-259q0 -77 8.5 -122t33.5 -64.5t74 -19.5q52 0 93.5 15.5t66.5 29.5v420h48v-500h-48v38q-28 -16 -69 -31.5t-101 -15.5zM116 597l121 135h36l123 -135h-54l-86 96l-86 -96h-54z" />
    <glyph glyph-name="udieresis" unicode="&#xfc;" horiz-adv-x="521" 
d="M226 -9q-63 0 -96.5 24t-45.5 79t-12 146v260h48v-259q0 -77 8.5 -122t33.5 -64.5t74 -19.5q52 0 93.5 15.5t66.5 29.5v420h48v-500h-48v38q-28 -16 -69 -31.5t-101 -15.5zM350 632v72h48v-72h-48zM157 632v72h48v-72h-48z" />
    <glyph glyph-name="yacute" unicode="&#xfd;" horiz-adv-x="475" 
d="M175 -227l70 227h-65l-151 500h50l139 -457h39l140 457h50l-222 -727h-50zM184 603l-17 35l200 97l20 -43z" />
    <glyph glyph-name="thorn" unicode="&#xfe;" horiz-adv-x="519" 
d="M77 -227v953h48v-255q18 9 44.5 17.5t57.5 14.5t62 6q68 0 106 -25.5t53 -80.5t15 -143q0 -95 -19 -154.5t-68.5 -87t-140.5 -27.5q-22 0 -55 2t-55 4v-224h-48zM233 34q78 0 116.5 24.5t50.5 74.5t12 125q0 72 -10 118t-37 67.5t-79 21.5q-30 0 -60.5 -5.5t-57 -14
t-43.5 -16.5v-389q25 -2 57 -4t51 -2z" />
    <glyph glyph-name="ydieresis" unicode="&#xff;" horiz-adv-x="475" 
d="M175 -227l70 227h-65l-151 500h50l139 -457h39l140 457h50l-222 -727h-50zM322 632v72h48v-72h-48zM129 632v72h48v-72h-48z" />
    <glyph glyph-name="Amacron" unicode="&#x100;" horiz-adv-x="593" 
d="M26 0l207 697h127l207 -697h-50l-60 202h-321l-60 -202h-50zM149 248h295l-120 404h-55zM149 825v41h296v-41h-296z" />
    <glyph glyph-name="amacron" unicode="&#x101;" horiz-adv-x="497" 
d="M180 -9q-64 0 -99.5 37t-35.5 111q0 45 15 75t47 47.5t82 22.5l178 19v49q0 60 -26 86.5t-78 26.5q-26 0 -60.5 -3t-68.5 -6.5t-60 -6.5l-3 41q24 4 58 8.5t70 7.5t66 3q53 0 86 -17.5t49 -52t16 -87.5v-277q2 -22 23 -31.5t46 -11.5l-2 -41q-12 0 -24 1t-22.5 3.5
t-20.5 6.5q-12 5 -22.5 12.5t-19.5 17.5q-21 -8 -53 -18t-69 -16.5t-72 -6.5zM184 33q33 0 67 6t65 15t51 17v191l-173 -17q-54 -5 -76 -31t-22 -74q0 -51 22.5 -79t65.5 -28zM114 636v41h270v-41h-270z" />
    <glyph glyph-name="Abreve" unicode="&#x102;" horiz-adv-x="593" 
d="M26 0l207 697h127l207 -697h-50l-60 202h-321l-60 -202h-50zM149 248h295l-120 404h-55zM295 799q-40 0 -72.5 15t-51.5 42.5t-20 65.5h47q0 -39 29 -61t68 -22q40 0 69 22t29 61h47q-1 -38 -20 -65.5t-51.5 -42.5t-73.5 -15z" />
    <glyph glyph-name="abreve" unicode="&#x103;" horiz-adv-x="497" 
d="M180 -9q-64 0 -99.5 37t-35.5 111q0 45 15 75t47 47.5t82 22.5l178 19v49q0 60 -26 86.5t-78 26.5q-26 0 -60.5 -3t-68.5 -6.5t-60 -6.5l-3 41q24 4 58 8.5t70 7.5t66 3q53 0 86 -17.5t49 -52t16 -87.5v-277q2 -22 23 -31.5t46 -11.5l-2 -41q-12 0 -24 1t-22.5 3.5
t-20.5 6.5q-12 5 -22.5 12.5t-19.5 17.5q-21 -8 -53 -18t-69 -16.5t-72 -6.5zM184 33q33 0 67 6t65 15t51 17v191l-173 -17q-54 -5 -76 -31t-22 -74q0 -51 22.5 -79t65.5 -28zM252 594q-43 0 -74.5 17.5t-49 47.5t-18.5 67h44q1 -40 26.5 -66t71.5 -26t71.5 26.5t25.5 65.5
h44q0 -28 -10 -52.5t-28.5 -42t-44.5 -27.5t-58 -10z" />
    <glyph glyph-name="Aogonek" unicode="&#x104;" horiz-adv-x="593" 
d="M26 0l207 697h127l207 -697h-50l-60 202h-321l-60 -202h-50zM149 248h295l-120 404h-55zM523 -202q-30 0 -49 12.5t-28 30.5t-9 35q0 22 13 46t32 46.5t38 38.5l43 -7q-22 -21 -40 -43t-28 -41.5t-10 -35.5t11.5 -27.5t33.5 -11.5q11 0 26 2.5t26 4.5l8 -42
q-14 -2 -33.5 -5t-33.5 -3z" />
    <glyph glyph-name="aogonek" unicode="&#x105;" horiz-adv-x="497" 
d="M180 -9q-64 0 -99.5 37t-35.5 111q0 45 15 75t47 47.5t82 22.5l178 19v49q0 60 -26 86.5t-78 26.5q-26 0 -60.5 -3t-68.5 -6.5t-60 -6.5l-3 41q24 4 58 8.5t70 7.5t66 3q53 0 86 -17.5t49 -52t16 -87.5v-277q2 -22 23 -31.5t46 -11.5l-2 -41q-12 0 -24 1t-22.5 3.5
t-20.5 6.5q-12 5 -22.5 12.5t-19.5 17.5q-21 -8 -53 -18t-69 -16.5t-72 -6.5zM184 33q33 0 67 6t65 15t51 17v191l-173 -17q-54 -5 -76 -31t-22 -74q0 -51 22.5 -79t65.5 -28zM418 -202q-30 0 -49 12.5t-28 30.5t-9 35q0 22 13 46t32 46.5t38 38.5l43 -7q-22 -21 -40 -43
t-28 -41.5t-10 -35.5t11.5 -27.5t33.5 -11.5q11 0 26 2.5t26 4.5l8 -42q-14 -2 -33.5 -5t-33.5 -3z" />
    <glyph glyph-name="Cacute" unicode="&#x106;" horiz-adv-x="545" 
d="M315 -9q-78 0 -127 24t-76 69.5t-37.5 111.5t-10.5 150t10 150.5t36.5 113.5t75.5 72t129 25q35 0 69.5 -3.5t64.5 -7.5t53 -9l-3 -46q-22 5 -53.5 9.5t-65 7.5t-62.5 3q-66 0 -106.5 -21t-61 -62t-27.5 -99t-7 -133q0 -74 7.5 -131.5t28 -97t60.5 -60t106 -20.5
q45 0 94 6t87 13l3 -45q-25 -5 -55.5 -9.5t-64.5 -7.5t-67 -3zM215 792l-18 36l201 97l19 -43z" />
    <glyph glyph-name="cacute" unicode="&#x107;" horiz-adv-x="431" 
d="M262 -9q-81 0 -126 25.5t-62 85t-17 158.5q0 92 20 146.5t66 78.5t120 24q15 0 37.5 -1.5t46.5 -4.5t41 -5l-2 -42q-17 2 -39 4t-43.5 3.5t-35.5 1.5q-62 0 -96.5 -20t-49.5 -65t-15 -120q0 -82 12.5 -131.5t46.5 -71.5t102 -22q14 0 35.5 1.5t44.5 3.5t40 3l2 -42
q-19 -2 -43 -4.5t-47 -4t-38 -1.5zM156 603l-17 35l200 97l20 -43z" />
    <glyph glyph-name="Ccircumflex" unicode="&#x108;" horiz-adv-x="545" 
d="M315 -9q-78 0 -127 24t-76 69.5t-37.5 111.5t-10.5 150t10 150.5t36.5 113.5t75.5 72t129 25q35 0 69.5 -3.5t64.5 -7.5t53 -9l-3 -46q-22 5 -53.5 9.5t-65 7.5t-62.5 3q-66 0 -106.5 -21t-61 -62t-27.5 -99t-7 -133q0 -74 7.5 -131.5t28 -97t60.5 -60t106 -20.5
q45 0 94 6t87 13l3 -45q-25 -5 -55.5 -9.5t-64.5 -7.5t-67 -3zM160 803l134 128h42l134 -128h-58l-97 91l-96 -91h-59z" />
    <glyph glyph-name="ccircumflex" unicode="&#x109;" horiz-adv-x="431" 
d="M262 -9q-81 0 -126 25.5t-62 85t-17 158.5q0 92 20 146.5t66 78.5t120 24q15 0 37.5 -1.5t46.5 -4.5t41 -5l-2 -42q-17 2 -39 4t-43.5 3.5t-35.5 1.5q-62 0 -96.5 -20t-49.5 -65t-15 -120q0 -82 12.5 -131.5t46.5 -71.5t102 -22q14 0 35.5 1.5t44.5 3.5t40 3l2 -42
q-19 -2 -43 -4.5t-47 -4t-38 -1.5zM97 597l121 135h36l123 -135h-54l-86 96l-86 -96h-54z" />
    <glyph glyph-name="Cdotaccent" unicode="&#x10a;" horiz-adv-x="545" 
d="M315 -9q-78 0 -127 24t-76 69.5t-37.5 111.5t-10.5 150t10 150.5t36.5 113.5t75.5 72t129 25q35 0 69.5 -3.5t64.5 -7.5t53 -9l-3 -46q-22 5 -53.5 9.5t-65 7.5t-62.5 3q-66 0 -106.5 -21t-61 -62t-27.5 -99t-7 -133q0 -74 7.5 -131.5t28 -97t60.5 -60t106 -20.5
q45 0 94 6t87 13l3 -45q-25 -5 -55.5 -9.5t-64.5 -7.5t-67 -3zM271 814v66h48v-66h-48z" />
    <glyph glyph-name="cdotaccent" unicode="&#x10b;" horiz-adv-x="431" 
d="M262 -9q-81 0 -126 25.5t-62 85t-17 158.5q0 92 20 146.5t66 78.5t120 24q15 0 37.5 -1.5t46.5 -4.5t41 -5l-2 -42q-17 2 -39 4t-43.5 3.5t-35.5 1.5q-62 0 -96.5 -20t-49.5 -65t-15 -120q0 -82 12.5 -131.5t46.5 -71.5t102 -22q14 0 35.5 1.5t44.5 3.5t40 3l2 -42
q-19 -2 -43 -4.5t-47 -4t-38 -1.5zM224 633v66h48v-66h-48z" />
    <glyph glyph-name="Ccaron" unicode="&#x10c;" horiz-adv-x="545" 
d="M315 -9q-78 0 -127 24t-76 69.5t-37.5 111.5t-10.5 150t10 150.5t36.5 113.5t75.5 72t129 25q35 0 69.5 -3.5t64.5 -7.5t53 -9l-3 -46q-22 5 -53.5 9.5t-65 7.5t-62.5 3q-66 0 -106.5 -21t-61 -62t-27.5 -99t-7 -133q0 -74 7.5 -131.5t28 -97t60.5 -60t106 -20.5
q45 0 94 6t87 13l3 -45q-25 -5 -55.5 -9.5t-64.5 -7.5t-67 -3zM280 803l-134 128h59l96 -90l96 90h59l-134 -128h-42z" />
    <glyph glyph-name="ccaron" unicode="&#x10d;" horiz-adv-x="431" 
d="M262 -9q-81 0 -126 25.5t-62 85t-17 158.5q0 92 20 146.5t66 78.5t120 24q15 0 37.5 -1.5t46.5 -4.5t41 -5l-2 -42q-17 2 -39 4t-43.5 3.5t-35.5 1.5q-62 0 -96.5 -20t-49.5 -65t-15 -120q0 -82 12.5 -131.5t46.5 -71.5t102 -22q14 0 35.5 1.5t44.5 3.5t40 3l2 -42
q-19 -2 -43 -4.5t-47 -4t-38 -1.5zM221 597l-122 135h53l88 -95l86 95h54l-123 -135h-36z" />
    <glyph glyph-name="Dcaron" unicode="&#x10e;" horiz-adv-x="647" 
d="M89 0v697h256q70 0 116.5 -27t74 -74t39.5 -108.5t12 -130.5q0 -68 -12 -132t-39.5 -115t-74 -80.5t-116.5 -29.5h-256zM139 46h206q56 0 92.5 27t58 72t30.5 100.5t9 111.5t-9 109t-30.5 95t-58 66t-92.5 24h-206v-605zM269 803l-134 128h59l96 -90l96 90h59l-134 -128
h-42z" />
    <glyph glyph-name="dcaron" unicode="&#x10f;" horiz-adv-x="535" 
d="M506 491l38 195h50l-47 -195h-41zM229 -9q-23 0 -47 4t-46.5 17.5t-40.5 40.5t-29 73.5t-11 116.5q0 87 19.5 146.5t65.5 89.5t126 30q22 0 47 -2t47 -5t34 -5v229h49v-726h-48v39q-17 -10 -44.5 -21.5t-59 -19t-62.5 -7.5zM232 35q30 0 60.5 7.5t57.5 18.5t44 21v372
q-12 2 -35 5t-48 5t-44 2q-65 0 -99.5 -26t-48 -75.5t-13.5 -121.5q0 -71 11.5 -112.5t30 -62t40.5 -27t44 -6.5z" />
    <glyph glyph-name="Dcroat" unicode="&#x110;" horiz-adv-x="650" 
d="M18 326v48h294v-48h-294zM92 0v697h256q69 0 115.5 -27t74 -74t39.5 -108.5t12 -130.5q0 -68 -11.5 -132t-39.5 -115t-74.5 -80.5t-115.5 -29.5h-256zM142 46h206q55 0 91.5 27t58 72t30.5 100.5t9 111.5t-9 109t-30.5 95t-58 66t-91.5 24h-206v-605z" />
    </font>
</defs>
</svg>
