<?xml version="1.0" standalone="no"?>
<!DOCTYPE svg PUBLIC "-//W3C//DTD SVG 1.1//EN" "http://www.w3.org/Graphics/SVG/1.1/DTD/svg11.dtd" >
<svg xmlns="http://www.w3.org/2000/svg" xmlns:xlink="http://www.w3.org/1999/xlink" version="1.1">
<metadata>
Created by FontForge 20201107 at Mon Mar  6 16:33:34 2023
 By 
Copyright 2009 The Cairo Project Authors (https://github.com/Gue3bara/Cairo)
</metadata>
<defs>
<font id="Cairo-Regular" horiz-adv-x="560" >
  <font-face 
    font-family="Cairo"
    font-weight="400"
    font-stretch="normal"
    units-per-em="1000"
    panose-1="0 0 0 0 0 0 0 0 0 0"
    ascent="800"
    descent="-200"
    x-height="500"
    cap-height="691"
    bbox="-224 -430 1667 1084"
    underline-thickness="50"
    underline-position="-125"
    unicode-range="U+0010-FEFC"
  />
<missing-glyph horiz-adv-x="235" 
d="M21 709h186v-709h-186v709zM41 689v-669h146v669h-146z" />
    <glyph glyph-name="uniFC43" unicode="&#xfedf;&#xfef0;" horiz-adv-x="1020" arabic-form="isolated" 
d="M866 0v717h78v-717h-78zM745 0v71h121v-71h-121zM745 0q-6 0 -10 2.5t-6 7t-3 11.5t-1 15q0 11 1.5 18.5t6 12t12.5 4.5v-71zM315 -248q-58 0 -108 16.5t-87.5 46t-58.5 70.5t-21 90q0 20 3.5 53t9 74.5t12.5 84.5l77 -11q-11 -67 -17.5 -122t-6.5 -78q0 -45 25 -79.5
t69.5 -54t102.5 -19.5h283q76 0 115.5 42t39.5 123v33h77v-34q0 -69 -27 -122t-78.5 -83t-126.5 -30h-283zM695 0q-34 0 -68.5 7t-68.5 29l44 59q14 -9 27 -14.5t29 -7.5t37 -2h189v-71h-189zM884 0v71q6 0 10 -2.5t6 -7t3 -11t1 -14.5t-1 -15t-3 -11.5t-6 -7t-10 -2.5z" />
    <glyph glyph-name="uniFC44" unicode="&#xfedf;&#xfef2;" horiz-adv-x="1020" arabic-form="isolated" 
d="M866 0v717h78v-717h-78zM745 0v71h121v-71h-121zM745 0q-6 0 -10 2.5t-6 7t-3 11.5t-1 15q0 11 1.5 18.5t6 12t12.5 4.5v-71zM315 -248q-58 0 -108 16.5t-87.5 46t-58.5 70.5t-21 90q0 20 3.5 53t9 74.5t12.5 84.5l77 -11q-11 -67 -17.5 -122t-6.5 -78q0 -45 25 -79.5
t69.5 -54t102.5 -19.5h283q76 0 115.5 42t39.5 123v33h77v-34q0 -69 -27 -122t-78.5 -83t-126.5 -30h-283zM695 0q-34 0 -68.5 7t-68.5 29l44 59q14 -9 27 -14.5t29 -7.5t37 -2h189v-71h-189zM884 0v71q6 0 10 -2.5t6 -7t3 -11t1 -14.5t-1 -15t-3 -11.5t-6 -7t-10 -2.5z
M328 -430v90h78v-90h-78zM465 -430v90h78v-90h-78z" />
    <glyph glyph-name="uniFC64" unicode="&#xfe8c;&#xfeae;" horiz-adv-x="594" arabic-form="final" 
d="M408 0v500h78v-458l-36 29h144v-71h-186zM192 330v72h216v-72h-216zM9 -221q-13 0 -27.5 1.5t-28.5 2.5l9 71q14 -1 26 -2.5t21 -1.5q47 0 76 35.5t29 98.5v516h78v-516q0 -61 -23.5 -107.5t-64.5 -72t-95 -25.5zM594 0v71q6 0 10 -2.5t6 -7t3 -11t1 -14.5t-1 -15
t-3 -11.5t-6 -7t-10 -2.5zM400 590q-16 20 -24.5 39t-8.5 40q0 29 14.5 52t38.5 36t52 13q16 0 32 -4.5t28 -12.5l-26 -45q-8 5 -15.5 6.5t-15.5 1.5q-23 0 -36.5 -13t-13.5 -34q0 -13 5.5 -25t16.5 -26zM348 590v53h197v-53h-197z" />
    <glyph glyph-name="uniFC65" unicode="&#xfe8c;&#xfeb0;" horiz-adv-x="594" arabic-form="final" 
d="M408 0v500h78v-458l-36 29h144v-71h-186zM192 330v72h216v-72h-216zM9 -221q-13 0 -27.5 1.5t-28.5 2.5l9 71q14 -1 26 -2.5t21 -1.5q47 0 76 35.5t29 98.5v516h78v-516q0 -61 -23.5 -107.5t-64.5 -72t-95 -25.5zM594 0v71q6 0 10 -2.5t6 -7t3 -11t1 -14.5t-1 -15
t-3 -11.5t-6 -7t-10 -2.5zM400 590q-16 20 -24.5 39t-8.5 40q0 29 14.5 52t38.5 36t52 13q16 0 32 -4.5t28 -12.5l-26 -45q-8 5 -15.5 6.5t-15.5 1.5q-23 0 -36.5 -13t-13.5 -34q0 -13 5.5 -25t16.5 -26zM348 590v53h197v-53h-197zM114 590v90h78v-90h-78z" />
    <glyph glyph-name="uniFC67" unicode="&#xfe8c;&#xfee6;" horiz-adv-x="993" arabic-form="final" 
d="M807 0v500h78v-458l-36 29h144v-71h-186zM591 330v72h216v-72h-216zM321 -248q-79 0 -143 29t-101 81t-37 119q0 21 3.5 55.5t9 77t12.5 86t13 82.5l77 -12q-11 -69 -19.5 -127.5t-13 -100t-4.5 -61.5q0 -46 25.5 -81.5t71.5 -56t106 -20.5t103 19t66 53t23 80v525h78
v-525q0 -70 -36.5 -120t-97.5 -76.5t-136 -26.5zM278 500v90h78v-90h-78zM993 0v71q6 0 10 -2.5t6 -7t3 -11t1 -14.5t-1 -15t-3 -11.5t-6 -7t-10 -2.5zM799 590q-16 20 -24.5 39t-8.5 40q0 29 14.5 52t38.5 36t52 13q16 0 32 -4.5t28 -12.5l-26 -45q-8 5 -15.5 6.5
t-15.5 1.5q-23 0 -36.5 -13t-13.5 -34q0 -13 5.5 -25t16.5 -26zM747 590v53h197v-53h-197z" />
    <glyph glyph-name="uniFC68" unicode="&#xfe8c;&#xfef0;" horiz-adv-x="1111" arabic-form="final" 
d="M315 -248q-58 0 -108 16.5t-87.5 46t-58.5 70.5t-21 90q0 20 3.5 53t9 74.5t12.5 84.5l77 -11q-11 -67 -17.5 -122t-6.5 -78q0 -45 25 -79.5t69.5 -54t102.5 -19.5h283q76 0 115.5 41.5t39.5 126.5q0 41 -12.5 64.5t-44 39.5t-89.5 33q-51 15 -92 29t-70 33t-44.5 49
t-15.5 78q0 62 25.5 102.5t73.5 60.5t116 20l-3 -71q-46 0 -76 -11.5t-44.5 -35t-14.5 -61.5q0 -31 10 -50t31 -31.5t52 -22t73 -21.5q47 -13 84 -28.5t63.5 -38t40.5 -57t14 -85.5q0 -69 -27 -122t-78.5 -83t-126.5 -30h-283zM925 0v500h78v-458l-36 29h144v-71h-186z
M597 429l3 71h325v-71h-328zM1111 0v71q6 0 10 -2.5t6 -7t3 -11t1 -14.5t-1 -15t-3 -11.5t-6 -7t-10 -2.5zM858 573q-16 20 -24.5 39t-8.5 40q0 29 14.5 52t38.5 36t52 13q16 0 32 -4.5t28 -12.5l-26 -45q-8 5 -15.5 6.5t-15.5 1.5q-23 0 -36.5 -13t-13.5 -34q0 -13 5.5 -25
t16.5 -26zM806 573v53h197v-53h-197z" />
    <glyph glyph-name="uniFC69" unicode="&#xfe8c;&#xfef2;" horiz-adv-x="1111" arabic-form="final" 
d="M315 -248q-58 0 -108 16.5t-87.5 46t-58.5 70.5t-21 90q0 20 3.5 53t9 74.5t12.5 84.5l77 -11q-11 -67 -17.5 -122t-6.5 -78q0 -45 25 -79.5t69.5 -54t102.5 -19.5h283q76 0 115.5 41.5t39.5 126.5q0 41 -12.5 64.5t-44 39.5t-89.5 33q-51 15 -92 29t-70 33t-44.5 49
t-15.5 78q0 62 25.5 102.5t73.5 60.5t116 20l-3 -71q-46 0 -76 -11.5t-44.5 -35t-14.5 -61.5q0 -31 10 -50t31 -31.5t52 -22t73 -21.5q47 -13 84 -28.5t63.5 -38t40.5 -57t14 -85.5q0 -69 -27 -122t-78.5 -83t-126.5 -30h-283zM925 0v500h78v-458l-36 29h144v-71h-186z
M597 429l3 71h325v-71h-328zM1111 0v71q6 0 10 -2.5t6 -7t3 -11t1 -14.5t-1 -15t-3 -11.5t-6 -7t-10 -2.5zM858 573q-16 20 -24.5 39t-8.5 40q0 29 14.5 52t38.5 36t52 13q16 0 32 -4.5t28 -12.5l-26 -45q-8 5 -15.5 6.5t-15.5 1.5q-23 0 -36.5 -13t-13.5 -34q0 -13 5.5 -25
t16.5 -26zM806 573v53h197v-53h-197zM328 -430v90h78v-90h-78zM465 -430v90h78v-90h-78z" />
    <glyph glyph-name="uniFC6A" unicode="&#xfe92;&#xfeae;" horiz-adv-x="594" arabic-form="final" 
d="M408 0v500h78v-458l-36 29h144v-71h-186zM192 330v72h216v-72h-216zM9 -221q-13 0 -27.5 1.5t-28.5 2.5l9 71q14 -1 26 -2.5t21 -1.5q47 0 76 35.5t29 98.5v516h78v-516q0 -61 -23.5 -107.5t-64.5 -72t-95 -25.5zM594 0v71q6 0 10 -2.5t6 -7t3 -11t1 -14.5t-1 -15
t-3 -11.5t-6 -7t-10 -2.5zM408 -180v90h78v-90h-78z" />
    <glyph glyph-name="uniFC6B" unicode="&#xfe92;&#xfeb0;" horiz-adv-x="594" arabic-form="final" 
d="M408 0v500h78v-458l-36 29h144v-71h-186zM192 330v72h216v-72h-216zM9 -221q-13 0 -27.5 1.5t-28.5 2.5l9 71q14 -1 26 -2.5t21 -1.5q47 0 76 35.5t29 98.5v516h78v-516q0 -61 -23.5 -107.5t-64.5 -72t-95 -25.5zM594 0v71q6 0 10 -2.5t6 -7t3 -11t1 -14.5t-1 -15
t-3 -11.5t-6 -7t-10 -2.5zM408 -180v90h78v-90h-78zM114 590v90h78v-90h-78z" />
    <glyph glyph-name="uniFC6D" unicode="&#xfe92;&#xfee6;" horiz-adv-x="993" arabic-form="final" 
d="M807 0v500h78v-458l-36 29h144v-71h-186zM591 330v72h216v-72h-216zM321 -248q-79 0 -143 29t-101 81t-37 119q0 21 3.5 55.5t9 77t12.5 86t13 82.5l77 -12q-11 -69 -19.5 -127.5t-13 -100t-4.5 -61.5q0 -46 25.5 -81.5t71.5 -56t106 -20.5t103 19t66 53t23 80v525h78
v-525q0 -70 -36.5 -120t-97.5 -76.5t-136 -26.5zM278 500v90h78v-90h-78zM993 0v71q6 0 10 -2.5t6 -7t3 -11t1 -14.5t-1 -15t-3 -11.5t-6 -7t-10 -2.5zM807 -180v90h78v-90h-78z" />
    <glyph glyph-name="uniFC6E" unicode="&#xfe92;&#xfef0;" horiz-adv-x="1111" arabic-form="final" 
d="M315 -248q-58 0 -108 16.5t-87.5 46t-58.5 70.5t-21 90q0 20 3.5 53t9 74.5t12.5 84.5l77 -11q-11 -67 -17.5 -122t-6.5 -78q0 -45 25 -79.5t69.5 -54t102.5 -19.5h283q76 0 115.5 41.5t39.5 126.5q0 41 -12.5 64.5t-44 39.5t-89.5 33q-51 15 -92 29t-70 33t-44.5 49
t-15.5 78q0 62 25.5 102.5t73.5 60.5t116 20l-3 -71q-46 0 -76 -11.5t-44.5 -35t-14.5 -61.5q0 -31 10 -50t31 -31.5t52 -22t73 -21.5q47 -13 84 -28.5t63.5 -38t40.5 -57t14 -85.5q0 -69 -27 -122t-78.5 -83t-126.5 -30h-283zM925 0v500h78v-458l-36 29h144v-71h-186z
M597 429l3 71h325v-71h-328zM1111 0v71q6 0 10 -2.5t6 -7t3 -11t1 -14.5t-1 -15t-3 -11.5t-6 -7t-10 -2.5zM925 -180v90h78v-90h-78z" />
    <glyph glyph-name="uniFC6F" unicode="&#xfe92;&#xfef2;" horiz-adv-x="1111" arabic-form="final" 
d="M315 -248q-58 0 -108 16.5t-87.5 46t-58.5 70.5t-21 90q0 20 3.5 53t9 74.5t12.5 84.5l77 -11q-11 -67 -17.5 -122t-6.5 -78q0 -45 25 -79.5t69.5 -54t102.5 -19.5h283q76 0 115.5 41.5t39.5 126.5q0 41 -12.5 64.5t-44 39.5t-89.5 33q-51 15 -92 29t-70 33t-44.5 49
t-15.5 78q0 62 25.5 102.5t73.5 60.5t116 20l-3 -71q-46 0 -76 -11.5t-44.5 -35t-14.5 -61.5q0 -31 10 -50t31 -31.5t52 -22t73 -21.5q47 -13 84 -28.5t63.5 -38t40.5 -57t14 -85.5q0 -69 -27 -122t-78.5 -83t-126.5 -30h-283zM925 0v500h78v-458l-36 29h144v-71h-186z
M597 429l3 71h325v-71h-328zM1111 0v71q6 0 10 -2.5t6 -7t3 -11t1 -14.5t-1 -15t-3 -11.5t-6 -7t-10 -2.5zM925 -180v90h78v-90h-78zM328 -430v90h78v-90h-78zM465 -430v90h78v-90h-78z" />
    <glyph glyph-name="uniFC70" unicode="&#xfe98;&#xfeae;" horiz-adv-x="594" arabic-form="final" 
d="M408 0v500h78v-458l-36 29h144v-71h-186zM192 330v72h216v-72h-216zM9 -221q-13 0 -27.5 1.5t-28.5 2.5l9 71q14 -1 26 -2.5t21 -1.5q47 0 76 35.5t29 98.5v516h78v-516q0 -61 -23.5 -107.5t-64.5 -72t-95 -25.5zM594 0v71q6 0 10 -2.5t6 -7t3 -11t1 -14.5t-1 -15
t-3 -11.5t-6 -7t-10 -2.5zM340 590v90h78v-90h-78zM477 590v90h78v-90h-78z" />
    <glyph glyph-name="uniFC71" unicode="&#xfe98;&#xfeb0;" horiz-adv-x="594" arabic-form="final" 
d="M408 0v500h78v-458l-36 29h144v-71h-186zM192 330v72h216v-72h-216zM9 -221q-13 0 -27.5 1.5t-28.5 2.5l9 71q14 -1 26 -2.5t21 -1.5q47 0 76 35.5t29 98.5v516h78v-516q0 -61 -23.5 -107.5t-64.5 -72t-95 -25.5zM594 0v71q6 0 10 -2.5t6 -7t3 -11t1 -14.5t-1 -15
t-3 -11.5t-6 -7t-10 -2.5zM114 590v90h78v-90h-78zM340 590v90h78v-90h-78zM477 590v90h78v-90h-78z" />
    <glyph glyph-name="uniFC73" unicode="&#xfe98;&#xfee6;" horiz-adv-x="993" arabic-form="final" 
d="M807 0v500h78v-458l-36 29h144v-71h-186zM591 330v72h216v-72h-216zM321 -248q-79 0 -143 29t-101 81t-37 119q0 21 3.5 55.5t9 77t12.5 86t13 82.5l77 -12q-11 -69 -19.5 -127.5t-13 -100t-4.5 -61.5q0 -46 25.5 -81.5t71.5 -56t106 -20.5t103 19t66 53t23 80v525h78
v-525q0 -70 -36.5 -120t-97.5 -76.5t-136 -26.5zM278 500v90h78v-90h-78zM993 0v71q6 0 10 -2.5t6 -7t3 -11t1 -14.5t-1 -15t-3 -11.5t-6 -7t-10 -2.5zM739 590v90h78v-90h-78zM876 590v90h78v-90h-78z" />
    <glyph glyph-name="uniFC74" unicode="&#xfe98;&#xfef0;" horiz-adv-x="1111" arabic-form="final" 
d="M315 -248q-58 0 -108 16.5t-87.5 46t-58.5 70.5t-21 90q0 20 3.5 53t9 74.5t12.5 84.5l77 -11q-11 -67 -17.5 -122t-6.5 -78q0 -45 25 -79.5t69.5 -54t102.5 -19.5h283q76 0 115.5 41.5t39.5 126.5q0 41 -12.5 64.5t-44 39.5t-89.5 33q-51 15 -92 29t-70 33t-44.5 49
t-15.5 78q0 62 25.5 102.5t73.5 60.5t116 20l-3 -71q-46 0 -76 -11.5t-44.5 -35t-14.5 -61.5q0 -31 10 -50t31 -31.5t52 -22t73 -21.5q47 -13 84 -28.5t63.5 -38t40.5 -57t14 -85.5q0 -69 -27 -122t-78.5 -83t-126.5 -30h-283zM925 0v500h78v-458l-36 29h144v-71h-186z
M597 429l3 71h325v-71h-328zM1111 0v71q6 0 10 -2.5t6 -7t3 -11t1 -14.5t-1 -15t-3 -11.5t-6 -7t-10 -2.5zM789 590v90h78v-90h-78zM926 590v90h78v-90h-78z" />
    <glyph glyph-name="uniFC75" unicode="&#xfe98;&#xfef2;" horiz-adv-x="1111" arabic-form="final" 
d="M315 -248q-58 0 -108 16.5t-87.5 46t-58.5 70.5t-21 90q0 20 3.5 53t9 74.5t12.5 84.5l77 -11q-11 -67 -17.5 -122t-6.5 -78q0 -45 25 -79.5t69.5 -54t102.5 -19.5h283q76 0 115.5 41.5t39.5 126.5q0 41 -12.5 64.5t-44 39.5t-89.5 33q-51 15 -92 29t-70 33t-44.5 49
t-15.5 78q0 62 25.5 102.5t73.5 60.5t116 20l-3 -71q-46 0 -76 -11.5t-44.5 -35t-14.5 -61.5q0 -31 10 -50t31 -31.5t52 -22t73 -21.5q47 -13 84 -28.5t63.5 -38t40.5 -57t14 -85.5q0 -69 -27 -122t-78.5 -83t-126.5 -30h-283zM925 0v500h78v-458l-36 29h144v-71h-186z
M597 429l3 71h325v-71h-328zM1111 0v71q6 0 10 -2.5t6 -7t3 -11t1 -14.5t-1 -15t-3 -11.5t-6 -7t-10 -2.5zM789 590v90h78v-90h-78zM926 590v90h78v-90h-78zM328 -430v90h78v-90h-78zM465 -430v90h78v-90h-78z" />
    <glyph glyph-name="uniFC76" unicode="&#xfe9c;&#xfeae;" horiz-adv-x="594" arabic-form="final" 
d="M408 0v500h78v-458l-36 29h144v-71h-186zM192 330v72h216v-72h-216zM9 -221q-13 0 -27.5 1.5t-28.5 2.5l9 71q14 -1 26 -2.5t21 -1.5q47 0 76 35.5t29 98.5v516h78v-516q0 -61 -23.5 -107.5t-64.5 -72t-95 -25.5zM594 0v71q6 0 10 -2.5t6 -7t3 -11t1 -14.5t-1 -15
t-3 -11.5t-6 -7t-10 -2.5zM411 722v85h72v-85h-72zM339 590v90h78v-90h-78zM476 590v90h78v-90h-78z" />
    <glyph glyph-name="uniFC77" unicode="&#xfe9c;&#xfeb0;" horiz-adv-x="594" arabic-form="final" 
d="M408 0v500h78v-458l-36 29h144v-71h-186zM192 330v72h216v-72h-216zM9 -221q-13 0 -27.5 1.5t-28.5 2.5l9 71q14 -1 26 -2.5t21 -1.5q47 0 76 35.5t29 98.5v516h78v-516q0 -61 -23.5 -107.5t-64.5 -72t-95 -25.5zM594 0v71q6 0 10 -2.5t6 -7t3 -11t1 -14.5t-1 -15
t-3 -11.5t-6 -7t-10 -2.5zM114 590v90h78v-90h-78zM411 722v85h72v-85h-72zM339 590v90h78v-90h-78zM476 590v90h78v-90h-78z" />
    <glyph glyph-name="uniFC79" unicode="&#xfe9c;&#xfee6;" horiz-adv-x="993" arabic-form="final" 
d="M807 0v500h78v-458l-36 29h144v-71h-186zM591 330v72h216v-72h-216zM321 -248q-79 0 -143 29t-101 81t-37 119q0 21 3.5 55.5t9 77t12.5 86t13 82.5l77 -12q-11 -69 -19.5 -127.5t-13 -100t-4.5 -61.5q0 -46 25.5 -81.5t71.5 -56t106 -20.5t103 19t66 53t23 80v525h78
v-525q0 -70 -36.5 -120t-97.5 -76.5t-136 -26.5zM278 500v90h78v-90h-78zM993 0v71q6 0 10 -2.5t6 -7t3 -11t1 -14.5t-1 -15t-3 -11.5t-6 -7t-10 -2.5zM810 722v85h72v-85h-72zM738 590v90h78v-90h-78zM875 590v90h78v-90h-78z" />
    <glyph glyph-name="uniFC7A" unicode="&#xfe9c;&#xfef0;" horiz-adv-x="1111" arabic-form="final" 
d="M315 -248q-58 0 -108 16.5t-87.5 46t-58.5 70.5t-21 90q0 20 3.5 53t9 74.5t12.5 84.5l77 -11q-11 -67 -17.5 -122t-6.5 -78q0 -45 25 -79.5t69.5 -54t102.5 -19.5h283q76 0 115.5 41.5t39.5 126.5q0 41 -12.5 64.5t-44 39.5t-89.5 33q-51 15 -92 29t-70 33t-44.5 49
t-15.5 78q0 62 25.5 102.5t73.5 60.5t116 20l-3 -71q-46 0 -76 -11.5t-44.5 -35t-14.5 -61.5q0 -31 10 -50t31 -31.5t52 -22t73 -21.5q47 -13 84 -28.5t63.5 -38t40.5 -57t14 -85.5q0 -69 -27 -122t-78.5 -83t-126.5 -30h-283zM925 0v500h78v-458l-36 29h144v-71h-186z
M597 429l3 71h325v-71h-328zM1111 0v71q6 0 10 -2.5t6 -7t3 -11t1 -14.5t-1 -15t-3 -11.5t-6 -7t-10 -2.5zM860 722v85h72v-85h-72zM788 590v90h78v-90h-78zM925 590v90h78v-90h-78z" />
    <glyph glyph-name="uniFC7B" unicode="&#xfe9c;&#xfef2;" horiz-adv-x="1111" arabic-form="final" 
d="M315 -248q-58 0 -108 16.5t-87.5 46t-58.5 70.5t-21 90q0 20 3.5 53t9 74.5t12.5 84.5l77 -11q-11 -67 -17.5 -122t-6.5 -78q0 -45 25 -79.5t69.5 -54t102.5 -19.5h283q76 0 115.5 41.5t39.5 126.5q0 41 -12.5 64.5t-44 39.5t-89.5 33q-51 15 -92 29t-70 33t-44.5 49
t-15.5 78q0 62 25.5 102.5t73.5 60.5t116 20l-3 -71q-46 0 -76 -11.5t-44.5 -35t-14.5 -61.5q0 -31 10 -50t31 -31.5t52 -22t73 -21.5q47 -13 84 -28.5t63.5 -38t40.5 -57t14 -85.5q0 -69 -27 -122t-78.5 -83t-126.5 -30h-283zM925 0v500h78v-458l-36 29h144v-71h-186z
M597 429l3 71h325v-71h-328zM1111 0v71q6 0 10 -2.5t6 -7t3 -11t1 -14.5t-1 -15t-3 -11.5t-6 -7t-10 -2.5zM860 722v85h72v-85h-72zM788 590v90h78v-90h-78zM925 590v90h78v-90h-78zM328 -430v90h78v-90h-78zM465 -430v90h78v-90h-78z" />
    <glyph glyph-name="uniFC86" unicode="&#xfee0;&#xfef0;" horiz-adv-x="1052" arabic-form="final" 
d="M944 0v71h108v-71h-108zM745 0q-6 0 -10 2.5t-6 7t-3 11.5t-1 15q0 11 1.5 18.5t6 12t12.5 4.5v-71zM866 0v717h78v-717h-78zM745 0v71h121v-71h-121zM884 0v71q6 0 10 -2.5t6 -7t3 -11t1 -14.5t-1 -15t-3 -11.5t-6 -7t-10 -2.5zM315 -248q-58 0 -108 16.5t-87.5 46
t-58.5 70.5t-21 90q0 20 3.5 53t9 74.5t12.5 84.5l77 -11q-11 -67 -17.5 -122t-6.5 -78q0 -45 25 -79.5t69.5 -54t102.5 -19.5h283q76 0 115.5 42t39.5 123v33h77v-34q0 -69 -27 -122t-78.5 -83t-126.5 -30h-283zM695 0q-34 0 -68.5 7t-68.5 29l44 59q14 -9 27 -14.5
t29 -7.5t37 -2h189v-71h-189zM1052 0v71q6 0 10 -2.5t6 -7t3 -11t1 -14.5t-1 -15t-3 -11.5t-6 -7t-10 -2.5z" />
    <glyph glyph-name="uniFC87" unicode="&#xfee0;&#xfef2;" horiz-adv-x="1052" arabic-form="final" 
d="M944 0v71h108v-71h-108zM745 0q-6 0 -10 2.5t-6 7t-3 11.5t-1 15q0 11 1.5 18.5t6 12t12.5 4.5v-71zM866 0v717h78v-717h-78zM745 0v71h121v-71h-121zM884 0v71q6 0 10 -2.5t6 -7t3 -11t1 -14.5t-1 -15t-3 -11.5t-6 -7t-10 -2.5zM315 -248q-58 0 -108 16.5t-87.5 46
t-58.5 70.5t-21 90q0 20 3.5 53t9 74.5t12.5 84.5l77 -11q-11 -67 -17.5 -122t-6.5 -78q0 -45 25 -79.5t69.5 -54t102.5 -19.5h283q76 0 115.5 42t39.5 123v33h77v-34q0 -69 -27 -122t-78.5 -83t-126.5 -30h-283zM695 0q-34 0 -68.5 7t-68.5 29l44 59q14 -9 27 -14.5
t29 -7.5t37 -2h189v-71h-189zM1052 0v71q6 0 10 -2.5t6 -7t3 -11t1 -14.5t-1 -15t-3 -11.5t-6 -7t-10 -2.5zM328 -430v90h78v-90h-78zM465 -430v90h78v-90h-78z" />
    <glyph glyph-name="uniFC8A" unicode="&#xfee8;&#xfeae;" horiz-adv-x="594" arabic-form="final" 
d="M408 0v500h78v-458l-36 29h144v-71h-186zM192 330v72h216v-72h-216zM9 -221q-13 0 -27.5 1.5t-28.5 2.5l9 71q14 -1 26 -2.5t21 -1.5q47 0 76 35.5t29 98.5v516h78v-516q0 -61 -23.5 -107.5t-64.5 -72t-95 -25.5zM594 0v71q6 0 10 -2.5t6 -7t3 -11t1 -14.5t-1 -15
t-3 -11.5t-6 -7t-10 -2.5zM408 590v90h78v-90h-78z" />
    <glyph glyph-name="uniFC8B" unicode="&#xfee8;&#xfeb0;" horiz-adv-x="594" arabic-form="final" 
d="M408 0v500h78v-458l-36 29h144v-71h-186zM192 330v72h216v-72h-216zM9 -221q-13 0 -27.5 1.5t-28.5 2.5l9 71q14 -1 26 -2.5t21 -1.5q47 0 76 35.5t29 98.5v516h78v-516q0 -61 -23.5 -107.5t-64.5 -72t-95 -25.5zM594 0v71q6 0 10 -2.5t6 -7t3 -11t1 -14.5t-1 -15
t-3 -11.5t-6 -7t-10 -2.5zM408 590v90h78v-90h-78zM114 590v90h78v-90h-78z" />
    <glyph glyph-name="uniFC8D" unicode="&#xfee8;&#xfee6;" horiz-adv-x="993" arabic-form="final" 
d="M807 0v500h78v-458l-36 29h144v-71h-186zM591 330v72h216v-72h-216zM321 -248q-79 0 -143 29t-101 81t-37 119q0 21 3.5 55.5t9 77t12.5 86t13 82.5l77 -12q-11 -69 -19.5 -127.5t-13 -100t-4.5 -61.5q0 -46 25.5 -81.5t71.5 -56t106 -20.5t103 19t66 53t23 80v525h78
v-525q0 -70 -36.5 -120t-97.5 -76.5t-136 -26.5zM278 500v90h78v-90h-78zM993 0v71q6 0 10 -2.5t6 -7t3 -11t1 -14.5t-1 -15t-3 -11.5t-6 -7t-10 -2.5zM807 590v90h78v-90h-78z" />
    <glyph glyph-name="uniFC8E" unicode="&#xfee8;&#xfef0;" horiz-adv-x="1111" arabic-form="final" 
d="M315 -248q-58 0 -108 16.5t-87.5 46t-58.5 70.5t-21 90q0 20 3.5 53t9 74.5t12.5 84.5l77 -11q-11 -67 -17.5 -122t-6.5 -78q0 -45 25 -79.5t69.5 -54t102.5 -19.5h283q76 0 115.5 41.5t39.5 126.5q0 41 -12.5 64.5t-44 39.5t-89.5 33q-51 15 -92 29t-70 33t-44.5 49
t-15.5 78q0 62 25.5 102.5t73.5 60.5t116 20l-3 -71q-46 0 -76 -11.5t-44.5 -35t-14.5 -61.5q0 -31 10 -50t31 -31.5t52 -22t73 -21.5q47 -13 84 -28.5t63.5 -38t40.5 -57t14 -85.5q0 -69 -27 -122t-78.5 -83t-126.5 -30h-283zM925 0v500h78v-458l-36 29h144v-71h-186z
M597 429l3 71h325v-71h-328zM1111 0v71q6 0 10 -2.5t6 -7t3 -11t1 -14.5t-1 -15t-3 -11.5t-6 -7t-10 -2.5zM925 573v90h78v-90h-78z" />
    <glyph glyph-name="uniFC8F" unicode="&#xfee8;&#xfef2;" horiz-adv-x="1111" arabic-form="final" 
d="M315 -248q-58 0 -108 16.5t-87.5 46t-58.5 70.5t-21 90q0 20 3.5 53t9 74.5t12.5 84.5l77 -11q-11 -67 -17.5 -122t-6.5 -78q0 -45 25 -79.5t69.5 -54t102.5 -19.5h283q76 0 115.5 41.5t39.5 126.5q0 41 -12.5 64.5t-44 39.5t-89.5 33q-51 15 -92 29t-70 33t-44.5 49
t-15.5 78q0 62 25.5 102.5t73.5 60.5t116 20l-3 -71q-46 0 -76 -11.5t-44.5 -35t-14.5 -61.5q0 -31 10 -50t31 -31.5t52 -22t73 -21.5q47 -13 84 -28.5t63.5 -38t40.5 -57t14 -85.5q0 -69 -27 -122t-78.5 -83t-126.5 -30h-283zM925 0v500h78v-458l-36 29h144v-71h-186z
M597 429l3 71h325v-71h-328zM1111 0v71q6 0 10 -2.5t6 -7t3 -11t1 -14.5t-1 -15t-3 -11.5t-6 -7t-10 -2.5zM925 573v90h78v-90h-78zM328 -430v90h78v-90h-78zM465 -430v90h78v-90h-78z" />
    <glyph glyph-name="uniFC91" unicode="&#xfef4;&#xfeae;" horiz-adv-x="594" arabic-form="final" 
d="M408 0v500h78v-458l-36 29h144v-71h-186zM192 330v72h216v-72h-216zM9 -221q-13 0 -27.5 1.5t-28.5 2.5l9 71q14 -1 26 -2.5t21 -1.5q47 0 76 35.5t29 98.5v516h78v-516q0 -61 -23.5 -107.5t-64.5 -72t-95 -25.5zM594 0v71q6 0 10 -2.5t6 -7t3 -11t1 -14.5t-1 -15
t-3 -11.5t-6 -7t-10 -2.5zM340 -180v90h78v-90h-78zM477 -180v90h78v-90h-78z" />
    <glyph glyph-name="uniFC92" unicode="&#xfef4;&#xfeb0;" horiz-adv-x="594" arabic-form="final" 
d="M408 0v500h78v-458l-36 29h144v-71h-186zM192 330v72h216v-72h-216zM9 -221q-13 0 -27.5 1.5t-28.5 2.5l9 71q14 -1 26 -2.5t21 -1.5q47 0 76 35.5t29 98.5v516h78v-516q0 -61 -23.5 -107.5t-64.5 -72t-95 -25.5zM594 0v71q6 0 10 -2.5t6 -7t3 -11t1 -14.5t-1 -15
t-3 -11.5t-6 -7t-10 -2.5zM114 590v90h78v-90h-78zM340 -180v90h78v-90h-78zM477 -180v90h78v-90h-78z" />
    <glyph glyph-name="uniFC94" unicode="&#xfef4;&#xfee6;" horiz-adv-x="993" arabic-form="final" 
d="M807 0v500h78v-458l-36 29h144v-71h-186zM591 330v72h216v-72h-216zM321 -248q-79 0 -143 29t-101 81t-37 119q0 21 3.5 55.5t9 77t12.5 86t13 82.5l77 -12q-11 -69 -19.5 -127.5t-13 -100t-4.5 -61.5q0 -46 25.5 -81.5t71.5 -56t106 -20.5t103 19t66 53t23 80v525h78
v-525q0 -70 -36.5 -120t-97.5 -76.5t-136 -26.5zM278 500v90h78v-90h-78zM993 0v71q6 0 10 -2.5t6 -7t3 -11t1 -14.5t-1 -15t-3 -11.5t-6 -7t-10 -2.5zM739 -180v90h78v-90h-78zM876 -180v90h78v-90h-78z" />
    <glyph glyph-name="uniFC96" unicode="&#xfef4;&#xfef2;" horiz-adv-x="1111" arabic-form="final" 
d="M315 -248q-58 0 -108 16.5t-87.5 46t-58.5 70.5t-21 90q0 20 3.5 53t9 74.5t12.5 84.5l77 -11q-11 -67 -17.5 -122t-6.5 -78q0 -45 25 -79.5t69.5 -54t102.5 -19.5h283q76 0 115.5 41.5t39.5 126.5q0 41 -12.5 64.5t-44 39.5t-89.5 33q-51 15 -92 29t-70 33t-44.5 49
t-15.5 78q0 62 25.5 102.5t73.5 60.5t116 20l-3 -71q-69 0 -102 -26t-33 -82q0 -31 10 -50t31 -31.5t52 -22t73 -21.5q47 -13 84 -28.5t63.5 -38t40.5 -57t14 -85.5q0 -69 -27 -122t-78.5 -83t-126.5 -30h-283zM925 0v500h78v-458l-36 29h144v-71h-186zM597 429l3 71h325
v-71h-328zM1111 0v71q6 0 10 -2.5t6 -7t3 -11t1 -14.5t-1 -15t-3 -11.5t-6 -7t-10 -2.5zM857 -180v90h78v-90h-78zM994 -180v90h78v-90h-78z" />
    <glyph glyph-name="uniFCFB" unicode="&#xfeb3;&#xfef0;" horiz-adv-x="1614" arabic-form="isolated" 
d="M315 -248q-58 0 -108 16.5t-87.5 46t-58.5 70.5t-21 90q0 20 3.5 53t9 74.5t12.5 84.5l77 -11q-11 -67 -17.5 -122t-6.5 -78q0 -45 25 -79.5t69.5 -54t102.5 -19.5h283q76 0 115.5 41.5t39.5 126.5q0 41 -12.5 64.5t-44 39.5t-89.5 33q-51 15 -92 29t-70 33t-44.5 49
t-15.5 78q0 62 25.5 102.5t73.5 60.5t116 20l-3 -71q-46 0 -76 -11.5t-44.5 -35t-14.5 -61.5q0 -31 10 -50t31 -31.5t52 -22t73 -21.5q47 -13 84 -28.5t63.5 -38t40.5 -57t14 -85.5q0 -69 -27 -122t-78.5 -83t-126.5 -30h-283zM597 429l3 71h312v-71h-315zM912 0v500h78
v-500h-78zM990 0v71h112q34 0 52 10t25 40t7 88v241h78v-241q0 -78 -16.5 -124t-52 -65.5t-93.5 -19.5h-112zM1313 0q-34 0 -66.5 13t-63.5 41l52 53q22 -19 40.5 -27.5t37.5 -8.5h178l-30 -32v239q0 18 -4 51t-10.5 74.5t-14.5 83.5l76 13q7 -35 14 -78t11.5 -81.5
t4.5 -62.5v-278h-225z" />
    <glyph glyph-name="uniFCFC" unicode="&#xfeb3;&#xfef2;" horiz-adv-x="1614" arabic-form="isolated" 
d="M315 -248q-58 0 -108 16.5t-87.5 46t-58.5 70.5t-21 90q0 20 3.5 53t9 74.5t12.5 84.5l77 -11q-11 -67 -17.5 -122t-6.5 -78q0 -45 25 -79.5t69.5 -54t102.5 -19.5h283q76 0 115.5 41.5t39.5 126.5q0 41 -12.5 64.5t-44 39.5t-89.5 33q-51 15 -92 29t-70 33t-44.5 49
t-15.5 78q0 62 25.5 102.5t73.5 60.5t116 20l-3 -71q-46 0 -76 -11.5t-44.5 -35t-14.5 -61.5q0 -31 10 -50t31 -31.5t52 -22t73 -21.5q47 -13 84 -28.5t63.5 -38t40.5 -57t14 -85.5q0 -69 -27 -122t-78.5 -83t-126.5 -30h-283zM597 429l3 71h312v-71h-315zM912 0v500h78
v-500h-78zM990 0v71h112q34 0 52 10t25 40t7 88v241h78v-241q0 -78 -16.5 -124t-52 -65.5t-93.5 -19.5h-112zM1313 0q-34 0 -66.5 13t-63.5 41l52 53q22 -19 40.5 -27.5t37.5 -8.5h178l-30 -32v239q0 18 -4 51t-10.5 74.5t-14.5 83.5l76 13q7 -35 14 -78t11.5 -81.5
t4.5 -62.5v-278h-225zM328 -390v90h78v-90h-78zM465 -390v90h78v-90h-78z" />
    <glyph glyph-name="uniFCFD" unicode="&#xfeb7;&#xfef0;" horiz-adv-x="1614" arabic-form="isolated" 
d="M315 -248q-58 0 -108 16.5t-87.5 46t-58.5 70.5t-21 90q0 20 3.5 53t9 74.5t12.5 84.5l77 -11q-11 -67 -17.5 -122t-6.5 -78q0 -45 25 -79.5t69.5 -54t102.5 -19.5h283q76 0 115.5 41.5t39.5 126.5q0 41 -12.5 64.5t-44 39.5t-89.5 33q-51 15 -92 29t-70 33t-44.5 49
t-15.5 78q0 62 25.5 102.5t73.5 60.5t116 20l-3 -71q-46 0 -76 -11.5t-44.5 -35t-14.5 -61.5q0 -31 10 -50t31 -31.5t52 -22t73 -21.5q47 -13 84 -28.5t63.5 -38t40.5 -57t14 -85.5q0 -69 -27 -122t-78.5 -83t-126.5 -30h-283zM597 429l3 71h312v-71h-315zM912 0v500h78
v-500h-78zM990 0v71h112q34 0 52 10t25 40t7 88v241h78v-241q0 -78 -16.5 -124t-52 -65.5t-93.5 -19.5h-112zM1313 0q-34 0 -66.5 13t-63.5 41l52 53q22 -19 40.5 -27.5t37.5 -8.5h178l-30 -32v239q0 18 -4 51t-10.5 74.5t-14.5 83.5l76 13q7 -35 14 -78t11.5 -81.5
t4.5 -62.5v-278h-225zM1189 722v85h72v-85h-72zM1117 590v90h78v-90h-78zM1254 590v90h78v-90h-78z" />
    <glyph glyph-name="uniFCFE" unicode="&#xfeb7;&#xfef2;" horiz-adv-x="1614" arabic-form="isolated" 
d="M315 -248q-58 0 -108 16.5t-87.5 46t-58.5 70.5t-21 90q0 20 3.5 53t9 74.5t12.5 84.5l77 -11q-11 -67 -17.5 -122t-6.5 -78q0 -45 25 -79.5t69.5 -54t102.5 -19.5h283q76 0 115.5 41.5t39.5 126.5q0 41 -12.5 64.5t-44 39.5t-89.5 33q-51 15 -92 29t-70 33t-44.5 49
t-15.5 78q0 62 25.5 102.5t73.5 60.5t116 20l-3 -71q-46 0 -76 -11.5t-44.5 -35t-14.5 -61.5q0 -31 10 -50t31 -31.5t52 -22t73 -21.5q47 -13 84 -28.5t63.5 -38t40.5 -57t14 -85.5q0 -69 -27 -122t-78.5 -83t-126.5 -30h-283zM597 429l3 71h312v-71h-315zM912 0v500h78
v-500h-78zM990 0v71h112q34 0 52 10t25 40t7 88v241h78v-241q0 -78 -16.5 -124t-52 -65.5t-93.5 -19.5h-112zM1313 0q-34 0 -66.5 13t-63.5 41l52 53q22 -19 40.5 -27.5t37.5 -8.5h178l-30 -32v239q0 18 -4 51t-10.5 74.5t-14.5 83.5l76 13q7 -35 14 -78t11.5 -81.5
t4.5 -62.5v-278h-225zM1189 722v85h72v-85h-72zM1117 590v90h78v-90h-78zM1254 590v90h78v-90h-78zM328 -390v90h78v-90h-78zM465 -390v90h78v-90h-78z" />
    <glyph glyph-name="uniFD05" unicode="&#xfebb;&#xfef0;" horiz-adv-x="1590" arabic-form="isolated" 
d="M315 -248q-58 0 -108 16.5t-87.5 46t-58.5 70.5t-21 90q0 20 3.5 53t9 74.5t12.5 84.5l77 -11q-11 -67 -17.5 -122t-6.5 -78q0 -45 25 -79.5t69.5 -54t102.5 -19.5h283q76 0 115.5 41.5t39.5 126.5q0 41 -12.5 64.5t-44 39.5t-89.5 33q-51 15 -92 29t-70 33t-44.5 49
t-15.5 78q0 62 25.5 102.5t73.5 60.5t116 20l-3 -71q-46 0 -76 -11.5t-44.5 -35t-14.5 -61.5q0 -31 10 -50t31 -31.5t52 -22t73 -21.5q47 -13 84 -28.5t63.5 -38t40.5 -57t14 -85.5q0 -69 -27 -122t-78.5 -83t-126.5 -30h-283zM597 429l3 71h312v-71h-315zM912 0v500h78
v-500h-78zM990 0v71h519l-72 -65v235q0 63 -17.5 104.5t-52 62.5t-86.5 21q-44 0 -81.5 -14.5t-69.5 -38t-59.5 -52t-50.5 -57.5t-42 -53l-25 71q25 31 50.5 62t53.5 58.5t61.5 48.5t73.5 33.5t90 12.5q71 0 116.5 -24t71 -63.5t35.5 -84.5t10 -87v-241h-525z" />
    <glyph glyph-name="uniFD06" unicode="&#xfebb;&#xfef2;" horiz-adv-x="1590" arabic-form="isolated" 
d="M315 -248q-58 0 -108 16.5t-87.5 46t-58.5 70.5t-21 90q0 20 3.5 53t9 74.5t12.5 84.5l77 -11q-11 -67 -17.5 -122t-6.5 -78q0 -45 25 -79.5t69.5 -54t102.5 -19.5h283q76 0 115.5 41.5t39.5 126.5q0 41 -12.5 64.5t-44 39.5t-89.5 33q-51 15 -92 29t-70 33t-44.5 49
t-15.5 78q0 62 25.5 102.5t73.5 60.5t116 20l-3 -71q-46 0 -76 -11.5t-44.5 -35t-14.5 -61.5q0 -31 10 -50t31 -31.5t52 -22t73 -21.5q47 -13 84 -28.5t63.5 -38t40.5 -57t14 -85.5q0 -69 -27 -122t-78.5 -83t-126.5 -30h-283zM597 429l3 71h312v-71h-315zM912 0v500h78
v-500h-78zM990 0v71h519l-72 -65v235q0 63 -17.5 104.5t-52 62.5t-86.5 21q-44 0 -81.5 -14.5t-69.5 -38t-59.5 -52t-50.5 -57.5t-42 -53l-25 71q25 31 50.5 62t53.5 58.5t61.5 48.5t73.5 33.5t90 12.5q71 0 116.5 -24t71 -63.5t35.5 -84.5t10 -87v-241h-525zM328 -390v90
h78v-90h-78zM465 -390v90h78v-90h-78z" />
    <glyph glyph-name="uniFD07" unicode="&#xfebf;&#xfef0;" horiz-adv-x="1590" arabic-form="isolated" 
d="M315 -248q-58 0 -108 16.5t-87.5 46t-58.5 70.5t-21 90q0 20 3.5 53t9 74.5t12.5 84.5l77 -11q-11 -67 -17.5 -122t-6.5 -78q0 -45 25 -79.5t69.5 -54t102.5 -19.5h283q76 0 115.5 41.5t39.5 126.5q0 41 -12.5 64.5t-44 39.5t-89.5 33q-51 15 -92 29t-70 33t-44.5 49
t-15.5 78q0 62 25.5 102.5t73.5 60.5t116 20l-3 -71q-46 0 -76 -11.5t-44.5 -35t-14.5 -61.5q0 -31 10 -50t31 -31.5t52 -22t73 -21.5q47 -13 84 -28.5t63.5 -38t40.5 -57t14 -85.5q0 -69 -27 -122t-78.5 -83t-126.5 -30h-283zM597 429l3 71h312v-71h-315zM912 0v500h78
v-500h-78zM990 0v71h519l-72 -65v235q0 63 -17.5 104.5t-52 62.5t-86.5 21q-44 0 -81.5 -14.5t-69.5 -38t-59.5 -52t-50.5 -57.5t-42 -53l-25 71q25 31 50.5 62t53.5 58.5t61.5 48.5t73.5 33.5t90 12.5q71 0 116.5 -24t71 -63.5t35.5 -84.5t10 -87v-241h-525zM1185 573v90
h78v-90h-78z" />
    <glyph glyph-name="uniFD08" unicode="&#xfebf;&#xfef2;" horiz-adv-x="1590" arabic-form="isolated" 
d="M315 -248q-58 0 -108 16.5t-87.5 46t-58.5 70.5t-21 90q0 20 3.5 53t9 74.5t12.5 84.5l77 -11q-11 -67 -17.5 -122t-6.5 -78q0 -45 25 -79.5t69.5 -54t102.5 -19.5h283q76 0 115.5 41.5t39.5 126.5q0 41 -12.5 64.5t-44 39.5t-89.5 33q-51 15 -92 29t-70 33t-44.5 49
t-15.5 78q0 62 25.5 102.5t73.5 60.5t116 20l-3 -71q-46 0 -76 -11.5t-44.5 -35t-14.5 -61.5q0 -31 10 -50t31 -31.5t52 -22t73 -21.5q47 -13 84 -28.5t63.5 -38t40.5 -57t14 -85.5q0 -69 -27 -122t-78.5 -83t-126.5 -30h-283zM597 429l3 71h312v-71h-315zM912 0v500h78
v-500h-78zM990 0v71h519l-72 -65v235q0 63 -17.5 104.5t-52 62.5t-86.5 21q-44 0 -81.5 -14.5t-69.5 -38t-59.5 -52t-50.5 -57.5t-42 -53l-25 71q25 31 50.5 62t53.5 58.5t61.5 48.5t73.5 33.5t90 12.5q71 0 116.5 -24t71 -63.5t35.5 -84.5t10 -87v-241h-525zM1185 573v90
h78v-90h-78zM328 -390v90h78v-90h-78zM465 -390v90h78v-90h-78z" />
    <glyph glyph-name="uniFD0D" unicode="&#xfeb7;&#xfeae;" horiz-adv-x="1110" arabic-form="isolated" 
d="M809 0q-34 0 -66.5 13t-63.5 41l52 53q22 -19 40.5 -27.5t37.5 -8.5h178l-30 -32v239q0 18 -3.5 51t-10 74.5t-15.5 83.5l76 13q7 -35 14 -78t11.5 -81.5t4.5 -62.5v-278h-225zM192 330v72h216v-72h-216zM408 0v500h78v-500h-78zM486 0v71h112q34 0 52 10t25 40t7 88v241
h78v-241q0 -78 -16.5 -124t-52 -65.5t-93.5 -19.5h-112zM9 -221q-13 0 -27.5 1.5t-28.5 2.5l9 71q14 -1 26 -2.5t21 -1.5q47 0 76 35.5t29 98.5v516h78v-516q0 -61 -23.5 -107.5t-64.5 -72t-95 -25.5zM685 722v85h72v-85h-72zM613 590v90h78v-90h-78zM750 590v90h78v-90h-78
z" />
    <glyph glyph-name="uniFD0E" unicode="&#xfeb3;&#xfeae;" horiz-adv-x="1110" arabic-form="isolated" 
d="M809 0q-34 0 -66.5 13t-63.5 41l52 53q22 -19 40.5 -27.5t37.5 -8.5h178l-30 -32v239q0 18 -3.5 51t-10 74.5t-15.5 83.5l76 13q7 -35 14 -78t11.5 -81.5t4.5 -62.5v-278h-225zM192 330v72h216v-72h-216zM408 0v500h78v-500h-78zM486 0v71h112q34 0 52 10t25 40t7 88v241
h78v-241q0 -78 -16.5 -124t-52 -65.5t-93.5 -19.5h-112zM9 -221q-13 0 -27.5 1.5t-28.5 2.5l9 71q14 -1 26 -2.5t21 -1.5q47 0 76 35.5t29 98.5v516h78v-516q0 -61 -23.5 -107.5t-64.5 -72t-95 -25.5z" />
    <glyph glyph-name="uniFD0F" unicode="&#xfebb;&#xfeae;" horiz-adv-x="1086" arabic-form="isolated" 
d="M486 0v71h519l-72 -65v235q0 63 -17 104.5t-51.5 62.5t-87.5 21q-43 0 -81 -14.5t-70 -38t-59.5 -52t-50.5 -57.5t-42 -53l-25 71q25 31 50.5 62t53.5 58.5t61.5 48.5t73.5 33.5t90 12.5q71 0 116.5 -24t71 -63.5t35.5 -84.5t10 -87v-241h-525zM192 330v72h216v-72h-216z
M408 0v500h78v-500h-78zM9 -221q-13 0 -27.5 1.5t-28.5 2.5l9 71q14 -1 26 -2.5t21 -1.5q47 0 76 35.5t29 98.5v516h78v-516q0 -61 -23.5 -107.5t-64.5 -72t-95 -25.5z" />
    <glyph glyph-name="uniFD10" unicode="&#xfebf;&#xfeae;" horiz-adv-x="1086" arabic-form="isolated" 
d="M486 0v71h519l-72 -65v235q0 63 -17 104.5t-51.5 62.5t-87.5 21q-43 0 -81 -14.5t-70 -38t-59.5 -52t-50.5 -57.5t-42 -53l-25 71q25 31 50.5 62t53.5 58.5t61.5 48.5t73.5 33.5t90 12.5q71 0 116.5 -24t71 -63.5t35.5 -84.5t10 -87v-241h-525zM192 330v72h216v-72h-216z
M408 0v500h78v-500h-78zM9 -221q-13 0 -27.5 1.5t-28.5 2.5l9 71q14 -1 26 -2.5t21 -1.5q47 0 76 35.5t29 98.5v516h78v-516q0 -61 -23.5 -107.5t-64.5 -72t-95 -25.5zM681 573v90h78v-90h-78z" />
    <glyph glyph-name="uniFD17" unicode="&#xfeb4;&#xfef0;" horiz-adv-x="1647" arabic-form="final" 
d="M1538 0v71h109v-71h-109zM315 -248q-58 0 -108 16.5t-87.5 46t-58.5 70.5t-21 90q0 20 3.5 53t9 74.5t12.5 84.5l77 -11q-11 -67 -17.5 -122t-6.5 -78q0 -45 25 -79.5t69.5 -54t102.5 -19.5h283q76 0 115.5 41.5t39.5 126.5q0 41 -12.5 64.5t-44 39.5t-89.5 33
q-51 15 -92 29t-70 33t-44.5 49t-15.5 78q0 62 25.5 102.5t73.5 60.5t116 20l-3 -71q-46 0 -76 -11.5t-44.5 -35t-14.5 -61.5q0 -31 10 -50t31 -31.5t52 -22t73 -21.5q47 -13 84 -28.5t63.5 -38t40.5 -57t14 -85.5q0 -69 -27 -122t-78.5 -83t-126.5 -30h-283zM597 429l3 71
h312v-71h-315zM912 0v500h78v-500h-78zM990 0v71h112q34 0 52 10t25 40t7 88v241h78v-241q0 -78 -16.5 -124t-52 -65.5t-93.5 -19.5h-112zM1313 0q-34 0 -66.5 13t-63.5 41l52 53q22 -19 40.5 -27.5t37.5 -8.5h178l-30 -32v239q0 18 -4 51t-10.5 74.5t-14.5 83.5l76 13
q7 -35 14 -78t11.5 -81.5t4.5 -62.5v-278h-225zM1647 0v71q6 0 10 -2.5t6 -7t3 -11t1 -14.5t-1 -15t-3 -11.5t-6 -7t-10 -2.5z" />
    <glyph glyph-name="uniFD18" unicode="&#xfeb4;&#xfef2;" horiz-adv-x="1647" arabic-form="final" 
d="M1538 0v71h109v-71h-109zM315 -248q-58 0 -108 16.5t-87.5 46t-58.5 70.5t-21 90q0 20 3.5 53t9 74.5t12.5 84.5l77 -11q-11 -67 -17.5 -122t-6.5 -78q0 -45 25 -79.5t69.5 -54t102.5 -19.5h283q76 0 115.5 41.5t39.5 126.5q0 41 -12.5 64.5t-44 39.5t-89.5 33
q-51 15 -92 29t-70 33t-44.5 49t-15.5 78q0 62 25.5 102.5t73.5 60.5t116 20l-3 -71q-46 0 -76 -11.5t-44.5 -35t-14.5 -61.5q0 -31 10 -50t31 -31.5t52 -22t73 -21.5q47 -13 84 -28.5t63.5 -38t40.5 -57t14 -85.5q0 -69 -27 -122t-78.5 -83t-126.5 -30h-283zM597 429l3 71
h312v-71h-315zM912 0v500h78v-500h-78zM990 0v71h112q34 0 52 10t25 40t7 88v241h78v-241q0 -78 -16.5 -124t-52 -65.5t-93.5 -19.5h-112zM1313 0q-34 0 -66.5 13t-63.5 41l52 53q22 -19 40.5 -27.5t37.5 -8.5h178l-30 -32v239q0 18 -4 51t-10.5 74.5t-14.5 83.5l76 13
q7 -35 14 -78t11.5 -81.5t4.5 -62.5v-278h-225zM1647 0v71q6 0 10 -2.5t6 -7t3 -11t1 -14.5t-1 -15t-3 -11.5t-6 -7t-10 -2.5zM328 -390v90h78v-90h-78zM465 -390v90h78v-90h-78z" />
    <glyph glyph-name="uniFD19" unicode="&#xfeb8;&#xfef0;" horiz-adv-x="1647" arabic-form="final" 
d="M1538 0v71h109v-71h-109zM315 -248q-58 0 -108 16.5t-87.5 46t-58.5 70.5t-21 90q0 20 3.5 53t9 74.5t12.5 84.5l77 -11q-11 -67 -17.5 -122t-6.5 -78q0 -45 25 -79.5t69.5 -54t102.5 -19.5h283q76 0 115.5 41.5t39.5 126.5q0 41 -12.5 64.5t-44 39.5t-89.5 33
q-51 15 -92 29t-70 33t-44.5 49t-15.5 78q0 62 25.5 102.5t73.5 60.5t116 20l-3 -71q-46 0 -76 -11.5t-44.5 -35t-14.5 -61.5q0 -31 10 -50t31 -31.5t52 -22t73 -21.5q47 -13 84 -28.5t63.5 -38t40.5 -57t14 -85.5q0 -69 -27 -122t-78.5 -83t-126.5 -30h-283zM597 429l3 71
h312v-71h-315zM912 0v500h78v-500h-78zM990 0v71h112q34 0 52 10t25 40t7 88v241h78v-241q0 -78 -16.5 -124t-52 -65.5t-93.5 -19.5h-112zM1313 0q-34 0 -66.5 13t-63.5 41l52 53q22 -19 40.5 -27.5t37.5 -8.5h178l-30 -32v239q0 18 -4 51t-10.5 74.5t-14.5 83.5l76 13
q7 -35 14 -78t11.5 -81.5t4.5 -62.5v-278h-225zM1647 0v71q6 0 10 -2.5t6 -7t3 -11t1 -14.5t-1 -15t-3 -11.5t-6 -7t-10 -2.5zM1189 722v85h72v-85h-72zM1117 590v90h78v-90h-78zM1254 590v90h78v-90h-78z" />
    <glyph glyph-name="uniFD1A" unicode="&#xfeb8;&#xfef2;" horiz-adv-x="1647" arabic-form="final" 
d="M1538 0v71h109v-71h-109zM315 -248q-58 0 -108 16.5t-87.5 46t-58.5 70.5t-21 90q0 20 3.5 53t9 74.5t12.5 84.5l77 -11q-11 -67 -17.5 -122t-6.5 -78q0 -45 25 -79.5t69.5 -54t102.5 -19.5h283q76 0 115.5 41.5t39.5 126.5q0 41 -12.5 64.5t-44 39.5t-89.5 33
q-51 15 -92 29t-70 33t-44.5 49t-15.5 78q0 62 25.5 102.5t73.5 60.5t116 20l-3 -71q-46 0 -76 -11.5t-44.5 -35t-14.5 -61.5q0 -31 10 -50t31 -31.5t52 -22t73 -21.5q47 -13 84 -28.5t63.5 -38t40.5 -57t14 -85.5q0 -69 -27 -122t-78.5 -83t-126.5 -30h-283zM597 429l3 71
h312v-71h-315zM912 0v500h78v-500h-78zM990 0v71h112q34 0 52 10t25 40t7 88v241h78v-241q0 -78 -16.5 -124t-52 -65.5t-93.5 -19.5h-112zM1313 0q-34 0 -66.5 13t-63.5 41l52 53q22 -19 40.5 -27.5t37.5 -8.5h178l-30 -32v239q0 18 -4 51t-10.5 74.5t-14.5 83.5l76 13
q7 -35 14 -78t11.5 -81.5t4.5 -62.5v-278h-225zM1647 0v71q6 0 10 -2.5t6 -7t3 -11t1 -14.5t-1 -15t-3 -11.5t-6 -7t-10 -2.5zM1189 722v85h72v-85h-72zM1117 590v90h78v-90h-78zM1254 590v90h78v-90h-78zM328 -390v90h78v-90h-78zM465 -390v90h78v-90h-78z" />
    <glyph glyph-name="uniFD21" unicode="&#xfebc;&#xfef0;" horiz-adv-x="1623" arabic-form="final" 
d="M1515 0v71h108v-71h-108zM315 -248q-58 0 -108 16.5t-87.5 46t-58.5 70.5t-21 90q0 20 3.5 53t9 74.5t12.5 84.5l77 -11q-11 -67 -17.5 -122t-6.5 -78q0 -45 25 -79.5t69.5 -54t102.5 -19.5h283q76 0 115.5 41.5t39.5 126.5q0 41 -12.5 64.5t-44 39.5t-89.5 33
q-51 15 -92 29t-70 33t-44.5 49t-15.5 78q0 62 25.5 102.5t73.5 60.5t116 20l-3 -71q-46 0 -76 -11.5t-44.5 -35t-14.5 -61.5q0 -31 10 -50t31 -31.5t52 -22t73 -21.5q47 -13 84 -28.5t63.5 -38t40.5 -57t14 -85.5q0 -69 -27 -122t-78.5 -83t-126.5 -30h-283zM597 429l3 71
h312v-71h-315zM912 0v500h78v-500h-78zM990 0v71h519l-72 -65v235q0 63 -17.5 104.5t-52 62.5t-86.5 21q-44 0 -81.5 -14.5t-69.5 -38t-59.5 -52t-50.5 -57.5t-42 -53l-25 71q25 31 50.5 62t53.5 58.5t61.5 48.5t73.5 33.5t90 12.5q71 0 116.5 -24t71 -63.5t35.5 -84.5
t10 -87v-241h-525zM1623 0v71q6 0 10 -2.5t6 -7t3 -11t1 -14.5t-1 -15t-3 -11.5t-6 -7t-10 -2.5z" />
    <glyph glyph-name="uniFD22" unicode="&#xfebc;&#xfef2;" horiz-adv-x="1623" arabic-form="final" 
d="M1515 0v71h108v-71h-108zM315 -248q-58 0 -108 16.5t-87.5 46t-58.5 70.5t-21 90q0 20 3.5 53t9 74.5t12.5 84.5l77 -11q-11 -67 -17.5 -122t-6.5 -78q0 -45 25 -79.5t69.5 -54t102.5 -19.5h283q76 0 115.5 41.5t39.5 126.5q0 41 -12.5 64.5t-44 39.5t-89.5 33
q-51 15 -92 29t-70 33t-44.5 49t-15.5 78q0 62 25.5 102.5t73.5 60.5t116 20l-3 -71q-46 0 -76 -11.5t-44.5 -35t-14.5 -61.5q0 -31 10 -50t31 -31.5t52 -22t73 -21.5q47 -13 84 -28.5t63.5 -38t40.5 -57t14 -85.5q0 -69 -27 -122t-78.5 -83t-126.5 -30h-283zM597 429l3 71
h312v-71h-315zM912 0v500h78v-500h-78zM990 0v71h519l-72 -65v235q0 63 -17.5 104.5t-52 62.5t-86.5 21q-44 0 -81.5 -14.5t-69.5 -38t-59.5 -52t-50.5 -57.5t-42 -53l-25 71q25 31 50.5 62t53.5 58.5t61.5 48.5t73.5 33.5t90 12.5q71 0 116.5 -24t71 -63.5t35.5 -84.5
t10 -87v-241h-525zM1623 0v71q6 0 10 -2.5t6 -7t3 -11t1 -14.5t-1 -15t-3 -11.5t-6 -7t-10 -2.5zM328 -390v90h78v-90h-78zM465 -390v90h78v-90h-78z" />
    <glyph glyph-name="uniFD23" unicode="&#xfec0;&#xfef0;" horiz-adv-x="1623" arabic-form="final" 
d="M1515 0v71h108v-71h-108zM315 -248q-58 0 -108 16.5t-87.5 46t-58.5 70.5t-21 90q0 20 3.5 53t9 74.5t12.5 84.5l77 -11q-11 -67 -17.5 -122t-6.5 -78q0 -45 25 -79.5t69.5 -54t102.5 -19.5h283q76 0 115.5 41.5t39.5 126.5q0 41 -12.5 64.5t-44 39.5t-89.5 33
q-51 15 -92 29t-70 33t-44.5 49t-15.5 78q0 62 25.5 102.5t73.5 60.5t116 20l-3 -71q-46 0 -76 -11.5t-44.5 -35t-14.5 -61.5q0 -31 10 -50t31 -31.5t52 -22t73 -21.5q47 -13 84 -28.5t63.5 -38t40.5 -57t14 -85.5q0 -69 -27 -122t-78.5 -83t-126.5 -30h-283zM597 429l3 71
h312v-71h-315zM912 0v500h78v-500h-78zM990 0v71h519l-72 -65v235q0 63 -17.5 104.5t-52 62.5t-86.5 21q-44 0 -81.5 -14.5t-69.5 -38t-59.5 -52t-50.5 -57.5t-42 -53l-25 71q25 31 50.5 62t53.5 58.5t61.5 48.5t73.5 33.5t90 12.5q71 0 116.5 -24t71 -63.5t35.5 -84.5
t10 -87v-241h-525zM1623 0v71q6 0 10 -2.5t6 -7t3 -11t1 -14.5t-1 -15t-3 -11.5t-6 -7t-10 -2.5zM1185 573v90h78v-90h-78z" />
    <glyph glyph-name="uniFD24" unicode="&#xfec0;&#xfef2;" horiz-adv-x="1623" arabic-form="final" 
d="M1515 0v71h108v-71h-108zM315 -248q-58 0 -108 16.5t-87.5 46t-58.5 70.5t-21 90q0 20 3.5 53t9 74.5t12.5 84.5l77 -11q-11 -67 -17.5 -122t-6.5 -78q0 -45 25 -79.5t69.5 -54t102.5 -19.5h283q76 0 115.5 41.5t39.5 126.5q0 41 -12.5 64.5t-44 39.5t-89.5 33
q-51 15 -92 29t-70 33t-44.5 49t-15.5 78q0 62 25.5 102.5t73.5 60.5t116 20l-3 -71q-46 0 -76 -11.5t-44.5 -35t-14.5 -61.5q0 -31 10 -50t31 -31.5t52 -22t73 -21.5q47 -13 84 -28.5t63.5 -38t40.5 -57t14 -85.5q0 -69 -27 -122t-78.5 -83t-126.5 -30h-283zM597 429l3 71
h312v-71h-315zM912 0v500h78v-500h-78zM990 0v71h519l-72 -65v235q0 63 -17.5 104.5t-52 62.5t-86.5 21q-44 0 -81.5 -14.5t-69.5 -38t-59.5 -52t-50.5 -57.5t-42 -53l-25 71q25 31 50.5 62t53.5 58.5t61.5 48.5t73.5 33.5t90 12.5q71 0 116.5 -24t71 -63.5t35.5 -84.5
t10 -87v-241h-525zM1623 0v71q6 0 10 -2.5t6 -7t3 -11t1 -14.5t-1 -15t-3 -11.5t-6 -7t-10 -2.5zM328 -390v90h78v-90h-78zM465 -390v90h78v-90h-78zM1185 573v90h78v-90h-78z" />
    <glyph glyph-name="uniFD29" unicode="&#xfeb8;&#xfeae;" horiz-adv-x="1143" arabic-form="final" 
d="M1034 0v71h109v-71h-109zM1143 0v71q6 0 10 -2.5t6 -7t3 -11t1 -14.5t-1 -15t-3 -11.5t-6 -7t-10 -2.5zM9 -221q-13 0 -27.5 1.5t-28.5 2.5l9 71q14 -1 26 -2.5t21 -1.5q47 0 76 35.5t29 98.5v516h78v-516q0 -61 -23.5 -107.5t-64.5 -72t-95 -25.5zM809 0q-34 0 -66.5 13
t-63.5 41l52 53q22 -19 40.5 -27.5t37.5 -8.5h178l-30 -32v239q0 18 -3.5 51t-10 74.5t-15.5 83.5l76 13q7 -35 14 -78t11.5 -81.5t4.5 -62.5v-278h-225zM192 330v72h216v-72h-216zM408 0v500h78v-500h-78zM486 0v71h112q34 0 52 10t25 40t7 88v241h78v-241
q0 -78 -16.5 -124t-52 -65.5t-93.5 -19.5h-112zM685 722v85h72v-85h-72zM613 590v90h78v-90h-78zM750 590v90h78v-90h-78z" />
    <glyph glyph-name="uniFD2A" unicode="&#xfeb4;&#xfeae;" horiz-adv-x="1143" arabic-form="final" 
d="M1034 0v71h109v-71h-109zM1143 0v71q6 0 10 -2.5t6 -7t3 -11t1 -14.5t-1 -15t-3 -11.5t-6 -7t-10 -2.5zM9 -221q-13 0 -27.5 1.5t-28.5 2.5l9 71q14 -1 26 -2.5t21 -1.5q47 0 76 35.5t29 98.5v516h78v-516q0 -61 -23.5 -107.5t-64.5 -72t-95 -25.5zM809 0q-34 0 -66.5 13
t-63.5 41l52 53q22 -19 40.5 -27.5t37.5 -8.5h178l-30 -32v239q0 18 -3.5 51t-10 74.5t-15.5 83.5l76 13q7 -35 14 -78t11.5 -81.5t4.5 -62.5v-278h-225zM192 330v72h216v-72h-216zM408 0v500h78v-500h-78zM486 0v71h112q34 0 52 10t25 40t7 88v241h78v-241
q0 -78 -16.5 -124t-52 -65.5t-93.5 -19.5h-112z" />
    <glyph glyph-name="uniFD2B" unicode="&#xfebc;&#xfeae;" horiz-adv-x="1119" arabic-form="final" 
d="M1011 0v71h108v-71h-108zM1119 0v71q6 0 10 -2.5t6 -7t3 -11t1 -14.5t-1 -15t-3 -11.5t-6 -7t-10 -2.5zM9 -221q-13 0 -27.5 1.5t-28.5 2.5l9 71q14 -1 26 -2.5t21 -1.5q47 0 76 35.5t29 98.5v516h78v-516q0 -61 -23.5 -107.5t-64.5 -72t-95 -25.5zM486 0v71h519l-72 -65
v235q0 63 -17 104.5t-51.5 62.5t-87.5 21q-43 0 -81 -14.5t-70 -38t-59.5 -52t-50.5 -57.5t-42 -53l-25 71q25 31 50.5 62t53.5 58.5t61.5 48.5t73.5 33.5t90 12.5q71 0 116.5 -24t71 -63.5t35.5 -84.5t10 -87v-241h-525zM192 330v72h216v-72h-216zM408 0v500h78v-500h-78z
" />
    <glyph glyph-name="uniFD2C" unicode="&#xfec0;&#xfeae;" horiz-adv-x="1119" arabic-form="final" 
d="M1011 0v71h108v-71h-108zM1119 0v71q6 0 10 -2.5t6 -7t3 -11t1 -14.5t-1 -15t-3 -11.5t-6 -7t-10 -2.5zM9 -221q-13 0 -27.5 1.5t-28.5 2.5l9 71q14 -1 26 -2.5t21 -1.5q47 0 76 35.5t29 98.5v516h78v-516q0 -61 -23.5 -107.5t-64.5 -72t-95 -25.5zM486 0v71h519l-72 -65
v235q0 63 -17 104.5t-51.5 62.5t-87.5 21q-43 0 -81 -14.5t-70 -38t-59.5 -52t-50.5 -57.5t-42 -53l-25 71q25 31 50.5 62t53.5 58.5t61.5 48.5t73.5 33.5t90 12.5q71 0 116.5 -24t71 -63.5t35.5 -84.5t10 -87v-241h-525zM192 330v72h216v-72h-216zM408 0v500h78v-500h-78z
M681 573v90h78v-90h-78z" />
    <glyph glyph-name="uniFDF2" unicode="&#x627;&#xfedf;&#xfee0;&#xfeea;" horiz-adv-x="1324" arabic-form="isolated" 
d="M661 0v635h78v-635h-78zM540 0v71h121v-71h-121zM739 0v71h108v-71h-108zM1151 0v717h77v-717h-77zM578 0v71q6 0 10 -2.5t6 -7t3 -11t1 -14.5t-1 -15t-3 -11.5t-6 -7t-10 -2.5zM263 0q-87 0 -135.5 26.5t-68 82t-19.5 141.5t19.5 141.5t68 82t135.5 26.5h207v-460h-78
v423l40 -34h-169q-58 0 -89.5 -14t-43.5 -52.5t-12 -112.5t12 -112.5t43.5 -52.5t89.5 -14h315v-71h-315zM806 0q-6 0 -10 2.5t-6 7t-3 11.5t-1 15q0 11 1.5 18.5t6 12t12.5 4.5v-71zM927 0v717h78v-717h-78zM806 0v71h121v-71h-121z" />
    <glyph glyph-name="uniFEF5" unicode="&#xfedf;&#xfe82;" horiz-adv-x="644" arabic-form="isolated" 
d="M40 0v71h489l-44 -45v691h78v-717h-523zM200 71v504h77v-504h-77zM146 640l-31 26l44 60h51q10 -12 27 -18t33 -6q17 0 32.5 5.5t25.5 16.5l27 -23q-9 -16 -23 -29t-32 -20.5t-41 -7.5q-22 0 -43 7.5t-36 22.5z" />
    <glyph glyph-name="uniFEF6" unicode="&#xfee0;&#xfe82;" horiz-adv-x="671" arabic-form="final" 
d="M563 0v71h108v-71h-108zM40 0v71h489l-44 -45v691h78v-717h-523zM200 71v504h77v-504h-77zM671 0v71q6 0 10 -2.5t6 -7t3 -11t1 -14.5t-1 -15t-3 -11.5t-6 -7t-10 -2.5zM146 640l-31 26l44 60h51q10 -12 27 -18t33 -6q17 0 32.5 5.5t25.5 16.5l27 -23q-9 -16 -23 -29
t-32 -20.5t-41 -7.5q-22 0 -43 7.5t-36 22.5z" />
    <glyph glyph-name="uniFEF7" unicode="&#xfedf;&#xfe84;" horiz-adv-x="644" arabic-form="isolated" 
d="M40 0v71h489l-44 -45v691h78v-717h-523zM200 71v504h77v-504h-77zM192 642q-16 20 -24.5 39t-8.5 40q0 29 14.5 52t38.5 36t52 13q16 0 32 -4.5t28 -12.5l-26 -45q-8 5 -15.5 6.5t-15.5 1.5q-23 0 -36.5 -13t-13.5 -34q0 -13 5.5 -25t16.5 -26zM140 642v53h197v-53h-197z
" />
    <glyph glyph-name="uniFEF8" unicode="&#xfee0;&#xfe84;" horiz-adv-x="671" arabic-form="final" 
d="M563 0v71h108v-71h-108zM40 0v71h489l-44 -45v691h78v-717h-523zM200 71v504h77v-504h-77zM671 0v71q6 0 10 -2.5t6 -7t3 -11t1 -14.5t-1 -15t-3 -11.5t-6 -7t-10 -2.5zM192 642q-16 20 -24.5 39t-8.5 40q0 29 14.5 52t38.5 36t52 13q16 0 32 -4.5t28 -12.5l-26 -45
q-8 5 -15.5 6.5t-15.5 1.5q-23 0 -36.5 -13t-13.5 -34q0 -13 5.5 -25t16.5 -26zM140 642v53h197v-53h-197z" />
    <glyph glyph-name="uniFEF9" unicode="&#xfedf;&#xfe88;" horiz-adv-x="644" arabic-form="isolated" 
d="M40 0v71h489l-44 -45v691h78v-717h-523zM200 71v504h77v-504h-77zM192 -269q-16 20 -24.5 39t-8.5 40q0 29 14.5 52t38.5 36t52 13q16 0 32 -4.5t28 -12.5l-26 -45q-8 5 -15.5 6.5t-15.5 1.5q-23 0 -36.5 -13t-13.5 -34q0 -13 5.5 -25t16.5 -26zM140 -269v53h197v-53
h-197z" />
    <glyph glyph-name="uniFEFA" unicode="&#xfee0;&#xfe88;" horiz-adv-x="671" arabic-form="final" 
d="M563 0v71h108v-71h-108zM40 0v71h489l-44 -45v691h78v-717h-523zM200 71v504h77v-504h-77zM671 0v71q6 0 10 -2.5t6 -7t3 -11t1 -14.5t-1 -15t-3 -11.5t-6 -7t-10 -2.5zM192 -269q-16 20 -24.5 39t-8.5 40q0 29 14.5 52t38.5 36t52 13q16 0 32 -4.5t28 -12.5l-26 -45
q-8 5 -15.5 6.5t-15.5 1.5q-23 0 -36.5 -13t-13.5 -34q0 -13 5.5 -25t16.5 -26zM140 -269v53h197v-53h-197z" />
    <glyph glyph-name="uniFEFB" unicode="&#xfedf;&#xfe8e;" horiz-adv-x="644" arabic-form="isolated" 
d="M40 0v71h489l-44 -45v691h78v-717h-523zM200 71v504h77v-504h-77z" />
    <glyph glyph-name="uniFEFC" unicode="&#xfee0;&#xfe8e;" horiz-adv-x="671" arabic-form="final" 
d="M563 0v71h108v-71h-108zM40 0v71h489l-44 -45v691h78v-717h-523zM200 71v504h77v-504h-77zM671 0v71q6 0 10 -2.5t6 -7t3 -11t1 -14.5t-1 -15t-3 -11.5t-6 -7t-10 -2.5z" />
    <glyph glyph-name="lam_alefWaslaar" unicode="&#xfedf;&#xfb51;" horiz-adv-x="644" 
d="M40 0v71h489l-44 -45v691h78v-717h-523zM200 71v504h77v-504h-77zM149 693q0 29 14 51.5t38 35t52 12.5q29 0 52.5 -12.5t37.5 -35t14 -51.5h-54q0 20 -14 34t-36 14q-21 0 -35.5 -14t-14.5 -34h-54zM120 642v51h237v-51h-237z" />
    <glyph glyph-name="beh_yehHamzaabovear.fina" unicode="&#xfe92;&#xfe8a;" horiz-adv-x="1111" 
d="M315 -248q-58 0 -108 16.5t-87.5 46t-58.5 70.5t-21 90q0 20 3.5 53t9 74.5t12.5 84.5l77 -11q-11 -67 -17.5 -122t-6.5 -78q0 -45 25 -79.5t69.5 -54t102.5 -19.5h283q76 0 115.5 41.5t39.5 126.5q0 41 -12.5 64.5t-44 39.5t-89.5 33q-51 15 -92 29t-70 33t-44.5 49
t-15.5 78q0 62 25.5 102.5t73.5 60.5t116 20l-3 -71q-46 0 -76 -11.5t-44.5 -35t-14.5 -61.5q0 -31 10 -50t31 -31.5t52 -22t73 -21.5q47 -13 84 -28.5t63.5 -38t40.5 -57t14 -85.5q0 -69 -27 -122t-78.5 -83t-126.5 -30h-283zM925 0v500h78v-458l-36 29h144v-71h-186z
M597 429l3 71h325v-71h-328zM1111 0v71q6 0 10 -2.5t6 -7t3 -11t1 -14.5t-1 -15t-3 -11.5t-6 -7t-10 -2.5zM925 -180v90h78v-90h-78zM62 257q-16 20 -24.5 39t-8.5 40q0 29 14.5 52t38.5 36t52 13q16 0 32 -4.5t28 -12.5l-26 -45q-8 5 -15.5 6.5t-15.5 1.5q-23 0 -36.5 -13
t-13.5 -34q0 -13 5.5 -25t16.5 -26zM10 257v53h197v-53h-197z" />
    <glyph glyph-name="lam_alefWaslaar.fina" unicode="&#xfee0;&#xfb51;" horiz-adv-x="671" 
d="M563 0v71h108v-71h-108zM40 0v71h489l-44 -45v691h78v-717h-523zM200 71v504h77v-504h-77zM671 0v71q6 0 10 -2.5t6 -7t3 -11t1 -14.5t-1 -15t-3 -11.5t-6 -7t-10 -2.5zM149 693q0 29 14 51.5t38 35t52 12.5q29 0 52.5 -12.5t37.5 -35t14 -51.5h-54q0 20 -14 34t-36 14
q-21 0 -35.5 -14t-14.5 -34h-54zM120 642v51h237v-51h-237z" />
    <glyph glyph-name="peh_rehar.fina" unicode="&#xfb59;&#xfeae;" horiz-adv-x="594" 
d="M408 0v500h78v-458l-36 29h144v-71h-186zM192 330v72h216v-72h-216zM9 -221q-13 0 -27.5 1.5t-28.5 2.5l9 71q14 -1 26 -2.5t21 -1.5q47 0 76 35.5t29 98.5v516h78v-516q0 -61 -23.5 -107.5t-64.5 -72t-95 -25.5zM594 0v71q6 0 10 -2.5t6 -7t3 -11t1 -14.5t-1 -15
t-3 -11.5t-6 -7t-10 -2.5zM339 -89h78v-90h-78v90zM476 -89h78v-90h-78v90zM411 -221h72v-85h-72v85z" />
    <glyph glyph-name="peh_zainar.fina" unicode="&#xfb59;&#xfeb0;" horiz-adv-x="594" 
d="M408 0v500h78v-458l-36 29h144v-71h-186zM192 330v72h216v-72h-216zM9 -221q-13 0 -27.5 1.5t-28.5 2.5l9 71q14 -1 26 -2.5t21 -1.5q47 0 76 35.5t29 98.5v516h78v-516q0 -61 -23.5 -107.5t-64.5 -72t-95 -25.5zM594 0v71q6 0 10 -2.5t6 -7t3 -11t1 -14.5t-1 -15
t-3 -11.5t-6 -7t-10 -2.5zM114 590v90h78v-90h-78zM339 -89h78v-90h-78v90zM476 -89h78v-90h-78v90zM411 -221h72v-85h-72v85z" />
    <glyph glyph-name="peh_noonar.fina" unicode="&#xfb59;&#xfee6;" horiz-adv-x="993" 
d="M807 0v500h78v-458l-36 29h144v-71h-186zM591 330v72h216v-72h-216zM321 -248q-79 0 -143 29t-101 81t-37 119q0 21 3.5 55.5t9 77t12.5 86t13 82.5l77 -12q-11 -69 -19.5 -127.5t-13 -100t-4.5 -61.5q0 -46 25.5 -81.5t71.5 -56t106 -20.5t103 19t66 53t23 80v525h78
v-525q0 -70 -36.5 -120t-97.5 -76.5t-136 -26.5zM278 500v90h78v-90h-78zM993 0v71q6 0 10 -2.5t6 -7t3 -11t1 -14.5t-1 -15t-3 -11.5t-6 -7t-10 -2.5zM738 -89h78v-90h-78v90zM875 -89h78v-90h-78v90zM810 -221h72v-85h-72v85z" />
    <glyph glyph-name="peh_alefMaksuraar.fina" unicode="&#xfb59;&#xfef0;" horiz-adv-x="1111" 
d="M315 -248q-58 0 -108 16.5t-87.5 46t-58.5 70.5t-21 90q0 20 3.5 53t9 74.5t12.5 84.5l77 -11q-11 -67 -17.5 -122t-6.5 -78q0 -45 25 -79.5t69.5 -54t102.5 -19.5h283q76 0 115.5 41.5t39.5 126.5q0 41 -12.5 64.5t-44 39.5t-89.5 33q-51 15 -92 29t-70 33t-44.5 49
t-15.5 78q0 62 25.5 102.5t73.5 60.5t116 20l-3 -71q-69 0 -102 -26t-33 -82q0 -31 10 -50t31 -31.5t52 -22t73 -21.5q47 -13 84 -28.5t63.5 -38t40.5 -57t14 -85.5q0 -69 -27 -122t-78.5 -83t-126.5 -30h-283zM925 0v500h78v-458l-36 29h144v-71h-186zM597 429l3 71h325
v-71h-328zM1111 0v71q6 0 10 -2.5t6 -7t3 -11t1 -14.5t-1 -15t-3 -11.5t-6 -7t-10 -2.5zM856 -89h78v-90h-78v90zM993 -89h78v-90h-78v90zM928 -221h72v-85h-72v85z" />
    <glyph glyph-name="peh_yehar.fina" unicode="&#xfb59;&#xfef2;" horiz-adv-x="1111" 
d="M315 -248q-58 0 -108 16.5t-87.5 46t-58.5 70.5t-21 90q0 20 3.5 53t9 74.5t12.5 84.5l77 -11q-11 -67 -17.5 -122t-6.5 -78q0 -45 25 -79.5t69.5 -54t102.5 -19.5h283q76 0 115.5 41.5t39.5 126.5q0 41 -12.5 64.5t-44 39.5t-89.5 33q-51 15 -92 29t-70 33t-44.5 49
t-15.5 78q0 62 25.5 102.5t73.5 60.5t116 20l-3 -71q-69 0 -102 -26t-33 -82q0 -31 10 -50t31 -31.5t52 -22t73 -21.5q47 -13 84 -28.5t63.5 -38t40.5 -57t14 -85.5q0 -69 -27 -122t-78.5 -83t-126.5 -30h-283zM925 0v500h78v-458l-36 29h144v-71h-186zM597 429l3 71h325
v-71h-328zM1111 0v71q6 0 10 -2.5t6 -7t3 -11t1 -14.5t-1 -15t-3 -11.5t-6 -7t-10 -2.5zM328 -430v90h78v-90h-78zM465 -430v90h78v-90h-78zM856 -89h78v-90h-78v90zM993 -89h78v-90h-78v90zM928 -221h72v-85h-72v85z" />
    <glyph glyph-name="peh_yehHamzaabovear.fina" unicode="&#xfb59;&#xfe8a;" horiz-adv-x="1111" 
d="M315 -248q-58 0 -108 16.5t-87.5 46t-58.5 70.5t-21 90q0 20 3.5 53t9 74.5t12.5 84.5l77 -11q-11 -67 -17.5 -122t-6.5 -78q0 -45 25 -79.5t69.5 -54t102.5 -19.5h283q76 0 115.5 41.5t39.5 126.5q0 41 -12.5 64.5t-44 39.5t-89.5 33q-51 15 -92 29t-70 33t-44.5 49
t-15.5 78q0 62 25.5 102.5t73.5 60.5t116 20l-3 -71q-69 0 -102 -26t-33 -82q0 -31 10 -50t31 -31.5t52 -22t73 -21.5q47 -13 84 -28.5t63.5 -38t40.5 -57t14 -85.5q0 -69 -27 -122t-78.5 -83t-126.5 -30h-283zM925 0v500h78v-458l-36 29h144v-71h-186zM597 429l3 71h325
v-71h-328zM1111 0v71q6 0 10 -2.5t6 -7t3 -11t1 -14.5t-1 -15t-3 -11.5t-6 -7t-10 -2.5zM62 257q-16 20 -24.5 39t-8.5 40q0 29 14.5 52t38.5 36t52 13q16 0 32 -4.5t28 -12.5l-26 -45q-8 5 -15.5 6.5t-15.5 1.5q-23 0 -36.5 -13t-13.5 -34q0 -13 5.5 -25t16.5 -26zM10 257
v53h197v-53h-197zM856 -89h78v-90h-78v90zM993 -89h78v-90h-78v90zM928 -221h72v-85h-72v85z" />
    <glyph glyph-name="teh_yehHamzaabovear.fina" unicode="&#xfe98;&#xfe8a;" horiz-adv-x="1111" 
d="M315 -248q-58 0 -108 16.5t-87.5 46t-58.5 70.5t-21 90q0 20 3.5 53t9 74.5t12.5 84.5l77 -11q-11 -67 -17.5 -122t-6.5 -78q0 -45 25 -79.5t69.5 -54t102.5 -19.5h283q76 0 115.5 41.5t39.5 126.5q0 41 -12.5 64.5t-44 39.5t-89.5 33q-51 15 -92 29t-70 33t-44.5 49
t-15.5 78q0 62 25.5 102.5t73.5 60.5t116 20l-3 -71q-46 0 -76 -11.5t-44.5 -35t-14.5 -61.5q0 -31 10 -50t31 -31.5t52 -22t73 -21.5q47 -13 84 -28.5t63.5 -38t40.5 -57t14 -85.5q0 -69 -27 -122t-78.5 -83t-126.5 -30h-283zM925 0v500h78v-458l-36 29h144v-71h-186z
M597 429l3 71h325v-71h-328zM1111 0v71q6 0 10 -2.5t6 -7t3 -11t1 -14.5t-1 -15t-3 -11.5t-6 -7t-10 -2.5zM789 590v90h78v-90h-78zM926 590v90h78v-90h-78zM62 257q-16 20 -24.5 39t-8.5 40q0 29 14.5 52t38.5 36t52 13q16 0 32 -4.5t28 -12.5l-26 -45q-8 5 -15.5 6.5
t-15.5 1.5q-23 0 -36.5 -13t-13.5 -34q0 -13 5.5 -25t16.5 -26zM10 257v53h197v-53h-197z" />
    <glyph glyph-name="theh_yehHamzaabovear.fina" unicode="&#xfe9c;&#xfe8a;" horiz-adv-x="1111" 
d="M315 -248q-58 0 -108 16.5t-87.5 46t-58.5 70.5t-21 90q0 20 3.5 53t9 74.5t12.5 84.5l77 -11q-11 -67 -17.5 -122t-6.5 -78q0 -45 25 -79.5t69.5 -54t102.5 -19.5h283q76 0 115.5 41.5t39.5 126.5q0 41 -12.5 64.5t-44 39.5t-89.5 33q-51 15 -92 29t-70 33t-44.5 49
t-15.5 78q0 62 25.5 102.5t73.5 60.5t116 20l-3 -71q-46 0 -76 -11.5t-44.5 -35t-14.5 -61.5q0 -31 10 -50t31 -31.5t52 -22t73 -21.5q47 -13 84 -28.5t63.5 -38t40.5 -57t14 -85.5q0 -69 -27 -122t-78.5 -83t-126.5 -30h-283zM925 0v500h78v-458l-36 29h144v-71h-186z
M597 429l3 71h325v-71h-328zM1111 0v71q6 0 10 -2.5t6 -7t3 -11t1 -14.5t-1 -15t-3 -11.5t-6 -7t-10 -2.5zM860 722v85h72v-85h-72zM788 590v90h78v-90h-78zM925 590v90h78v-90h-78zM62 257q-16 20 -24.5 39t-8.5 40q0 29 14.5 52t38.5 36t52 13q16 0 32 -4.5t28 -12.5
l-26 -45q-8 5 -15.5 6.5t-15.5 1.5q-23 0 -36.5 -13t-13.5 -34q0 -13 5.5 -25t16.5 -26zM10 257v53h197v-53h-197z" />
    <glyph glyph-name="seen_zainar" unicode="&#xfeb3;&#xfeb0;" horiz-adv-x="1110" 
d="M809 0q-34 0 -66.5 13t-63.5 41l52 53q22 -19 40.5 -27.5t37.5 -8.5h178l-30 -32v239q0 18 -3.5 51t-10 74.5t-15.5 83.5l76 13q7 -35 14 -78t11.5 -81.5t4.5 -62.5v-278h-225zM192 330v72h216v-72h-216zM408 0v500h78v-500h-78zM486 0v71h112q34 0 52 10t25 40t7 88v241
h78v-241q0 -78 -16.5 -124t-52 -65.5t-93.5 -19.5h-112zM9 -221q-13 0 -27.5 1.5t-28.5 2.5l9 71q14 -1 26 -2.5t21 -1.5q47 0 76 35.5t29 98.5v516h78v-516q0 -61 -23.5 -107.5t-64.5 -72t-95 -25.5zM114 590v90h78v-90h-78z" />
    <glyph glyph-name="seen_zainar.fina" unicode="&#xfeb4;&#xfeb0;" horiz-adv-x="1143" 
d="M1034 0v71h109v-71h-109zM1143 0v71q6 0 10 -2.5t6 -7t3 -11t1 -14.5t-1 -15t-3 -11.5t-6 -7t-10 -2.5zM9 -221q-13 0 -27.5 1.5t-28.5 2.5l9 71q14 -1 26 -2.5t21 -1.5q47 0 76 35.5t29 98.5v516h78v-516q0 -61 -23.5 -107.5t-64.5 -72t-95 -25.5zM809 0q-34 0 -66.5 13
t-63.5 41l52 53q22 -19 40.5 -27.5t37.5 -8.5h178l-30 -32v239q0 18 -3.5 51t-10 74.5t-15.5 83.5l76 13q7 -35 14 -78t11.5 -81.5t4.5 -62.5v-278h-225zM192 330v72h216v-72h-216zM408 0v500h78v-500h-78zM486 0v71h112q34 0 52 10t25 40t7 88v241h78v-241
q0 -78 -16.5 -124t-52 -65.5t-93.5 -19.5h-112zM114 590v90h78v-90h-78z" />
    <glyph glyph-name="seen_noonar" unicode="&#xfeb3;&#xfee6;" horiz-adv-x="1509" 
d="M1208 0q-34 0 -66.5 13t-63.5 41l52 53q22 -19 40.5 -27.5t37.5 -8.5h178l-30 -32v239q0 18 -3.5 51t-10 74.5t-15.5 83.5l76 13q7 -35 14 -78t11.5 -81.5t4.5 -62.5v-278h-225zM591 330v72h216v-72h-216zM807 0v500h78v-500h-78zM885 0v71h112q34 0 52 10t25 40t7 88
v241h78v-241q0 -78 -16.5 -124t-52 -65.5t-93.5 -19.5h-112zM321 -248q-79 0 -143 29t-101 81t-37 119q0 21 3.5 55.5t9 77t12.5 86t13 82.5l77 -12q-11 -69 -19.5 -127.5t-13 -100t-4.5 -61.5q0 -46 25.5 -81.5t71.5 -56t106 -20.5t103 19t66 53t23 80v525h78v-525
q0 -70 -36.5 -120t-97.5 -76.5t-136 -26.5zM278 500v90h78v-90h-78z" />
    <glyph glyph-name="seen_noonar.fina" unicode="&#xfeb4;&#xfee6;" horiz-adv-x="1541" 
d="M1433 0v71h108v-71h-108zM321 -248q-79 0 -143 29t-101 81t-37 119q0 21 3.5 55.5t9 77t12.5 86t13 82.5l77 -12q-11 -69 -19.5 -127.5t-13 -100t-4.5 -61.5q0 -46 25.5 -81.5t71.5 -56t106 -20.5t103 19t66 53t23 80v525h78v-525q0 -70 -36.5 -120t-97.5 -76.5
t-136 -26.5zM1208 0q-34 0 -66.5 13t-63.5 41l52 53q22 -19 40.5 -27.5t37.5 -8.5h178l-30 -32v239q0 18 -3.5 51t-10 74.5t-15.5 83.5l76 13q7 -35 14 -78t11.5 -81.5t4.5 -62.5v-278h-225zM591 330v72h216v-72h-216zM807 0v500h78v-500h-78zM885 0v71h112q34 0 52 10
t25 40t7 88v241h78v-241q0 -78 -16.5 -124t-52 -65.5t-93.5 -19.5h-112zM1541 0v71q6 0 10 -2.5t6 -7t3 -11t1 -14.5t-1 -15t-3 -11.5t-6 -7t-10 -2.5zM278 500v90h78v-90h-78z" />
    <glyph glyph-name="seen_noonghunnaar" unicode="&#xfeb3;&#xfb9f;" horiz-adv-x="1509" 
d="M1208 0q-34 0 -66.5 13t-63.5 41l52 53q22 -19 40.5 -27.5t37.5 -8.5h178l-30 -32v239q0 18 -3.5 51t-10 74.5t-15.5 83.5l76 13q7 -35 14 -78t11.5 -81.5t4.5 -62.5v-278h-225zM591 330v72h216v-72h-216zM807 0v500h78v-500h-78zM885 0v71h112q34 0 52 10t25 40t7 88
v241h78v-241q0 -78 -16.5 -124t-52 -65.5t-93.5 -19.5h-112zM321 -248q-79 0 -143 29t-101 81t-37 119q0 21 3.5 55.5t9 77t12.5 86t13 82.5l77 -12q-11 -69 -19.5 -127.5t-13 -100t-4.5 -61.5q0 -46 25.5 -81.5t71.5 -56t106 -20.5t103 19t66 53t23 80v525h78v-525
q0 -70 -36.5 -120t-97.5 -76.5t-136 -26.5z" />
    <glyph glyph-name="seen_noonghunnaar.fina" unicode="&#xfeb4;&#xfb9f;" horiz-adv-x="1541" 
d="M1433 0v71h108v-71h-108zM321 -248q-79 0 -143 29t-101 81t-37 119q0 21 3.5 55.5t9 77t12.5 86t13 82.5l77 -12q-11 -69 -19.5 -127.5t-13 -100t-4.5 -61.5q0 -46 25.5 -81.5t71.5 -56t106 -20.5t103 19t66 53t23 80v525h78v-525q0 -70 -36.5 -120t-97.5 -76.5
t-136 -26.5zM1208 0q-34 0 -66.5 13t-63.5 41l52 53q22 -19 40.5 -27.5t37.5 -8.5h178l-30 -32v239q0 18 -3.5 51t-10 74.5t-15.5 83.5l76 13q7 -35 14 -78t11.5 -81.5t4.5 -62.5v-278h-225zM591 330v72h216v-72h-216zM807 0v500h78v-500h-78zM885 0v71h112q34 0 52 10
t25 40t7 88v241h78v-241q0 -78 -16.5 -124t-52 -65.5t-93.5 -19.5h-112zM1541 0v71q6 0 10 -2.5t6 -7t3 -11t1 -14.5t-1 -15t-3 -11.5t-6 -7t-10 -2.5z" />
    <glyph glyph-name="seen_yehHamzaabovear" unicode="&#xfeb3;&#xfe8a;" horiz-adv-x="1614" 
d="M315 -248q-58 0 -108 16.5t-87.5 46t-58.5 70.5t-21 90q0 20 3.5 53t9 74.5t12.5 84.5l77 -11q-11 -67 -17.5 -122t-6.5 -78q0 -45 25 -79.5t69.5 -54t102.5 -19.5h283q76 0 115.5 41.5t39.5 126.5q0 41 -12.5 64.5t-44 39.5t-89.5 33q-51 15 -92 29t-70 33t-44.5 49
t-15.5 78q0 62 25.5 102.5t73.5 60.5t116 20l-3 -71q-46 0 -76 -11.5t-44.5 -35t-14.5 -61.5q0 -31 10 -50t31 -31.5t52 -22t73 -21.5q47 -13 84 -28.5t63.5 -38t40.5 -57t14 -85.5q0 -69 -27 -122t-78.5 -83t-126.5 -30h-283zM597 429l3 71h312v-71h-315zM912 0v500h78
v-500h-78zM990 0v71h112q34 0 52 10t25 40t7 88v241h78v-241q0 -78 -16.5 -124t-52 -65.5t-93.5 -19.5h-112zM1313 0q-34 0 -66.5 13t-63.5 41l52 53q22 -19 40.5 -27.5t37.5 -8.5h178l-30 -32v239q0 18 -4 51t-10.5 74.5t-14.5 83.5l76 13q7 -35 14 -78t11.5 -81.5
t4.5 -62.5v-278h-225zM62 257q-16 20 -24.5 39t-8.5 40q0 29 14.5 52t38.5 36t52 13q16 0 32 -4.5t28 -12.5l-26 -45q-8 5 -15.5 6.5t-15.5 1.5q-23 0 -36.5 -13t-13.5 -34q0 -13 5.5 -25t16.5 -26zM10 257v53h197v-53h-197z" />
    <glyph glyph-name="seen_yehHamzaabovear.fina" unicode="&#xfeb4;&#xfe8a;" horiz-adv-x="1647" 
d="M1538 0v71h109v-71h-109zM315 -248q-58 0 -108 16.5t-87.5 46t-58.5 70.5t-21 90q0 20 3.5 53t9 74.5t12.5 84.5l77 -11q-11 -67 -17.5 -122t-6.5 -78q0 -45 25 -79.5t69.5 -54t102.5 -19.5h283q76 0 115.5 41.5t39.5 126.5q0 41 -12.5 64.5t-44 39.5t-89.5 33
q-51 15 -92 29t-70 33t-44.5 49t-15.5 78q0 62 25.5 102.5t73.5 60.5t116 20l-3 -71q-46 0 -76 -11.5t-44.5 -35t-14.5 -61.5q0 -31 10 -50t31 -31.5t52 -22t73 -21.5q47 -13 84 -28.5t63.5 -38t40.5 -57t14 -85.5q0 -69 -27 -122t-78.5 -83t-126.5 -30h-283zM597 429l3 71
h312v-71h-315zM912 0v500h78v-500h-78zM990 0v71h112q34 0 52 10t25 40t7 88v241h78v-241q0 -78 -16.5 -124t-52 -65.5t-93.5 -19.5h-112zM1313 0q-34 0 -66.5 13t-63.5 41l52 53q22 -19 40.5 -27.5t37.5 -8.5h178l-30 -32v239q0 18 -4 51t-10.5 74.5t-14.5 83.5l76 13
q7 -35 14 -78t11.5 -81.5t4.5 -62.5v-278h-225zM1647 0v71q6 0 10 -2.5t6 -7t3 -11t1 -14.5t-1 -15t-3 -11.5t-6 -7t-10 -2.5zM62 257q-16 20 -24.5 39t-8.5 40q0 29 14.5 52t38.5 36t52 13q16 0 32 -4.5t28 -12.5l-26 -45q-8 5 -15.5 6.5t-15.5 1.5q-23 0 -36.5 -13
t-13.5 -34q0 -13 5.5 -25t16.5 -26zM10 257v53h197v-53h-197z" />
    <glyph glyph-name="sheen_zainar" unicode="&#xfeb7;&#xfeb0;" horiz-adv-x="1110" 
d="M809 0q-34 0 -66.5 13t-63.5 41l52 53q22 -19 40.5 -27.5t37.5 -8.5h178l-30 -32v239q0 18 -3.5 51t-10 74.5t-15.5 83.5l76 13q7 -35 14 -78t11.5 -81.5t4.5 -62.5v-278h-225zM192 330v72h216v-72h-216zM408 0v500h78v-500h-78zM486 0v71h112q34 0 52 10t25 40t7 88v241
h78v-241q0 -78 -16.5 -124t-52 -65.5t-93.5 -19.5h-112zM9 -221q-13 0 -27.5 1.5t-28.5 2.5l9 71q14 -1 26 -2.5t21 -1.5q47 0 76 35.5t29 98.5v516h78v-516q0 -61 -23.5 -107.5t-64.5 -72t-95 -25.5zM685 722v85h72v-85h-72zM613 590v90h78v-90h-78zM750 590v90h78v-90h-78
zM114 590v90h78v-90h-78z" />
    <glyph glyph-name="sheen_zainar.fina" unicode="&#xfeb8;&#xfeb0;" horiz-adv-x="1143" 
d="M1034 0v71h109v-71h-109zM1143 0v71q6 0 10 -2.5t6 -7t3 -11t1 -14.5t-1 -15t-3 -11.5t-6 -7t-10 -2.5zM9 -221q-13 0 -27.5 1.5t-28.5 2.5l9 71q14 -1 26 -2.5t21 -1.5q47 0 76 35.5t29 98.5v516h78v-516q0 -61 -23.5 -107.5t-64.5 -72t-95 -25.5zM809 0q-34 0 -66.5 13
t-63.5 41l52 53q22 -19 40.5 -27.5t37.5 -8.5h178l-30 -32v239q0 18 -3.5 51t-10 74.5t-15.5 83.5l76 13q7 -35 14 -78t11.5 -81.5t4.5 -62.5v-278h-225zM192 330v72h216v-72h-216zM408 0v500h78v-500h-78zM486 0v71h112q34 0 52 10t25 40t7 88v241h78v-241
q0 -78 -16.5 -124t-52 -65.5t-93.5 -19.5h-112zM685 722v85h72v-85h-72zM613 590v90h78v-90h-78zM750 590v90h78v-90h-78zM114 590v90h78v-90h-78z" />
    <glyph glyph-name="sheen_noonar" unicode="&#xfeb7;&#xfee6;" horiz-adv-x="1509" 
d="M1208 0q-34 0 -66.5 13t-63.5 41l52 53q22 -19 40.5 -27.5t37.5 -8.5h178l-30 -32v239q0 18 -3.5 51t-10 74.5t-15.5 83.5l76 13q7 -35 14 -78t11.5 -81.5t4.5 -62.5v-278h-225zM591 330v72h216v-72h-216zM807 0v500h78v-500h-78zM885 0v71h112q34 0 52 10t25 40t7 88
v241h78v-241q0 -78 -16.5 -124t-52 -65.5t-93.5 -19.5h-112zM321 -248q-79 0 -143 29t-101 81t-37 119q0 21 3.5 55.5t9 77t12.5 86t13 82.5l77 -12q-11 -69 -19.5 -127.5t-13 -100t-4.5 -61.5q0 -46 25.5 -81.5t71.5 -56t106 -20.5t103 19t66 53t23 80v525h78v-525
q0 -70 -36.5 -120t-97.5 -76.5t-136 -26.5zM278 500v90h78v-90h-78zM1084 722v85h72v-85h-72zM1012 590v90h78v-90h-78zM1149 590v90h78v-90h-78z" />
    <glyph glyph-name="sheen_noonar.fina" unicode="&#xfeb8;&#xfee6;" horiz-adv-x="1541" 
d="M1433 0v71h108v-71h-108zM321 -248q-79 0 -143 29t-101 81t-37 119q0 21 3.5 55.5t9 77t12.5 86t13 82.5l77 -12q-11 -69 -19.5 -127.5t-13 -100t-4.5 -61.5q0 -46 25.5 -81.5t71.5 -56t106 -20.5t103 19t66 53t23 80v525h78v-525q0 -70 -36.5 -120t-97.5 -76.5
t-136 -26.5zM1208 0q-34 0 -66.5 13t-63.5 41l52 53q22 -19 40.5 -27.5t37.5 -8.5h178l-30 -32v239q0 18 -3.5 51t-10 74.5t-15.5 83.5l76 13q7 -35 14 -78t11.5 -81.5t4.5 -62.5v-278h-225zM591 330v72h216v-72h-216zM807 0v500h78v-500h-78zM885 0v71h112q34 0 52 10
t25 40t7 88v241h78v-241q0 -78 -16.5 -124t-52 -65.5t-93.5 -19.5h-112zM1541 0v71q6 0 10 -2.5t6 -7t3 -11t1 -14.5t-1 -15t-3 -11.5t-6 -7t-10 -2.5zM278 500v90h78v-90h-78zM1084 722v85h72v-85h-72zM1012 590v90h78v-90h-78zM1149 590v90h78v-90h-78z" />
    <glyph glyph-name="sheen_yehHamzaabovear" unicode="&#xfeb7;&#xfe8a;" horiz-adv-x="1614" 
d="M315 -248q-58 0 -108 16.5t-87.5 46t-58.5 70.5t-21 90q0 20 3.5 53t9 74.5t12.5 84.5l77 -11q-11 -67 -17.5 -122t-6.5 -78q0 -45 25 -79.5t69.5 -54t102.5 -19.5h283q76 0 115.5 41.5t39.5 126.5q0 41 -12.5 64.5t-44 39.5t-89.5 33q-51 15 -92 29t-70 33t-44.5 49
t-15.5 78q0 62 25.5 102.5t73.5 60.5t116 20l-3 -71q-46 0 -76 -11.5t-44.5 -35t-14.5 -61.5q0 -31 10 -50t31 -31.5t52 -22t73 -21.5q47 -13 84 -28.5t63.5 -38t40.5 -57t14 -85.5q0 -69 -27 -122t-78.5 -83t-126.5 -30h-283zM597 429l3 71h312v-71h-315zM912 0v500h78
v-500h-78zM990 0v71h112q34 0 52 10t25 40t7 88v241h78v-241q0 -78 -16.5 -124t-52 -65.5t-93.5 -19.5h-112zM1313 0q-34 0 -66.5 13t-63.5 41l52 53q22 -19 40.5 -27.5t37.5 -8.5h178l-30 -32v239q0 18 -4 51t-10.5 74.5t-14.5 83.5l76 13q7 -35 14 -78t11.5 -81.5
t4.5 -62.5v-278h-225zM1189 722v85h72v-85h-72zM1117 590v90h78v-90h-78zM1254 590v90h78v-90h-78zM62 257q-16 20 -24.5 39t-8.5 40q0 29 14.5 52t38.5 36t52 13q16 0 32 -4.5t28 -12.5l-26 -45q-8 5 -15.5 6.5t-15.5 1.5q-23 0 -36.5 -13t-13.5 -34q0 -13 5.5 -25
t16.5 -26zM10 257v53h197v-53h-197z" />
    <glyph glyph-name="sheen_yehHamzaabovear.fina" unicode="&#xfeb8;&#xfe8a;" horiz-adv-x="1647" 
d="M1538 0v71h109v-71h-109zM315 -248q-58 0 -108 16.5t-87.5 46t-58.5 70.5t-21 90q0 20 3.5 53t9 74.5t12.5 84.5l77 -11q-11 -67 -17.5 -122t-6.5 -78q0 -45 25 -79.5t69.5 -54t102.5 -19.5h283q76 0 115.5 41.5t39.5 126.5q0 41 -12.5 64.5t-44 39.5t-89.5 33
q-51 15 -92 29t-70 33t-44.5 49t-15.5 78q0 62 25.5 102.5t73.5 60.5t116 20l-3 -71q-46 0 -76 -11.5t-44.5 -35t-14.5 -61.5q0 -31 10 -50t31 -31.5t52 -22t73 -21.5q47 -13 84 -28.5t63.5 -38t40.5 -57t14 -85.5q0 -69 -27 -122t-78.5 -83t-126.5 -30h-283zM597 429l3 71
h312v-71h-315zM912 0v500h78v-500h-78zM990 0v71h112q34 0 52 10t25 40t7 88v241h78v-241q0 -78 -16.5 -124t-52 -65.5t-93.5 -19.5h-112zM1313 0q-34 0 -66.5 13t-63.5 41l52 53q22 -19 40.5 -27.5t37.5 -8.5h178l-30 -32v239q0 18 -4 51t-10.5 74.5t-14.5 83.5l76 13
q7 -35 14 -78t11.5 -81.5t4.5 -62.5v-278h-225zM1647 0v71q6 0 10 -2.5t6 -7t3 -11t1 -14.5t-1 -15t-3 -11.5t-6 -7t-10 -2.5zM1189 722v85h72v-85h-72zM1117 590v90h78v-90h-78zM1254 590v90h78v-90h-78zM62 257q-16 20 -24.5 39t-8.5 40q0 29 14.5 52t38.5 36t52 13
q16 0 32 -4.5t28 -12.5l-26 -45q-8 5 -15.5 6.5t-15.5 1.5q-23 0 -36.5 -13t-13.5 -34q0 -13 5.5 -25t16.5 -26zM10 257v53h197v-53h-197z" />
    <glyph glyph-name="sad_zainar" unicode="&#xfebb;&#xfeb0;" horiz-adv-x="1086" 
d="M486 0v71h519l-72 -65v235q0 63 -17 104.5t-51.5 62.5t-87.5 21q-43 0 -81 -14.5t-70 -38t-59.5 -52t-50.5 -57.5t-42 -53l-25 71q25 31 50.5 62t53.5 58.5t61.5 48.5t73.5 33.5t90 12.5q71 0 116.5 -24t71 -63.5t35.5 -84.5t10 -87v-241h-525zM192 330v72h216v-72h-216z
M408 0v500h78v-500h-78zM9 -221q-13 0 -27.5 1.5t-28.5 2.5l9 71q14 -1 26 -2.5t21 -1.5q47 0 76 35.5t29 98.5v516h78v-516q0 -61 -23.5 -107.5t-64.5 -72t-95 -25.5zM114 573v90h78v-90h-78z" />
    <glyph glyph-name="sad_zainar.fina" unicode="&#xfebc;&#xfeb0;" horiz-adv-x="1119" 
d="M1011 0v71h108v-71h-108zM1119 0v71q6 0 10 -2.5t6 -7t3 -11t1 -14.5t-1 -15t-3 -11.5t-6 -7t-10 -2.5zM9 -221q-13 0 -27.5 1.5t-28.5 2.5l9 71q14 -1 26 -2.5t21 -1.5q47 0 76 35.5t29 98.5v516h78v-516q0 -61 -23.5 -107.5t-64.5 -72t-95 -25.5zM486 0v71h519l-72 -65
v235q0 63 -17 104.5t-51.5 62.5t-87.5 21q-43 0 -81 -14.5t-70 -38t-59.5 -52t-50.5 -57.5t-42 -53l-25 71q25 31 50.5 62t53.5 58.5t61.5 48.5t73.5 33.5t90 12.5q71 0 116.5 -24t71 -63.5t35.5 -84.5t10 -87v-241h-525zM192 330v72h216v-72h-216zM408 0v500h78v-500h-78z
M114 573v90h78v-90h-78z" />
    <glyph glyph-name="sad_noonar" unicode="&#xfebb;&#xfee6;" horiz-adv-x="1485" 
d="M807 0v71h597l-72 -65v235q0 63 -17.5 104.5t-52 62.5t-86.5 21q-44 0 -81.5 -14.5t-69.5 -38t-59.5 -52t-50.5 -57.5t-42 -53l-25 71q25 31 50.5 62t53.5 58.5t61.5 48.5t73.5 33.5t90 12.5q71 0 116.5 -24t71 -63.5t35.5 -84.5t10 -87v-241h-603zM591 330v72h216v-72
h-216zM807 71v429h78v-429h-78zM321 -248q-79 0 -143 29t-101 81t-37 119q0 21 3.5 55.5t9 77t12.5 86t13 82.5l77 -12q-11 -69 -19.5 -127.5t-13 -100t-4.5 -61.5q0 -46 25.5 -81.5t71.5 -56t106 -20.5t103 19t66 53t23 80v525h78v-525q0 -70 -36.5 -120t-97.5 -76.5
t-136 -26.5zM278 500v90h78v-90h-78z" />
    <glyph glyph-name="sad_noonar.fina" unicode="&#xfebc;&#xfee6;" horiz-adv-x="1518" 
d="M1410 0v71h108v-71h-108zM1518 0v71q6 0 10 -2.5t6 -7t3 -11t1 -14.5t-1 -15t-3 -11.5t-6 -7t-10 -2.5zM321 -248q-79 0 -143 29t-101 81t-37 119q0 21 3.5 55.5t9 77t12.5 86t13 82.5l77 -12q-11 -69 -19.5 -127.5t-13 -100t-4.5 -61.5q0 -46 25.5 -81.5t71.5 -56
t106 -20.5t103 19t66 53t23 80v525h78v-525q0 -70 -36.5 -120t-97.5 -76.5t-136 -26.5zM807 0v71h597l-72 -65v235q0 63 -17.5 104.5t-52 62.5t-86.5 21q-44 0 -81.5 -14.5t-69.5 -38t-59.5 -52t-50.5 -57.5t-42 -53l-25 71q25 31 50.5 62t53.5 58.5t61.5 48.5t73.5 33.5
t90 12.5q71 0 116.5 -24t71 -63.5t35.5 -84.5t10 -87v-241h-603zM591 330v72h216v-72h-216zM807 71v429h78v-429h-78zM278 500v90h78v-90h-78z" />
    <glyph glyph-name="sad_noonghunnaar" unicode="&#xfebb;&#xfb9f;" horiz-adv-x="1485" 
d="M807 0v71h597l-72 -65v235q0 63 -17.5 104.5t-52 62.5t-86.5 21q-44 0 -81.5 -14.5t-69.5 -38t-59.5 -52t-50.5 -57.5t-42 -53l-25 71q25 31 50.5 62t53.5 58.5t61.5 48.5t73.5 33.5t90 12.5q71 0 116.5 -24t71 -63.5t35.5 -84.5t10 -87v-241h-603zM591 330v72h216v-72
h-216zM807 71v429h78v-429h-78zM321 -248q-79 0 -143 29t-101 81t-37 119q0 21 3.5 55.5t9 77t12.5 86t13 82.5l77 -12q-11 -69 -19.5 -127.5t-13 -100t-4.5 -61.5q0 -46 25.5 -81.5t71.5 -56t106 -20.5t103 19t66 53t23 80v525h78v-525q0 -70 -36.5 -120t-97.5 -76.5
t-136 -26.5z" />
    <glyph glyph-name="sad_noonghunnaar.fina" unicode="&#xfebc;&#xfb9f;" horiz-adv-x="1518" 
d="M1410 0v71h108v-71h-108zM1518 0v71q6 0 10 -2.5t6 -7t3 -11t1 -14.5t-1 -15t-3 -11.5t-6 -7t-10 -2.5zM321 -248q-79 0 -143 29t-101 81t-37 119q0 21 3.5 55.5t9 77t12.5 86t13 82.5l77 -12q-11 -69 -19.5 -127.5t-13 -100t-4.5 -61.5q0 -46 25.5 -81.5t71.5 -56
t106 -20.5t103 19t66 53t23 80v525h78v-525q0 -70 -36.5 -120t-97.5 -76.5t-136 -26.5zM807 0v71h597l-72 -65v235q0 63 -17.5 104.5t-52 62.5t-86.5 21q-44 0 -81.5 -14.5t-69.5 -38t-59.5 -52t-50.5 -57.5t-42 -53l-25 71q25 31 50.5 62t53.5 58.5t61.5 48.5t73.5 33.5
t90 12.5q71 0 116.5 -24t71 -63.5t35.5 -84.5t10 -87v-241h-603zM591 330v72h216v-72h-216zM807 71v429h78v-429h-78z" />
    <glyph glyph-name="sad_yehHamzaabovear" unicode="&#xfebb;&#xfe8a;" horiz-adv-x="1590" 
d="M315 -248q-58 0 -108 16.5t-87.5 46t-58.5 70.5t-21 90q0 20 3.5 53t9 74.5t12.5 84.5l77 -11q-11 -67 -17.5 -122t-6.5 -78q0 -45 25 -79.5t69.5 -54t102.5 -19.5h283q76 0 115.5 41.5t39.5 126.5q0 41 -12.5 64.5t-44 39.5t-89.5 33q-51 15 -92 29t-70 33t-44.5 49
t-15.5 78q0 62 25.5 102.5t73.5 60.5t116 20l-3 -71q-46 0 -76 -11.5t-44.5 -35t-14.5 -61.5q0 -31 10 -50t31 -31.5t52 -22t73 -21.5q47 -13 84 -28.5t63.5 -38t40.5 -57t14 -85.5q0 -69 -27 -122t-78.5 -83t-126.5 -30h-283zM597 429l3 71h312v-71h-315zM912 0v500h78
v-500h-78zM990 0v71h519l-72 -65v235q0 63 -17.5 104.5t-52 62.5t-86.5 21q-44 0 -81.5 -14.5t-69.5 -38t-59.5 -52t-50.5 -57.5t-42 -53l-25 71q25 31 50.5 62t53.5 58.5t61.5 48.5t73.5 33.5t90 12.5q71 0 116.5 -24t71 -63.5t35.5 -84.5t10 -87v-241h-525zM62 257
q-16 20 -24.5 39t-8.5 40q0 29 14.5 52t38.5 36t52 13q16 0 32 -4.5t28 -12.5l-26 -45q-8 5 -15.5 6.5t-15.5 1.5q-23 0 -36.5 -13t-13.5 -34q0 -13 5.5 -25t16.5 -26zM10 257v53h197v-53h-197z" />
    <glyph glyph-name="sad_yehHamzaabovear.fina" unicode="&#xfebc;&#xfe8a;" horiz-adv-x="1623" 
d="M1515 0v71h108v-71h-108zM315 -248q-58 0 -108 16.5t-87.5 46t-58.5 70.5t-21 90q0 20 3.5 53t9 74.5t12.5 84.5l77 -11q-11 -67 -17.5 -122t-6.5 -78q0 -45 25 -79.5t69.5 -54t102.5 -19.5h283q76 0 115.5 41.5t39.5 126.5q0 41 -12.5 64.5t-44 39.5t-89.5 33
q-51 15 -92 29t-70 33t-44.5 49t-15.5 78q0 62 25.5 102.5t73.5 60.5t116 20l-3 -71q-46 0 -76 -11.5t-44.5 -35t-14.5 -61.5q0 -31 10 -50t31 -31.5t52 -22t73 -21.5q47 -13 84 -28.5t63.5 -38t40.5 -57t14 -85.5q0 -69 -27 -122t-78.5 -83t-126.5 -30h-283zM597 429l3 71
h312v-71h-315zM912 0v500h78v-500h-78zM990 0v71h519l-72 -65v235q0 63 -17.5 104.5t-52 62.5t-86.5 21q-44 0 -81.5 -14.5t-69.5 -38t-59.5 -52t-50.5 -57.5t-42 -53l-25 71q25 31 50.5 62t53.5 58.5t61.5 48.5t73.5 33.5t90 12.5q71 0 116.5 -24t71 -63.5t35.5 -84.5
t10 -87v-241h-525zM1623 0v71q6 0 10 -2.5t6 -7t3 -11t1 -14.5t-1 -15t-3 -11.5t-6 -7t-10 -2.5zM62 257q-16 20 -24.5 39t-8.5 40q0 29 14.5 52t38.5 36t52 13q16 0 32 -4.5t28 -12.5l-26 -45q-8 5 -15.5 6.5t-15.5 1.5q-23 0 -36.5 -13t-13.5 -34q0 -13 5.5 -25t16.5 -26z
M10 257v53h197v-53h-197z" />
    <glyph glyph-name="dad_zainar" unicode="&#xfebf;&#xfeb0;" horiz-adv-x="1086" 
d="M486 0v71h519l-72 -65v235q0 63 -17 104.5t-51.5 62.5t-87.5 21q-43 0 -81 -14.5t-70 -38t-59.5 -52t-50.5 -57.5t-42 -53l-25 71q25 31 50.5 62t53.5 58.5t61.5 48.5t73.5 33.5t90 12.5q71 0 116.5 -24t71 -63.5t35.5 -84.5t10 -87v-241h-525zM192 330v72h216v-72h-216z
M408 0v500h78v-500h-78zM9 -221q-13 0 -27.5 1.5t-28.5 2.5l9 71q14 -1 26 -2.5t21 -1.5q47 0 76 35.5t29 98.5v516h78v-516q0 -61 -23.5 -107.5t-64.5 -72t-95 -25.5zM681 573v90h78v-90h-78zM114 573v90h78v-90h-78z" />
    <glyph glyph-name="dad_zainar.fina" unicode="&#xfec0;&#xfeb0;" horiz-adv-x="1119" 
d="M1011 0v71h108v-71h-108zM1119 0v71q6 0 10 -2.5t6 -7t3 -11t1 -14.5t-1 -15t-3 -11.5t-6 -7t-10 -2.5zM9 -221q-13 0 -27.5 1.5t-28.5 2.5l9 71q14 -1 26 -2.5t21 -1.5q47 0 76 35.5t29 98.5v516h78v-516q0 -61 -23.5 -107.5t-64.5 -72t-95 -25.5zM486 0v71h519l-72 -65
v235q0 63 -17 104.5t-51.5 62.5t-87.5 21q-43 0 -81 -14.5t-70 -38t-59.5 -52t-50.5 -57.5t-42 -53l-25 71q25 31 50.5 62t53.5 58.5t61.5 48.5t73.5 33.5t90 12.5q71 0 116.5 -24t71 -63.5t35.5 -84.5t10 -87v-241h-525zM192 330v72h216v-72h-216zM408 0v500h78v-500h-78z
M681 573v90h78v-90h-78zM114 573v90h78v-90h-78z" />
    <glyph glyph-name="dad_noonar" unicode="&#xfebf;&#xfee6;" horiz-adv-x="1485" 
d="M807 0v71h597l-72 -65v235q0 63 -17.5 104.5t-52 62.5t-86.5 21q-44 0 -81.5 -14.5t-69.5 -38t-59.5 -52t-50.5 -57.5t-42 -53l-25 71q25 31 50.5 62t53.5 58.5t61.5 48.5t73.5 33.5t90 12.5q71 0 116.5 -24t71 -63.5t35.5 -84.5t10 -87v-241h-603zM591 330v72h216v-72
h-216zM807 71v429h78v-429h-78zM321 -248q-79 0 -143 29t-101 81t-37 119q0 21 3.5 55.5t9 77t12.5 86t13 82.5l77 -12q-11 -69 -19.5 -127.5t-13 -100t-4.5 -61.5q0 -46 25.5 -81.5t71.5 -56t106 -20.5t103 19t66 53t23 80v525h78v-525q0 -70 -36.5 -120t-97.5 -76.5
t-136 -26.5zM278 500v90h78v-90h-78zM1081 590v90h78v-90h-78z" />
    <glyph glyph-name="dad_noonar.fina" unicode="&#xfec0;&#xfee6;" horiz-adv-x="1518" 
d="M1410 0v71h108v-71h-108zM1518 0v71q6 0 10 -2.5t6 -7t3 -11t1 -14.5t-1 -15t-3 -11.5t-6 -7t-10 -2.5zM321 -248q-79 0 -143 29t-101 81t-37 119q0 21 3.5 55.5t9 77t12.5 86t13 82.5l77 -12q-11 -69 -19.5 -127.5t-13 -100t-4.5 -61.5q0 -46 25.5 -81.5t71.5 -56
t106 -20.5t103 19t66 53t23 80v525h78v-525q0 -70 -36.5 -120t-97.5 -76.5t-136 -26.5zM807 0v71h597l-72 -65v235q0 63 -17.5 104.5t-52 62.5t-86.5 21q-44 0 -81.5 -14.5t-69.5 -38t-59.5 -52t-50.5 -57.5t-42 -53l-25 71q25 31 50.5 62t53.5 58.5t61.5 48.5t73.5 33.5
t90 12.5q71 0 116.5 -24t71 -63.5t35.5 -84.5t10 -87v-241h-603zM591 330v72h216v-72h-216zM807 71v429h78v-429h-78zM278 500v90h78v-90h-78zM1081 590v90h78v-90h-78z" />
    <glyph glyph-name="dad_yehHamzaabovear" unicode="&#xfebf;&#xfe8a;" horiz-adv-x="1590" 
d="M315 -248q-58 0 -108 16.5t-87.5 46t-58.5 70.5t-21 90q0 20 3.5 53t9 74.5t12.5 84.5l77 -11q-11 -67 -17.5 -122t-6.5 -78q0 -45 25 -79.5t69.5 -54t102.5 -19.5h283q76 0 115.5 41.5t39.5 126.5q0 41 -12.5 64.5t-44 39.5t-89.5 33q-51 15 -92 29t-70 33t-44.5 49
t-15.5 78q0 62 25.5 102.5t73.5 60.5t116 20l-3 -71q-46 0 -76 -11.5t-44.5 -35t-14.5 -61.5q0 -31 10 -50t31 -31.5t52 -22t73 -21.5q47 -13 84 -28.5t63.5 -38t40.5 -57t14 -85.5q0 -69 -27 -122t-78.5 -83t-126.5 -30h-283zM597 429l3 71h312v-71h-315zM912 0v500h78
v-500h-78zM990 0v71h519l-72 -65v235q0 63 -17.5 104.5t-52 62.5t-86.5 21q-44 0 -81.5 -14.5t-69.5 -38t-59.5 -52t-50.5 -57.5t-42 -53l-25 71q25 31 50.5 62t53.5 58.5t61.5 48.5t73.5 33.5t90 12.5q71 0 116.5 -24t71 -63.5t35.5 -84.5t10 -87v-241h-525zM1185 573v90
h78v-90h-78zM62 257q-16 20 -24.5 39t-8.5 40q0 29 14.5 52t38.5 36t52 13q16 0 32 -4.5t28 -12.5l-26 -45q-8 5 -15.5 6.5t-15.5 1.5q-23 0 -36.5 -13t-13.5 -34q0 -13 5.5 -25t16.5 -26zM10 257v53h197v-53h-197z" />
    <glyph glyph-name="dad_yehHamzaabovear.fina" unicode="&#xfec0;&#xfe8a;" horiz-adv-x="1623" 
d="M1515 0v71h108v-71h-108zM315 -248q-58 0 -108 16.5t-87.5 46t-58.5 70.5t-21 90q0 20 3.5 53t9 74.5t12.5 84.5l77 -11q-11 -67 -17.5 -122t-6.5 -78q0 -45 25 -79.5t69.5 -54t102.5 -19.5h283q76 0 115.5 41.5t39.5 126.5q0 41 -12.5 64.5t-44 39.5t-89.5 33
q-51 15 -92 29t-70 33t-44.5 49t-15.5 78q0 62 25.5 102.5t73.5 60.5t116 20l-3 -71q-46 0 -76 -11.5t-44.5 -35t-14.5 -61.5q0 -31 10 -50t31 -31.5t52 -22t73 -21.5q47 -13 84 -28.5t63.5 -38t40.5 -57t14 -85.5q0 -69 -27 -122t-78.5 -83t-126.5 -30h-283zM597 429l3 71
h312v-71h-315zM912 0v500h78v-500h-78zM990 0v71h519l-72 -65v235q0 63 -17.5 104.5t-52 62.5t-86.5 21q-44 0 -81.5 -14.5t-69.5 -38t-59.5 -52t-50.5 -57.5t-42 -53l-25 71q25 31 50.5 62t53.5 58.5t61.5 48.5t73.5 33.5t90 12.5q71 0 116.5 -24t71 -63.5t35.5 -84.5
t10 -87v-241h-525zM1623 0v71q6 0 10 -2.5t6 -7t3 -11t1 -14.5t-1 -15t-3 -11.5t-6 -7t-10 -2.5zM1185 573v90h78v-90h-78zM62 257q-16 20 -24.5 39t-8.5 40q0 29 14.5 52t38.5 36t52 13q16 0 32 -4.5t28 -12.5l-26 -45q-8 5 -15.5 6.5t-15.5 1.5q-23 0 -36.5 -13t-13.5 -34
q0 -13 5.5 -25t16.5 -26zM10 257v53h197v-53h-197z" />
    <glyph glyph-name="lam_yehHamzaabovear" unicode="&#xfedf;&#xfe8a;" horiz-adv-x="1020" 
d="M866 0v717h78v-717h-78zM745 0v71h121v-71h-121zM745 0q-6 0 -10 2.5t-6 7t-3 11.5t-1 15q0 11 1.5 18.5t6 12t12.5 4.5v-71zM315 -248q-58 0 -108 16.5t-87.5 46t-58.5 70.5t-21 90q0 20 3.5 53t9 74.5t12.5 84.5l77 -11q-11 -67 -17.5 -122t-6.5 -78q0 -45 25 -79.5
t69.5 -54t102.5 -19.5h283q76 0 115.5 42t39.5 123v33h77v-34q0 -69 -27 -122t-78.5 -83t-126.5 -30h-283zM695 0q-34 0 -68.5 7t-68.5 29l44 59q14 -9 27 -14.5t29 -7.5t37 -2h189v-71h-189zM884 0v71q6 0 10 -2.5t6 -7t3 -11t1 -14.5t-1 -15t-3 -11.5t-6 -7t-10 -2.5z
M62 257q-16 20 -24.5 39t-8.5 40q0 29 14.5 52t38.5 36t52 13q16 0 32 -4.5t28 -12.5l-26 -45q-8 5 -15.5 6.5t-15.5 1.5q-23 0 -36.5 -13t-13.5 -34q0 -13 5.5 -25t16.5 -26zM10 257v53h197v-53h-197z" />
    <glyph glyph-name="lam_yehHamzaabovear.fina" unicode="&#xfee0;&#xfe8a;" horiz-adv-x="1052" 
d="M944 0v71h108v-71h-108zM745 0q-6 0 -10 2.5t-6 7t-3 11.5t-1 15q0 11 1.5 18.5t6 12t12.5 4.5v-71zM866 0v717h78v-717h-78zM745 0v71h121v-71h-121zM884 0v71q6 0 10 -2.5t6 -7t3 -11t1 -14.5t-1 -15t-3 -11.5t-6 -7t-10 -2.5zM315 -248q-58 0 -108 16.5t-87.5 46
t-58.5 70.5t-21 90q0 20 3.5 53t9 74.5t12.5 84.5l77 -11q-11 -67 -17.5 -122t-6.5 -78q0 -45 25 -79.5t69.5 -54t102.5 -19.5h283q76 0 115.5 42t39.5 123v33h77v-34q0 -69 -27 -122t-78.5 -83t-126.5 -30h-283zM695 0q-34 0 -68.5 7t-68.5 29l44 59q14 -9 27 -14.5
t29 -7.5t37 -2h189v-71h-189zM1052 0v71q6 0 10 -2.5t6 -7t3 -11t1 -14.5t-1 -15t-3 -11.5t-6 -7t-10 -2.5zM62 257q-16 20 -24.5 39t-8.5 40q0 29 14.5 52t38.5 36t52 13q16 0 32 -4.5t28 -12.5l-26 -45q-8 5 -15.5 6.5t-15.5 1.5q-23 0 -36.5 -13t-13.5 -34q0 -13 5.5 -25
t16.5 -26zM10 257v53h197v-53h-197z" />
    <glyph glyph-name="noon_yehHamzaabovear.fina" unicode="&#xfee8;&#xfe8a;" horiz-adv-x="1111" 
d="M315 -248q-58 0 -108 16.5t-87.5 46t-58.5 70.5t-21 90q0 20 3.5 53t9 74.5t12.5 84.5l77 -11q-11 -67 -17.5 -122t-6.5 -78q0 -45 25 -79.5t69.5 -54t102.5 -19.5h283q76 0 115.5 41.5t39.5 126.5q0 41 -12.5 64.5t-44 39.5t-89.5 33q-51 15 -92 29t-70 33t-44.5 49
t-15.5 78q0 62 25.5 102.5t73.5 60.5t116 20l-3 -71q-46 0 -76 -11.5t-44.5 -35t-14.5 -61.5q0 -31 10 -50t31 -31.5t52 -22t73 -21.5q47 -13 84 -28.5t63.5 -38t40.5 -57t14 -85.5q0 -69 -27 -122t-78.5 -83t-126.5 -30h-283zM925 0v500h78v-458l-36 29h144v-71h-186z
M597 429l3 71h325v-71h-328zM1111 0v71q6 0 10 -2.5t6 -7t3 -11t1 -14.5t-1 -15t-3 -11.5t-6 -7t-10 -2.5zM925 573v90h78v-90h-78zM62 257q-16 20 -24.5 39t-8.5 40q0 29 14.5 52t38.5 36t52 13q16 0 32 -4.5t28 -12.5l-26 -45q-8 5 -15.5 6.5t-15.5 1.5q-23 0 -36.5 -13
t-13.5 -34q0 -13 5.5 -25t16.5 -26zM10 257v53h197v-53h-197z" />
    <glyph glyph-name="alefMaksura_rehar.fina" unicode="&#x649;&#xfeae;" horiz-adv-x="594" 
d="M408 0v500h78v-458l-36 29h144v-71h-186zM192 330v72h216v-72h-216zM9 -221q-13 0 -27.5 1.5t-28.5 2.5l9 71q14 -1 26 -2.5t21 -1.5q47 0 76 35.5t29 98.5v516h78v-516q0 -61 -23.5 -107.5t-64.5 -72t-95 -25.5zM594 0v71q6 0 10 -2.5t6 -7t3 -11t1 -14.5t-1 -15
t-3 -11.5t-6 -7t-10 -2.5z" />
    <glyph glyph-name="alefMaksura_zainar.fina" unicode="&#x649;&#xfeb0;" horiz-adv-x="594" 
d="M408 0v500h78v-458l-36 29h144v-71h-186zM192 330v72h216v-72h-216zM9 -221q-13 0 -27.5 1.5t-28.5 2.5l9 71q14 -1 26 -2.5t21 -1.5q47 0 76 35.5t29 98.5v516h78v-516q0 -61 -23.5 -107.5t-64.5 -72t-95 -25.5zM594 0v71q6 0 10 -2.5t6 -7t3 -11t1 -14.5t-1 -15
t-3 -11.5t-6 -7t-10 -2.5zM114 590v90h78v-90h-78z" />
    <glyph glyph-name="alefMaksura_noonar.fina" unicode="&#x649;&#xfee6;" horiz-adv-x="993" 
d="M807 0v500h78v-458l-36 29h144v-71h-186zM591 330v72h216v-72h-216zM321 -248q-79 0 -143 29t-101 81t-37 119q0 21 3.5 55.5t9 77t12.5 86t13 82.5l77 -12q-11 -69 -19.5 -127.5t-13 -100t-4.5 -61.5q0 -46 25.5 -81.5t71.5 -56t106 -20.5t103 19t66 53t23 80v525h78
v-525q0 -70 -36.5 -120t-97.5 -76.5t-136 -26.5zM278 500v90h78v-90h-78zM993 0v71q6 0 10 -2.5t6 -7t3 -11t1 -14.5t-1 -15t-3 -11.5t-6 -7t-10 -2.5z" />
    <glyph glyph-name="alefMaksura_alefMaksuraar.fina" unicode="&#x649;&#xfef0;" horiz-adv-x="1111" 
d="M315 -248q-58 0 -108 16.5t-87.5 46t-58.5 70.5t-21 90q0 20 3.5 53t9 74.5t12.5 84.5l77 -11q-11 -67 -17.5 -122t-6.5 -78q0 -45 25 -79.5t69.5 -54t102.5 -19.5h283q76 0 115.5 41.5t39.5 126.5q0 41 -12.5 64.5t-44 39.5t-89.5 33q-51 15 -92 29t-70 33t-44.5 49
t-15.5 78q0 62 25.5 102.5t73.5 60.5t116 20l-3 -71q-46 0 -76 -11.5t-44.5 -35t-14.5 -61.5q0 -31 10 -50t31 -31.5t52 -22t73 -21.5q47 -13 84 -28.5t63.5 -38t40.5 -57t14 -85.5q0 -69 -27 -122t-78.5 -83t-126.5 -30h-283zM925 0v500h78v-458l-36 29h144v-71h-186z
M597 429l3 71h325v-71h-328zM1111 0v71q6 0 10 -2.5t6 -7t3 -11t1 -14.5t-1 -15t-3 -11.5t-6 -7t-10 -2.5z" />
    <glyph glyph-name="yehHamzaabove_yehHamzaabovear.fina" unicode="&#xfe8c;&#xfe8a;" horiz-adv-x="1111" 
d="M315 -248q-58 0 -108 16.5t-87.5 46t-58.5 70.5t-21 90q0 20 3.5 53t9 74.5t12.5 84.5l77 -11q-11 -67 -17.5 -122t-6.5 -78q0 -45 25 -79.5t69.5 -54t102.5 -19.5h283q76 0 115.5 41.5t39.5 126.5q0 41 -12.5 64.5t-44 39.5t-89.5 33q-51 15 -92 29t-70 33t-44.5 49
t-15.5 78q0 62 25.5 102.5t73.5 60.5t116 20l-3 -71q-46 0 -76 -11.5t-44.5 -35t-14.5 -61.5q0 -31 10 -50t31 -31.5t52 -22t73 -21.5q47 -13 84 -28.5t63.5 -38t40.5 -57t14 -85.5q0 -69 -27 -122t-78.5 -83t-126.5 -30h-283zM925 0v500h78v-458l-36 29h144v-71h-186z
M597 429l3 71h325v-71h-328zM1111 0v71q6 0 10 -2.5t6 -7t3 -11t1 -14.5t-1 -15t-3 -11.5t-6 -7t-10 -2.5zM858 573q-16 20 -24.5 39t-8.5 40q0 29 14.5 52t38.5 36t52 13q16 0 32 -4.5t28 -12.5l-26 -45q-8 5 -15.5 6.5t-15.5 1.5q-23 0 -36.5 -13t-13.5 -34q0 -13 5.5 -25
t16.5 -26zM806 573v53h197v-53h-197zM62 257q-16 20 -24.5 39t-8.5 40q0 29 14.5 52t38.5 36t52 13q16 0 32 -4.5t28 -12.5l-26 -45q-8 5 -15.5 6.5t-15.5 1.5q-23 0 -36.5 -13t-13.5 -34q0 -13 5.5 -25t16.5 -26zM10 257v53h197v-53h-197z" />
    <glyph glyph-name="uniFDF2.tashkeel" unicode="&#x627;&#xfedf;&#xfee0;&#xfeea;" horiz-adv-x="1323" 
d="M661 0v635h78v-635h-78zM540 0v71h121v-71h-121zM739 0v71h108v-71h-108zM750 693q-33 0 -50 24.5t-17 67.5v31h36v-31q0 -31 8 -43.5t23 -12.5q23 0 30.5 25t-2.5 81l35 7q13 -69 -2 -109t-61 -40zM652 693q-46 0 -61 40t-2 109l35 -7q-10 -56 -2 -81t30 -25
q15 0 23 12.5t8 43.5v31h36v-31q0 -43 -17 -67.5t-50 -24.5zM682 871v126h36v-126h-36zM1151 0v717h77v-717h-77zM578 0v71q6 0 10 -2.5t6 -7t3 -11t1 -14.5t-1 -15t-3 -11.5t-6 -7t-10 -2.5zM263 0q-87 0 -135.5 26.5t-68 82t-19.5 141.5t19.5 141.5t68 82t135.5 26.5h207
v-460h-78v423l40 -34h-169q-58 0 -89.5 -14t-43.5 -52.5t-12 -112.5t12 -112.5t43.5 -52.5t89.5 -14h315v-71h-315zM806 0q-6 0 -10 2.5t-6 7t-3 11.5t-1 15q0 11 1.5 18.5t6 12t12.5 4.5v-71zM927 0v717h78v-717h-78zM806 0v71h121v-71h-121z" />
    <glyph glyph-name="uni066E.init" unicode="&#x66e;" horiz-adv-x="267" 
d="M0 0v71h144l-36 -29v458h78v-500h-186zM0 0q-6 0 -10 2.5t-6 7t-3 11.5t-1 15q0 11 1.5 18.5t6 12t12.5 4.5v-71z" />
    <glyph glyph-name="uni066E.medi" unicode="&#x66e;" horiz-adv-x="294" 
d="M186 0v71h108v-71h-108zM0 0q-6 0 -10 2.5t-6 7t-3 11.5t-1 15q0 11 1.5 18.5t6 12t12.5 4.5v-71zM0 0v71h144l-36 -29v458h78v-500h-186zM294 0v71q6 0 10 -2.5t6 -7t3 -11t1 -14.5t-1 -15t-3 -11.5t-6 -7t-10 -2.5z" />
    <glyph glyph-name="uni066E.fina" unicode="&#x66e;" horiz-adv-x="817" 
d="M709 0v71h108v-71h-108zM337 0q-99 0 -165 23t-99 70t-33 120q0 24 3.5 52t8.5 54.5t9 46t5 26.5l76 -14q-3 -16 -8.5 -44t-10.5 -60t-5 -61q0 -37 11.5 -64t37 -44.5t67.5 -25.5t103 -8h294v429h78v-500h-372zM817 0v71q6 0 10 -2.5t6 -7t3 -11t1 -14.5t-1 -15t-3 -11.5
t-6 -7t-10 -2.5z" />
    <glyph glyph-name="uni066F.fina" unicode="&#x66f;" horiz-adv-x="895" 
d="M787 0v71h108v-71h-108zM303 -266q-73 0 -133 27t-95 75t-35 111q0 21 4 57.5t10 80t13 88.5t13 82l77 -12q-11 -68 -20 -125.5t-13.5 -99.5t-4.5 -65q0 -47 23 -80t64.5 -50.5t96.5 -17.5h232q55 0 93.5 17t59.5 47.5t21 72.5v521l41 -34h-170q-58 0 -89.5 -14
t-43.5 -52.5t-12 -112.5t12 -112.5t43.5 -52.5t89.5 -14h129v-71h-129q-88 0 -136 26.5t-67.5 82t-19.5 141.5t19.5 141.5t67.5 82t136 26.5h207v-558q0 -69 -35.5 -115.5t-93 -69.5t-123.5 -23h-232zM895 0v71q6 0 10 -2.5t6 -7t3 -11t1 -14.5t-1 -15t-3 -11.5t-6 -7
t-10 -2.5z" />
    <glyph glyph-name="uni06A1.init" unicode="&#x6a1;" horiz-adv-x="607" 
d="M0 0v71h505l-52 -45v437l41 -34h-170q-58 0 -89.5 -14t-43.5 -52.5t-12 -112.5t12 -112.5t43.5 -52.5t89.5 -14v-51q-87 0 -135.5 21.5t-68 72t-19.5 136.5t19.5 141.5t68 82t135.5 26.5h207v-500h-531zM0 0q-6 0 -10 2.5t-6 7t-3 11.5t-1 15q0 11 1.5 18.5t6 12
t12.5 4.5v-71z" />
    <glyph glyph-name="uni06A1.medi" unicode="&#x6a1;" horiz-adv-x="639" 
d="M531 0v71h108v-71h-108zM0 0q-6 0 -10 2.5t-6 7t-3 11.5t-1 15q0 11 1.5 18.5t6 12t12.5 4.5v-71zM0 0v71h505l-52 -45v437l41 -34h-170q-58 0 -89.5 -14t-43.5 -52.5t-12 -112.5t12 -112.5t43.5 -52.5t89.5 -14v-51q-87 0 -135.5 21.5t-68 72t-19.5 136.5t19.5 141.5
t68 82t135.5 26.5h207v-500h-531zM639 0v71q6 0 10 -2.5t6 -7t3 -11t1 -14.5t-1 -15t-3 -11.5t-6 -7t-10 -2.5z" />
    <glyph glyph-name="uni06A1.fina" unicode="&#x6a1;" horiz-adv-x="1055" 
d="M947 0v71h108v-71h-108zM351 0q-99 0 -165 23t-99 70t-33 120q0 24 3.5 52t8.5 54.5t9 46t5 26.5l76 -14q-3 -16 -8.5 -44t-10.5 -60t-5 -61q0 -37 11.5 -64t37 -44.5t67.5 -25.5t103 -8h570l-52 -45v437l41 -34h-170q-58 0 -89.5 -14t-43.5 -52.5t-12 -112.5t12 -112.5
t43.5 -52.5t89.5 -14v-51q-87 0 -135.5 21.5t-68 72t-19.5 136.5t19.5 141.5t68 82t135.5 26.5h207v-500h-596zM1055 0v71q6 0 10 -2.5t6 -7t3 -11t1 -14.5t-1 -15t-3 -11.5t-6 -7t-10 -2.5z" />
    <glyph glyph-name="uni06BA.init" unicode="&#x6ba;" horiz-adv-x="267" 
d="M0 0v71h144l-36 -29v458h78v-500h-186zM0 0q-6 0 -10 2.5t-6 7t-3 11.5t-1 15q0 11 1.5 18.5t6 12t12.5 4.5v-71z" />
    <glyph glyph-name="uni06BA.medi" unicode="&#x6ba;" horiz-adv-x="294" 
d="M186 0v71h108v-71h-108zM294 0v71q6 0 10 -2.5t6 -7t3 -11t1 -14.5t-1 -15t-3 -11.5t-6 -7t-10 -2.5zM0 0q-6 0 -10 2.5t-6 7t-3 11.5t-1 15q0 11 1.5 18.5t6 12t12.5 4.5v-71zM0 0v71h144l-36 -29v458h78v-500h-186z" />
    <glyph glyph-name="uni06C2.init" unicode="&#x6c2;" horiz-adv-x="267" 
d="M30 -300l50 208h68l-41 -208h-77zM0 0q-6 0 -10 2.5t-6 7t-3 11.5t-1 15q0 11 1.5 18.5t6 12t12.5 4.5v-71zM0 0v71h144l-36 -29v458h78v-500h-186zM101 573q-16 20 -24.5 39t-8.5 40q0 29 14.5 52t38.5 36t52 13q16 0 32 -4.5t28 -12.5l-26 -45q-8 5 -15.5 6.5
t-15.5 1.5q-23 0 -36.5 -13t-13.5 -34q0 -13 5.5 -25t16.5 -26zM49 573v53h197v-53h-197z" />
    <glyph glyph-name="uni06C2.medi" unicode="&#x6c2;" horiz-adv-x="578" 
d="M470 -307q-37 -5 -70 -7t-58 -2q-66 0 -110.5 18.5t-70.5 60t-38 108.5t-13 164l37 -35h-147v71h189q2 -101 10 -163.5t25.5 -95.5t46.5 -45t72 -12q12 0 25 0.5t30.5 2.5t42.5 4l-48 -71v380h185v-71h-143l35 35v-342zM578 0v71q6 0 10 -2.5t6 -7t3 -11t1 -14.5t-1 -15
t-3 -11.5t-6 -7t-10 -2.5zM0 0q-6 0 -10 2.5t-6 7t-3 11.5t-1 15q0 11 1.5 18.5t6 12t12.5 4.5v-71zM243 282q-16 20 -24.5 39t-8.5 40q0 29 14.5 52t38.5 36t52 13q16 0 32 -4.5t28 -12.5l-26 -45q-8 5 -15.5 6.5t-15.5 1.5q-23 0 -36.5 -13t-13.5 -34q0 -13 5.5 -25
t16.5 -26zM191 282v53h197v-53h-197z" />
    <glyph glyph-name="uni06C2.fina" unicode="&#x6c2;" horiz-adv-x="578" 
d="M40 0v250q0 90 20.5 145t69.5 80t133 25h207v-448l-19 19h127v-71h-186v464l31 -35h-160q-58 0 -89.5 -14t-43.5 -52.5t-12 -112.5v-250h-78zM578 0v71q6 0 10 -2.5t6 -7t3 -11t1 -14.5t-1 -15t-3 -11.5t-6 -7t-10 -2.5zM226 590q-16 20 -24.5 39t-8.5 40q0 29 14.5 52
t38.5 36t52 13q16 0 32 -4.5t28 -12.5l-26 -45q-8 5 -15.5 6.5t-15.5 1.5q-23 0 -36.5 -13t-13.5 -34q0 -13 5.5 -25t16.5 -26zM174 590v53h197v-53h-197z" />
    <glyph glyph-name="uni06C3.fina" unicode="&#x6c3;" horiz-adv-x="578" 
d="M40 0v250q0 90 20.5 145t69.5 80t133 25h207v-448l-19 19h127v-71h-186v464l31 -35h-160q-58 0 -89.5 -14t-43.5 -52.5t-12 -112.5v-250h-78zM578 0v71q6 0 10 -2.5t6 -7t3 -11t1 -14.5t-1 -15t-3 -11.5t-6 -7t-10 -2.5zM166 590v90h78v-90h-78zM303 590v90h78v-90h-78z
" />
    <glyph glyph-name="uniFB51" unicode="&#x671;" horiz-adv-x="295" arabic-form="final" 
d="M173 0v71h122v-71h-122zM96 0v717h77v-717h-77zM295 0v71q6 0 10 -2.5t6 -7t3 -11t1 -14.5t-1 -15t-3 -11.5t-6 -7t-10 -2.5zM45 834q0 29 14 51.5t38 35t52 12.5q29 0 52.5 -12.5t37.5 -35t14 -51.5h-54q0 20 -14 34t-36 14q-21 0 -35.5 -14t-14.5 -34h-54zM16 783v51
h237v-51h-237z" />
    <glyph glyph-name="uniFB57" unicode="&#x67e;" horiz-adv-x="817" arabic-form="final" 
d="M709 0v71h108v-71h-108zM337 0q-99 0 -165 23t-99 70t-33 120q0 24 3.5 52t8.5 54.5t9 46t5 26.5l76 -14q-3 -16 -8.5 -44t-10.5 -60t-5 -61q0 -37 11.5 -64t37 -44.5t67.5 -25.5t103 -8h294v429h78v-500h-372zM817 0v71q6 0 10 -2.5t6 -7t3 -11t1 -14.5t-1 -15t-3 -11.5
t-6 -7t-10 -2.5zM267 -89h78v-90h-78v90zM404 -89h78v-90h-78v90zM339 -221h72v-85h-72v85z" />
    <glyph glyph-name="uniFB58" unicode="&#x67e;" horiz-adv-x="267" arabic-form="initial" 
d="M0 0v71h144l-36 -29v458h78v-500h-186zM0 0q-6 0 -10 2.5t-6 7t-3 11.5t-1 15q0 11 1.5 18.5t6 12t12.5 4.5v-71zM39 -89h78v-90h-78v90zM176 -89h78v-90h-78v90zM111 -221h72v-85h-72v85z" />
    <glyph glyph-name="uniFB59" unicode="&#x67e;" horiz-adv-x="294" arabic-form="medial" 
d="M186 0v71h108v-71h-108zM294 0v71q6 0 10 -2.5t6 -7t3 -11t1 -14.5t-1 -15t-3 -11.5t-6 -7t-10 -2.5zM0 0q-6 0 -10 2.5t-6 7t-3 11.5t-1 15q0 11 1.5 18.5t6 12t12.5 4.5v-71zM0 0v71h144l-36 -29v458h78v-500h-186zM40 -59h78v-90h-78v90zM177 -59h78v-90h-78v90z
M112 -191h72v-85h-72v85z" />
    <glyph glyph-name="uniFB67" unicode="&#x679;" horiz-adv-x="817" arabic-form="final" 
d="M709 0v71h108v-71h-108zM337 0q-99 0 -165 23t-99 70t-33 120q0 24 3.5 52t8.5 54.5t9 46t5 26.5l76 -14q-3 -16 -8.5 -44t-10.5 -60t-5 -61q0 -37 11.5 -64t37 -44.5t67.5 -25.5t103 -8h294v429h78v-500h-372zM817 0v71q6 0 10 -2.5t6 -7t3 -11t1 -14.5t-1 -15t-3 -11.5
t-6 -7t-10 -2.5zM285 544q0 29 14 51t38 35t52 13q29 0 52.5 -13t37.5 -35t14 -51h-54q0 20 -14 34t-36 14q-14 0 -28 -6.5t-23 -17t-9 -24.5h-44zM256 493v51h237v-51h-237zM285 544v139h54v-139h-54z" />
    <glyph glyph-name="uniFB68" unicode="&#x679;" horiz-adv-x="267" arabic-form="initial" 
d="M0 0v71h144l-36 -29v458h78v-500h-186zM0 0q-6 0 -10 2.5t-6 7t-3 11.5t-1 15q0 11 1.5 18.5t6 12t12.5 4.5v-71zM57 641q0 29 14 51t38 35t52 13q29 0 52.5 -13t37.5 -35t14 -51h-54q0 20 -14 34t-36 14q-14 0 -28 -6.5t-23 -17t-9 -24.5h-44zM28 590v51h237v-51h-237z
M57 641v139h54v-139h-54z" />
    <glyph glyph-name="uniFB69" unicode="&#x679;" horiz-adv-x="294" arabic-form="medial" 
d="M186 0v71h108v-71h-108zM0 0q-6 0 -10 2.5t-6 7t-3 11.5t-1 15q0 11 1.5 18.5t6 12t12.5 4.5v-71zM0 0v71h144l-36 -29v458h78v-500h-186zM294 0v71q6 0 10 -2.5t6 -7t3 -11t1 -14.5t-1 -15t-3 -11.5t-6 -7t-10 -2.5zM57 641q0 29 14 51t38 35t52 13q29 0 52.5 -13
t37.5 -35t14 -51h-54q0 20 -14 34t-36 14q-14 0 -28 -6.5t-23 -17t-9 -24.5h-44zM28 590v51h237v-51h-237zM57 641v139h54v-139h-54z" />
    <glyph glyph-name="uniFB6B" unicode="&#x6a4;" horiz-adv-x="1055" arabic-form="final" 
d="M947 0v71h108v-71h-108zM351 0q-99 0 -165 23t-99 70t-33 120q0 24 3.5 52t8.5 54.5t9 46t5 26.5l76 -14q-3 -16 -8.5 -44t-10.5 -60t-5 -61q0 -37 11.5 -64t37 -44.5t67.5 -25.5t103 -8h570l-52 -45v437l41 -34h-170q-58 0 -89.5 -14t-43.5 -52.5t-12 -112.5t12 -112.5
t43.5 -52.5t89.5 -14v-51q-87 0 -135.5 21.5t-68 72t-19.5 136.5t19.5 141.5t68 82t135.5 26.5h207v-500h-596zM1055 0v71q6 0 10 -2.5t6 -7t3 -11t1 -14.5t-1 -15t-3 -11.5t-6 -7t-10 -2.5zM719 722v85h72v-85h-72zM647 590v90h78v-90h-78zM784 590v90h78v-90h-78z" />
    <glyph glyph-name="uniFB6C" unicode="&#x6a4;" horiz-adv-x="607" arabic-form="initial" 
d="M0 0v71h505l-52 -45v437l41 -34h-170q-58 0 -89.5 -14t-43.5 -52.5t-12 -112.5t12 -112.5t43.5 -52.5t89.5 -14v-51q-87 0 -135.5 21.5t-68 72t-19.5 136.5t19.5 141.5t68 82t135.5 26.5h207v-500h-531zM0 0q-6 0 -10 2.5t-6 7t-3 11.5t-1 15q0 11 1.5 18.5t6 12
t12.5 4.5v-71zM303 722v85h72v-85h-72zM231 590v90h78v-90h-78zM368 590v90h78v-90h-78z" />
    <glyph glyph-name="uniFB6D" unicode="&#x6a4;" horiz-adv-x="639" arabic-form="medial" 
d="M531 0v71h108v-71h-108zM0 0q-6 0 -10 2.5t-6 7t-3 11.5t-1 15q0 11 1.5 18.5t6 12t12.5 4.5v-71zM0 0v71h505l-52 -45v437l41 -34h-170q-58 0 -89.5 -14t-43.5 -52.5t-12 -112.5t12 -112.5t43.5 -52.5t89.5 -14v-51q-87 0 -135.5 21.5t-68 72t-19.5 136.5t19.5 141.5
t68 82t135.5 26.5h207v-500h-531zM639 0v71q6 0 10 -2.5t6 -7t3 -11t1 -14.5t-1 -15t-3 -11.5t-6 -7t-10 -2.5zM303 722v85h72v-85h-72zM231 590v90h78v-90h-78zM368 590v90h78v-90h-78z" />
    <glyph glyph-name="uniFB7B" unicode="&#x686;" horiz-adv-x="628" arabic-form="final" 
d="M330 -137h45v-54h-45v54zM371 -54h49v-57h-49v57zM284 -54h50v-57h-50v57zM628 0v71q6 0 10 -2.5t6 -7t3 -11t1 -14.5t-1 -15t-3 -11.5t-6 -7t-10 -2.5zM277 -318q-73 0 -126.5 22.5t-82 66.5t-28.5 106t28.5 105.5t82 66t127.5 22.5h165v227q0 65 -41 97.5t-124 32.5
q-26 0 -75 -4.5t-103 -12.5l-9 64q41 10 90 17.5t95 7.5q76 0 130.5 -23.5t84 -68.5t29.5 -110v-298h-242q-83 0 -121.5 -31.5t-38.5 -92.5q0 -60 38.5 -91.5t120.5 -31.5q18 0 41.5 2t57.5 6l13 -67q-25 -5 -54 -8.5t-58 -3.5zM520 0v71h108v-71h-108z" />
    <glyph glyph-name="uniFB7C" unicode="&#x686;" horiz-adv-x="555" arabic-form="initial" 
d="M0 0v71h441l-24 -21v248q0 65 -40.5 97.5t-123.5 32.5q-26 0 -75 -4.5t-103 -12.5l-9 64q41 10 90 17.5t95 7.5q76 0 130.5 -23.5t84 -68.5t29.5 -110v-298h-495zM0 0q-6 0 -10 2.5t-6 7t-3 11.5t-1 15q0 11 1.5 18.5t6 12t12.5 4.5v-71zM143 -89h78v-90h-78v90zM280 -89
h78v-90h-78v90zM215 -221h72v-85h-72v85z" />
    <glyph glyph-name="uniFB7D" unicode="&#x686;" horiz-adv-x="603" arabic-form="medial" 
d="M495 0v71h108v-71h-108zM0 0q-6 0 -10 2.5t-6 7t-3 11.5t-1 15q0 11 1.5 18.5t6 12t12.5 4.5v-71zM0 0v71h441l-24 -21v248q0 65 -40.5 97.5t-123.5 32.5q-26 0 -75 -4.5t-103 -12.5l-9 64q41 10 90 17.5t95 7.5q76 0 130.5 -23.5t84 -68.5t29.5 -110v-298h-495zM603 0
v71q6 0 10 -2.5t6 -7t3 -11t1 -14.5t-1 -15t-3 -11.5t-6 -7t-10 -2.5zM143 -89h78v-90h-78v90zM280 -89h78v-90h-78v90zM215 -221h72v-85h-72v85z" />
    <glyph glyph-name="uniFB89" unicode="&#x688;" horiz-adv-x="535" arabic-form="final" 
d="M427 0v71h108v-71h-108zM40 0v71h373l-64 -57v218q0 74 -17 117t-55.5 61.5t-103.5 18.5h-81v71h81q80 0 137 -25t87 -83.5t30 -159.5v-232h-387zM535 0v71q6 0 10 -2.5t6 -7t3 -11t1 -14.5t-1 -15t-3 -11.5t-6 -7t-10 -2.5zM121 641q0 29 14 51t38 35t52 13
q29 0 52.5 -13t37.5 -35t14 -51h-54q0 20 -14 34t-36 14q-14 0 -28 -6.5t-23 -17t-9 -24.5h-44zM92 590v51h237v-51h-237zM121 641v139h54v-139h-54z" />
    <glyph glyph-name="uniFB8B" unicode="&#x698;" horiz-adv-x="300" arabic-form="final" 
d="M172 0v71h128v-71h-128zM9 -221q-13 0 -27.5 1.5t-28.5 2.5l9 71q14 -1 26 -2.5t21 -1.5q47 0 76 35.5t29 98.5v516h78v-516q0 -61 -23.5 -107.5t-64.5 -72t-95 -25.5zM300 0v71q6 0 10 -2.5t6 -7t3 -11t1 -14.5t-1 -15t-3 -11.5t-6 -7t-10 -2.5zM117 722v85h72v-85h-72z
M45 590v90h78v-90h-78zM182 590v90h78v-90h-78z" />
    <glyph glyph-name="uniFB8D" unicode="&#x691;" horiz-adv-x="300" arabic-form="final" 
d="M172 0v71h128v-71h-128zM9 -221q-13 0 -27.5 1.5t-28.5 2.5l9 71q14 -1 26 -2.5t21 -1.5q47 0 76 35.5t29 98.5v516h78v-516q0 -61 -23.5 -107.5t-64.5 -72t-95 -25.5zM300 0v71q6 0 10 -2.5t6 -7t3 -11t1 -14.5t-1 -15t-3 -11.5t-6 -7t-10 -2.5zM63 641q0 29 14 51
t38 35t52 13q29 0 52.5 -13t37.5 -35t14 -51h-54q0 20 -14 34t-36 14q-14 0 -28 -6.5t-23 -17t-9 -24.5h-44zM34 590v51h237v-51h-237zM63 641v139h54v-139h-54z" />
    <glyph glyph-name="uniFB8F" unicode="&#x6a9;" horiz-adv-x="817" arabic-form="final" 
d="M709 0v71h108v-71h-108zM337 0q-99 0 -165 23t-99 70t-33 120q0 18 3 42.5t7 50t8.5 48.5t7.5 38l76 -14q-3 -18 -7.5 -40t-8 -45t-6 -44t-2.5 -36q0 -37 11.5 -64t37 -44.5t67.5 -25.5t103 -8h294v153q0 54 -14.5 89.5t-43 53t-71.5 17.5h-219l-56 86l43 83q12 22 25 45
t32 53t48 73l64 -39q-29 -44 -47 -73t-30 -50t-23 -42l-35 -65h198q63 0 103.5 -21.5t63 -56.5t31.5 -75.5t9 -77.5v-224h-372zM817 0v71q6 0 10 -2.5t6 -7t3 -11t1 -14.5t-1 -15t-3 -11.5t-6 -7t-10 -2.5z" />
    <glyph glyph-name="uniFB90" unicode="&#x6a9;" horiz-adv-x="625" arabic-form="initial" 
d="M0 0v71h500l-28 -25v178q0 54 -14.5 89.5t-43 53t-71.5 17.5h-218l-57 86l43 83q12 22 25 45t32 53t48 73l65 -39q-29 -44 -47 -73t-30.5 -50t-23.5 -42l-50 -96l-20 31h233q63 0 103.5 -21.5t63 -56.5t31.5 -75.5t9 -77.5v-224h-550zM0 0q-6 0 -10 2.5t-6 7t-3 11.5
t-1 15q0 11 1.5 18.5t6 12t12.5 4.5v-71z" />
    <glyph glyph-name="uniFB91" unicode="&#x6a9;" horiz-adv-x="658" arabic-form="medial" 
d="M550 0v71h108v-71h-108zM0 0q-6 0 -10 2.5t-6 7t-3 11.5t-1 15q0 11 1.5 18.5t6 12t12.5 4.5v-71zM0 0v71h500l-28 -25v178q0 54 -14.5 89.5t-43 53t-71.5 17.5h-218l-57 86l43 83q12 22 25 45t32 53t48 73l65 -39q-29 -44 -47 -73t-30.5 -50t-23.5 -42l-50 -96l-20 31
h233q63 0 103.5 -21.5t63 -56.5t31.5 -75.5t9 -77.5v-224h-550zM658 0v71q6 0 10 -2.5t6 -7t3 -11t1 -14.5t-1 -15t-3 -11.5t-6 -7t-10 -2.5z" />
    <glyph glyph-name="uniFB93" unicode="&#x6af;" horiz-adv-x="817" arabic-form="final" 
d="M205 501l-34 51q22 43 39 75.5t37 65.5t51 78l46 -28q-21 -32 -37.5 -58t-32 -52.5t-32.5 -57.5t-37 -74zM337 0q-99 0 -165 23t-99 70t-33 120q0 18 3 42.5t7 50t8.5 48.5t7.5 38l76 -14q-3 -18 -7.5 -40t-8 -45t-6 -44t-2.5 -36q0 -37 11.5 -64t37 -44.5t67.5 -25.5
t103 -8h294v153q0 54 -14.5 89.5t-43 53t-71.5 17.5h-219l-56 86l43 83q12 22 25 45t32 53t48 73l64 -39q-29 -44 -47 -73t-30 -50t-23 -42l-35 -65h198q63 0 103.5 -21.5t63 -56.5t31.5 -75.5t9 -77.5v-224h-372zM817 0v71q6 0 10 -2.5t6 -7t3 -11t1 -14.5t-1 -15t-3 -11.5
t-6 -7t-10 -2.5zM709 0v71h108v-71h-108z" />
    <glyph glyph-name="uniFB94" unicode="&#x6af;" horiz-adv-x="675" arabic-form="initial" 
d="M85 501l-34 51q22 43 39 75.5t37 65.5t51 78l46 -28q-21 -32 -37.5 -58t-32 -52.5t-32.5 -57.5t-37 -74zM0 0v71h550l-28 -25v178q0 54 -14.5 89.5t-43 53t-71.5 17.5h-218l-57 86l43 83q12 22 25 45t32 53t48 73l65 -39q-29 -44 -47 -73t-30.5 -50t-23.5 -42l-50 -96
l-20 31h233q63 0 103.5 -21.5t63 -56.5t31.5 -75.5t9 -77.5v-224h-600zM0 0q-6 0 -10 2.5t-6 7t-3 11.5t-1 15q0 11 1.5 18.5t6 12t12.5 4.5v-71z" />
    <glyph glyph-name="uniFB95" unicode="&#x6af;" horiz-adv-x="708" arabic-form="medial" 
d="M600 0v71h108v-71h-108zM85 501l-34 51q22 43 39 75.5t37 65.5t51 78l46 -28q-21 -32 -37.5 -58t-32 -52.5t-32.5 -57.5t-37 -74zM0 0v71h550l-28 -25v178q0 54 -14.5 89.5t-43 53t-71.5 17.5h-218l-57 86l43 83q12 22 25 45t32 53t48 73l65 -39q-29 -44 -47 -73
t-30.5 -50t-23.5 -42l-50 -96l-20 31h233q63 0 103.5 -21.5t63 -56.5t31.5 -75.5t9 -77.5v-224h-600zM708 0v71q6 0 10 -2.5t6 -7t3 -11t1 -14.5t-1 -15t-3 -11.5t-6 -7t-10 -2.5zM0 0q-6 0 -10 2.5t-6 7t-3 11.5t-1 15q0 11 1.5 18.5t6 12t12.5 4.5v-71z" />
    <glyph glyph-name="uniFB9F" unicode="&#x6ba;" horiz-adv-x="699" arabic-form="final" 
d="M591 0v71h108v-71h-108zM321 -248q-79 0 -143 29t-101 81t-37 119q0 21 3.5 55.5t9 77t12.5 86t13 82.5l77 -12q-11 -69 -19.5 -127.5t-13 -100t-4.5 -61.5q0 -46 25.5 -81.5t71.5 -56t106 -20.5t103 19t66 53t23 80v525h78v-525q0 -70 -36.5 -120t-97.5 -76.5
t-136 -26.5zM699 0v71q6 0 10 -2.5t6 -7t3 -11t1 -14.5t-1 -15t-3 -11.5t-6 -7t-10 -2.5z" />
    <glyph glyph-name="uniFBA7" unicode="&#x6c1;" horiz-adv-x="578" arabic-form="final" 
d="M40 0v250q0 90 20.5 145t69.5 80t133 25h207v-448l-19 19h127v-71h-186v464l31 -35h-160q-58 0 -89.5 -14t-43.5 -52.5t-12 -112.5v-250h-78zM578 0v71q6 0 10 -2.5t6 -7t3 -11t1 -14.5t-1 -15t-3 -11.5t-6 -7t-10 -2.5z" />
    <glyph glyph-name="uniFBA8" unicode="&#x6c1;" horiz-adv-x="267" arabic-form="initial" 
d="M30 -300l50 208h68l-41 -208h-77zM0 0q-6 0 -10 2.5t-6 7t-3 11.5t-1 15q0 11 1.5 18.5t6 12t12.5 4.5v-71zM0 0v71h144l-36 -29v458h78v-500h-186z" />
    <glyph glyph-name="uniFBA9" unicode="&#x6c1;" horiz-adv-x="578" arabic-form="medial" 
d="M470 -307q-37 -5 -70 -7t-58 -2q-66 0 -110.5 18.5t-70.5 60t-38 108.5t-13 164l37 -35h-147v71h189q2 -101 10 -163.5t25.5 -95.5t46.5 -45t72 -12q12 0 25 0.5t30.5 2.5t42.5 4l-48 -71v380h185v-71h-143l35 35v-342zM578 0v71q6 0 10 -2.5t6 -7t3 -11t1 -14.5t-1 -15
t-3 -11.5t-6 -7t-10 -2.5zM0 0q-6 0 -10 2.5t-6 7t-3 11.5t-1 15q0 11 1.5 18.5t6 12t12.5 4.5v-71z" />
    <glyph glyph-name="uniFBAB" unicode="&#x6be;" horiz-adv-x="819" arabic-form="final" 
d="M711 0v71h108v-71h-108zM40 0v71h642l-49 -42v170q0 94 -29 154t-87 89t-146 29q-37 0 -78.5 -4t-81.5 -10t-74 -12l-10 59q23 6 63.5 15.5t89.5 16.5t97 7q63 0 123 -17t107.5 -56t75.5 -105.5t28 -165.5v-199h-671zM110 71v80q0 48 24 89t66 66t94 25q53 0 94 -25
t65 -66t24 -89v-80h-78v80q0 31 -14 55.5t-38 39t-53 14.5t-53 -14.5t-38.5 -39t-14.5 -55.5v-80h-78zM819 0v71q6 0 10 -2.5t6 -7t3 -11t1 -14.5t-1 -15t-3 -11.5t-6 -7t-10 -2.5z" />
    <glyph glyph-name="uniFBAC" unicode="&#x6be;" horiz-adv-x="796" arabic-form="initial" 
d="M0 0v71h692l-49 -42v170q0 94 -29 154t-87.5 89t-146.5 29q-37 0 -78 -4t-81 -10t-74 -12l-11 59q23 6 63.5 15.5t89.5 16.5t97 7q63 0 123 -17t107.5 -56t75.5 -105.5t28 -165.5v-199h-720zM119 71v80q0 48 24 89t66 66t94 25q53 0 94.5 -25t65 -66t23.5 -89v-80h-78v80
q0 31 -14 55.5t-37.5 39t-53.5 14.5q-29 0 -53 -14.5t-38.5 -39t-14.5 -55.5v-80h-78zM0 0q-6 0 -10 2.5t-6 7t-3 11.5t-1 15q0 11 1.5 18.5t6 12t12.5 4.5v-71z" />
    <glyph glyph-name="uniFBAD" unicode="&#x6be;" horiz-adv-x="819" arabic-form="medial" 
d="M0 0v71h40v-71h-40zM40 0v71h642l-49 -42v170q0 94 -29 154t-87 89t-146 29q-37 0 -78.5 -4t-81.5 -10t-74 -12l-10 59q23 6 63.5 15.5t89.5 16.5t97 7q63 0 123 -17t107.5 -56t75.5 -105.5t28 -165.5v-199h-671zM110 71v80q0 48 24 89t66 66t94 25q53 0 94 -25t65 -66
t24 -89v-80h-78v80q0 31 -14 55.5t-38 39t-53 14.5t-53 -14.5t-38.5 -39t-14.5 -55.5v-80h-78zM819 0v71q6 0 10 -2.5t6 -7t3 -11t1 -14.5t-1 -15t-3 -11.5t-6 -7t-10 -2.5zM711 0v71h108v-71h-108zM0 0q-6 0 -10 2.5t-6 7t-3 11.5t-1 15q0 11 1.5 18.5t6 12t12.5 4.5v-71z
" />
    <glyph glyph-name="uniFBAF" unicode="&#x6d2;" horiz-adv-x="706" arabic-form="final" 
d="M287 -224q-122 0 -184.5 46t-62.5 139v57l64 53h602v-71h-620l32 30v-69q0 -34 11 -56t32.5 -34.5t53 -18t72.5 -5.5h313v-71h-313zM706 0v71q6 0 10 -2.5t6 -7t3 -11t1 -14.5t-1 -15t-3 -11.5t-6 -7t-10 -2.5z" />
    <glyph glyph-name="uniFBB1" unicode="&#x6d3;" horiz-adv-x="706" arabic-form="final" 
d="M287 -224q-122 0 -184.5 46t-62.5 139v57l64 53h602v-71h-620l32 30v-69q0 -34 11 -56t32.5 -34.5t53 -18t72.5 -5.5h313v-71h-313zM706 0v71q6 0 10 -2.5t6 -7t3 -11t1 -14.5t-1 -15t-3 -11.5t-6 -7t-10 -2.5zM89 173q-16 20 -24.5 39t-8.5 40q0 29 14.5 52t38.5 36
t52 13q16 0 32 -4.5t28 -12.5l-26 -45q-8 5 -15.5 6.5t-15.5 1.5q-23 0 -36.5 -13t-13.5 -34q0 -13 5.5 -25t16.5 -26zM37 173v53h197v-53h-197z" />
    <glyph glyph-name="uniFBE8" unicode="&#x649;" horiz-adv-x="267" arabic-form="initial" 
d="M0 0v71h144l-36 -29v458h78v-500h-186zM0 0q-6 0 -10 2.5t-6 7t-3 11.5t-1 15q0 11 1.5 18.5t6 12t12.5 4.5v-71z" />
    <glyph glyph-name="uniFBE9" unicode="&#x649;" horiz-adv-x="294" arabic-form="medial" 
d="M186 0v71h108v-71h-108zM0 0q-6 0 -10 2.5t-6 7t-3 11.5t-1 15q0 11 1.5 18.5t6 12t12.5 4.5v-71zM0 0v71h144l-36 -29v458h78v-500h-186zM294 0v71q6 0 10 -2.5t6 -7t3 -11t1 -14.5t-1 -15t-3 -11.5t-6 -7t-10 -2.5z" />
    <glyph glyph-name="uniFBFD" unicode="&#x6cc;" horiz-adv-x="884" arabic-form="final" 
d="M315 -248q-58 0 -108 16.5t-87.5 46t-58.5 70.5t-21 90q0 20 3.5 53t9 74.5t12.5 84.5l77 -11q-11 -67 -17.5 -122t-6.5 -78q0 -45 25 -79.5t69.5 -54t102.5 -19.5h283q76 0 115.5 42t39.5 123v33h77v-34q0 -69 -27 -122t-78.5 -83t-126.5 -30h-283zM695 0q-34 0 -68.5 7
t-68.5 29l44 59q14 -9 27 -14.5t29 -7.5t37 -2h189v-71h-189zM884 0v71q6 0 10 -2.5t6 -7t3 -11t1 -14.5t-1 -15t-3 -11.5t-6 -7t-10 -2.5z" />
    <glyph glyph-name="uniFBFE" unicode="&#x6cc;" horiz-adv-x="267" arabic-form="initial" 
d="M0 0v71h144l-36 -29v458h78v-500h-186zM0 0q-6 0 -10 2.5t-6 7t-3 11.5t-1 15q0 11 1.5 18.5t6 12t12.5 4.5v-71zM40 -180v90h78v-90h-78zM177 -180v90h78v-90h-78z" />
    <glyph glyph-name="uniFBFF" unicode="&#x6cc;" horiz-adv-x="294" arabic-form="medial" 
d="M186 0v71h108v-71h-108zM294 0v71q6 0 10 -2.5t6 -7t3 -11t1 -14.5t-1 -15t-3 -11.5t-6 -7t-10 -2.5zM0 0q-6 0 -10 2.5t-6 7t-3 11.5t-1 15q0 11 1.5 18.5t6 12t12.5 4.5v-71zM0 0v71h144l-36 -29v458h78v-500h-186zM40 -180v90h78v-90h-78zM177 -180v90h78v-90h-78z
" />
    <glyph glyph-name="uniFE82" unicode="&#x622;" horiz-adv-x="295" arabic-form="final" 
d="M173 0v71h122v-71h-122zM96 0v717h77v-717h-77zM295 0v71q6 0 10 -2.5t6 -7t3 -11t1 -14.5t-1 -15t-3 -11.5t-6 -7t-10 -2.5zM42 781l-31 26l44 60h51q10 -12 27 -18t33 -6q17 0 32.5 5.5t25.5 16.5l27 -23q-9 -16 -23 -29t-32 -20.5t-41 -7.5q-22 0 -43 7.5t-36 22.5z
" />
    <glyph glyph-name="uniFE84" unicode="&#x623;" horiz-adv-x="295" arabic-form="final" 
d="M173 0v71h122v-71h-122zM96 0v717h77v-717h-77zM295 0v71q6 0 10 -2.5t6 -7t3 -11t1 -14.5t-1 -15t-3 -11.5t-6 -7t-10 -2.5zM88 783q-16 20 -24.5 39t-8.5 40q0 29 14.5 52t38.5 36t52 13q16 0 32 -4.5t28 -12.5l-26 -45q-8 5 -15.5 6.5t-15.5 1.5q-23 0 -36.5 -13
t-13.5 -34q0 -13 5.5 -25t16.5 -26zM36 783v53h197v-53h-197z" />
    <glyph glyph-name="uniFE86" unicode="&#x624;" horiz-adv-x="578" arabic-form="final" 
d="M470 0v71h108v-71h-108zM233 -221q-35 0 -74.5 5.5t-86.5 15.5l12 63q53 -7 88.5 -10t60.5 -3q83 0 121 31.5t38 91.5v482l40 -26h-169q-58 0 -89.5 -14t-43.5 -52.5t-12 -112.5t12 -112.5t43.5 -52.5t89.5 -14h129v-71h-129q-87 0 -135.5 26.5t-68 82t-19.5 141.5
t19.5 141.5t68 82t135.5 26.5h207v-526q0 -62 -28.5 -106t-81.5 -66.5t-127 -22.5zM578 0v71q6 0 10 -2.5t6 -7t3 -11t1 -14.5t-1 -15t-3 -11.5t-6 -7t-10 -2.5zM225 590q-16 20 -24.5 39t-8.5 40q0 29 14.5 52t38.5 36t52 13q16 0 32 -4.5t28 -12.5l-26 -45q-8 5 -15.5 6.5
t-15.5 1.5q-23 0 -36.5 -13t-13.5 -34q0 -13 5.5 -25t16.5 -26zM173 590v53h197v-53h-197z" />
    <glyph glyph-name="uniFE88" unicode="&#x625;" horiz-adv-x="295" arabic-form="final" 
d="M173 0v71h122v-71h-122zM96 0v717h77v-717h-77zM295 0v71q6 0 10 -2.5t6 -7t3 -11t1 -14.5t-1 -15t-3 -11.5t-6 -7t-10 -2.5zM88 -269q-16 20 -24.5 39t-8.5 40q0 29 14.5 52t38.5 36t52 13q16 0 32 -4.5t28 -12.5l-26 -45q-8 5 -15.5 6.5t-15.5 1.5q-23 0 -36.5 -13
t-13.5 -34q0 -13 5.5 -25t16.5 -26zM36 -269v53h197v-53h-197z" />
    <glyph glyph-name="uniFE8A" unicode="&#x626;" horiz-adv-x="884" arabic-form="final" 
d="M315 -248q-58 0 -108 16.5t-87.5 46t-58.5 70.5t-21 90q0 20 3.5 53t9 74.5t12.5 84.5l77 -11q-11 -67 -17.5 -122t-6.5 -78q0 -45 25 -79.5t69.5 -54t102.5 -19.5h283q76 0 115.5 42t39.5 123v33h77v-34q0 -69 -27 -122t-78.5 -83t-126.5 -30h-283zM695 0q-34 0 -68.5 7
t-68.5 29l44 59q14 -9 27 -14.5t29 -7.5t37 -2h189v-71h-189zM884 0v71q6 0 10 -2.5t6 -7t3 -11t1 -14.5t-1 -15t-3 -11.5t-6 -7t-10 -2.5zM62 257q-16 20 -24.5 39t-8.5 40q0 29 14.5 52t38.5 36t52 13q16 0 32 -4.5t28 -12.5l-26 -45q-8 5 -15.5 6.5t-15.5 1.5
q-23 0 -36.5 -13t-13.5 -34q0 -13 5.5 -25t16.5 -26zM10 257v53h197v-53h-197z" />
    <glyph glyph-name="uniFE8B" unicode="&#x626;" horiz-adv-x="267" arabic-form="initial" 
d="M0 0v71h144l-36 -29v458h78v-500h-186zM0 0q-6 0 -10 2.5t-6 7t-3 11.5t-1 15q0 11 1.5 18.5t6 12t12.5 4.5v-71zM100 590q-16 20 -24.5 39t-8.5 40q0 29 14.5 52t38.5 36t52 13q16 0 32 -4.5t28 -12.5l-26 -45q-8 5 -15.5 6.5t-15.5 1.5q-23 0 -36.5 -13t-13.5 -34
q0 -13 5.5 -25t16.5 -26zM48 590v53h197v-53h-197z" />
    <glyph glyph-name="uniFE8C" unicode="&#x626;" horiz-adv-x="294" arabic-form="medial" 
d="M186 0v71h108v-71h-108zM0 0q-6 0 -10 2.5t-6 7t-3 11.5t-1 15q0 11 1.5 18.5t6 12t12.5 4.5v-71zM0 0v71h144l-36 -29v458h78v-500h-186zM294 0v71q6 0 10 -2.5t6 -7t3 -11t1 -14.5t-1 -15t-3 -11.5t-6 -7t-10 -2.5zM100 590q-16 20 -24.5 39t-8.5 40q0 29 14.5 52
t38.5 36t52 13q16 0 32 -4.5t28 -12.5l-26 -45q-8 5 -15.5 6.5t-15.5 1.5q-23 0 -36.5 -13t-13.5 -34q0 -13 5.5 -25t16.5 -26zM48 590v53h197v-53h-197z" />
    <glyph glyph-name="uniFE8E" unicode="&#x627;" horiz-adv-x="295" arabic-form="final" 
d="M173 0v71h122v-71h-122zM96 0v717h77v-717h-77zM295 0v71q6 0 10 -2.5t6 -7t3 -11t1 -14.5t-1 -15t-3 -11.5t-6 -7t-10 -2.5z" />
    <glyph glyph-name="uniFE90" unicode="&#x628;" horiz-adv-x="817" arabic-form="final" 
d="M709 0v71h108v-71h-108zM337 0q-99 0 -165 23t-99 70t-33 120q0 24 3.5 52t8.5 54.5t9 46t5 26.5l76 -14q-3 -16 -8.5 -44t-10.5 -60t-5 -61q0 -37 11.5 -64t37 -44.5t67.5 -25.5t103 -8h294v429h78v-500h-372zM817 0v71q6 0 10 -2.5t6 -7t3 -11t1 -14.5t-1 -15t-3 -11.5
t-6 -7t-10 -2.5zM336 -180v90h78v-90h-78z" />
    <glyph glyph-name="uniFE91" unicode="&#x628;" horiz-adv-x="267" arabic-form="initial" 
d="M0 0v71h144l-36 -29v458h78v-500h-186zM0 0q-6 0 -10 2.5t-6 7t-3 11.5t-1 15q0 11 1.5 18.5t6 12t12.5 4.5v-71zM108 -180v90h78v-90h-78z" />
    <glyph glyph-name="uniFE92" unicode="&#x628;" horiz-adv-x="294" arabic-form="medial" 
d="M186 0v71h108v-71h-108zM0 0q-6 0 -10 2.5t-6 7t-3 11.5t-1 15q0 11 1.5 18.5t6 12t12.5 4.5v-71zM0 0v71h144l-36 -29v458h78v-500h-186zM294 0v71q6 0 10 -2.5t6 -7t3 -11t1 -14.5t-1 -15t-3 -11.5t-6 -7t-10 -2.5zM108 -180v90h78v-90h-78z" />
    <glyph glyph-name="uniFE94" unicode="&#x629;" horiz-adv-x="578" arabic-form="final" 
d="M263 0q-87 0 -135.5 26.5t-68 82t-19.5 141.5t19.5 141.5t68 82t135.5 26.5h207v-460h-78v423l40 -34h-169q-58 0 -89.5 -14t-43.5 -52.5t-12 -112.5t12 -112.5t43.5 -52.5t89.5 -14h315v-71h-315zM578 0v71q6 0 10 -2.5t6 -7t3 -11t1 -14.5t-1 -15t-3 -11.5t-6 -7
t-10 -2.5zM166 590v90h78v-90h-78zM303 590v90h78v-90h-78z" />
    <glyph glyph-name="uniFE96" unicode="&#x62a;" horiz-adv-x="817" arabic-form="final" 
d="M709 0v71h108v-71h-108zM337 0q-99 0 -165 23t-99 70t-33 120q0 24 3.5 52t8.5 54.5t9 46t5 26.5l76 -14q-3 -16 -8.5 -44t-10.5 -60t-5 -61q0 -37 11.5 -64t37 -44.5t67.5 -25.5t103 -8h294v429h78v-500h-372zM817 0v71q6 0 10 -2.5t6 -7t3 -11t1 -14.5t-1 -15t-3 -11.5
t-6 -7t-10 -2.5zM268 493v90h78v-90h-78zM405 493v90h78v-90h-78z" />
    <glyph glyph-name="uniFE97" unicode="&#x62a;" horiz-adv-x="267" arabic-form="initial" 
d="M0 0v71h144l-36 -29v458h78v-500h-186zM0 0q-6 0 -10 2.5t-6 7t-3 11.5t-1 15q0 11 1.5 18.5t6 12t12.5 4.5v-71zM40 590v90h78v-90h-78zM177 590v90h78v-90h-78z" />
    <glyph glyph-name="uniFE98" unicode="&#x62a;" horiz-adv-x="294" arabic-form="medial" 
d="M186 0v71h108v-71h-108zM294 0v71q6 0 10 -2.5t6 -7t3 -11t1 -14.5t-1 -15t-3 -11.5t-6 -7t-10 -2.5zM0 0q-6 0 -10 2.5t-6 7t-3 11.5t-1 15q0 11 1.5 18.5t6 12t12.5 4.5v-71zM0 0v71h144l-36 -29v458h78v-500h-186zM40 590v90h78v-90h-78zM177 590v90h78v-90h-78z" />
    <glyph glyph-name="uniFE9A" unicode="&#x62b;" horiz-adv-x="817" arabic-form="final" 
d="M709 0v71h108v-71h-108zM337 0q-99 0 -165 23t-99 70t-33 120q0 24 3.5 52t8.5 54.5t9 46t5 26.5l76 -14q-3 -16 -8.5 -44t-10.5 -60t-5 -61q0 -37 11.5 -64t37 -44.5t67.5 -25.5t103 -8h294v429h78v-500h-372zM817 0v71q6 0 10 -2.5t6 -7t3 -11t1 -14.5t-1 -15t-3 -11.5
t-6 -7t-10 -2.5zM339 625v85h72v-85h-72zM267 493v90h78v-90h-78zM404 493v90h78v-90h-78z" />
    <glyph glyph-name="uniFE9B" unicode="&#x62b;" horiz-adv-x="267" arabic-form="initial" 
d="M0 0v71h144l-36 -29v458h78v-500h-186zM0 0q-6 0 -10 2.5t-6 7t-3 11.5t-1 15q0 11 1.5 18.5t6 12t12.5 4.5v-71zM111 722v85h72v-85h-72zM39 590v90h78v-90h-78zM176 590v90h78v-90h-78z" />
    <glyph glyph-name="uniFE9C" unicode="&#x62b;" horiz-adv-x="294" arabic-form="medial" 
d="M186 0v71h108v-71h-108zM294 0v71q6 0 10 -2.5t6 -7t3 -11t1 -14.5t-1 -15t-3 -11.5t-6 -7t-10 -2.5zM0 0q-6 0 -10 2.5t-6 7t-3 11.5t-1 15q0 11 1.5 18.5t6 12t12.5 4.5v-71zM0 0v71h144l-36 -29v458h78v-500h-186zM111 722v85h72v-85h-72zM39 590v90h78v-90h-78z
M176 590v90h78v-90h-78z" />
    <glyph glyph-name="uniFE9E" unicode="&#x62c;" horiz-adv-x="628" arabic-form="final" 
d="M338 -167v79h67v-79h-67zM628 0v71q6 0 10 -2.5t6 -7t3 -11t1 -14.5t-1 -15t-3 -11.5t-6 -7t-10 -2.5zM277 -318q-73 0 -126.5 22.5t-82 66.5t-28.5 106t28.5 105.5t82 66t127.5 22.5h165v227q0 65 -41 97.5t-124 32.5q-26 0 -75 -4.5t-103 -12.5l-9 64q41 10 90 17.5
t95 7.5q76 0 130.5 -23.5t84 -68.5t29.5 -110v-298h-242q-83 0 -121.5 -31.5t-38.5 -92.5q0 -60 38.5 -91.5t120.5 -31.5q18 0 41.5 2t57.5 6l13 -67q-25 -5 -54 -8.5t-58 -3.5zM520 0v71h108v-71h-108z" />
    <glyph glyph-name="uniFE9F" unicode="&#x62c;" horiz-adv-x="555" arabic-form="initial" 
d="M0 0v71h441l-24 -21v248q0 65 -40.5 97.5t-123.5 32.5q-26 0 -75 -4.5t-103 -12.5l-9 64q41 10 90 17.5t95 7.5q76 0 130.5 -23.5t84 -68.5t29.5 -110v-298h-495zM0 0q-6 0 -10 2.5t-6 7t-3 11.5t-1 15q0 11 1.5 18.5t6 12t12.5 4.5v-71zM212 -180v90h78v-90h-78z" />
    <glyph glyph-name="uniFEA0" unicode="&#x62c;" horiz-adv-x="603" arabic-form="medial" 
d="M495 0v71h108v-71h-108zM0 0q-6 0 -10 2.5t-6 7t-3 11.5t-1 15q0 11 1.5 18.5t6 12t12.5 4.5v-71zM0 0v71h441l-24 -21v248q0 65 -40.5 97.5t-123.5 32.5q-26 0 -75 -4.5t-103 -12.5l-9 64q41 10 90 17.5t95 7.5q76 0 130.5 -23.5t84 -68.5t29.5 -110v-298h-495zM603 0
v71q6 0 10 -2.5t6 -7t3 -11t1 -14.5t-1 -15t-3 -11.5t-6 -7t-10 -2.5zM212 -180v90h78v-90h-78z" />
    <glyph glyph-name="uniFEA2" unicode="&#x62d;" horiz-adv-x="628" arabic-form="final" 
d="M520 0v71h108v-71h-108zM426 -234l12 -63q-47 -10 -86.5 -15.5t-74.5 -5.5q-73 0 -126.5 22.5t-82 66.5t-28.5 106t28.5 105.5t82 66t127.5 22.5h165v-71h-165q-83 0 -121.5 -31.5t-38.5 -92.5q0 -60 38.5 -91.5t120.5 -31.5q25 0 61 3t88 10zM100 411l-9 64
q41 10 90 17.5t95 7.5q76 0 130.5 -23.5t84 -68.5t29.5 -110v-298h-77v298q0 65 -41 97.5t-124 32.5q-26 0 -75 -4.5t-103 -12.5zM628 0v71q6 0 10 -2.5t6 -7t3 -11t1 -14.5t-1 -15t-3 -11.5t-6 -7t-10 -2.5z" />
    <glyph glyph-name="uniFEA3" unicode="&#x62d;" horiz-adv-x="555" arabic-form="initial" 
d="M0 0v71h441l-24 -21v248q0 65 -40.5 97.5t-123.5 32.5q-26 0 -75 -4.5t-103 -12.5l-9 64q41 10 90 17.5t95 7.5q76 0 130.5 -23.5t84 -68.5t29.5 -110v-298h-495zM0 0q-6 0 -10 2.5t-6 7t-3 11.5t-1 15q0 11 1.5 18.5t6 12t12.5 4.5v-71z" />
    <glyph glyph-name="uniFEA4" unicode="&#x62d;" horiz-adv-x="603" arabic-form="medial" 
d="M495 0v71h108v-71h-108zM0 0q-6 0 -10 2.5t-6 7t-3 11.5t-1 15q0 11 1.5 18.5t6 12t12.5 4.5v-71zM0 0v71h441l-24 -21v248q0 65 -40.5 97.5t-123.5 32.5q-26 0 -75 -4.5t-103 -12.5l-9 64q41 10 90 17.5t95 7.5q76 0 130.5 -23.5t84 -68.5t29.5 -110v-298h-495zM603 0
v71q6 0 10 -2.5t6 -7t3 -11t1 -14.5t-1 -15t-3 -11.5t-6 -7t-10 -2.5z" />
    <glyph glyph-name="uniFEA6" unicode="&#x62e;" horiz-adv-x="628" arabic-form="final" 
d="M520 0v71h108v-71h-108zM426 -234l12 -63q-47 -10 -86.5 -15.5t-74.5 -5.5q-73 0 -126.5 22.5t-82 66.5t-28.5 106t28.5 105.5t82 66t127.5 22.5h165v-71h-165q-83 0 -121.5 -31.5t-38.5 -92.5q0 -60 38.5 -91.5t120.5 -31.5q25 0 61 3t88 10zM100 411l-9 64
q41 10 90 17.5t95 7.5q76 0 130.5 -23.5t84 -68.5t29.5 -110v-298h-77v298q0 65 -41 97.5t-124 32.5q-26 0 -75 -4.5t-103 -12.5zM628 0v71q6 0 10 -2.5t6 -7t3 -11t1 -14.5t-1 -15t-3 -11.5t-6 -7t-10 -2.5zM237 573v90h78v-90h-78z" />
    <glyph glyph-name="uniFEA7" unicode="&#x62e;" horiz-adv-x="555" arabic-form="initial" 
d="M0 0v71h441l-24 -21v248q0 65 -40.5 97.5t-123.5 32.5q-26 0 -75 -4.5t-103 -12.5l-9 64q41 10 90 17.5t95 7.5q76 0 130.5 -23.5t84 -68.5t29.5 -110v-298h-495zM0 0q-6 0 -10 2.5t-6 7t-3 11.5t-1 15q0 11 1.5 18.5t6 12t12.5 4.5v-71zM212 569v90h78v-90h-78z" />
    <glyph glyph-name="uniFEA8" unicode="&#x62e;" horiz-adv-x="603" arabic-form="medial" 
d="M495 0v71h108v-71h-108zM0 0q-6 0 -10 2.5t-6 7t-3 11.5t-1 15q0 11 1.5 18.5t6 12t12.5 4.5v-71zM0 0v71h441l-24 -21v248q0 65 -40.5 97.5t-123.5 32.5q-26 0 -75 -4.5t-103 -12.5l-9 64q41 10 90 17.5t95 7.5q76 0 130.5 -23.5t84 -68.5t29.5 -110v-298h-495zM603 0
v71q6 0 10 -2.5t6 -7t3 -11t1 -14.5t-1 -15t-3 -11.5t-6 -7t-10 -2.5zM212 569v90h78v-90h-78z" />
    <glyph glyph-name="uniFEAA" unicode="&#x62f;" horiz-adv-x="535" arabic-form="final" 
d="M427 0v71h108v-71h-108zM40 0v71h373l-64 -57v218q0 74 -17 117t-55.5 61.5t-103.5 18.5h-81v71h81q80 0 137 -25t87 -83.5t30 -159.5v-232h-387zM535 0v71q6 0 10 -2.5t6 -7t3 -11t1 -14.5t-1 -15t-3 -11.5t-6 -7t-10 -2.5z" />
    <glyph glyph-name="uniFEAC" unicode="&#x630;" horiz-adv-x="535" arabic-form="final" 
d="M427 0v71h108v-71h-108zM40 0v71h373l-64 -57v218q0 74 -17 117t-55.5 61.5t-103.5 18.5h-81v71h81q80 0 137 -25t87 -83.5t30 -159.5v-232h-387zM535 0v71q6 0 10 -2.5t6 -7t3 -11t1 -14.5t-1 -15t-3 -11.5t-6 -7t-10 -2.5zM116 590v90h78v-90h-78z" />
    <glyph glyph-name="uniFEAE" unicode="&#x631;" horiz-adv-x="300" arabic-form="final" 
d="M172 0v71h128v-71h-128zM9 -221q-13 0 -27.5 1.5t-28.5 2.5l9 71q14 -1 26 -2.5t21 -1.5q47 0 76 35.5t29 98.5v516h78v-516q0 -61 -23.5 -107.5t-64.5 -72t-95 -25.5zM300 0v71q6 0 10 -2.5t6 -7t3 -11t1 -14.5t-1 -15t-3 -11.5t-6 -7t-10 -2.5z" />
    <glyph glyph-name="uniFEB0" unicode="&#x632;" horiz-adv-x="300" arabic-form="final" 
d="M172 0v71h128v-71h-128zM9 -221q-13 0 -27.5 1.5t-28.5 2.5l9 71q14 -1 26 -2.5t21 -1.5q47 0 76 35.5t29 98.5v516h78v-516q0 -61 -23.5 -107.5t-64.5 -72t-95 -25.5zM300 0v71q6 0 10 -2.5t6 -7t3 -11t1 -14.5t-1 -15t-3 -11.5t-6 -7t-10 -2.5zM114 590v90h78v-90h-78z
" />
    <glyph glyph-name="uniFEB2" unicode="&#x633;" horiz-adv-x="1247" arabic-form="final" 
d="M1139 0v71h108v-71h-108zM321 -248q-79 0 -143 29t-101 81t-37 119q0 21 3.5 55.5t9 77t12.5 86t13 82.5l77 -12q-11 -69 -19.5 -127.5t-13 -100t-4.5 -61.5q0 -46 25.5 -81.5t71.5 -56t106 -20.5t103 19t66 53t23 80v425h78v-425q0 -70 -36.5 -120t-97.5 -76.5
t-136 -26.5zM591 0v71h112q34 0 52 10t25 40t7 88v241h78v-241q0 -78 -16.5 -124t-52 -65.5t-93.5 -19.5h-112zM914 0q-34 0 -66.5 13t-63.5 41l51 53q23 -19 41.5 -27.5t37.5 -8.5h178l-30 -32v239q0 18 -4 51t-10.5 74.5t-14.5 83.5l76 13q7 -35 14 -78t11.5 -81.5
t4.5 -62.5v-278h-225zM1247 0v71q6 0 10 -2.5t6 -7t3 -11t1 -14.5t-1 -15t-3 -11.5t-6 -7t-10 -2.5z" />
    <glyph glyph-name="uniFEB3" unicode="&#x633;" horiz-adv-x="827" arabic-form="initial" 
d="M526 0q-34 0 -66.5 13t-62.5 41l51 53q23 -19 41 -27.5t37 -8.5h178l-30 -32v239q0 18 -3.5 51t-10 74.5t-15.5 83.5l76 13q7 -35 14 -78t12 -81.5t5 -62.5v-278h-226zM0 0v71h146l-20 -20v349h77v-400h-203zM203 0v71h113q34 0 51.5 10t24.5 40t7 88v241h78v-241
q0 -78 -16.5 -124t-51.5 -65.5t-93 -19.5h-113zM0 0q-6 0 -10 2.5t-6 7t-3 11.5t-1 15q0 11 1.5 18.5t6 12t12.5 4.5v-71z" />
    <glyph glyph-name="uniFEB4" unicode="&#x633;" horiz-adv-x="860" arabic-form="medial" 
d="M752 0v71h108v-71h-108zM0 0q-6 0 -10 2.5t-6 7t-3 11.5t-1 15q0 11 1.5 18.5t6 12t12.5 4.5v-71zM526 0q-34 0 -66.5 13t-62.5 41l51 53q23 -19 41 -27.5t37 -8.5h178l-30 -32v239q0 18 -3.5 51t-10 74.5t-15.5 83.5l76 13q7 -35 14 -78t12 -81.5t5 -62.5v-278h-226z
M0 0v71h146l-20 -20v349h77v-400h-203zM203 0v71h113q34 0 51.5 10t24.5 40t7 88v241h78v-241q0 -78 -16.5 -124t-51.5 -65.5t-93 -19.5h-113zM860 0v71q6 0 10 -2.5t6 -7t3 -11t1 -14.5t-1 -15t-3 -11.5t-6 -7t-10 -2.5z" />
    <glyph glyph-name="uniFEB6" unicode="&#x634;" horiz-adv-x="1247" arabic-form="final" 
d="M1139 0v71h108v-71h-108zM321 -248q-79 0 -143 29t-101 81t-37 119q0 21 3.5 55.5t9 77t12.5 86t13 82.5l77 -12q-11 -69 -19.5 -127.5t-13 -100t-4.5 -61.5q0 -46 25.5 -81.5t71.5 -56t106 -20.5t103 19t66 53t23 80v425h78v-425q0 -70 -36.5 -120t-97.5 -76.5
t-136 -26.5zM591 0v71h112q34 0 52 10t25 40t7 88v241h78v-241q0 -78 -16.5 -124t-52 -65.5t-93.5 -19.5h-112zM914 0q-34 0 -66.5 13t-63.5 41l51 53q23 -19 41.5 -27.5t37.5 -8.5h178l-30 -32v239q0 18 -4 51t-10.5 74.5t-14.5 83.5l76 13q7 -35 14 -78t11.5 -81.5
t4.5 -62.5v-278h-225zM1247 0v71q6 0 10 -2.5t6 -7t3 -11t1 -14.5t-1 -15t-3 -11.5t-6 -7t-10 -2.5zM789 722v85h72v-85h-72zM717 590v90h78v-90h-78zM854 590v90h78v-90h-78z" />
    <glyph glyph-name="uniFEB7" unicode="&#x634;" horiz-adv-x="827" arabic-form="initial" 
d="M526 0q-34 0 -66.5 13t-62.5 41l51 53q23 -19 41 -27.5t37 -8.5h178l-30 -32v239q0 18 -3.5 51t-10 74.5t-15.5 83.5l76 13q7 -35 14 -78t12 -81.5t5 -62.5v-278h-226zM0 0v71h146l-20 -20v349h77v-400h-203zM203 0v71h113q34 0 51.5 10t24.5 40t7 88v241h78v-241
q0 -78 -16.5 -124t-51.5 -65.5t-93 -19.5h-113zM0 0q-6 0 -10 2.5t-6 7t-3 11.5t-1 15q0 11 1.5 18.5t6 12t12.5 4.5v-71zM402 722v85h72v-85h-72zM330 590v90h78v-90h-78zM467 590v90h78v-90h-78z" />
    <glyph glyph-name="uniFEB8" unicode="&#x634;" horiz-adv-x="860" arabic-form="medial" 
d="M752 0v71h108v-71h-108zM0 0q-6 0 -10 2.5t-6 7t-3 11.5t-1 15q0 11 1.5 18.5t6 12t12.5 4.5v-71zM526 0q-34 0 -66.5 13t-62.5 41l51 53q23 -19 41 -27.5t37 -8.5h178l-30 -32v239q0 18 -3.5 51t-10 74.5t-15.5 83.5l76 13q7 -35 14 -78t12 -81.5t5 -62.5v-278h-226z
M0 0v71h146l-20 -20v349h77v-400h-203zM203 0v71h113q34 0 51.5 10t24.5 40t7 88v241h78v-241q0 -78 -16.5 -124t-51.5 -65.5t-93 -19.5h-113zM860 0v71q6 0 10 -2.5t6 -7t3 -11t1 -14.5t-1 -15t-3 -11.5t-6 -7t-10 -2.5zM402 722v85h72v-85h-72zM330 590v90h78v-90h-78z
M467 590v90h78v-90h-78z" />
    <glyph glyph-name="uniFEBA" unicode="&#x635;" horiz-adv-x="1224" arabic-form="final" 
d="M1115 0v71h109v-71h-109zM321 -248q-79 0 -143 29t-101 81t-37 119q0 21 3.5 55.5t9 77t12.5 86t13 82.5l77 -12q-11 -69 -19.5 -127.5t-13 -100t-4.5 -61.5q0 -46 25.5 -81.5t71.5 -56t106 -20.5t103 19t66 53t23 80v525h78v-525q0 -70 -36.5 -120t-97.5 -76.5
t-136 -26.5zM591 0v71h519l-72 -65v235q0 63 -17.5 104.5t-52 62.5t-86.5 21q-44 0 -81.5 -14.5t-69.5 -38t-59.5 -52t-50.5 -57.5t-42 -53l-26 71q25 31 50.5 62t53.5 58.5t61.5 48.5t73.5 33.5t90 12.5q71 0 116.5 -24t71 -63.5t35.5 -84.5t10 -87v-241h-524zM1224 0v71
q6 0 10 -2.5t6 -7t3 -11t1 -14.5t-1 -15t-3 -11.5t-6 -7t-10 -2.5z" />
    <glyph glyph-name="uniFEBB" unicode="&#x635;" horiz-adv-x="820" arabic-form="initial" 
d="M0 0v71h739l-72 -65v235q0 63 -17.5 104.5t-52 62.5t-86.5 21q-44 0 -81.5 -14.5t-69.5 -38t-59.5 -52t-50.5 -57.5t-42 -53l-25 71q25 31 50.5 62t53.5 58.5t61.5 48.5t73.5 33.5t90 12.5q71 0 116.5 -24t71 -63.5t35.5 -84.5t10 -87v-241h-745zM142 71v429h78v-429h-78
zM0 0q-6 0 -10 2.5t-6 7t-3 11.5t-1 15q0 11 1.5 18.5t6 12t12.5 4.5v-71z" />
    <glyph glyph-name="uniFEBC" unicode="&#x635;" horiz-adv-x="853" arabic-form="medial" 
d="M745 0v71h108v-71h-108zM0 0q-6 0 -10 2.5t-6 7t-3 11.5t-1 15q0 11 1.5 18.5t6 12t12.5 4.5v-71zM0 0v71h739l-72 -65v235q0 63 -17.5 104.5t-52 62.5t-86.5 21q-44 0 -81.5 -14.5t-69.5 -38t-59.5 -52t-50.5 -57.5t-42 -53l-25 71q25 31 50.5 62t53.5 58.5t61.5 48.5
t73.5 33.5t90 12.5q71 0 116.5 -24t71 -63.5t35.5 -84.5t10 -87v-241h-745zM142 71v429h78v-429h-78zM853 0v71q6 0 10 -2.5t6 -7t3 -11t1 -14.5t-1 -15t-3 -11.5t-6 -7t-10 -2.5z" />
    <glyph glyph-name="uniFEBE" unicode="&#x636;" horiz-adv-x="1224" arabic-form="final" 
d="M1115 0v71h109v-71h-109zM321 -248q-79 0 -143 29t-101 81t-37 119q0 21 3.5 55.5t9 77t12.5 86t13 82.5l77 -12q-11 -69 -19.5 -127.5t-13 -100t-4.5 -61.5q0 -46 25.5 -81.5t71.5 -56t106 -20.5t103 19t66 53t23 80v525h78v-525q0 -70 -36.5 -120t-97.5 -76.5
t-136 -26.5zM591 0v71h519l-72 -65v235q0 63 -17.5 104.5t-52 62.5t-86.5 21q-44 0 -81.5 -14.5t-69.5 -38t-59.5 -52t-50.5 -57.5t-42 -53l-26 71q25 31 50.5 62t53.5 58.5t61.5 48.5t73.5 33.5t90 12.5q71 0 116.5 -24t71 -63.5t35.5 -84.5t10 -87v-241h-524zM1224 0v71
q6 0 10 -2.5t6 -7t3 -11t1 -14.5t-1 -15t-3 -11.5t-6 -7t-10 -2.5zM786 589v90h78v-90h-78z" />
    <glyph glyph-name="uniFEBF" unicode="&#x636;" horiz-adv-x="820" arabic-form="initial" 
d="M0 0v71h739l-72 -65v235q0 63 -17.5 104.5t-52 62.5t-86.5 21q-44 0 -81.5 -14.5t-69.5 -38t-59.5 -52t-50.5 -57.5t-42 -53l-25 71q25 31 50.5 62t53.5 58.5t61.5 48.5t73.5 33.5t90 12.5q71 0 116.5 -24t71 -63.5t35.5 -84.5t10 -87v-241h-745zM142 71v429h78v-429h-78
zM0 0q-6 0 -10 2.5t-6 7t-3 11.5t-1 15q0 11 1.5 18.5t6 12t12.5 4.5v-71zM415 589v90h78v-90h-78z" />
    <glyph glyph-name="uniFEC0" unicode="&#x636;" horiz-adv-x="853" arabic-form="medial" 
d="M745 0v71h108v-71h-108zM0 0q-6 0 -10 2.5t-6 7t-3 11.5t-1 15q0 11 1.5 18.5t6 12t12.5 4.5v-71zM0 0v71h739l-72 -65v235q0 63 -17.5 104.5t-52 62.5t-86.5 21q-44 0 -81.5 -14.5t-69.5 -38t-59.5 -52t-50.5 -57.5t-42 -53l-25 71q25 31 50.5 62t53.5 58.5t61.5 48.5
t73.5 33.5t90 12.5q71 0 116.5 -24t71 -63.5t35.5 -84.5t10 -87v-241h-745zM142 71v429h78v-429h-78zM853 0v71q6 0 10 -2.5t6 -7t3 -11t1 -14.5t-1 -15t-3 -11.5t-6 -7t-10 -2.5zM415 589v90h78v-90h-78z" />
    <glyph glyph-name="uniFEC2" unicode="&#x637;" horiz-adv-x="797" arabic-form="final" 
d="M688 0v71h109v-71h-109zM20 0v71h663l-72 -65v235q0 63 -17.5 104.5t-52 62.5t-86.5 21q-44 0 -81.5 -14.5t-69.5 -38t-59.5 -52t-50.5 -57.5t-42 -53l-26 71q31 39 63 77t70 69t86 50t110 19q71 0 116.5 -24t71 -63.5t35.5 -84.5t10 -87v-241h-668zM86 71v646h78v-646
h-78zM797 0v71q6 0 10 -2.5t6 -7t3 -11t1 -14.5t-1 -15t-3 -11.5t-6 -7t-10 -2.5z" />
    <glyph glyph-name="uniFEC3" unicode="&#x637;" horiz-adv-x="743" arabic-form="initial" 
d="M0 0v71h663l-72 -65v235q0 63 -17.5 104.5t-52 62.5t-86.5 21q-44 0 -81.5 -14.5t-69.5 -38t-59.5 -52t-50.5 -57.5t-42 -53l-26 71q31 39 63 77t70 69t86 50t110 19q71 0 116.5 -24t71 -63.5t35.5 -84.5t10 -87v-241h-668zM66 71v646h78v-646h-78zM0 0q-6 0 -10 2.5
t-6 7t-3 11.5t-1 15q0 11 1.5 18.5t6 12t12.5 4.5v-71z" />
    <glyph glyph-name="uniFEC4" unicode="&#x637;" horiz-adv-x="749" arabic-form="medial" 
d="M641 0v71h108v-71h-108zM0 0v71h663l-72 -65v235q0 63 -17.5 104.5t-52 62.5t-86.5 21q-44 0 -81.5 -14.5t-69.5 -38t-59.5 -52t-50.5 -57.5t-42 -53l-26 71q31 39 63 77t70 69t86 50t110 19q71 0 116.5 -24t71 -63.5t35.5 -84.5t10 -87v-241h-668zM66 71v646h78v-646
h-78zM0 0q-6 0 -10 2.5t-6 7t-3 11.5t-1 15q0 11 1.5 18.5t6 12t12.5 4.5v-71zM749 0v71q6 0 10 -2.5t6 -7t3 -11t1 -14.5t-1 -15t-3 -11.5t-6 -7t-10 -2.5z" />
    <glyph glyph-name="uniFEC6" unicode="&#x638;" horiz-adv-x="797" arabic-form="final" 
d="M688 0v71h109v-71h-109zM20 0v71h663l-72 -65v235q0 63 -17.5 104.5t-52 62.5t-86.5 21q-44 0 -81.5 -14.5t-69.5 -38t-59.5 -52t-50.5 -57.5t-42 -53l-26 71q31 39 63 77t70 69t86 50t110 19q71 0 116.5 -24t71 -63.5t35.5 -84.5t10 -87v-241h-668zM86 71v646h78v-646
h-78zM797 0v71q6 0 10 -2.5t6 -7t3 -11t1 -14.5t-1 -15t-3 -11.5t-6 -7t-10 -2.5zM359 590v90h78v-90h-78z" />
    <glyph glyph-name="uniFEC7" unicode="&#x638;" horiz-adv-x="743" arabic-form="initial" 
d="M0 0v71h663l-72 -65v235q0 63 -17.5 104.5t-52 62.5t-86.5 21q-44 0 -81.5 -14.5t-69.5 -38t-59.5 -52t-50.5 -57.5t-42 -53l-26 71q31 39 63 77t70 69t86 50t110 19q71 0 116.5 -24t71 -63.5t35.5 -84.5t10 -87v-241h-668zM66 71v646h78v-646h-78zM0 0q-6 0 -10 2.5
t-6 7t-3 11.5t-1 15q0 11 1.5 18.5t6 12t12.5 4.5v-71zM339 590v90h78v-90h-78z" />
    <glyph glyph-name="uniFEC8" unicode="&#x638;" horiz-adv-x="749" arabic-form="medial" 
d="M641 0v71h108v-71h-108zM0 0v71h663l-72 -65v235q0 63 -17.5 104.5t-52 62.5t-86.5 21q-44 0 -81.5 -14.5t-69.5 -38t-59.5 -52t-50.5 -57.5t-42 -53l-26 71q31 39 63 77t70 69t86 50t110 19q71 0 116.5 -24t71 -63.5t35.5 -84.5t10 -87v-241h-668zM66 71v646h78v-646
h-78zM0 0q-6 0 -10 2.5t-6 7t-3 11.5t-1 15q0 11 1.5 18.5t6 12t12.5 4.5v-71zM749 0v71q6 0 10 -2.5t6 -7t3 -11t1 -14.5t-1 -15t-3 -11.5t-6 -7t-10 -2.5zM339 590v90h78v-90h-78z" />
    <glyph glyph-name="uniFECA" unicode="&#x639;" horiz-adv-x="631" arabic-form="final" 
d="M426 -233l12 -64q-47 -10 -86.5 -15.5t-74.5 -5.5q-73 0 -126.5 22.5t-82 66.5t-28.5 106q0 48 17 89t49 71.5t77 48.5l31 13q39 16 79 36t77 44.5t66 54t46 64t17 74.5v60l42 -63q-57 30 -113.5 45t-109.5 15t-109 -15t-113 -45l42 63v-60q0 -36 19 -77t52.5 -80.5
t79.5 -72t101 -52t115 -19.5h126v-71h-126q-78 0 -146 25t-123 66.5t-94.5 91t-60.5 99t-21 90.5v60q43 23 87 38t87.5 22.5t83.5 7.5q41 0 84 -7.5t87 -22.5t87 -38v-60q0 -59 -24 -106.5t-62.5 -84.5t-83.5 -65t-87 -48q-10 -4 -26.5 -11.5t-34 -15.5t-31 -13.5
t-16.5 -7.5q-24 -11 -45 -29t-34.5 -45.5t-13.5 -67.5q0 -61 38.5 -93t120.5 -32q24 0 60.5 3.5t88.5 10.5zM631 0v71q6 0 10 -2.5t6 -7t3 -11t1 -14.5t-1 -15t-3 -11.5t-6 -7t-10 -2.5z" />
    <glyph glyph-name="uniFECB" unicode="&#x639;" horiz-adv-x="592" arabic-form="initial" 
d="M217 3q-54 46 -82.5 105.5t-28.5 126.5q0 57 20 105.5t55 84.5t83 55.5t103 19.5q29 0 62.5 -6t64.5 -17l-27 -67q-25 9 -50.5 14t-48.5 5q-53 0 -95 -25t-65.5 -68.5t-23.5 -100.5q0 -52 21.5 -97.5t62.5 -80.5zM0 0v71h506v-71h-506zM0 0q-6 0 -10 2.5t-6 7t-3 11.5
t-1 15q0 11 1.5 18.5t6 12t12.5 4.5v-71z" />
    <glyph glyph-name="uniFECC" unicode="&#x639;" horiz-adv-x="636" arabic-form="medial" 
d="M0 0v71h134q60 0 115 19.5t101 52t80 72t53 80.5t19 77v60l42 -63q-58 30 -114 45t-109 15t-109 -15t-113 -45l42 63v-60q0 -36 19 -77t52.5 -80.5t79.5 -72t101 -52t115 -19.5h128v-71h-128q-78 0 -146 25t-123 66.5t-94.5 91t-60.5 99t-21 90.5v60q43 23 87 38
t87.5 22.5t83.5 7.5q41 0 84 -7.5t87 -22.5t87 -38v-60q0 -41 -21 -90.5t-60.5 -99t-94.5 -91t-123 -66.5t-146 -25h-134zM0 0q-6 0 -10 2.5t-6 7t-3 11.5t-1 15q0 11 1.5 18.5t6 12t12.5 4.5v-71zM636 0v71q6 0 10 -2.5t6 -7t3 -11t1 -14.5t-1 -15t-3 -11.5t-6 -7t-10 -2.5
z" />
    <glyph glyph-name="uniFECE" unicode="&#x63a;" horiz-adv-x="631" arabic-form="final" 
d="M426 -233l12 -64q-47 -10 -86.5 -15.5t-74.5 -5.5q-73 0 -126.5 22.5t-82 66.5t-28.5 106q0 48 17 89t49 71.5t77 48.5l31 13q39 16 79 36t77 44.5t66 54t46 64t17 74.5v60l42 -63q-57 30 -113.5 45t-109.5 15t-109 -15t-113 -45l42 63v-60q0 -36 19 -77t52.5 -80.5
t79.5 -72t101 -52t115 -19.5h126v-71h-126q-78 0 -146 25t-123 66.5t-94.5 91t-60.5 99t-21 90.5v60q43 23 87 38t87.5 22.5t83.5 7.5q41 0 84 -7.5t87 -22.5t87 -38v-60q0 -59 -24 -106.5t-62.5 -84.5t-83.5 -65t-87 -48q-10 -4 -26.5 -11.5t-34 -15.5t-31 -13.5
t-16.5 -7.5q-24 -11 -45 -29t-34.5 -45.5t-13.5 -67.5q0 -61 38.5 -93t120.5 -32q24 0 60.5 3.5t88.5 10.5zM631 0v71q6 0 10 -2.5t6 -7t3 -11t1 -14.5t-1 -15t-3 -11.5t-6 -7t-10 -2.5zM279 590v90h78v-90h-78z" />
    <glyph glyph-name="uniFECF" unicode="&#x63a;" horiz-adv-x="592" arabic-form="initial" 
d="M217 3q-54 46 -82.5 105.5t-28.5 126.5q0 57 20 105.5t55 84.5t83 55.5t103 19.5q29 0 62.5 -6t64.5 -17l-27 -67q-25 9 -50.5 14t-48.5 5q-53 0 -95 -25t-65.5 -68.5t-23.5 -100.5q0 -52 21.5 -97.5t62.5 -80.5zM0 0v71h506v-71h-506zM0 0q-6 0 -10 2.5t-6 7t-3 11.5
t-1 15q0 11 1.5 18.5t6 12t12.5 4.5v-71zM291 590v90h78v-90h-78z" />
    <glyph glyph-name="uniFED0" unicode="&#x63a;" horiz-adv-x="636" arabic-form="medial" 
d="M0 0v71h134q60 0 115 19.5t101 52t80 72t53 80.5t19 77v60l42 -63q-58 30 -114 45t-109 15t-109 -15t-113 -45l42 63v-60q0 -36 19 -77t52.5 -80.5t79.5 -72t101 -52t115 -19.5h128v-71h-128q-78 0 -146 25t-123 66.5t-94.5 91t-60.5 99t-21 90.5v60q43 23 87 38
t87.5 22.5t83.5 7.5q41 0 84 -7.5t87 -22.5t87 -38v-60q0 -41 -21 -90.5t-60.5 -99t-94.5 -91t-123 -66.5t-146 -25h-134zM0 0q-6 0 -10 2.5t-6 7t-3 11.5t-1 15q0 11 1.5 18.5t6 12t12.5 4.5v-71zM636 0v71q6 0 10 -2.5t6 -7t3 -11t1 -14.5t-1 -15t-3 -11.5t-6 -7t-10 -2.5
zM281 590v90h78v-90h-78z" />
    <glyph glyph-name="uniFED2" unicode="&#x641;" horiz-adv-x="1055" arabic-form="final" 
d="M947 0v71h108v-71h-108zM351 0q-99 0 -165 23t-99 70t-33 120q0 24 3.5 52t8.5 54.5t9 46t5 26.5l76 -14q-3 -16 -8.5 -44t-10.5 -60t-5 -61q0 -37 11.5 -64t37 -44.5t67.5 -25.5t103 -8h570l-52 -45v437l41 -34h-170q-58 0 -89.5 -14t-43.5 -52.5t-12 -112.5t12 -112.5
t43.5 -52.5t89.5 -14v-51q-87 0 -135.5 21.5t-68 72t-19.5 136.5t19.5 141.5t68 82t135.5 26.5h207v-500h-596zM1055 0v71q6 0 10 -2.5t6 -7t3 -11t1 -14.5t-1 -15t-3 -11.5t-6 -7t-10 -2.5zM716 590v90h78v-90h-78z" />
    <glyph glyph-name="uniFED3" unicode="&#x641;" horiz-adv-x="607" arabic-form="initial" 
d="M0 0v71h505l-52 -45v437l41 -34h-170q-58 0 -89.5 -14t-43.5 -52.5t-12 -112.5t12 -112.5t43.5 -52.5t89.5 -14v-51q-87 0 -135.5 21.5t-68 72t-19.5 136.5t19.5 141.5t68 82t135.5 26.5h207v-500h-531zM0 0q-6 0 -10 2.5t-6 7t-3 11.5t-1 15q0 11 1.5 18.5t6 12
t12.5 4.5v-71zM300 590v90h78v-90h-78z" />
    <glyph glyph-name="uniFED4" unicode="&#x641;" horiz-adv-x="639" arabic-form="medial" 
d="M531 0v71h108v-71h-108zM0 0q-6 0 -10 2.5t-6 7t-3 11.5t-1 15q0 11 1.5 18.5t6 12t12.5 4.5v-71zM0 0v71h505l-52 -45v437l41 -34h-170q-58 0 -89.5 -14t-43.5 -52.5t-12 -112.5t12 -112.5t43.5 -52.5t89.5 -14v-51q-87 0 -135.5 21.5t-68 72t-19.5 136.5t19.5 141.5
t68 82t135.5 26.5h207v-500h-531zM639 0v71q6 0 10 -2.5t6 -7t3 -11t1 -14.5t-1 -15t-3 -11.5t-6 -7t-10 -2.5zM300 590v90h78v-90h-78z" />
    <glyph glyph-name="uniFED6" unicode="&#x642;" horiz-adv-x="895" arabic-form="final" 
d="M787 0v71h108v-71h-108zM303 -266q-73 0 -133 27t-95 75t-35 111q0 21 4 57.5t10 80t13 88.5t13 82l77 -12q-11 -68 -20 -125.5t-13.5 -99.5t-4.5 -65q0 -47 23 -80t64.5 -50.5t96.5 -17.5h232q55 0 93.5 17t59.5 47.5t21 72.5v521l41 -34h-170q-58 0 -89.5 -14
t-43.5 -52.5t-12 -112.5t12 -112.5t43.5 -52.5t89.5 -14h129v-71h-129q-88 0 -136 26.5t-67.5 82t-19.5 141.5t19.5 141.5t67.5 82t136 26.5h207v-558q0 -69 -35.5 -115.5t-93 -69.5t-123.5 -23h-232zM895 0v71q6 0 10 -2.5t6 -7t3 -11t1 -14.5t-1 -15t-3 -11.5t-6 -7
t-10 -2.5zM488 590v90h78v-90h-78zM625 590v90h78v-90h-78z" />
    <glyph glyph-name="uniFED7" unicode="&#x642;" horiz-adv-x="607" arabic-form="initial" 
d="M0 0v71h505l-52 -45v437l41 -34h-170q-58 0 -89.5 -14t-43.5 -52.5t-12 -112.5t12 -112.5t43.5 -52.5t89.5 -14v-51q-87 0 -135.5 21.5t-68 72t-19.5 136.5t19.5 141.5t68 82t135.5 26.5h207v-500h-531zM0 0q-6 0 -10 2.5t-6 7t-3 11.5t-1 15q0 11 1.5 18.5t6 12
t12.5 4.5v-71zM232 590v90h78v-90h-78zM369 590v90h78v-90h-78z" />
    <glyph glyph-name="uniFED8" unicode="&#x642;" horiz-adv-x="639" arabic-form="medial" 
d="M531 0v71h108v-71h-108zM0 0q-6 0 -10 2.5t-6 7t-3 11.5t-1 15q0 11 1.5 18.5t6 12t12.5 4.5v-71zM0 0v71h505l-52 -45v437l41 -34h-170q-58 0 -89.5 -14t-43.5 -52.5t-12 -112.5t12 -112.5t43.5 -52.5t89.5 -14v-51q-87 0 -135.5 21.5t-68 72t-19.5 136.5t19.5 141.5
t68 82t135.5 26.5h207v-500h-531zM639 0v71q6 0 10 -2.5t6 -7t3 -11t1 -14.5t-1 -15t-3 -11.5t-6 -7t-10 -2.5zM232 590v90h78v-90h-78zM369 590v90h78v-90h-78z" />
    <glyph glyph-name="uniFEDA" unicode="&#x643;" horiz-adv-x="817" arabic-form="final" 
d="M709 0v71h108v-71h-108zM337 0q-99 0 -165 23t-99 70t-33 120q0 24 3.5 52t8.5 54.5t9 46t5 26.5l76 -14q-3 -16 -8.5 -44t-10.5 -60t-5 -61q0 -37 11.5 -64t37 -44.5t67.5 -25.5t103 -8h330l-36 -29v675h78v-717h-372zM817 0v71q6 0 10 -2.5t6 -7t3 -11t1 -14.5t-1 -15
t-3 -11.5t-6 -7t-10 -2.5zM328 346q-16 20 -24.5 39t-8.5 40q0 29 14.5 52t38.5 36t52 13q16 0 32 -4.5t28 -12.5l-26 -45q-8 5 -15.5 6.5t-15.5 1.5q-23 0 -36.5 -13t-13.5 -34q0 -13 5.5 -25t16.5 -26zM276 346v53h197v-53h-197z" />
    <glyph glyph-name="uniFEDB" unicode="&#x643;" horiz-adv-x="625" arabic-form="initial" 
d="M0 0v71h500l-28 -25v178q0 54 -14.5 89.5t-43 53t-71.5 17.5h-218l-57 86l43 83q12 22 25 45t32 53t48 73l65 -39q-29 -44 -47 -73t-30.5 -50t-23.5 -42l-50 -96l-20 31h233q63 0 103.5 -21.5t63 -56.5t31.5 -75.5t9 -77.5v-224h-550zM0 0q-6 0 -10 2.5t-6 7t-3 11.5
t-1 15q0 11 1.5 18.5t6 12t12.5 4.5v-71z" />
    <glyph glyph-name="uniFEDC" unicode="&#x643;" horiz-adv-x="658" arabic-form="medial" 
d="M550 0v71h108v-71h-108zM0 0q-6 0 -10 2.5t-6 7t-3 11.5t-1 15q0 11 1.5 18.5t6 12t12.5 4.5v-71zM0 0v71h500l-28 -25v178q0 54 -14.5 89.5t-43 53t-71.5 17.5h-218l-57 86l43 83q12 22 25 45t32 53t48 73l65 -39q-29 -44 -47 -73t-30.5 -50t-23.5 -42l-50 -96l-20 31
h233q63 0 103.5 -21.5t63 -56.5t31.5 -75.5t9 -77.5v-224h-550zM658 0v71q6 0 10 -2.5t6 -7t3 -11t1 -14.5t-1 -15t-3 -11.5t-6 -7t-10 -2.5z" />
    <glyph glyph-name="uniFEDE" unicode="&#x644;" horiz-adv-x="699" arabic-form="final" 
d="M591 0v71h108v-71h-108zM321 -248q-79 0 -143 29t-101 81t-37 119q0 21 3.5 55.5t9 77t12.5 86t13 82.5l77 -12q-11 -69 -19.5 -127.5t-13 -100t-4.5 -61.5q0 -46 25.5 -81.5t71.5 -56t106 -20.5t103 19t66 53t23 80v742h78v-742q0 -70 -36.5 -120t-97.5 -76.5
t-136 -26.5zM699 0v71q6 0 10 -2.5t6 -7t3 -11t1 -14.5t-1 -15t-3 -11.5t-6 -7t-10 -2.5z" />
    <glyph glyph-name="uniFEDF" unicode="&#x644;" horiz-adv-x="275" arabic-form="initial" 
d="M121 0v717h78v-717h-78zM0 0v71h121v-71h-121zM0 0q-6 0 -10 2.5t-6 7t-3 11.5t-1 15q0 11 1.5 18.5t6 12t12.5 4.5v-71z" />
    <glyph glyph-name="uniFEE0" unicode="&#x644;" horiz-adv-x="307" arabic-form="medial" 
d="M199 0v71h108v-71h-108zM0 0q-6 0 -10 2.5t-6 7t-3 11.5t-1 15q0 11 1.5 18.5t6 12t12.5 4.5v-71zM121 0v717h78v-717h-78zM0 0v71h121v-71h-121zM307 0v71q6 0 10 -2.5t6 -7t3 -11t1 -14.5t-1 -15t-3 -11.5t-6 -7t-10 -2.5z" />
    <glyph glyph-name="uniFEE2" unicode="&#x645;" horiz-adv-x="659" arabic-form="final" 
d="M551 0v71h108v-71h-108zM65 -332q-10 57 -17.5 108t-7.5 87q0 65 22.5 111.5t65 71.5t101.5 25h50h76h89h87l-58 -51v225q0 70 -16 110t-54.5 57t-104.5 17q-42 0 -83.5 -6t-64.5 -16l47 48q-6 -24 -12 -60.5t-9.5 -78.5t-3.5 -84q0 -43 3.5 -84t8.5 -71t8 -42l-74 -21
q-4 13 -9.5 45t-10 77t-4.5 96q0 49 4.5 95.5t11 84.5t12.5 61q22 9 70 18t106 9q50 0 90.5 -8.5t71 -27.5t51 -48.5t30.5 -72t10 -98.5v-245h-90.5h-95h-83h-53.5q-16 0 -35 -4.5t-36.5 -18t-28.5 -41t-11 -73.5q0 -38 7 -87t16 -108h-76zM659 0v71q6 0 10 -2.5t6 -7t3 -11
t1 -14.5t-1 -15t-3 -11.5t-6 -7t-10 -2.5z" />
    <glyph glyph-name="uniFEE3" unicode="&#x645;" horiz-adv-x="642" arabic-form="initial" 
d="M0 0v71h547l-58 -41v215q0 70 -16 110t-54.5 57t-104.5 17q-42 0 -83.5 -6t-64.5 -16l47 48q-6 -24 -12 -60.5t-10 -78.5t-4 -84q0 -43 4 -84t9 -71t8 -42l-74 -21q-4 13 -9.5 45t-10 77t-4.5 96q0 49 4.5 95.5t11 84.5t12.5 61q22 9 70 18t106 9q84 0 140.5 -25
t84.5 -80.5t28 -149.5v-245h-567zM0 0q-6 0 -10 2.5t-6 7t-3 11.5t-1 15q0 11 1.5 18.5t6 12t12.5 4.5v-71z" />
    <glyph glyph-name="uniFEE4" unicode="&#x645;" horiz-adv-x="675" arabic-form="medial" 
d="M567 0v71h108v-71h-108zM0 0q-6 0 -10 2.5t-6 7t-3 11.5t-1 15q0 11 1.5 18.5t6 12t12.5 4.5v-71zM0 0v71h547l-58 -41v215q0 70 -16 110t-54.5 57t-104.5 17q-42 0 -83.5 -6t-64.5 -16l47 48q-6 -24 -12 -60.5t-10 -78.5t-4 -84q0 -43 4 -84t9 -71t8 -42l-74 -21
q-4 13 -9.5 45t-10 77t-4.5 96q0 49 4.5 95.5t11 84.5t12.5 61q22 9 70 18t106 9q84 0 140.5 -25t84.5 -80.5t28 -149.5v-245h-567zM675 0v71q6 0 10 -2.5t6 -7t3 -11t1 -14.5t-1 -15t-3 -11.5t-6 -7t-10 -2.5z" />
    <glyph glyph-name="uniFEE6" unicode="&#x646;" horiz-adv-x="699" arabic-form="final" 
d="M591 0v71h108v-71h-108zM321 -248q-79 0 -143 29t-101 81t-37 119q0 21 3.5 55.5t9 77t12.5 86t13 82.5l77 -12q-11 -69 -19.5 -127.5t-13 -100t-4.5 -61.5q0 -46 25.5 -81.5t71.5 -56t106 -20.5t103 19t66 53t23 80v525h78v-525q0 -70 -36.5 -120t-97.5 -76.5
t-136 -26.5zM699 0v71q6 0 10 -2.5t6 -7t3 -11t1 -14.5t-1 -15t-3 -11.5t-6 -7t-10 -2.5zM278 500v90h78v-90h-78z" />
    <glyph glyph-name="uniFEE7" unicode="&#x646;" horiz-adv-x="267" arabic-form="initial" 
d="M0 0v71h144l-36 -29v458h78v-500h-186zM0 0q-6 0 -10 2.5t-6 7t-3 11.5t-1 15q0 11 1.5 18.5t6 12t12.5 4.5v-71zM108 590v90h78v-90h-78z" />
    <glyph glyph-name="uniFEE8" unicode="&#x646;" horiz-adv-x="294" arabic-form="medial" 
d="M186 0v71h108v-71h-108zM0 0q-6 0 -10 2.5t-6 7t-3 11.5t-1 15q0 11 1.5 18.5t6 12t12.5 4.5v-71zM0 0v71h144l-36 -29v458h78v-500h-186zM294 0v71q6 0 10 -2.5t6 -7t3 -11t1 -14.5t-1 -15t-3 -11.5t-6 -7t-10 -2.5zM108 590v90h78v-90h-78z" />
    <glyph glyph-name="uniFEEA" unicode="&#x647;" horiz-adv-x="578" arabic-form="final" 
d="M263 0q-87 0 -135.5 26.5t-68 82t-19.5 141.5t19.5 141.5t68 82t135.5 26.5h207v-460h-78v423l40 -34h-169q-58 0 -89.5 -14t-43.5 -52.5t-12 -112.5t12 -112.5t43.5 -52.5t89.5 -14h315v-71h-315zM578 0v71q6 0 10 -2.5t6 -7t3 -11t1 -14.5t-1 -15t-3 -11.5t-6 -7
t-10 -2.5z" />
    <glyph glyph-name="uniFEEB" unicode="&#x647;" horiz-adv-x="796" arabic-form="initial" 
d="M0 0v71h692l-49 -42v170q0 94 -29 154t-87.5 89t-146.5 29q-37 0 -78 -4t-81 -10t-74 -12l-11 59q23 6 63.5 15.5t89.5 16.5t97 7q63 0 123 -17t107.5 -56t75.5 -105.5t28 -165.5v-199h-720zM119 71v80q0 48 24 89t66 66t94 25q53 0 94.5 -25t65 -66t23.5 -89v-80h-78v80
q0 31 -14 55.5t-37.5 39t-53.5 14.5q-29 0 -53 -14.5t-38.5 -39t-14.5 -55.5v-80h-78zM0 0q-6 0 -10 2.5t-6 7t-3 11.5t-1 15q0 11 1.5 18.5t6 12t12.5 4.5v-71z" />
    <glyph glyph-name="uniFEEC" unicode="&#x647;" horiz-adv-x="660" arabic-form="medial" 
d="M0 0v71h552l-77 -71v245q0 69 -16 109t-54 57.5t-103 17.5q-45 0 -86 -6t-65 -16l47 48q-6 -24 -11.5 -60.5t-9.5 -79t-4 -84.5q0 -43 4 -83.5t9 -70.5t8 -42l-74 -21q-4 13 -10 45.5t-10.5 77t-4.5 94.5t4.5 97t11.5 84.5t12 60.5q22 9 70 18t107 9q84 0 140 -25
t84 -80.5t28 -149.5v-245h-552zM299 -247q-58 0 -106 5.5t-70 11.5q-5 15 -12 38.5t-11.5 53.5t-4.5 62t4.5 60t10.5 48.5t10 28.5l70 -29q-3 -8 -7 -27t-7 -41.5t-3 -41.5q0 -20 3 -43t8.5 -45t11.5 -39l-52 44q23 -7 67.5 -11t90.5 -4q69 0 106.5 9t52 29t14.5 53v156h77
v-156q0 -59 -28 -95t-84 -51.5t-141 -15.5zM552 0v71h108v-71h-108zM660 0v71q6 0 10 -2.5t6 -7t3 -11t1 -14.5t-1 -15t-3 -11.5t-6 -7t-10 -2.5zM0 0q-6 0 -10 2.5t-6 7t-3 11.5t-1 15q0 11 1.5 18.5t6 12t12.5 4.5v-71z" />
    <glyph glyph-name="uniFEEE" unicode="&#x648;" horiz-adv-x="578" arabic-form="final" 
d="M470 0v71h108v-71h-108zM233 -221q-35 0 -74.5 5.5t-86.5 15.5l12 63q53 -7 88.5 -10t60.5 -3q83 0 121 31.5t38 91.5v482l40 -26h-169q-58 0 -89.5 -14t-43.5 -52.5t-12 -112.5t12 -112.5t43.5 -52.5t89.5 -14h129v-71h-129q-87 0 -135.5 26.5t-68 82t-19.5 141.5
t19.5 141.5t68 82t135.5 26.5h207v-526q0 -62 -28.5 -106t-81.5 -66.5t-127 -22.5zM578 0v71q6 0 10 -2.5t6 -7t3 -11t1 -14.5t-1 -15t-3 -11.5t-6 -7t-10 -2.5z" />
    <glyph glyph-name="uniFEF0" unicode="&#x649;" horiz-adv-x="884" arabic-form="final" 
d="M315 -248q-58 0 -108 16.5t-87.5 46t-58.5 70.5t-21 90q0 20 3.5 53t9 74.5t12.5 84.5l77 -11q-11 -67 -17.5 -122t-6.5 -78q0 -45 25 -79.5t69.5 -54t102.5 -19.5h283q76 0 115.5 42t39.5 123v33h77v-34q0 -69 -27 -122t-78.5 -83t-126.5 -30h-283zM695 0q-34 0 -68.5 7
t-68.5 29l44 59q14 -9 27 -14.5t29 -7.5t37 -2h189v-71h-189zM884 0v71q6 0 10 -2.5t6 -7t3 -11t1 -14.5t-1 -15t-3 -11.5t-6 -7t-10 -2.5z" />
    <glyph glyph-name="uniFEF2" unicode="&#x64a;" horiz-adv-x="884" arabic-form="final" 
d="M315 -248q-58 0 -108 16.5t-87.5 46t-58.5 70.5t-21 90q0 20 3.5 53t9 74.5t12.5 84.5l77 -11q-11 -67 -17.5 -122t-6.5 -78q0 -45 25 -79.5t69.5 -54t102.5 -19.5h283q76 0 115.5 42t39.5 123v33h77v-34q0 -69 -27 -122t-78.5 -83t-126.5 -30h-283zM695 0q-34 0 -68.5 7
t-68.5 29l44 59q14 -9 27 -14.5t29 -7.5t37 -2h189v-71h-189zM884 0v71q6 0 10 -2.5t6 -7t3 -11t1 -14.5t-1 -15t-3 -11.5t-6 -7t-10 -2.5zM328 -430v90h78v-90h-78zM465 -430v90h78v-90h-78z" />
    <glyph glyph-name="uniFEF3" unicode="&#x64a;" horiz-adv-x="267" arabic-form="initial" 
d="M0 0v71h144l-36 -29v458h78v-500h-186zM0 0q-6 0 -10 2.5t-6 7t-3 11.5t-1 15q0 11 1.5 18.5t6 12t12.5 4.5v-71zM40 -180v90h78v-90h-78zM177 -180v90h78v-90h-78z" />
    <glyph glyph-name="uniFEF4" unicode="&#x64a;" horiz-adv-x="294" arabic-form="medial" 
d="M186 0v71h108v-71h-108zM294 0v71q6 0 10 -2.5t6 -7t3 -11t1 -14.5t-1 -15t-3 -11.5t-6 -7t-10 -2.5zM0 0q-6 0 -10 2.5t-6 7t-3 11.5t-1 15q0 11 1.5 18.5t6 12t12.5 4.5v-71zM0 0v71h144l-36 -29v458h78v-500h-186zM40 -180v90h78v-90h-78zM177 -180v90h78v-90h-78z
" />
    <glyph glyph-name=".notdef" horiz-adv-x="235" 
d="M21 709h186v-709h-186v709zM41 689v-669h146v669h-146z" />
    <glyph glyph-name=".null" horiz-adv-x="0" 
 />
    <glyph glyph-name="nonmarkingreturn" horiz-adv-x="333" 
 />
    <glyph glyph-name="DLE" horiz-adv-x="0" 
 />
    <glyph glyph-name="space" unicode=" " horiz-adv-x="220" 
 />
    <glyph glyph-name="exclam" unicode="!" horiz-adv-x="249" 
d="M89 230l-6 461h83l-6 -461h-71zM82 0v115h85v-115h-85z" />
    <glyph glyph-name="quotedbl" unicode="&#x22;" horiz-adv-x="375" 
d="M235 468l-3 223h78l-5 -223h-70zM70 468l-4 223h78l-5 -223h-69z" />
    <glyph glyph-name="numbersign" unicode="#" 
d="M134 0v172h-110v67h110v183h-110v66h110v178h70v-178h152v178h70v-178h110v-66h-110v-183h110v-67h-110v-172h-70v172h-152v-172h-70zM204 239h152v183h-152v-183z" />
    <glyph glyph-name="dollar" unicode="$" 
d="M202 -124l57 446l51 -9l-56 -437h-52zM316 359l-51 8l56 432h51zM282 -9q-28 0 -66 3.5t-76 8.5t-66 9l7 63q28 -3 64.5 -7t72.5 -6.5t61 -2.5q46 0 76.5 14t46 42.5t15.5 73.5q0 36 -14 57.5t-46 34t-85 23.5q-69 15 -114 34.5t-67.5 55.5t-22.5 98q0 64 26.5 103.5
t74 57.5t112.5 18q28 0 65 -3.5t72.5 -8t61.5 -8.5l-7 -64q-28 3 -64 7t-69.5 6.5t-53.5 2.5q-46 0 -77.5 -11.5t-47.5 -35t-16 -59.5q0 -42 16 -64t51 -34.5t92 -25.5q50 -11 86 -24.5t59 -33t34 -48.5t11 -72q0 -73 -26 -118t-73.5 -65.5t-112.5 -20.5z" />
    <glyph glyph-name="percent" unicode="%" 
d="M203 -19l-50 15l207 686l50 -16zM138 390q-34 0 -58.5 15.5t-38 47t-13.5 79.5t13.5 78.5t38 45t58.5 14.5t58.5 -14.5t38 -45t13.5 -78.5t-13.5 -79.5t-38 -47t-58.5 -15.5zM138 443q18 0 28.5 10t15 30t4.5 49t-4.5 48t-15 28.5t-28.5 9.5t-28.5 -9.5t-15 -28.5
t-4.5 -48t4.5 -49t15 -30t28.5 -10zM423 -10q-34 0 -59 15.5t-38.5 47t-13.5 79.5t13.5 78.5t38.5 45t59 14.5t58.5 -14.5t38 -45t13.5 -79.5q0 -48 -13.5 -79.5t-38 -46.5t-58.5 -15zM423 42q18 0 28.5 10t15 30t4.5 49q0 30 -4.5 49t-15 28t-28.5 9t-28.5 -9t-15.5 -28
t-5 -48t5 -49.5t15.5 -30.5t28.5 -10z" />
    <glyph glyph-name="ampersand" unicode="&#x26;" horiz-adv-x="689" 
d="M289 -10q-94 0 -148 26t-76.5 73.5t-22.5 113.5q0 59 16.5 97.5t51 63t86.5 41.5q-25 29 -37.5 52t-16.5 46t-4 52q0 44 20.5 77t60 51.5t95.5 18.5q59 0 98 -18.5t58 -53t19 -81.5q0 -36 -9 -63t-27.5 -48.5t-47.5 -40.5t-69 -38l148 -147q6 16 12 45t11 60.5t6 54.5
l75 -1q-3 -35 -10.5 -74.5t-16.5 -74.5t-19 -59l128 -120l-46 -52l-121 111q-34 -55 -88.5 -83.5t-125.5 -28.5zM282 60q56 0 99.5 21.5t67.5 66.5l-209 208q-42 -13 -68.5 -31.5t-39 -46.5t-12.5 -70q0 -72 37.5 -110t124.5 -38zM290 406q43 19 69.5 37.5t38.5 42t12 58.5
q0 44 -22.5 67t-73.5 23q-46 0 -71.5 -22.5t-25.5 -69.5q0 -18 2.5 -32.5t9.5 -29t22 -32t39 -42.5z" />
    <glyph glyph-name="quotesingle" unicode="'" horiz-adv-x="209" 
d="M69 468l-3 223h79l-6 -223h-70z" />
    <glyph glyph-name="parenleft" unicode="(" horiz-adv-x="266" 
d="M155 -125q-17 34 -35.5 82t-34 105.5t-25.5 118.5t-10 120t10 122.5t25.5 124t34 113t35.5 89.5h75q-15 -41 -32 -96t-31 -116.5t-23 -122.5t-9 -114q0 -52 9 -111t23 -117t31 -109t32 -89h-75z" />
    <glyph glyph-name="parenright" unicode=")" horiz-adv-x="266" 
d="M111 -125h-75q15 38 32 89t31 109t23 117t9 111q0 53 -9 114t-23 122.5t-31 116.5t-32 96h75q17 -37 35.5 -89.5t34 -113t25.5 -124t10 -122.5t-10 -120t-25.5 -118.5t-34 -105.5t-35.5 -82z" />
    <glyph glyph-name="asterisk" unicode="*" horiz-adv-x="420" 
d="M233 370l-41 126l-107 -79l-31 41l107 79l-105 77l31 43l106 -78l41 126l50 -17l-40 -126h130v-52h-131l40 -125z" />
    <glyph glyph-name="plus" unicode="+" 
d="M243 20v195h-188v72h188v193h72v-193h190v-72h-190v-195h-72z" />
    <glyph glyph-name="comma" unicode="," horiz-adv-x="225" 
d="M34 -123l45 232h87l-68 -232h-64z" />
    <glyph glyph-name="hyphen" unicode="-" horiz-adv-x="436" 
d="M67 239v72h303v-72h-303z" />
    <glyph glyph-name="period" unicode="." horiz-adv-x="218" 
d="M67 0v117h85v-117h-85z" />
    <glyph glyph-name="slash" unicode="/" horiz-adv-x="415" 
d="M102 -15l-70 25l282 699l70 -26z" />
    <glyph glyph-name="zero" unicode="0" 
d="M280 -10q-57 0 -101.5 16t-76 53.5t-48 101.5t-16.5 159q0 101 16 169t47.5 108t76 57t101.5 17q59 0 104 -17t75.5 -57t46.5 -107.5t16 -169.5q0 -126 -29 -198t-82.5 -102t-129.5 -30zM280 61q39 0 68.5 12t49.5 41t30 79.5t10 126.5q0 83 -9.5 137t-29 85.5t-49 44.5
t-70.5 13q-40 0 -70 -13t-49.5 -44t-29.5 -85.5t-10 -138.5q0 -76 10.5 -126.5t31 -79t50 -40.5t67.5 -12z" />
    <glyph glyph-name="one" unicode="1" 
d="M310 0v571l-168 -112l-37 61l210 140h75v-660h-80z" />
    <glyph glyph-name="two" unicode="2" 
d="M69 0v68l190 199q41 43 71 77.5t46 68t16 71.5q0 65 -35.5 89.5t-106.5 24.5q-26 0 -58 -3.5t-61.5 -8t-50.5 -9.5l-6 66q21 6 52 12t67.5 10.5t71.5 4.5q105 0 157.5 -42t52.5 -135q0 -49 -15.5 -88t-46 -76.5t-77.5 -83.5l-173 -175h328v-70h-422z" />
    <glyph glyph-name="three" unicode="3" 
d="M278 -10q-38 0 -79 4.5t-77 10.5t-60 12l7 65q23 -4 57 -9t72 -8.5t72 -3.5q72 0 106.5 31.5t34.5 93.5q0 45 -18 71t-48.5 38t-67.5 13h-133v69h133q25 0 52.5 14t46.5 40.5t19 63.5q0 56 -30.5 80.5t-102.5 24.5q-33 0 -67.5 -3.5t-65 -8t-50.5 -9.5l-7 64
q20 6 51.5 12.5t68.5 11t73 4.5q79 0 125.5 -18.5t67 -56.5t20.5 -97q0 -38 -12 -64.5t-29 -44t-33 -27.5l-24 -15q34 -12 59.5 -28.5t40 -47t14.5 -83.5q0 -67 -22.5 -111t-70.5 -66t-123 -22z" />
    <glyph glyph-name="four" unicode="4" 
d="M358 0v128h-318v62l187 470h88l-191 -461h234v204h80v-204h83v-71h-83v-128h-80z" />
    <glyph glyph-name="five" unicode="5" 
d="M282 -9q-37 0 -78 5t-78.5 11.5t-62.5 12.5l9 64q25 -4 60 -9.5t72.5 -9t69.5 -3.5q68 0 107.5 39t39.5 113q0 50 -17 78.5t-48 40.5t-72 12q-30 0 -60 -6t-55 -15t-41 -18l-54 11l18 343h385v-72h-319l-18 -211q17 8 42 17t54 15.5t57 6.5q65 0 112 -19.5t73 -62
t26 -113.5q0 -76 -26.5 -127t-76 -77t-119.5 -26z" />
    <glyph glyph-name="six" unicode="6" 
d="M286 -10q-82 0 -134.5 41t-77.5 118t-25 184q0 90 18 154t52 104.5t82 59.5t107 19q31 0 65 -3t65 -7t52 -8l-8 -64q-19 2 -48.5 4.5t-62 4.5t-63.5 2q-85 0 -130 -58t-46 -166q9 2 26.5 8t41 13t48.5 12t48 5q109 0 165 -50t56 -155q0 -70 -27 -119t-78.5 -74
t-125.5 -25zM286 61q72 0 110.5 38t38.5 109q0 68 -38.5 101t-106.5 33q-27 0 -57 -6t-57 -14.5t-45 -16.5q1 -69 16 -124.5t49 -87.5t90 -32z" />
    <glyph glyph-name="seven" unicode="7" 
d="M234 -10l-75 23l247 548v27h-329v72h411v-104z" />
    <glyph glyph-name="eight" unicode="8" 
d="M278 -10q-50 0 -94.5 8.5t-79 29t-54 55t-19.5 85.5t14.5 83t40 53.5t58.5 40.5q-34 18 -56.5 38t-34 48.5t-11.5 68.5q0 57 29 95t82 57t125 19q71 0 125 -19t84.5 -57t30.5 -96q0 -42 -11.5 -70t-35.5 -47.5t-62 -36.5q35 -16 62 -37t42 -51.5t15 -77.5
q0 -54 -19.5 -90.5t-54 -58t-80 -31t-96.5 -9.5zM278 63q48 0 85 11t58 38.5t21 74.5q0 38 -15 60.5t-40.5 36t-58.5 22.5h-105q-50 -14 -78 -42t-28 -82q0 -44 21 -70.5t57.5 -37.5t82.5 -11zM223 376h105q50 17 77 42.5t27 70.5q0 59 -40.5 84t-112.5 25
q-70 0 -110.5 -24.5t-40.5 -83.5q0 -45 24 -71t71 -43z" />
    <glyph glyph-name="nine" unicode="9" 
d="M247 -10q-30 0 -64 3t-65 7t-53 8l8 65q20 -2 49 -5t62 -5t63 -2q89 0 133.5 55.5t45.5 170.5q-25 -9 -55 -18t-59.5 -14.5t-54.5 -5.5q-104 0 -160 49t-56 153q0 68 28 117t79.5 75.5t121.5 26.5q84 0 136.5 -41.5t77.5 -118.5t25 -182q0 -96 -18 -161t-51.5 -104
t-82 -56t-110.5 -17zM264 320q25 0 55 6t59 14.5t49 15.5q-1 71 -16.5 125.5t-49.5 86t-91 31.5q-68 0 -107.5 -40t-39.5 -108t36 -99.5t105 -31.5z" />
    <glyph glyph-name="colon" unicode=":" horiz-adv-x="219" 
d="M67 320v117h85v-117h-85zM67 0v117h85v-117h-85z" />
    <glyph glyph-name="semicolon" unicode=";" horiz-adv-x="250" 
d="M47 -123l45 232h88l-69 -232h-64zM87 320v117h84v-117h-84z" />
    <glyph glyph-name="less" unicode="&#x3c;" 
d="M477 13l-416 204v68l416 202v-81l-335 -154l335 -157v-82z" />
    <glyph glyph-name="equal" unicode="=" 
d="M64 308v72h432v-72h-432zM64 122v72h432v-72h-432z" />
    <glyph glyph-name="greater" unicode="&#x3e;" 
d="M82 13v82l335 157l-335 154v81l416 -202v-68z" />
    <glyph glyph-name="question" unicode="?" horiz-adv-x="446" 
d="M160 202q-4 11 -9 27t-5 35q0 24 12 45.5t33 42.5t47 44q36 31 55 51.5t26 40t7 47.5q0 52 -31.5 74t-98.5 22q-20 0 -48.5 -3.5t-56.5 -9t-49 -10.5l-6 63q22 7 52 14t61 12t55 5q67 0 112 -16t67.5 -51.5t22.5 -93.5q0 -43 -7 -71t-27 -52.5t-59 -57.5
q-44 -37 -66 -63.5t-22 -59.5v-35h-65zM149 1v115h84v-115h-84z" />
    <glyph glyph-name="at" unicode="@" horiz-adv-x="976" 
d="M504 -203q-111 0 -195.5 22t-142 74.5t-86.5 142.5t-29 225q0 123 30 211t88.5 143.5t142.5 81.5t192 26q150 0 245 -46t139.5 -139t44.5 -233v-13q0 -76 -8 -129t-23 -86t-36.5 -51t-49 -25t-59.5 -7q-36 0 -61 10t-39 24t-18 26q-20 -12 -50 -26t-62 -23.5t-60 -9.5
q-26 0 -52 5.5t-48.5 20.5t-39.5 43t-27 72.5t-10 109.5q0 84 18 142t62 87.5t122 29.5q26 0 59.5 -8.5t54.5 -17.5v16h78v-191q0 -83 2 -132t9 -73t22.5 -31.5t41.5 -7.5q22 0 39.5 7t30 29.5t19 69.5t6.5 126v14q0 91 -19.5 156.5t-61.5 108t-108.5 63t-160.5 20.5
t-164.5 -22.5t-117.5 -70.5t-70 -122t-23 -178q0 -110 22 -185.5t67.5 -122t116.5 -67t169 -20.5q16 0 41.5 1.5t53 3.5t48.5 4l3 -69q-20 -2 -47 -4t-53.5 -3.5t-45.5 -1.5zM471 64q21 0 47.5 7t52 17.5t44.5 20.5q-2 21 -4.5 49t-3.5 59t-1 61v138q-19 7 -48.5 13.5
t-52.5 6.5q-56 0 -85.5 -21.5t-40.5 -64t-11 -105.5q0 -57 9 -92.5t24 -55t33 -26.5t37 -7z" />
    <glyph glyph-name="A" unicode="A" horiz-adv-x="596" 
d="M23 0l189 691h173l188 -691h-80l-49 175h-292l-49 -175h-80zM169 246h258l-103 377h-52z" />
    <glyph glyph-name="B" unicode="B" horiz-adv-x="615" 
d="M84 0v691h252q68 0 113.5 -18t69 -57t23.5 -101q0 -44 -10.5 -74.5t-29.5 -50.5t-47 -34q30 -10 54.5 -29t39 -51t14.5 -82q0 -54 -15 -91.5t-43.5 -60t-68 -32.5t-88.5 -10h-264zM164 70h181q42 0 72.5 11t47.5 38.5t17 77.5q0 39 -14.5 63t-36.5 36t-46 16t-44 4h-177
v-246zM164 386h176q43 0 69.5 13.5t39 40.5t12.5 68q0 59 -31.5 86t-96.5 27h-169v-235z" />
    <glyph glyph-name="C" unicode="C" horiz-adv-x="544" 
d="M312 -10q-78 0 -127.5 23t-77.5 68t-38.5 111t-10.5 152q0 88 10.5 155t38.5 112t77.5 68t127.5 23q36 0 71.5 -3.5t66.5 -9t53 -10.5l-3 -67q-22 4 -54 8t-65 7t-60 3q-57 0 -92.5 -17t-54.5 -52.5t-26 -89t-7 -127.5q0 -72 7 -125.5t25.5 -88t54.5 -51.5t94 -17
q42 0 92.5 5.5t85.5 11.5l3 -68q-24 -5 -56 -10t-67 -8t-68 -3z" />
    <glyph glyph-name="D" unicode="D" horiz-adv-x="644" 
d="M84 0v691h247q76 0 126 -24.5t79 -69t41 -106t12 -135.5q0 -75 -11.5 -139.5t-40.5 -113.5t-79 -76t-127 -27h-247zM164 71h167q54 0 88 23t53 63t26.5 91t7.5 108q0 56 -7.5 104t-26.5 84t-53 56t-88 20h-167v-549z" />
    <glyph glyph-name="E" unicode="E" horiz-adv-x="553" 
d="M84 0v691h423v-71h-343v-234h283v-70h-283v-245h343v-71h-423z" />
    <glyph glyph-name="F" unicode="F" horiz-adv-x="526" 
d="M84 0v691h415v-71h-335v-266h283v-71h-283v-283h-80z" />
    <glyph glyph-name="G" unicode="G" horiz-adv-x="616" 
d="M325 -10q-80 0 -132 23.5t-82 69t-42.5 111.5t-12.5 150q0 87 12.5 153.5t43 112t82 69t129.5 23.5q39 0 81.5 -4t81 -10.5t64.5 -12.5l-3 -66q-26 5 -64 9.5t-77.5 8t-72.5 3.5q-59 0 -97 -17t-59 -52.5t-29.5 -89t-8.5 -127.5q0 -96 15 -159t56.5 -93.5t120.5 -30.5
q23 0 49 2t50.5 5t40.5 6v209h-112v71h191v-340q-17 -3 -45 -7t-60 -8t-63.5 -6.5t-56.5 -2.5z" />
    <glyph glyph-name="H" unicode="H" horiz-adv-x="675" 
d="M84 0v691h80v-308h347v308h80v-691h-80v312h-347v-312h-80z" />
    <glyph glyph-name="I" unicode="I" horiz-adv-x="248" 
d="M84 0v691h80v-691h-80z" />
    <glyph glyph-name="J" unicode="J" horiz-adv-x="289" 
d="M18 -72v71q33 0 55 3t34 13.5t17 32.5t5 59v584h80v-595q0 -56 -11 -89.5t-34.5 -50.5t-59.5 -22.5t-86 -5.5z" />
    <glyph glyph-name="K" unicode="K" horiz-adv-x="570" 
d="M84 0v691h80v-320l113 4l174 316h92l-195 -347l206 -344h-95l-181 304l-114 -4v-300h-80z" />
    <glyph glyph-name="L" unicode="L" horiz-adv-x="478" 
d="M84 0v691h80v-619h302v-72h-382z" />
    <glyph glyph-name="M" unicode="M" horiz-adv-x="841" 
d="M84 0v691h145l191 -580l192 580h145v-691h-80v606h-15l-197 -581h-89l-197 581h-15v-606h-80z" />
    <glyph glyph-name="N" unicode="N" horiz-adv-x="677" 
d="M84 0v691h149l260 -620h20v620h80v-691h-146l-264 620h-19v-620h-80z" />
    <glyph glyph-name="O" unicode="O" horiz-adv-x="660" 
d="M330 -10q-108 0 -167.5 40t-83 118.5t-23.5 193.5t24 195t83.5 122.5t166.5 42.5t166.5 -42t83.5 -122.5t24 -195.5q0 -118 -23.5 -196.5t-83 -117t-167.5 -38.5zM330 61q79 0 120 30t56 92.5t15 158.5q0 93 -15.5 157.5t-56.5 98t-119 33.5t-119 -33.5t-56.5 -97.5
t-15.5 -158q0 -93 15 -155.5t56 -94t120 -31.5z" />
    <glyph glyph-name="P" unicode="P" horiz-adv-x="592" 
d="M84 0v691h253q76 0 125 -24.5t73 -74t24 -125.5q0 -75 -24 -127.5t-73 -80t-125 -27.5h-173v-232h-80zM164 302h173q74 0 107 43t33 122q0 80 -33 117t-107 37h-173v-319z" />
    <glyph glyph-name="Q" unicode="Q" horiz-adv-x="660" 
d="M500 -146l-88 145q-16 -4 -37.5 -6.5t-44.5 -2.5q-108 0 -167.5 39.5t-83 118t-23.5 194.5q0 115 24 195t83.5 122.5t166.5 42.5t166.5 -42t83.5 -122.5t24 -195.5q0 -121 -24.5 -199t-89.5 -116l85 -138zM330 61q79 0 120 30t56 92.5t15 158.5q0 93 -15.5 157.5
t-56.5 98t-119 33.5t-119 -33.5t-56.5 -97.5t-15.5 -158t15 -156.5t56 -93.5t120 -31z" />
    <glyph glyph-name="R" unicode="R" horiz-adv-x="616" 
d="M84 0v691h257q73 0 122.5 -22t74.5 -68.5t25 -119.5q0 -76 -30.5 -128t-95.5 -73l132 -280h-89l-122 263h-194v-263h-80zM164 333h178q51 0 81.5 19t43.5 52.5t13 75.5q0 71 -34 106t-105 35h-177v-288z" />
    <glyph glyph-name="S" unicode="S" horiz-adv-x="542" 
d="M273 -9q-30 0 -70 3.5t-79.5 9t-69.5 9.5l8 66q29 -3 67.5 -7t76 -7t63.5 -3q49 0 81 14.5t48 44.5t16 77q0 38 -14.5 60.5t-48 36t-89.5 24.5q-54 11 -94 25t-67 35.5t-40 54.5t-13 82q0 67 27.5 108t78 60t117.5 19q30 0 68.5 -3.5t76 -8t64.5 -9.5l-7 -67
q-29 4 -67 7.5t-73 6.5t-56 3q-48 0 -81 -12t-50 -36.5t-17 -62.5q0 -44 16.5 -67t53.5 -36t97 -27q52 -12 89.5 -26t62 -34.5t36 -51t11.5 -75.5q0 -76 -27 -123t-77 -68.5t-118 -21.5z" />
    <glyph glyph-name="T" unicode="T" horiz-adv-x="526" 
d="M224 0v619h-211v72h500v-72h-209v-619h-80z" />
    <glyph glyph-name="U" unicode="U" horiz-adv-x="645" 
d="M320 -10q-76 0 -130 22t-82.5 70.5t-28.5 128.5v480h80v-482q0 -79 42.5 -113.5t118.5 -34.5q80 0 123 34.5t43 113.5v482h80v-480q0 -79 -28.5 -128t-83.5 -71t-134 -22z" />
    <glyph glyph-name="V" unicode="V" horiz-adv-x="583" 
d="M204 0l-180 691h83l157 -620h55l157 620h83l-179 -691h-176z" />
    <glyph glyph-name="W" unicode="W" horiz-adv-x="888" 
d="M169 0l-139 691h83l116 -621h28l140 616h94l140 -616h28l116 621h83l-140 -691h-144l-137 622h14l-137 -622h-145z" />
    <glyph glyph-name="X" unicode="X" horiz-adv-x="559" 
d="M18 0l213 338l-213 353h91l172 -293l174 293h86l-212 -350l212 -341h-91l-171 284l-175 -284h-86z" />
    <glyph glyph-name="Y" unicode="Y" horiz-adv-x="539" 
d="M230 0v290l-220 401h90l169 -321l170 321h90l-219 -401v-290h-80z" />
    <glyph glyph-name="Z" unicode="Z" horiz-adv-x="536" 
d="M43 -1v91l357 509v21h-357v71h450v-91l-358 -509v-20h358v-72h-450z" />
    <glyph glyph-name="bracketleft" unicode="[" horiz-adv-x="330" 
d="M78 -123v872h212v-70h-133v-732h133v-70h-212z" />
    <glyph glyph-name="backslash" unicode="\" horiz-adv-x="439" 
d="M339 -16l-309 693l69 30l310 -693z" />
    <glyph glyph-name="bracketright" unicode="]" horiz-adv-x="330" 
d="M252 -123h-212v70h133v732h-133v70h212v-872z" />
    <glyph glyph-name="asciicircum" unicode="^" 
d="M56 319l186 341h69l192 -341h-84l-142 264l-138 -264h-83z" />
    <glyph glyph-name="underscore" unicode="_" horiz-adv-x="631" 
d="M102 -159v68h428v-68h-428z" />
    <glyph glyph-name="grave" unicode="`" horiz-adv-x="238" 
d="M221 590l-223 84l27 67l218 -99z" />
    <glyph glyph-name="a" unicode="a" horiz-adv-x="502" 
d="M181 -10q-69 0 -105 39t-36 114q0 49 17 80t51.5 47.5t85.5 20.5l154 15v43q0 51 -22.5 72t-66.5 21q-25 0 -59.5 -2t-68.5 -5t-60 -6l-4 59q24 5 58 10t71 8.5t68 3.5q57 0 93 -17.5t52.5 -53t16.5 -90.5v-253q2 -22 17.5 -32t39.5 -13l-3 -61q-14 0 -27 1t-24.5 3.5
t-22.5 5.5q-13 5 -24.5 12t-22.5 17q-19 -8 -48.5 -17t-63 -15.5t-66.5 -6.5zM194 55q27 0 56 5t55 12t43 13v163l-145 -14q-45 -4 -64.5 -26t-19.5 -63q0 -42 19 -66t56 -24z" />
    <glyph glyph-name="b" unicode="b" horiz-adv-x="527" 
d="M240 -10q-22 0 -52.5 1.5t-61.5 4.5t-55 5v716h78v-241q16 8 40 15.5t51.5 13t52.5 5.5q68 0 108.5 -25.5t58 -81t17.5 -145.5q0 -100 -21.5 -158.5t-73 -84t-142.5 -25.5zM239 60q68 0 101.5 20.5t45 64.5t11.5 113q0 64 -10 104t-34.5 59t-67.5 19q-24 0 -50 -4.5
t-48.5 -11t-37.5 -12.5v-347q21 -2 48.5 -3.5t41.5 -1.5z" />
    <glyph glyph-name="c" unicode="c" horiz-adv-x="436" 
d="M257 -10q-79 0 -124 26.5t-63.5 85.5t-18.5 156q0 91 20.5 146.5t66.5 80.5t120 25q17 0 41.5 -2.5t50.5 -6t45 -6.5l-3 -64q-17 2 -39 4t-43 3.5t-35 1.5q-57 0 -88.5 -18t-44 -57.5t-12.5 -106.5q0 -73 11 -116.5t42 -62.5t92 -19q14 0 35.5 1.5t44 3.5t39.5 3l2 -64
q-20 -3 -46 -6t-51 -5.5t-42 -2.5z" />
    <glyph glyph-name="d" unicode="d" horiz-adv-x="530" 
d="M230 -10q-30 0 -57 6.5t-49.5 22.5t-39.5 44.5t-26 73.5t-9 109q0 89 21 147.5t67 87.5t122 29q19 0 42 -2t44.5 -5t34.5 -6v220h78v-717h-77v33q-16 -9 -41.5 -19t-54 -17t-55.5 -7zM240 60q26 0 52.5 6t49.5 14.5t38 15.5v335q-12 2 -33 4.5t-43.5 4.5t-40.5 2
q-51 0 -80 -22t-41.5 -65.5t-12.5 -108.5q0 -60 9 -96.5t24.5 -56t35.5 -26.5t42 -7z" />
    <glyph glyph-name="e" unicode="e" horiz-adv-x="505" 
d="M249 -10q-75 0 -118.5 29t-62.5 86t-19 142q0 95 26 152.5t73 84t111 26.5q100 0 151 -55.5t51 -178.5l-4 -59h-329q1 -78 29 -118t101 -40q28 0 61.5 1.5t66.5 3.5t56 4l2 -61q-24 -4 -58.5 -8t-70.5 -6.5t-66 -2.5zM128 280h255q0 92 -29.5 128.5t-94.5 36.5
q-42 0 -71 -16.5t-44.5 -52.5t-15.5 -96z" />
    <glyph glyph-name="f" unicode="f" horiz-adv-x="332" 
d="M93 0v433h-63v67h63v44q0 72 13 112t43 55.5t79 15.5q12 0 33 -1t41 -2.5t28 -3.5l-1 -65q-18 1 -43.5 1.5t-41.5 0.5q-28 0 -44 -9.5t-22.5 -34.5t-6.5 -70v-43h144v-67h-144v-433h-78z" />
    <glyph glyph-name="g" unicode="g" horiz-adv-x="515" 
d="M265 -235q-78 0 -125.5 13.5t-69 46.5t-21.5 90q0 29 9 49.5t26.5 38t43.5 36.5q-13 10 -20.5 28.5t-7.5 41.5q0 7 5.5 21t13.5 29.5t15 28.5q-21 10 -38.5 27.5t-28.5 47.5t-11 76q0 62 23.5 99.5t66 54.5t97.5 17q27 0 57 -4t47 -9l149 4v-66l-94 2q14 -14 23.5 -37
t9.5 -61q0 -65 -22 -102t-65 -52t-108 -15q-7 0 -23.5 1.5t-24.5 2.5q-6 -14 -12 -32t-6 -25q0 -15 3.5 -23.5t15 -13.5t35.5 -6.5t66 -1.5q72 0 115 -12t61.5 -43.5t18.5 -91.5q0 -85 -59 -122.5t-165 -37.5zM266 -169q74 0 109 21t35 69q0 37 -11.5 54.5t-38.5 23t-72 5.5
q-9 0 -25 0.5t-33 1t-30.5 1.5t-18.5 1q-20 -15 -32.5 -27.5t-17.5 -26t-5 -32.5q0 -33 12 -53t42.5 -29t85.5 -9zM243 232q62 0 88 24.5t26 82.5t-26 83t-88 25q-58 0 -83.5 -25t-25.5 -83t25.5 -82.5t83.5 -24.5z" />
    <glyph glyph-name="h" unicode="h" horiz-adv-x="538" 
d="M72 0v717h77v-244q18 8 43.5 16.5t54.5 14.5t55 6q52 0 85 -13.5t51.5 -43t25.5 -76t7 -112.5v-265h-78v262q0 65 -7.5 104t-29.5 56.5t-68 17.5q-25 0 -51.5 -4.5t-49.5 -11.5t-38 -13v-411h-77z" />
    <glyph glyph-name="i" unicode="i" horiz-adv-x="221" 
d="M72 0v500h77v-500h-77zM72 610v90h77v-90h-77z" />
    <glyph glyph-name="j" unicode="j" horiz-adv-x="221" 
d="M-17 -223l-31 60q38 22 61.5 39.5t36 35.5t17.5 42t5 60v486h78v-487q0 -46 -7.5 -79.5t-26 -59.5t-51 -48.5t-82.5 -48.5zM72 610v90h78v-90h-78z" />
    <glyph glyph-name="k" unicode="k" horiz-adv-x="481" 
d="M72 0v717h77v-422l77 3l140 202h89l-161 -231l169 -269h-89l-146 230l-79 -4v-226h-77z" />
    <glyph glyph-name="l" unicode="l" horiz-adv-x="233" 
d="M78 0v717h77v-717h-77z" />
    <glyph glyph-name="m" unicode="m" horiz-adv-x="836" 
d="M72 0v500h77v-35q16 10 40 20t51.5 17.5t52.5 7.5q50 0 80.5 -12t49.5 -39q20 11 49 23t62.5 20t65.5 8q51 0 84 -13t51.5 -42t26 -75.5t7.5 -114.5v-265h-77v262q0 65 -7.5 104t-29.5 56.5t-67 17.5q-26 0 -52.5 -5.5t-49 -14t-36.5 -16.5q7 -26 9.5 -64.5t2.5 -79.5
v-260h-77v258q0 68 -7 107.5t-29.5 57t-67.5 17.5q-25 0 -50.5 -5.5t-46.5 -14t-35 -16.5v-404h-77z" />
    <glyph glyph-name="n" unicode="n" horiz-adv-x="538" 
d="M72 0v500h77v-35q17 10 42.5 20t54.5 17.5t56 7.5q52 0 85 -13.5t51.5 -43t26 -76t7.5 -112.5v-265h-78v262q0 65 -7.5 104t-30 56.5t-68.5 17.5q-25 0 -51.5 -5.5t-49.5 -14t-38 -16.5v-404h-77z" />
    <glyph glyph-name="o" unicode="o" horiz-adv-x="529" 
d="M264 -10q-84 0 -130.5 29t-65 88t-18.5 149q0 86 20.5 142t67.5 84t126 28q80 0 127 -28t67.5 -84t20.5 -142q0 -90 -18.5 -149t-65 -88t-131.5 -29zM264 57q58 0 87 20.5t38.5 64.5t9.5 114q0 69 -12 110t-41 59t-82 18q-52 0 -81.5 -18t-41.5 -59t-12 -110
q0 -70 9.5 -114t38.5 -64.5t87 -20.5z" />
    <glyph glyph-name="p" unicode="p" horiz-adv-x="528" 
d="M72 -221v721h77v-36q16 10 40.5 20.5t52.5 18t54 7.5q64 0 104 -26.5t59.5 -82.5t19.5 -145q0 -98 -22.5 -156.5t-71 -84t-125.5 -25.5q-31 0 -62.5 4t-48.5 7v-222h-77zM256 58q54 0 85.5 20t44.5 63.5t13 114.5q0 101 -30 142.5t-84 41.5q-24 0 -49.5 -6t-48.5 -14.5
t-38 -17.5v-334q16 -2 47 -6t60 -4z" />
    <glyph glyph-name="q" unicode="q" horiz-adv-x="527" 
d="M377 -221v244q-22 -10 -61.5 -21.5t-77.5 -11.5q-68 0 -109.5 26t-60.5 82t-19 144q0 99 22.5 158t74.5 84.5t140 25.5q19 0 49 -1.5t62.5 -4t57.5 -4.5v-721h-78zM246 60q38 0 74.5 9.5t56.5 18.5v349q-19 2 -46 3.5t-44 1.5q-64 0 -98.5 -21.5t-47.5 -65.5t-13 -113
q0 -92 27 -137t91 -45z" />
    <glyph glyph-name="r" unicode="r" horiz-adv-x="347" 
d="M72 0v500h77v-67q19 13 48 28.5t64 29.5t70 20v-79q-34 -7 -69 -18.5t-64.5 -24.5t-48.5 -23v-366h-77z" />
    <glyph glyph-name="s" unicode="s" horiz-adv-x="466" 
d="M228 -10q-23 0 -55.5 3t-64.5 7.5t-57 8.5l4 67q25 -3 56.5 -7t61.5 -6.5t48 -2.5q41 0 68 7.5t41 25.5t14 51q0 25 -10.5 39t-39 23t-82.5 17q-56 9 -93.5 22.5t-55.5 40.5t-18 77q0 56 26 88t67.5 45.5t86.5 13.5q28 0 61.5 -3t65.5 -7.5t55 -8.5l-2 -67q-24 4 -56 7.5
t-64 6t-56 2.5q-30 0 -54 -6.5t-38 -22.5t-14 -45q0 -22 10 -35.5t38 -22.5t81 -18q62 -10 99.5 -25t54.5 -42t17 -76q0 -58 -23.5 -92.5t-67 -49.5t-104.5 -15z" />
    <glyph glyph-name="t" unicode="t" horiz-adv-x="351" 
d="M236 -11q-52 0 -82.5 16t-43.5 55.5t-13 111.5v261h-71v67h71v153h77v-153h157v-67h-157v-238q0 -53 4.5 -82.5t19.5 -41.5t47 -12q10 0 26 1t32.5 2.5t29.5 2.5l5 -65q-14 -2 -33 -4.5t-37.5 -4.5t-31.5 -2z" />
    <glyph glyph-name="u" unicode="u" horiz-adv-x="532" 
d="M224 -10q-64 0 -98 26t-46.5 81t-12.5 142v261h77v-261q0 -66 6.5 -105t28.5 -56.5t66 -17.5t80 12t58 24v404h77v-500h-77v35q-32 -18 -69.5 -31.5t-89.5 -13.5z" />
    <glyph glyph-name="v" unicode="v" horiz-adv-x="482" 
d="M164 0l-140 500h84l114 -433h38l118 433h80l-140 -500h-154z" />
    <glyph glyph-name="w" unicode="w" horiz-adv-x="763" 
d="M149 0l-118 500h78l98 -433h17l117 423h81l117 -423h17l98 433h78l-118 -500h-129l-104 387l-103 -387h-129z" />
    <glyph glyph-name="x" unicode="x" horiz-adv-x="453" 
d="M22 0l155 250l-155 250h85l119 -194l120 194h85l-157 -248l157 -252h-85l-120 193l-119 -193h-85z" />
    <glyph glyph-name="y" unicode="y" horiz-adv-x="484" 
d="M176 -221l65 221h-75l-141 500h78l122 -433h34l123 433h78l-206 -721h-78z" />
    <glyph glyph-name="z" unicode="z" horiz-adv-x="455" 
d="M42 0v70l276 360h-276v70h371v-70l-276 -360h276v-70h-371z" />
    <glyph glyph-name="braceleft" unicode="{" horiz-adv-x="352" 
d="M311 -128q-51 2 -87 13t-58 32t-32 53t-10 77q0 17 1.5 36t2.5 37q2 15 2.5 28t0.5 21q0 42 -25.5 68.5t-82.5 42.5v63q58 14 83 40t25 69q0 10 -1 24.5t-2 30.5q-1 19 -2.5 38t-1.5 34q0 46 10 78.5t32.5 53.5t58.5 31.5t87 12.5l1 -67q-45 -2 -69.5 -16t-34 -38.5
t-9.5 -58.5q0 -13 1.5 -30t2.5 -35q1 -16 2 -31.5t1 -26.5q0 -42 -9 -68.5t-31.5 -43t-64.5 -28.5q42 -12 64.5 -29t31.5 -44t9 -69q0 -10 -1 -22.5t-2 -25.5q-1 -18 -2.5 -35t-1.5 -33q0 -33 9 -58t33.5 -39.5t69.5 -17.5z" />
    <glyph glyph-name="bar" unicode="|" horiz-adv-x="232" 
d="M77 -221v938h78v-938h-78z" />
    <glyph glyph-name="braceright" unicode="}" horiz-adv-x="352" 
d="M41 -128l-1 67q46 3 70 17.5t33 39.5t9 58q0 16 -1 33t-3 35q-1 13 -2 25.5t-1 22.5q0 42 9 69t32 44t64 29q-41 12 -64 28.5t-32 43t-9 68.5q0 11 1 26.5t2 31.5q2 18 3 35t1 30q0 34 -9.5 58.5t-33.5 38.5t-70 16l1 67q51 -2 87 -12.5t58.5 -31.5t32.5 -53.5t10 -78.5
q0 -15 -1 -34t-3 -38q-1 -16 -2 -30.5t-1 -24.5q0 -43 25 -69t83 -40v-63q-57 -16 -82.5 -42.5t-25.5 -68.5q0 -8 1 -21t2 -28q2 -18 3 -37t1 -36q0 -45 -10 -77t-32 -53t-58 -32t-87 -13z" />
    <glyph glyph-name="asciitilde" unicode="~" 
d="M382 194q-19 0 -47.5 9t-58 21t-55 21t-39.5 9q-15 0 -34.5 -7.5t-38 -18t-32.5 -20.5l-10 64q14 12 33.5 24t41.5 20.5t41 8.5q20 0 47.5 -9t56 -21t54 -21t42.5 -9q14 0 32.5 7.5t37 18.5t32.5 20l10 -64q-13 -11 -32 -23.5t-40 -21t-41 -8.5z" />
    <glyph glyph-name="uni00A0" unicode="&#xa0;" horiz-adv-x="220" 
 />
    <glyph glyph-name="exclamdown" unicode="&#xa1;" horiz-adv-x="230" 
d="M150 270l6 -461h-83l6 461h71zM157 500v-115h-85v115h85z" />
    <glyph glyph-name="cent" unicode="&#xa2;" 
d="M278 -81v117q-59 3 -99 23t-59.5 65.5t-19.5 123.5q0 74 20 121t59.5 70t97.5 26v117h68v-119q23 -1 52 -5t48 -8l-3 -62q-14 2 -38.5 3.5t-49 2.5t-41.5 1q-73 0 -102.5 -33.5t-29.5 -113.5q0 -53 12 -84.5t42.5 -45t83.5 -13.5q18 0 41 1t45 3t38 3l3 -63
q-19 -3 -48.5 -6.5t-52.5 -4.5v-119h-67z" />
    <glyph glyph-name="sterling" unicode="&#xa3;" 
d="M80 0v69h84v281h-67v68h67v55q0 60 9 98.5t27 60t46 30t67 8.5q20 0 45 -3t49 -6.5t41 -7.5l-2 -63q-17 2 -39.5 4.5t-45.5 4t-40 1.5q-31 0 -48.5 -11.5t-24.5 -40t-7 -80.5v-50h169v-68h-169v-281h152l76 16l13 -67l-81 -18h-321z" />
    <glyph glyph-name="currency" unicode="&#xa4;" 
d="M280 70q-50 1 -91.5 25.5t-66 65.5t-24.5 91t24.5 91.5t66 66t91.5 24.5t91.5 -24.5t66 -66t24.5 -91.5t-24.5 -91t-66 -65.5t-91.5 -25.5zM111 29l-54 54l101 101l54 -54zM280 139q31 0 56.5 15.5t41 41t15.5 56.5t-15.5 56.5t-41 41t-56.5 15.5t-56.5 -15.5t-41 -41
t-15.5 -56.5t15.5 -56.5t41 -41t56.5 -15.5zM158 320l-101 101l54 54l101 -101zM449 29l-101 101l54 54l101 -101zM402 320l-54 54l101 101l54 -54z" />
    <glyph glyph-name="yen" unicode="&#xa5;" 
d="M241 0v161h-183v68h183v66l-7 19h-177v67h137l-172 279h89l170 -267l167 267h90l-170 -279h134v-67h-173l-8 -19v-66h182v-68h-182v-161h-80z" />
    <glyph glyph-name="brokenbar" unicode="&#xa6;" horiz-adv-x="236" 
d="M79 343v374h78v-374h-78zM79 -221v377h78v-377h-78z" />
    <glyph glyph-name="section" unicode="&#xa7;" horiz-adv-x="500" 
d="M245 -152q-23 0 -55 3t-64 7l-56 7l7 65q14 -2 31 -4t35.5 -3.5t36 -3t33.5 -2.5t28 -1q59 0 90 23.5t31 72.5q0 32 -15 48t-46.5 25t-81.5 19q-56 11 -93.5 26.5t-56 44.5t-18.5 78q0 37 19.5 73t39.5 53q-14 11 -24 25.5t-15 35.5t-5 50q0 55 22.5 90.5t66 53
t104.5 17.5q24 0 54 -3t59.5 -7t50.5 -8l-3 -65q-24 3 -54 6.5t-57.5 5.5t-45.5 2q-64 0 -92.5 -21.5t-28.5 -68.5q0 -33 15 -51t46.5 -27.5t80.5 -19.5q55 -10 90 -25t52.5 -42.5t17.5 -77.5q0 -34 -13.5 -71t-29.5 -61q12 -10 20 -23t12 -31.5t4 -45.5q0 -43 -12 -75
t-36 -52.5t-60 -31t-84 -10.5zM341 146q9 14 17 41t8 52q0 31 -12.5 48t-37.5 26t-64 16q-28 5 -52 10.5t-38 11.5q-11 -13 -22 -38t-11 -48q0 -45 26 -63t84 -28q21 -4 39.5 -8.5t34.5 -9t28 -10.5z" />
    <glyph glyph-name="dieresis" unicode="&#xa8;" horiz-adv-x="296" 
d="M211 620v92h75v-92h-75zM10 620v92h75v-92h-75z" />
    <glyph glyph-name="copyright" unicode="&#xa9;" horiz-adv-x="645" 
d="M322 161q-76 0 -135.5 36.5t-93.5 98.5t-34 138q0 77 34 139t94 98.5t136 36.5q78 0 137.5 -37t93 -99.5t33.5 -137.5q0 -76 -33.5 -138t-93 -98.5t-138.5 -36.5zM326 276q-44 0 -69.5 17t-36.5 52.5t-11 90.5q0 52 11 86.5t37 52t71 17.5q23 0 44.5 -3.5t31.5 -7.5
l-3 -55q-13 2 -33.5 4.5t-37.5 2.5q-25 0 -38 -10.5t-17 -32t-4 -54.5q0 -49 12 -75t47 -26q17 0 37.5 2.5t33.5 4.5l3 -54q-11 -4 -33 -8t-45 -4zM322 205q64 0 113.5 31t78 83t28.5 115q0 47 -16.5 89t-46.5 73.5t-70 49.5t-87 18q-63 0 -112.5 -31t-78 -83.5
t-28.5 -115.5t28.5 -115t78 -83t112.5 -31z" />
    <glyph glyph-name="ordfeminine" unicode="&#xaa;" horiz-adv-x="388" 
d="M329 354q-26 2 -45 7t-30.5 15t-15.5 28v158q0 23 -11.5 31.5t-37.5 7.5q-19 0 -53.5 -2.5t-60.5 -4.5l-4 49q28 7 61.5 11.5t62.5 4.5q56 0 83 -22t27 -78v-137q5 -7 13 -10.5t16 -5.5zM138 355q-38 0 -61.5 25.5t-23.5 66.5q0 42 24.5 63.5t73.5 24.5l106 6l1 -47
l-97 -7q-22 -1 -31 -9.5t-9 -28.5q0 -19 9 -29t26 -10q25 0 54.5 7.5t50.5 15.5l1 -41q-23 -16 -57 -26.5t-67 -10.5z" />
    <glyph glyph-name="guillemotleft" unicode="&#xab;" horiz-adv-x="542" 
d="M475 65l-191 152v62l191 144v-81l-123 -92l123 -104v-81zM236 65l-191 152v62l191 144v-81l-124 -92l124 -104v-81z" />
    <glyph glyph-name="logicalnot" unicode="&#xac;" 
d="M421 117v155h-356v71h428v-226h-72z" />
    <glyph glyph-name="uni00AD" unicode="&#xad;" horiz-adv-x="437" 
d="M67 239v72h303v-72h-303z" />
    <glyph glyph-name="registered" unicode="&#xae;" horiz-adv-x="645" 
d="M322 161q-76 0 -135.5 36.5t-93.5 98.5t-34 138q0 77 34 139t93.5 98.5t135.5 36.5q79 0 138.5 -37t93 -99.5t33.5 -137.5q0 -76 -33.5 -138t-93 -98.5t-138.5 -36.5zM322 205q64 0 113.5 31t78 83t28.5 115q0 47 -16.5 89t-46.5 73.5t-70 49.5t-87 18t-87 -18
t-69.5 -49.5t-46 -73.5t-16.5 -89t16.5 -88.5t46 -73t69.5 -49.5t87 -18zM212 282v303h112q53 0 83 -21t30 -75q0 -37 -10.5 -58.5t-39.5 -33.5l55 -115h-63l-50 106h-57v-106h-60zM272 436h57q26 0 38 12t12 38q0 27 -14.5 39t-46.5 12h-46v-101z" />
    <glyph glyph-name="macron" unicode="&#xaf;" horiz-adv-x="238" 
d="M-14 623v61h276v-61h-276z" />
    <glyph glyph-name="degree" unicode="&#xb0;" 
d="M280 419q-63 0 -102.5 38.5t-39.5 102.5q0 63 39.5 102.5t102.5 39.5t102.5 -39.5t39.5 -102.5q0 -64 -39.5 -102.5t-102.5 -38.5zM280 468q41 0 66.5 25.5t25.5 66.5t-25.5 66.5t-66.5 25.5t-65.5 -25.5t-24.5 -66.5t24.5 -66.5t65.5 -25.5z" />
    <glyph glyph-name="plusminus" unicode="&#xb1;" 
d="M243 167v125h-188v71h188v125h72v-125h190v-71h-190v-125h-72zM55 37v71h450v-71h-450z" />
    <glyph glyph-name="uni00B2" unicode="&#xb2;" horiz-adv-x="280" 
d="M30 478v56l87 87q23 22 36.5 40.5t13.5 40.5q0 19 -13 27.5t-35 8.5q-16 0 -41 -3t-43 -6l-3 60q20 4 50 7.5t54 3.5q53 0 76.5 -22.5t23.5 -69.5q0 -23 -6.5 -41t-20 -34.5t-34.5 -35.5l-62 -59h126v-60h-209z" />
    <glyph glyph-name="uni00B3" unicode="&#xb3;" horiz-adv-x="280" 
d="M139 468q-23 0 -56 3.5t-53 6.5l4 58q18 -3 47.5 -5.5t46.5 -2.5q29 0 41.5 9.5t12.5 31.5q0 23 -12.5 32t-32.5 9h-66v55h65q14 0 25.5 12t11.5 32q0 17 -11.5 24t-37.5 7q-18 0 -44 -2.5t-42 -4.5l-4 59q21 3 49.5 5.5t50.5 2.5q55 0 81.5 -19.5t26.5 -63.5
q0 -31 -11.5 -49t-27.5 -25q23 -7 34.5 -23t11.5 -51q0 -52 -27 -76.5t-83 -24.5z" />
    <glyph glyph-name="acute" unicode="&#xb4;" horiz-adv-x="268" 
d="M46 590l-21 52l218 99l26 -67z" />
    <glyph glyph-name="uni03BC" unicode="&#xb5;" horiz-adv-x="525" 
d="M224 -10q-64 0 -98 26t-46.5 81t-12.5 142v261h77v-261q0 -66 6.5 -105t28.5 -56.5t66 -17.5t80 12t58 24v404h77v-500h-77v35q-32 -18 -69.5 -31.5t-89.5 -13.5zM67 -185v500h77v-500h-77z" />
    <glyph glyph-name="paragraph" unicode="&#xb6;" horiz-adv-x="593" 
d="M228 0v322h-7q-53 0 -95.5 23.5t-66.5 65t-24 95.5q0 55 24.5 96.5t66.5 65t96 23.5h329v-68h-71v-623h-69v623h-114v-623h-69z" />
    <glyph glyph-name="periodcentered" unicode="&#xb7;" horiz-adv-x="219" 
d="M68 226v117h85v-117h-85z" />
    <glyph glyph-name="cedilla" unicode="&#xb8;" horiz-adv-x="263" 
d="M128 -218q-24 0 -48.5 2t-38.5 5l3 49q9 -1 31 -1.5t34 -0.5q21 0 32.5 8.5t11.5 28.5q0 19 -11.5 26t-32.5 7h-41v95h42v-49q37 0 62 -6.5t37.5 -23.5t12.5 -49q0 -48 -26 -69.5t-68 -21.5z" />
    <glyph glyph-name="uni00B9" unicode="&#xb9;" horiz-adv-x="280" 
d="M128 478v239l-67 -45l-31 48l102 70h62v-312h-66z" />
    <glyph glyph-name="ordmasculine" unicode="&#xba;" horiz-adv-x="382" 
d="M192 355q-69 0 -104 37.5t-35 116.5q0 78 35 114t104 36q68 0 102.5 -36t34.5 -114q0 -79 -34.5 -116.5t-102.5 -37.5zM192 418q37 0 51 21.5t14 68.5q0 48 -14 68t-51 20t-52.5 -20t-15.5 -68q0 -47 15.5 -68.5t52.5 -21.5z" />
    <glyph glyph-name="guillemotright" unicode="&#xbb;" horiz-adv-x="543" 
d="M306 65v81l124 104l-124 92v81l191 -144v-62zM66 65v81l124 104l-124 92v81l192 -144v-62z" />
    <glyph glyph-name="onequarter" unicode="&#xbc;" horiz-adv-x="564" 
d="M128 478v239l-67 -45l-31 48l102 70h62v-312h-66zM96 3l-40 25l392 632l40 -26zM426 -122v48h-140v55l67 209h73l-72 -205h72l6 89h59v-89h26v-59h-26v-48h-65z" />
    <glyph glyph-name="onehalf" unicode="&#xbd;" horiz-adv-x="564" 
d="M128 478v239l-67 -45l-31 48l102 70h62v-312h-66zM96 3l-40 25l392 632l40 -26zM314 -122v56l87 87q23 22 36.5 40.5t13.5 40.5q0 19 -13 27.5t-35 8.5q-16 0 -41 -3t-43 -6l-3 60q20 4 50 7.5t54 3.5q53 0 76.5 -22.5t23.5 -69.5q0 -23 -6.5 -41t-20 -34.5t-34.5 -35.5
l-62 -59h126v-60h-209z" />
    <glyph glyph-name="threequarters" unicode="&#xbe;" horiz-adv-x="564" 
d="M139 468q-23 0 -56 3.5t-53 6.5l4 58q18 -3 47.5 -5.5t46.5 -2.5q29 0 41.5 9.5t12.5 31.5q0 23 -12.5 32t-32.5 9h-66v55h65q14 0 25.5 12t11.5 32q0 17 -11.5 24t-37.5 7q-18 0 -44 -2.5t-42 -4.5l-4 59q21 3 49.5 5.5t50.5 2.5q55 0 81.5 -19.5t26.5 -63.5
q0 -31 -11.5 -49t-27.5 -25q23 -7 34.5 -23t11.5 -51q0 -52 -27 -76.5t-83 -24.5zM96 3l-40 25l392 632l40 -26zM426 -122v48h-140v55l67 209h73l-72 -205h72l6 89h59v-89h26v-59h-26v-48h-65z" />
    <glyph glyph-name="questiondown" unicode="&#xbf;" horiz-adv-x="441" 
d="M283 299q5 -10 9.5 -26t4.5 -36q0 -24 -12 -45.5t-32.5 -42.5t-47.5 -44q-36 -31 -55 -51.5t-26 -40t-7 -47.5q0 -52 31.5 -74t98.5 -22q21 0 49 3.5t56 9t49 10.5l6 -63q-22 -7 -52 -14t-60.5 -12t-55.5 -5q-67 0 -112 16t-67.5 51.5t-22.5 93.5q0 43 7 71t27 53t59 57
q44 37 66 63.5t22 59.5v35h65zM294 500v-115h-84v115h84z" />
    <glyph glyph-name="Agrave" unicode="&#xc0;" horiz-adv-x="596" 
d="M23 0l189 691h173l188 -691h-80l-49 175h-292l-49 -175h-80zM169 246h258l-103 377h-52zM383 776l-221 87l26 69l218 -100z" />
    <glyph glyph-name="Aacute" unicode="&#xc1;" horiz-adv-x="596" 
d="M23 0l189 691h173l188 -691h-80l-49 175h-292l-49 -175h-80zM169 246h258l-103 377h-52zM208 776l-23 56l218 100l26 -69z" />
    <glyph glyph-name="Acircumflex" unicode="&#xc2;" horiz-adv-x="596" 
d="M23 0l189 691h173l188 -691h-80l-49 175h-292l-49 -175h-80zM169 246h258l-103 377h-52zM129 790l134 135h68l134 -135h-87l-80 79l-81 -79h-88z" />
    <glyph glyph-name="Atilde" unicode="&#xc3;" horiz-adv-x="596" 
d="M23 0l189 691h173l188 -691h-80l-49 175h-292l-49 -175h-80zM169 246h258l-103 377h-52zM378 801q-18 0 -41 8t-47 19t-44 19t-31 8q-13 0 -35 -16.5t-38 -31.5l-18 58q11 13 26 26t32 22.5t32 9.5q19 0 42.5 -8t46.5 -18.5t42.5 -18.5t31.5 -8q11 0 32 15t37 30l18 -58
q-9 -12 -23.5 -25t-31 -22t-31.5 -9z" />
    <glyph glyph-name="Adieresis" unicode="&#xc4;" horiz-adv-x="596" 
d="M23 0l189 691h173l188 -691h-80l-49 175h-292l-49 -175h-80zM169 246h258l-103 377h-52zM362 806v92h75v-92h-75zM158 806v92h75v-92h-75z" />
    <glyph glyph-name="Aring" unicode="&#xc5;" horiz-adv-x="596" 
d="M23 0l189 691h173l188 -691h-80l-49 175h-292l-49 -175h-80zM169 246h258l-103 377h-52zM298 636q-52 0 -86 28t-34 78q0 34 15.5 58t43 36.5t61.5 12.5q50 0 84.5 -28t34.5 -79q0 -50 -34.5 -78t-84.5 -28zM298 689q19 0 32.5 6.5t21 18.5t7.5 28q0 26 -16 39.5
t-45 13.5q-19 0 -33 -6t-21.5 -18t-7.5 -29q0 -25 16.5 -39t45.5 -14z" />
    <glyph glyph-name="AE" unicode="&#xc6;" horiz-adv-x="876" 
d="M19 0l222 696h588v-77h-343v-225h283v-76h-283v-242h343v-76h-422v172h-248l-57 -172h-83zM180 249h227l1 370h-109z" />
    <glyph glyph-name="Ccedilla" unicode="&#xc7;" horiz-adv-x="544" 
d="M312 -10q-78 0 -127.5 23t-77.5 68t-38.5 111t-10.5 152q0 88 10.5 155t38.5 112t77.5 68t127.5 23q36 0 71.5 -3.5t66.5 -9t53 -10.5l-3 -67q-22 4 -54 8t-65 7t-60 3q-57 0 -92.5 -17t-54.5 -52.5t-26 -89t-7 -127.5q0 -72 7 -125.5t25.5 -88t54.5 -51.5t94 -17
q42 0 92.5 5.5t85.5 11.5l3 -68q-24 -5 -56 -10t-67 -8t-68 -3zM340 -218q-24 0 -48.5 2t-38.5 5l3 49q9 -1 31 -1.5t34 -0.5q21 0 32.5 8.5t11.5 28.5q0 19 -11.5 26t-32.5 7h-41v95h42v-49q37 0 62 -6.5t37.5 -23.5t12.5 -49q0 -48 -26 -69.5t-68 -21.5z" />
    <glyph glyph-name="Egrave" unicode="&#xc8;" horiz-adv-x="553" 
d="M84 0v691h423v-71h-343v-234h283v-70h-283v-245h343v-71h-423zM389 776l-221 87l26 69l218 -100z" />
    <glyph glyph-name="Eacute" unicode="&#xc9;" horiz-adv-x="553" 
d="M84 0v691h423v-71h-343v-234h283v-70h-283v-245h343v-71h-423zM199 776l-23 56l218 100l26 -69z" />
    <glyph glyph-name="Ecircumflex" unicode="&#xca;" horiz-adv-x="553" 
d="M84 0v691h423v-71h-343v-234h283v-70h-283v-245h343v-71h-423zM126 790l134 135h68l134 -135h-87l-80 79l-81 -79h-88z" />
    <glyph glyph-name="Edieresis" unicode="&#xcb;" horiz-adv-x="553" 
d="M84 0v691h423v-71h-343v-234h283v-70h-283v-245h343v-71h-423zM359 806v92h75v-92h-75zM155 806v92h75v-92h-75z" />
    <glyph glyph-name="Igrave" unicode="&#xcc;" horiz-adv-x="248" 
d="M84 0v691h80v-691h-80zM201 776l-221 87l26 69l218 -100z" />
    <glyph glyph-name="Iacute" unicode="&#xcd;" horiz-adv-x="248" 
d="M84 0v691h80v-691h-80zM36 776l-23 56l218 100l26 -69z" />
    <glyph glyph-name="Icircumflex" unicode="&#xce;" horiz-adv-x="248" 
d="M84 0v691h80v-691h-80zM-48 790l134 135h68l134 -135h-87l-80 79l-81 -79h-88z" />
    <glyph glyph-name="Idieresis" unicode="&#xcf;" horiz-adv-x="248" 
d="M84 0v691h80v-691h-80zM188 806v92h75v-92h-75zM-16 806v92h75v-92h-75z" />
    <glyph glyph-name="Eth" unicode="&#xd0;" horiz-adv-x="647" 
d="M20 309v77h303v-77h-303zM87 0v691h247q76 0 126 -24.5t79 -69t41 -106t12 -135.5q0 -75 -11.5 -139.5t-40.5 -113.5t-79 -76t-127 -27h-247zM167 71h167q54 0 88 23t53 63t26.5 91t7.5 108q0 56 -7.5 104t-26.5 84t-53 56t-88 20h-167v-549z" />
    <glyph glyph-name="Ntilde" unicode="&#xd1;" horiz-adv-x="677" 
d="M84 0v691h149l260 -620h20v620h80v-691h-146l-264 620h-19v-620h-80zM420 801q-18 0 -41 8t-47 19t-44 19t-31 8q-13 0 -35 -16.5t-38 -31.5l-18 58q11 13 26 26t32 22.5t32 9.5q19 0 42.5 -8t46.5 -18.5t42.5 -18.5t31.5 -8q11 0 32 15t37 30l18 -58q-9 -12 -23.5 -25
t-31 -22t-31.5 -9z" />
    <glyph glyph-name="Ograve" unicode="&#xd2;" horiz-adv-x="660" 
d="M330 -10q-108 0 -167.5 40t-83 118.5t-23.5 193.5t24 195t83.5 122.5t166.5 42.5t166.5 -42t83.5 -122.5t24 -195.5q0 -118 -23.5 -196.5t-83 -117t-167.5 -38.5zM330 61q79 0 120 30t56 92.5t15 158.5q0 93 -15.5 157.5t-56.5 98t-119 33.5t-119 -33.5t-56.5 -97.5
t-15.5 -158q0 -93 15 -155.5t56 -94t120 -31.5zM420 776l-221 87l26 69l218 -100z" />
    <glyph glyph-name="Oacute" unicode="&#xd3;" horiz-adv-x="660" 
d="M330 -10q-108 0 -167.5 40t-83 118.5t-23.5 193.5t24 195t83.5 122.5t166.5 42.5t166.5 -42t83.5 -122.5t24 -195.5q0 -118 -23.5 -196.5t-83 -117t-167.5 -38.5zM330 61q79 0 120 30t56 92.5t15 158.5q0 93 -15.5 157.5t-56.5 98t-119 33.5t-119 -33.5t-56.5 -97.5
t-15.5 -158q0 -93 15 -155.5t56 -94t120 -31.5zM220 776l-23 56l218 100l26 -69z" />
    <glyph glyph-name="Ocircumflex" unicode="&#xd4;" horiz-adv-x="660" 
d="M330 -10q-108 0 -167.5 40t-83 118.5t-23.5 193.5t24 195t83.5 122.5t166.5 42.5t166.5 -42t83.5 -122.5t24 -195.5q0 -118 -23.5 -196.5t-83 -117t-167.5 -38.5zM330 61q79 0 120 30t56 92.5t15 158.5q0 93 -15.5 157.5t-56.5 98t-119 33.5t-119 -33.5t-56.5 -97.5
t-15.5 -158q0 -93 15 -155.5t56 -94t120 -31.5zM162 790l134 135h68l134 -135h-87l-80 79l-81 -79h-88z" />
    <glyph glyph-name="Otilde" unicode="&#xd5;" horiz-adv-x="660" 
d="M330 -10q-108 0 -167.5 40t-83 118.5t-23.5 193.5t24 195t83.5 122.5t166.5 42.5t166.5 -42t83.5 -122.5t24 -195.5q0 -118 -23.5 -196.5t-83 -117t-167.5 -38.5zM330 61q79 0 120 30t56 92.5t15 158.5q0 93 -15.5 157.5t-56.5 98t-119 33.5t-119 -33.5t-56.5 -97.5
t-15.5 -158q0 -93 15 -155.5t56 -94t120 -31.5zM411 801q-18 0 -41 8t-47 19t-44 19t-31 8q-13 0 -35 -16.5t-38 -31.5l-18 58q11 13 26 26t32 22.5t32 9.5q19 0 42.5 -8t46.5 -18.5t42.5 -18.5t31.5 -8q11 0 32 15t37 30l18 -58q-9 -12 -23.5 -25t-31 -22t-31.5 -9z" />
    <glyph glyph-name="Odieresis" unicode="&#xd6;" horiz-adv-x="660" 
d="M330 -10q-108 0 -167.5 40t-83 118.5t-23.5 193.5t24 195t83.5 122.5t166.5 42.5t166.5 -42t83.5 -122.5t24 -195.5q0 -118 -23.5 -196.5t-83 -117t-167.5 -38.5zM330 61q79 0 120 30t56 92.5t15 158.5q0 93 -15.5 157.5t-56.5 98t-119 33.5t-119 -33.5t-56.5 -97.5
t-15.5 -158q0 -93 15 -155.5t56 -94t120 -31.5zM394 806v92h75v-92h-75zM190 806v92h75v-92h-75z" />
    <glyph glyph-name="multiply" unicode="&#xd7;" 
d="M121 41l-51 50l162 160l-161 159l50 50l159 -161l160 162l50 -51l-162 -159l162 -160l-51 -50l-159 161z" />
    <glyph glyph-name="Oslash" unicode="&#xd8;" horiz-adv-x="660" 
d="M305 206l-59 28l265 566l60 -26zM154 -117l-59 28l208 445l60 -26zM330 -10q-108 0 -167.5 40t-83 118.5t-23.5 193.5t24 195t83.5 122.5t166.5 42.5t166.5 -42t83.5 -122.5t24 -195.5q0 -118 -23.5 -196.5t-83 -117t-167.5 -38.5zM330 61q79 0 120 30t56 92.5t15 158.5
q0 93 -15.5 157.5t-56.5 98t-119 33.5t-119 -33.5t-56.5 -97.5t-15.5 -158q0 -93 15 -155.5t56 -94t120 -31.5z" />
    <glyph glyph-name="Ugrave" unicode="&#xd9;" horiz-adv-x="645" 
d="M320 -10q-76 0 -130 22t-82.5 70.5t-28.5 128.5v480h80v-482q0 -79 42.5 -113.5t118.5 -34.5q80 0 123 34.5t43 113.5v482h80v-480q0 -79 -28.5 -128t-83.5 -71t-134 -22zM416 776l-221 87l26 69l218 -100z" />
    <glyph glyph-name="Uacute" unicode="&#xda;" horiz-adv-x="645" 
d="M320 -10q-76 0 -130 22t-82.5 70.5t-28.5 128.5v480h80v-482q0 -79 42.5 -113.5t118.5 -34.5q80 0 123 34.5t43 113.5v482h80v-480q0 -79 -28.5 -128t-83.5 -71t-134 -22zM221 776l-23 56l218 100l26 -69z" />
    <glyph glyph-name="Ucircumflex" unicode="&#xdb;" horiz-adv-x="645" 
d="M320 -10q-76 0 -130 22t-82.5 70.5t-28.5 128.5v480h80v-482q0 -79 42.5 -113.5t118.5 -34.5q80 0 123 34.5t43 113.5v482h80v-480q0 -79 -28.5 -128t-83.5 -71t-134 -22zM154 790l134 135h68l134 -135h-87l-80 79l-81 -79h-88z" />
    <glyph glyph-name="Udieresis" unicode="&#xdc;" horiz-adv-x="645" 
d="M320 -10q-76 0 -130 22t-82.5 70.5t-28.5 128.5v480h80v-482q0 -79 42.5 -113.5t118.5 -34.5q80 0 123 34.5t43 113.5v482h80v-480q0 -79 -28.5 -128t-83.5 -71t-134 -22zM387 806v92h75v-92h-75zM183 806v92h75v-92h-75z" />
    <glyph glyph-name="Yacute" unicode="&#xdd;" horiz-adv-x="539" 
d="M230 0v290l-220 401h90l169 -321l170 321h90l-219 -401v-290h-80zM189 776l-23 56l218 100l26 -69z" />
    <glyph glyph-name="Thorn" unicode="&#xde;" horiz-adv-x="599" 
d="M84 0v696h80v-112h173q76 0 125.5 -24.5t73.5 -73.5t24 -125t-24 -130t-73.5 -83t-125.5 -29h-173v-119h-80zM164 197h173q74 0 107.5 44t33.5 120t-33.5 111.5t-107.5 35.5h-173v-311z" />
    <glyph glyph-name="germandbls" unicode="&#xdf;" horiz-adv-x="576" 
d="M341 -10q-19 0 -43.5 2.5t-48 6t-40.5 6.5l3 65q18 -2 41.5 -4.5t45.5 -4t35 -1.5q74 0 100 27t26 78q0 27 -8.5 45t-32 33.5t-67.5 36.5q-42 20 -65.5 36.5t-33.5 36t-10 46.5q0 25 8.5 42.5t26 30t42.5 23.5q26 11 40 22.5t19 26t5 34.5q0 44 -25 61.5t-90 17.5
q-43 0 -69.5 -10.5t-38.5 -36.5t-12 -75v-535h-77v544q0 51 11.5 86.5t35 56.5t61 30.5t89.5 9.5q69 0 112.5 -15t63.5 -46.5t20 -83.5q0 -36 -9 -60t-27 -39.5t-46 -28.5q-24 -11 -37 -18.5t-18 -14.5t-5 -17t7 -18.5t26.5 -20t55.5 -29.5q47 -23 75.5 -44t41 -47.5
t12.5 -67.5q0 -68 -20 -109t-63.5 -59.5t-116.5 -18.5z" />
    <glyph glyph-name="agrave" unicode="&#xe0;" horiz-adv-x="502" 
d="M181 -10q-69 0 -105 39t-36 114q0 49 17 80t51.5 47.5t85.5 20.5l154 15v43q0 51 -22.5 72t-66.5 21q-25 0 -59.5 -2t-68.5 -5t-60 -6l-4 59q24 5 58 10t71 8.5t68 3.5q57 0 93 -17.5t52.5 -53t16.5 -90.5v-253q2 -22 17.5 -32t39.5 -13l-3 -61q-14 0 -27 1t-24.5 3.5
t-22.5 5.5q-13 5 -24.5 12t-22.5 17q-19 -8 -48.5 -17t-63 -15.5t-66.5 -6.5zM194 55q27 0 56 5t55 12t43 13v163l-145 -14q-45 -4 -64.5 -26t-19.5 -63q0 -42 19 -66t56 -24zM343 590l-223 84l27 67l218 -99z" />
    <glyph glyph-name="aacute" unicode="&#xe1;" horiz-adv-x="502" 
d="M181 -10q-69 0 -105 39t-36 114q0 49 17 80t51.5 47.5t85.5 20.5l154 15v43q0 51 -22.5 72t-66.5 21q-25 0 -59.5 -2t-68.5 -5t-60 -6l-4 59q24 5 58 10t71 8.5t68 3.5q57 0 93 -17.5t52.5 -53t16.5 -90.5v-253q2 -22 17.5 -32t39.5 -13l-3 -61q-14 0 -27 1t-24.5 3.5
t-22.5 5.5q-13 5 -24.5 12t-22.5 17q-19 -8 -48.5 -17t-63 -15.5t-66.5 -6.5zM194 55q27 0 56 5t55 12t43 13v163l-145 -14q-45 -4 -64.5 -26t-19.5 -63q0 -42 19 -66t56 -24zM138 590l-21 52l218 99l26 -67z" />
    <glyph glyph-name="acircumflex" unicode="&#xe2;" horiz-adv-x="502" 
d="M181 -10q-69 0 -105 39t-36 114q0 49 17 80t51.5 47.5t85.5 20.5l154 15v43q0 51 -22.5 72t-66.5 21q-25 0 -59.5 -2t-68.5 -5t-60 -6l-4 59q24 5 58 10t71 8.5t68 3.5q57 0 93 -17.5t52.5 -53t16.5 -90.5v-253q2 -22 17.5 -32t39.5 -13l-3 -61q-14 0 -27 1t-24.5 3.5
t-22.5 5.5q-13 5 -24.5 12t-22.5 17q-19 -8 -48.5 -17t-63 -15.5t-66.5 -6.5zM194 55q27 0 56 5t55 12t43 13v163l-145 -14q-45 -4 -64.5 -26t-19.5 -63q0 -42 19 -66t56 -24zM94 591l123 141h52l125 -141h-77l-73 86l-72 -86h-78z" />
    <glyph glyph-name="atilde" unicode="&#xe3;" horiz-adv-x="502" 
d="M181 -10q-69 0 -105 39t-36 114q0 49 17 80t51.5 47.5t85.5 20.5l154 15v43q0 51 -22.5 72t-66.5 21q-25 0 -59.5 -2t-68.5 -5t-60 -6l-4 59q24 5 58 10t71 8.5t68 3.5q57 0 93 -17.5t52.5 -53t16.5 -90.5v-253q2 -22 17.5 -32t39.5 -13l-3 -61q-14 0 -27 1t-24.5 3.5
t-22.5 5.5q-13 5 -24.5 12t-22.5 17q-19 -8 -48.5 -17t-63 -15.5t-66.5 -6.5zM194 55q27 0 56 5t55 12t43 13v163l-145 -14q-45 -4 -64.5 -26t-19.5 -63q0 -42 19 -66t56 -24zM306 611q-15 0 -34 7t-38.5 16t-37 16t-29.5 7q-13 0 -35 -13.5t-38 -25.5l-18 49q11 11 26.5 23
t32.5 20.5t32 8.5q16 0 35 -7t38.5 -15.5t36.5 -15.5t28 -7q12 0 33.5 12.5t36.5 25.5l18 -50q-10 -11 -24.5 -23t-31 -20t-31.5 -8z" />
    <glyph glyph-name="adieresis" unicode="&#xe4;" horiz-adv-x="502" 
d="M181 -10q-69 0 -105 39t-36 114q0 49 17 80t51.5 47.5t85.5 20.5l154 15v43q0 51 -22.5 72t-66.5 21q-25 0 -59.5 -2t-68.5 -5t-60 -6l-4 59q24 5 58 10t71 8.5t68 3.5q57 0 93 -17.5t52.5 -53t16.5 -90.5v-253q2 -22 17.5 -32t39.5 -13l-3 -61q-14 0 -27 1t-24.5 3.5
t-22.5 5.5q-13 5 -24.5 12t-22.5 17q-19 -8 -48.5 -17t-63 -15.5t-66.5 -6.5zM194 55q27 0 56 5t55 12t43 13v163l-145 -14q-45 -4 -64.5 -26t-19.5 -63q0 -42 19 -66t56 -24zM327 620v92h75v-92h-75zM126 620v92h75v-92h-75z" />
    <glyph glyph-name="aring" unicode="&#xe5;" horiz-adv-x="502" 
d="M181 -10q-69 0 -105 39t-36 114q0 49 17 80t51.5 47.5t85.5 20.5l154 15v43q0 51 -22.5 72t-66.5 21q-25 0 -59.5 -2t-68.5 -5t-60 -6l-4 59q24 5 58 10t71 8.5t68 3.5q57 0 93 -17.5t52.5 -53t16.5 -90.5v-253q2 -22 17.5 -32t39.5 -13l-3 -61q-14 0 -27 1t-24.5 3.5
t-22.5 5.5q-13 5 -24.5 12t-22.5 17q-19 -8 -48.5 -17t-63 -15.5t-66.5 -6.5zM194 55q27 0 56 5t55 12t43 13v163l-145 -14q-45 -4 -64.5 -26t-19.5 -63q0 -42 19 -66t56 -24zM256 540q-45 0 -75 30t-30 75q0 29 14 52.5t37.5 37.5t53.5 14q44 0 74 -30t30 -74
q0 -45 -30 -75t-74 -30zM256 589q16 0 28 7.5t19 20t7 28.5q0 23 -15.5 39t-38.5 16q-15 0 -27.5 -7.5t-20 -20t-7.5 -27.5q0 -24 16 -40t39 -16z" />
    <glyph glyph-name="ae" unicode="&#xe6;" horiz-adv-x="803" 
d="M176 -10q-67 0 -101.5 40t-34.5 113q0 56 19.5 86.5t59.5 45t101 20.5l128 11v41q0 46 -22 67t-63 21q-27 0 -62 -1.5t-69 -3.5t-59 -5l-3 70q26 3 61 6.5t71.5 6t64.5 2.5q51 0 84.5 -17.5t49.5 -53.5q27 38 67 54.5t89 16.5q100 0 151 -55.5t51 -178.5l-5 -59h-328
q0 -77 28.5 -116.5t101.5 -39.5q28 0 61.5 1.5t66 3.5t55.5 4l2 -63q-24 -4 -58 -8t-70.5 -6.5t-66.5 -2.5q-52 0 -88 14t-59 39q-36 -16 -71 -28t-72 -18.5t-80 -6.5zM189 58q24 0 51.5 4.5t52.5 10.5t44 11.5t27 8.5q-10 26 -14 69t-4 81l-143 -12q-43 -3 -63.5 -23
t-20.5 -63t18.5 -65t51.5 -22zM426 280h255q0 88 -29.5 124t-94.5 36q-64 0 -97.5 -37t-33.5 -123z" />
    <glyph glyph-name="ccedilla" unicode="&#xe7;" horiz-adv-x="436" 
d="M257 -10q-79 0 -124 26.5t-63.5 85.5t-18.5 156q0 91 20.5 146.5t66.5 80.5t120 25q17 0 41.5 -2.5t50.5 -6t45 -6.5l-3 -64q-17 2 -39 4t-43 3.5t-35 1.5q-57 0 -88.5 -18t-44 -57.5t-12.5 -106.5q0 -73 11 -116.5t42 -62.5t92 -19q14 0 35.5 1.5t44 3.5t39.5 3l2 -64
q-20 -3 -46 -6t-51 -5.5t-42 -2.5zM267 -218q-24 0 -48.5 2t-38.5 5l3 49q9 -1 31 -1.5t34 -0.5q21 0 32.5 8.5t11.5 28.5q0 19 -11.5 26t-32.5 7h-41v95h42v-49q37 0 62 -6.5t37.5 -23.5t12.5 -49q0 -48 -26 -69.5t-68 -21.5z" />
    <glyph glyph-name="egrave" unicode="&#xe8;" horiz-adv-x="505" 
d="M249 -10q-75 0 -118.5 29t-62.5 86t-19 142q0 95 26 152.5t73 84t111 26.5q100 0 151 -55.5t51 -178.5l-4 -59h-329q1 -78 29 -118t101 -40q28 0 61.5 1.5t66.5 3.5t56 4l2 -61q-24 -4 -58.5 -8t-70.5 -6.5t-66 -2.5zM128 280h255q0 92 -29.5 128.5t-94.5 36.5
q-42 0 -71 -16.5t-44.5 -52.5t-15.5 -96zM343 591l-223 84l27 67l218 -99z" />
    <glyph glyph-name="eacute" unicode="&#xe9;" horiz-adv-x="505" 
d="M249 -10q-75 0 -118.5 29t-62.5 86t-19 142q0 95 26 152.5t73 84t111 26.5q100 0 151 -55.5t51 -178.5l-4 -59h-329q1 -78 29 -118t101 -40q28 0 61.5 1.5t66.5 3.5t56 4l2 -61q-24 -4 -58.5 -8t-70.5 -6.5t-66 -2.5zM128 280h255q0 92 -29.5 128.5t-94.5 36.5
q-42 0 -71 -16.5t-44.5 -52.5t-15.5 -96zM164 590l-21 52l218 99l26 -67z" />
    <glyph glyph-name="ecircumflex" unicode="&#xea;" horiz-adv-x="505" 
d="M249 -10q-75 0 -118.5 29t-62.5 86t-19 142q0 95 26 152.5t73 84t111 26.5q100 0 151 -55.5t51 -178.5l-4 -59h-329q1 -78 29 -118t101 -40q28 0 61.5 1.5t66.5 3.5t56 4l2 -61q-24 -4 -58.5 -8t-70.5 -6.5t-66 -2.5zM128 280h255q0 92 -29.5 128.5t-94.5 36.5
q-42 0 -71 -16.5t-44.5 -52.5t-15.5 -96zM111 591l123 141h52l125 -141h-77l-73 86l-72 -86h-78z" />
    <glyph glyph-name="edieresis" unicode="&#xeb;" horiz-adv-x="505" 
d="M249 -10q-75 0 -118.5 29t-62.5 86t-19 142q0 95 26 152.5t73 84t111 26.5q100 0 151 -55.5t51 -178.5l-4 -59h-329q1 -78 29 -118t101 -40q28 0 61.5 1.5t66.5 3.5t56 4l2 -61q-24 -4 -58.5 -8t-70.5 -6.5t-66 -2.5zM128 280h255q0 92 -29.5 128.5t-94.5 36.5
q-42 0 -71 -16.5t-44.5 -52.5t-15.5 -96zM342 620v92h75v-92h-75zM141 620v92h75v-92h-75z" />
    <glyph glyph-name="igrave" unicode="&#xec;" horiz-adv-x="221" 
d="M72 0v500h77v-500h-77zM163 590l-223 84l27 67l218 -99z" />
    <glyph glyph-name="iacute" unicode="&#xed;" horiz-adv-x="221" 
d="M72 0v500h77v-500h-77zM59 590l-21 52l218 99l26 -67z" />
    <glyph glyph-name="icircumflex" unicode="&#xee;" horiz-adv-x="221" 
d="M72 0v500h77v-500h-77zM-42 591l123 141h52l125 -141h-77l-73 86l-72 -86h-78z" />
    <glyph glyph-name="idieresis" unicode="&#xef;" horiz-adv-x="221" 
d="M72 0v500h77v-500h-77zM192 620v92h75v-92h-75zM-9 620v92h75v-92h-75z" />
    <glyph glyph-name="eth" unicode="&#xf0;" horiz-adv-x="549" 
d="M266 -9q-106 0 -165 57t-59 167q0 65 24 113.5t71 75.5t115 27q27 0 57.5 -6t59 -14t47.5 -16q-3 44 -20.5 84.5t-54.5 75t-97 63.5t-149 51l15 58q126 -24 212.5 -71.5t131 -122t44.5 -181.5q0 -129 -23.5 -208.5t-74.5 -116t-134 -36.5zM266 62q53 0 85.5 24.5t48.5 82
t16 156.5q-18 8 -45.5 16t-57 13.5t-56.5 5.5q-43 0 -73 -19.5t-45 -52t-15 -73.5q0 -73 35.5 -113t106.5 -40zM159 518l-35 48l262 176l35 -49z" />
    <glyph glyph-name="ntilde" unicode="&#xf1;" horiz-adv-x="538" 
d="M72 0v500h77v-35q17 10 42.5 20t54.5 17.5t56 7.5q52 0 85 -13.5t51.5 -43t26 -76t7.5 -112.5v-265h-78v262q0 65 -7.5 104t-30 56.5t-68.5 17.5q-25 0 -51.5 -5.5t-49.5 -14t-38 -16.5v-404h-77zM349 611q-15 0 -34 7t-38.5 16t-37 16t-29.5 7q-13 0 -35 -13.5
t-38 -25.5l-18 49q11 11 26.5 23t32.5 20.5t32 8.5q16 0 35 -7t38.5 -15.5t36.5 -15.5t28 -7q12 0 33.5 12.5t36.5 25.5l18 -50q-10 -11 -24.5 -23t-31 -20t-31.5 -8z" />
    <glyph glyph-name="ograve" unicode="&#xf2;" horiz-adv-x="529" 
d="M264 -10q-84 0 -130.5 29t-65 88t-18.5 149q0 86 20.5 142t67.5 84t126 28q80 0 127 -28t67.5 -84t20.5 -142q0 -90 -18.5 -149t-65 -88t-131.5 -29zM264 57q58 0 87 20.5t38.5 64.5t9.5 114q0 69 -12 110t-41 59t-82 18q-52 0 -81.5 -18t-41.5 -59t-12 -110
q0 -70 9.5 -114t38.5 -64.5t87 -20.5zM363 590l-223 84l27 67l218 -99z" />
    <glyph glyph-name="oacute" unicode="&#xf3;" horiz-adv-x="529" 
d="M264 -10q-84 0 -130.5 29t-65 88t-18.5 149q0 86 20.5 142t67.5 84t126 28q80 0 127 -28t67.5 -84t20.5 -142q0 -90 -18.5 -149t-65 -88t-131.5 -29zM264 57q58 0 87 20.5t38.5 64.5t9.5 114q0 69 -12 110t-41 59t-82 18q-52 0 -81.5 -18t-41.5 -59t-12 -110
q0 -70 9.5 -114t38.5 -64.5t87 -20.5zM173 590l-21 52l218 99l26 -67z" />
    <glyph glyph-name="ocircumflex" unicode="&#xf4;" horiz-adv-x="529" 
d="M264 -10q-84 0 -130.5 29t-65 88t-18.5 149q0 86 20.5 142t67.5 84t126 28q80 0 127 -28t67.5 -84t20.5 -142q0 -90 -18.5 -149t-65 -88t-131.5 -29zM264 57q58 0 87 20.5t38.5 64.5t9.5 114q0 69 -12 110t-41 59t-82 18q-52 0 -81.5 -18t-41.5 -59t-12 -110
q0 -70 9.5 -114t38.5 -64.5t87 -20.5zM112 591l123 141h52l125 -141h-77l-73 86l-72 -86h-78z" />
    <glyph glyph-name="otilde" unicode="&#xf5;" horiz-adv-x="529" 
d="M264 -10q-84 0 -130.5 29t-65 88t-18.5 149q0 86 20.5 142t67.5 84t126 28q80 0 127 -28t67.5 -84t20.5 -142q0 -90 -18.5 -149t-65 -88t-131.5 -29zM264 57q58 0 87 20.5t38.5 64.5t9.5 114q0 69 -12 110t-41 59t-82 18q-52 0 -81.5 -18t-41.5 -59t-12 -110
q0 -70 9.5 -114t38.5 -64.5t87 -20.5zM334 611q-15 0 -34 7t-38.5 16t-37 16t-29.5 7q-13 0 -35 -13.5t-38 -25.5l-18 49q11 11 26.5 23t32.5 20.5t32 8.5q16 0 35 -7t38.5 -15.5t36.5 -15.5t28 -7q12 0 33.5 12.5t36.5 25.5l18 -50q-10 -11 -24.5 -23t-31 -20t-31.5 -8z
" />
    <glyph glyph-name="odieresis" unicode="&#xf6;" horiz-adv-x="529" 
d="M264 -10q-84 0 -130.5 29t-65 88t-18.5 149q0 86 20.5 142t67.5 84t126 28q80 0 127 -28t67.5 -84t20.5 -142q0 -90 -18.5 -149t-65 -88t-131.5 -29zM264 57q58 0 87 20.5t38.5 64.5t9.5 114q0 69 -12 110t-41 59t-82 18q-52 0 -81.5 -18t-41.5 -59t-12 -110
q0 -70 9.5 -114t38.5 -64.5t87 -20.5zM347 620v92h75v-92h-75zM146 620v92h75v-92h-75z" />
    <glyph glyph-name="divide" unicode="&#xf7;" 
d="M55 215v72h450v-72h-450zM240 30v102h79v-102h-79zM240 370v102h79v-102h-79z" />
    <glyph glyph-name="oslash" unicode="&#xf8;" horiz-adv-x="529" 
d="M146 -111l-52 19l286 698l52 -19zM146 -111l-52 19l286 698l52 -19zM264 -10q-84 0 -130.5 29t-65 88t-18.5 149q0 86 20.5 142t67.5 84t126 28q80 0 127 -28t67.5 -84t20.5 -142q0 -90 -18.5 -149t-65 -88t-131.5 -29zM264 57q58 0 87 20.5t38.5 64.5t9.5 114
q0 69 -12 110t-41 59t-82 18q-52 0 -81.5 -18t-41.5 -59t-12 -110q0 -70 9.5 -114t38.5 -64.5t87 -20.5z" />
    <glyph glyph-name="ugrave" unicode="&#xf9;" horiz-adv-x="532" 
d="M224 -10q-64 0 -98 26t-46.5 81t-12.5 142v261h77v-261q0 -66 6.5 -105t28.5 -56.5t66 -17.5t80 12t58 24v404h77v-500h-77v35q-32 -18 -69.5 -31.5t-89.5 -13.5zM336 590l-223 84l27 67l218 -99z" />
    <glyph glyph-name="uacute" unicode="&#xfa;" horiz-adv-x="532" 
d="M224 -10q-64 0 -98 26t-46.5 81t-12.5 142v261h77v-261q0 -66 6.5 -105t28.5 -56.5t66 -17.5t80 12t58 24v404h77v-500h-77v35q-32 -18 -69.5 -31.5t-89.5 -13.5zM175 590l-21 52l218 99l26 -67z" />
    <glyph glyph-name="ucircumflex" unicode="&#xfb;" horiz-adv-x="532" 
d="M224 -10q-64 0 -98 26t-46.5 81t-12.5 142v261h77v-261q0 -66 6.5 -105t28.5 -56.5t66 -17.5t80 12t58 24v404h77v-500h-77v35q-32 -18 -69.5 -31.5t-89.5 -13.5zM104 591l123 141h52l125 -141h-77l-73 86l-72 -86h-78z" />
    <glyph glyph-name="udieresis" unicode="&#xfc;" horiz-adv-x="532" 
d="M224 -10q-64 0 -98 26t-46.5 81t-12.5 142v261h77v-261q0 -66 6.5 -105t28.5 -56.5t66 -17.5t80 12t58 24v404h77v-500h-77v35q-32 -18 -69.5 -31.5t-89.5 -13.5zM354 620v92h75v-92h-75zM153 620v92h75v-92h-75z" />
    <glyph glyph-name="yacute" unicode="&#xfd;" horiz-adv-x="484" 
d="M176 -221l65 221h-75l-141 500h78l122 -433h34l123 433h78l-206 -721h-78zM173 590l-21 52l218 99l26 -67z" />
    <glyph glyph-name="thorn" unicode="&#xfe;" horiz-adv-x="528" 
d="M72 -221v938h77v-241q17 8 41 15.5t51.5 13t52.5 5.5q68 0 108.5 -25t58 -80.5t17.5 -146.5q0 -99 -21 -157.5t-71 -84.5t-136 -26q-22 0 -51.5 2.5t-49.5 4.5v-218h-77zM245 58q65 0 98 21.5t44 65.5t11 112q0 65 -10 105t-34.5 59t-67.5 19q-24 0 -50 -4.5t-49 -11
t-38 -12.5v-348q21 -2 50 -4t46 -2z" />
    <glyph glyph-name="ydieresis" unicode="&#xff;" horiz-adv-x="484" 
d="M176 -221l65 221h-75l-141 500h78l122 -433h34l123 433h78l-206 -721h-78zM327 620v92h75v-92h-75zM126 620v92h75v-92h-75z" />
    <glyph glyph-name="Amacron" unicode="&#x100;" horiz-adv-x="596" 
d="M23 0l189 691h173l188 -691h-80l-49 175h-292l-49 -175h-80zM169 246h258l-103 377h-52zM141 810v61h313v-61h-313z" />
    <glyph glyph-name="amacron" unicode="&#x101;" horiz-adv-x="502" 
d="M181 -10q-69 0 -105 39t-36 114q0 49 17 80t51.5 47.5t85.5 20.5l154 15v43q0 51 -22.5 72t-66.5 21q-25 0 -59.5 -2t-68.5 -5t-60 -6l-4 59q24 5 58 10t71 8.5t68 3.5q57 0 93 -17.5t52.5 -53t16.5 -90.5v-253q2 -22 17.5 -32t39.5 -13l-3 -61q-14 0 -27 1t-24.5 3.5
t-22.5 5.5q-13 5 -24.5 12t-22.5 17q-19 -8 -48.5 -17t-63 -15.5t-66.5 -6.5zM194 55q27 0 56 5t55 12t43 13v163l-145 -14q-45 -4 -64.5 -26t-19.5 -63q0 -42 19 -66t56 -24zM111 623v61h276v-61h-276z" />
    <glyph glyph-name="Abreve" unicode="&#x102;" horiz-adv-x="596" 
d="M23 0l189 691h173l188 -691h-80l-49 175h-292l-49 -175h-80zM169 246h258l-103 377h-52zM296 785q-47 0 -81.5 17t-54.5 47t-22 69h72q2 -34 26.5 -54t59.5 -20q36 0 61 20t26 54h72q-2 -39 -22 -69t-54.5 -47t-82.5 -17z" />
    <glyph glyph-name="abreve" unicode="&#x103;" horiz-adv-x="502" 
d="M181 -10q-69 0 -105 39t-36 114q0 49 17 80t51.5 47.5t85.5 20.5l154 15v43q0 51 -22.5 72t-66.5 21q-25 0 -59.5 -2t-68.5 -5t-60 -6l-4 59q24 5 58 10t71 8.5t68 3.5q57 0 93 -17.5t52.5 -53t16.5 -90.5v-253q2 -22 17.5 -32t39.5 -13l-3 -61q-14 0 -27 1t-24.5 3.5
t-22.5 5.5q-13 5 -24.5 12t-22.5 17q-19 -8 -48.5 -17t-63 -15.5t-66.5 -6.5zM194 55q27 0 56 5t55 12t43 13v163l-145 -14q-45 -4 -64.5 -26t-19.5 -63q0 -42 19 -66t56 -24zM252 591q-45 0 -78 19t-51 51t-20 70h63q2 -37 24.5 -60t61.5 -23q40 0 62.5 23.5t23.5 59.5h63
q-1 -29 -12 -54.5t-30 -44.5t-46 -30t-61 -11z" />
    <glyph glyph-name="Aogonek" unicode="&#x104;" horiz-adv-x="596" 
d="M23 0l189 691h173l188 -691h-80l-49 175h-292l-49 -175h-80zM169 246h258l-103 377h-52zM515 -207q-31 0 -52.5 12.5t-32 31.5t-10.5 40q0 24 12.5 48t31.5 45.5t38 37.5l63 -8q-21 -19 -37 -38t-25 -36.5t-9 -32.5q0 -16 10.5 -26.5t30.5 -10.5q9 0 23.5 2.5t24.5 3.5
l10 -60q-19 -3 -41 -6t-37 -3z" />
    <glyph glyph-name="aogonek" unicode="&#x105;" horiz-adv-x="502" 
d="M181 -10q-69 0 -105 39t-36 114q0 49 17 80t51.5 47.5t85.5 20.5l154 15v43q0 51 -22.5 72t-66.5 21q-25 0 -59.5 -2t-68.5 -5t-60 -6l-4 59q24 5 58 10t71 8.5t68 3.5q57 0 93 -17.5t52.5 -53t16.5 -90.5v-253q2 -22 17.5 -32t39.5 -13l-3 -61q-14 0 -27 1t-24.5 3.5
t-22.5 5.5q-13 5 -24.5 12t-22.5 17q-19 -8 -48.5 -17t-63 -15.5t-66.5 -6.5zM194 55q27 0 56 5t55 12t43 13v163l-145 -14q-45 -4 -64.5 -26t-19.5 -63q0 -42 19 -66t56 -24zM405 -207q-31 0 -52.5 12.5t-32 31.5t-10.5 40q0 24 12.5 48t31.5 45.5t38 37.5l63 -8
q-21 -19 -37 -38t-25 -36.5t-9 -32.5q0 -16 10.5 -26.5t30.5 -10.5q9 0 23.5 2.5t24.5 3.5l10 -60q-19 -3 -41 -6t-37 -3z" />
    <glyph glyph-name="Cacute" unicode="&#x106;" horiz-adv-x="544" 
d="M312 -10q-78 0 -127.5 23t-77.5 68t-38.5 111t-10.5 152q0 88 10.5 155t38.5 112t77.5 68t127.5 23q36 0 71.5 -3.5t66.5 -9t53 -10.5l-3 -67q-22 4 -54 8t-65 7t-60 3q-57 0 -92.5 -17t-54.5 -52.5t-26 -89t-7 -127.5q0 -72 7 -125.5t25.5 -88t54.5 -51.5t94 -17
q42 0 92.5 5.5t85.5 11.5l3 -68q-24 -5 -56 -10t-67 -8t-68 -3zM203 776l-23 56l218 100l26 -69z" />
    <glyph glyph-name="cacute" unicode="&#x107;" horiz-adv-x="436" 
d="M257 -10q-79 0 -124 26.5t-63.5 85.5t-18.5 156q0 91 20.5 146.5t66.5 80.5t120 25q17 0 41.5 -2.5t50.5 -6t45 -6.5l-3 -64q-17 2 -39 4t-43 3.5t-35 1.5q-57 0 -88.5 -18t-44 -57.5t-12.5 -106.5q0 -73 11 -116.5t42 -62.5t92 -19q14 0 35.5 1.5t44 3.5t39.5 3l2 -64
q-20 -3 -46 -6t-51 -5.5t-42 -2.5zM146 590l-21 52l218 99l26 -67z" />
    <glyph glyph-name="Ccircumflex" unicode="&#x108;" horiz-adv-x="544" 
d="M312 -10q-78 0 -127.5 23t-77.5 68t-38.5 111t-10.5 152q0 88 10.5 155t38.5 112t77.5 68t127.5 23q36 0 71.5 -3.5t66.5 -9t53 -10.5l-3 -67q-22 4 -54 8t-65 7t-60 3q-57 0 -92.5 -17t-54.5 -52.5t-26 -89t-7 -127.5q0 -72 7 -125.5t25.5 -88t54.5 -51.5t94 -17
q42 0 92.5 5.5t85.5 11.5l3 -68q-24 -5 -56 -10t-67 -8t-68 -3zM142 790l134 135h68l134 -135h-87l-80 79l-81 -79h-88z" />
    <glyph glyph-name="ccircumflex" unicode="&#x109;" horiz-adv-x="436" 
d="M257 -10q-79 0 -124 26.5t-63.5 85.5t-18.5 156q0 91 20.5 146.5t66.5 80.5t120 25q17 0 41.5 -2.5t50.5 -6t45 -6.5l-3 -64q-17 2 -39 4t-43 3.5t-35 1.5q-57 0 -88.5 -18t-44 -57.5t-12.5 -106.5q0 -73 11 -116.5t42 -62.5t92 -19q14 0 35.5 1.5t44 3.5t39.5 3l2 -64
q-20 -3 -46 -6t-51 -5.5t-42 -2.5zM82 591l123 141h52l125 -141h-77l-73 86l-72 -86h-78z" />
    <glyph glyph-name="Cdotaccent" unicode="&#x10a;" horiz-adv-x="544" 
d="M312 -10q-78 0 -127.5 23t-77.5 68t-38.5 111t-10.5 152q0 88 10.5 155t38.5 112t77.5 68t127.5 23q36 0 71.5 -3.5t66.5 -9t53 -10.5l-3 -67q-22 4 -54 8t-65 7t-60 3q-57 0 -92.5 -17t-54.5 -52.5t-26 -89t-7 -127.5q0 -72 7 -125.5t25.5 -88t54.5 -51.5t94 -17
q42 0 92.5 5.5t85.5 11.5l3 -68q-24 -5 -56 -10t-67 -8t-68 -3zM253 796v89h78v-89h-78z" />
    <glyph glyph-name="cdotaccent" unicode="&#x10b;" horiz-adv-x="436" 
d="M257 -10q-79 0 -124 26.5t-63.5 85.5t-18.5 156q0 91 20.5 146.5t66.5 80.5t120 25q17 0 41.5 -2.5t50.5 -6t45 -6.5l-3 -64q-17 2 -39 4t-43 3.5t-35 1.5q-57 0 -88.5 -18t-44 -57.5t-12.5 -106.5q0 -73 11 -116.5t42 -62.5t92 -19q14 0 35.5 1.5t44 3.5t39.5 3l2 -64
q-20 -3 -46 -6t-51 -5.5t-42 -2.5zM212 607v89h78v-89h-78z" />
    <glyph glyph-name="Ccaron" unicode="&#x10c;" horiz-adv-x="544" 
d="M312 -10q-78 0 -127.5 23t-77.5 68t-38.5 111t-10.5 152q0 88 10.5 155t38.5 112t77.5 68t127.5 23q36 0 71.5 -3.5t66.5 -9t53 -10.5l-3 -67q-22 4 -54 8t-65 7t-60 3q-57 0 -92.5 -17t-54.5 -52.5t-26 -89t-7 -127.5q0 -72 7 -125.5t25.5 -88t54.5 -51.5t94 -17
q42 0 92.5 5.5t85.5 11.5l3 -68q-24 -5 -56 -10t-67 -8t-68 -3zM270 790l-134 135h87l81 -78l80 78h87l-134 -135h-67z" />
    <glyph glyph-name="ccaron" unicode="&#x10d;" horiz-adv-x="436" 
d="M257 -10q-79 0 -124 26.5t-63.5 85.5t-18.5 156q0 91 20.5 146.5t66.5 80.5t120 25q17 0 41.5 -2.5t50.5 -6t45 -6.5l-3 -64q-17 2 -39 4t-43 3.5t-35 1.5q-57 0 -88.5 -18t-44 -57.5t-12.5 -106.5q0 -73 11 -116.5t42 -62.5t92 -19q14 0 35.5 1.5t44 3.5t39.5 3l2 -64
q-20 -3 -46 -6t-51 -5.5t-42 -2.5zM213 591l-123 141h77l73 -86l73 86h77l-125 -141h-52z" />
    <glyph glyph-name="Dcaron" unicode="&#x10e;" horiz-adv-x="644" 
d="M84 0v691h247q76 0 126 -24.5t79 -69t41 -106t12 -135.5q0 -75 -11.5 -139.5t-40.5 -113.5t-79 -76t-127 -27h-247zM164 71h167q54 0 88 23t53 63t26.5 91t7.5 108q0 56 -7.5 104t-26.5 84t-53 56t-88 20h-167v-549zM262 790l-134 135h87l81 -78l80 78h87l-134 -135h-67z
" />
    <glyph glyph-name="dcaron" unicode="&#x10f;" horiz-adv-x="579" 
d="M519 475l41 208h77l-50 -208h-68zM230 -10q-30 0 -57 6.5t-49.5 22.5t-39.5 44.5t-26 73.5t-9 109q0 89 21 147.5t67 87.5t122 29q19 0 42 -2t44.5 -5t34.5 -6v220h78v-717h-77v33q-16 -9 -41.5 -19t-54 -17t-55.5 -7zM240 60q26 0 52.5 6t49.5 14.5t38 15.5v335
q-12 2 -33 4.5t-43.5 4.5t-40.5 2q-51 0 -80 -22t-41.5 -65.5t-12.5 -108.5q0 -60 9 -96.5t24.5 -56t35.5 -26.5t42 -7z" />
    <glyph glyph-name="Dcroat" unicode="&#x110;" horiz-adv-x="647" 
d="M20 309v77h303v-77h-303zM87 0v691h247q76 0 126 -24.5t79 -69t41 -106t12 -135.5q0 -75 -11.5 -139.5t-40.5 -113.5t-79 -76t-127 -27h-247zM167 71h167q54 0 88 23t53 63t26.5 91t7.5 108q0 56 -7.5 104t-26.5 84t-53 56t-88 20h-167v-549z" />
    <glyph glyph-name="dcroat" unicode="&#x111;" horiz-adv-x="530" 
d="M185 622v68h293v-68h-293zM230 -10q-30 0 -57 6.5t-49.5 22.5t-39.5 44.5t-26 73.5t-9 109q0 89 21 147.5t67 87.5t122 29q19 0 42 -2t44.5 -5t34.5 -6v220h78v-717h-77v33q-16 -9 -41.5 -19t-54 -17t-55.5 -7zM240 60q26 0 52.5 6t49.5 14.5t38 15.5v335q-12 2 -33 4.5
t-43.5 4.5t-40.5 2q-51 0 -80 -22t-41.5 -65.5t-12.5 -108.5q0 -60 9 -96.5t24.5 -56t35.5 -26.5t42 -7z" />
    <glyph glyph-name="Emacron" unicode="&#x112;" horiz-adv-x="553" 
d="M84 0v691h423v-71h-343v-234h283v-70h-283v-245h343v-71h-423zM137 810v61h313v-61h-313z" />
    </font>
</defs>
</svg>
